<svg width="180" height="180" viewBox="0 0 180 180" fill="none" xmlns="http://www.w3.org/2000/svg">
<path d="M90 2.00001C90 13.819 87.6721 25.5222 83.1491 36.4415C78.6262 47.3608 71.9969 57.2824 63.6396 65.6396C55.2823 73.9969 45.3608 80.6263 34.4414 85.1492C23.5221 89.6721 11.8189 92 -8.39233e-05 92L0 2L90 2.00001Z" fill="#C424A3"/>
<path d="M90 180C90 168.181 92.3279 156.478 96.8509 145.558C101.374 134.639 108.003 124.718 116.36 116.36C124.718 108.003 134.639 101.374 145.559 96.8508C156.478 92.3279 168.181 90 180 90L180 180L90 180Z" fill="#C424A3"/>
<path d="M90 180C90 168.181 87.6721 156.478 83.1491 145.558C78.6262 134.639 71.9969 124.718 63.6396 116.36C55.2823 108.003 45.3608 101.374 34.4414 96.8508C23.5221 92.3279 11.8189 90 -8.39233e-05 90L0 180L90 180Z" fill="#5038BC"/>
<path d="M90 2.00001C90 13.819 92.3279 25.5222 96.8509 36.4415C101.374 47.3608 108.003 57.2824 116.36 65.6396C124.718 73.9969 134.639 80.6263 145.559 85.1492C156.478 89.6721 168.181 92 180 92L180 2L90 2.00001Z" fill="#5038BC"/>
<path fill-rule="evenodd" clip-rule="evenodd" d="M34.4044 83.1492C23.4965 87.6674 11.8063 89.9952 -4.57764e-05 90.0001H89.9629V0C89.9629 11.819 87.635 23.5222 83.1121 34.4415C78.5892 45.3608 71.9598 55.2824 63.6025 63.6397C55.2453 71.9969 45.3237 78.6263 34.4044 83.1492Z" fill="#FFD668"/>
<path fill-rule="evenodd" clip-rule="evenodd" d="M34.4044 96.8508C23.4965 92.3326 11.8063 90.0048 -4.57764e-05 89.9999H89.9629V180C89.9629 168.181 87.635 156.478 83.1121 145.558C78.5892 134.639 71.9598 124.718 63.6025 116.36C55.2453 108.003 45.3237 101.374 34.4044 96.8508Z" fill="#FFD668"/>
<path fill-rule="evenodd" clip-rule="evenodd" d="M145.558 83.1492C156.466 87.6674 168.157 89.9952 179.963 90.0001H90V0C90 11.819 92.3279 23.5222 96.8508 34.4415C101.374 45.3608 108.003 55.2824 116.36 63.6397C124.718 71.9969 134.639 78.6263 145.558 83.1492Z" fill="#FFD668"/>
<path fill-rule="evenodd" clip-rule="evenodd" d="M145.558 96.8508C156.466 92.3326 168.157 90.0048 179.963 89.9999H90V180C90 168.181 92.3279 156.478 96.8508 145.558C101.374 134.639 108.003 124.718 116.36 116.36C124.718 108.003 134.639 101.374 145.558 96.8508Z" fill="#FFD668"/>
</svg>
