<svg width="184" height="226" viewBox="0 0 184 226" fill="none" xmlns="http://www.w3.org/2000/svg">
<g clip-path="url(#clip0_3320_11521)">
<path fill-rule="evenodd" clip-rule="evenodd" d="M153.215 143.358C154.34 143.716 155.452 144.122 156.546 144.575C161.619 146.676 166.228 149.756 170.111 153.639C173.993 157.521 177.073 162.131 179.174 167.204C181.275 172.276 182.357 177.713 182.357 183.204H140.545V183.206H182.357V184.281H102.292V143.358H153.215Z" fill="#5038BC"/>
<path fill-rule="evenodd" clip-rule="evenodd" d="M147.977 224.268H102.292V184.001H182.356C182.327 189.329 181.246 194.601 179.174 199.525C177.073 204.517 173.993 209.052 170.11 212.873C166.228 216.693 161.618 219.724 156.545 221.791C153.781 222.918 150.908 223.747 147.977 224.268ZM182.357 184.001H182.357V224.268H182.357V184.001Z" fill="#C424A3"/>
</g>
<path d="M43.5225 80.7768C43.5225 75.4187 44.5778 70.1132 46.6282 65.163C48.6787 60.2128 51.684 55.715 55.4727 51.9263C59.2614 48.1376 63.7593 45.1323 68.7094 43.0818C73.6596 41.0314 78.9652 39.9761 84.3232 39.9761L84.3231 80.7768L43.5225 80.7768Z" fill="#C424A3"/>
<path d="M44.3848 80.0748C44.3848 74.8225 43.3502 69.6216 41.3403 64.7691C39.3303 59.9166 36.3842 55.5075 32.6703 51.7935C28.9563 48.0796 24.5472 45.1335 19.6947 43.1236C14.8422 41.1136 9.64136 40.0791 4.38905 40.0791L4.38908 80.0748L44.3848 80.0748Z" fill="#5038BC"/>
<path fill-rule="evenodd" clip-rule="evenodd" d="M68.6685 43.5885C73.521 41.5785 78.7219 40.544 83.9742 40.544L83.9742 80.5391L83.9742 40.5434L43.9785 40.5434L43.9785 80.5192C43.9812 75.2739 45.0156 70.0802 47.023 65.234C49.033 60.3815 51.979 55.9724 55.693 52.2585C59.4069 48.5445 63.816 45.5985 68.6685 43.5885Z" fill="#64E6FB"/>
<path fill-rule="evenodd" clip-rule="evenodd" d="M83.9742 0.546392L43.9785 0.546387L43.9785 40.5421L83.8112 40.5421C78.6143 40.5209 73.4708 39.4871 68.6685 37.4979C63.816 35.4879 59.4069 32.5419 55.693 28.8279C51.979 25.114 49.033 20.7049 47.023 15.8524C45.013 10.9999 43.9785 5.79899 43.9785 0.546676L83.9742 0.546719L83.9742 0.546392Z" fill="#64E6FB"/>
<path fill-rule="evenodd" clip-rule="evenodd" d="M19.2895 43.5885C14.437 41.5785 9.23613 40.544 3.98382 40.544L3.98382 40.5434L43.9795 40.5434L43.9795 80.5391L43.9795 80.5391C43.9794 75.287 42.9449 70.0863 40.935 65.234C38.925 60.3815 35.979 55.9724 32.265 52.2585C28.5511 48.5445 24.142 45.5985 19.2895 43.5885Z" fill="#64E6FB"/>
<path fill-rule="evenodd" clip-rule="evenodd" d="M3.98382 0.546381L43.9795 0.546387L43.9795 0.546676L3.98382 0.546708L3.98382 0.546381ZM4.14676 40.5421C9.34367 40.5209 14.4872 39.4871 19.2895 37.4979C24.142 35.4879 28.5511 32.5419 32.265 28.8279C35.979 25.114 38.925 20.7049 40.935 15.8524C42.9424 11.0062 43.9768 5.81254 43.9795 0.567201L43.9795 40.5421L4.14676 40.5421Z" fill="#64E6FB"/>
<rect width="39.9957" height="79.9913" transform="matrix(1.31164e-07 -1 -1 -1.31104e-07 84.3486 119.685)" fill="#FFD668"/>
<path d="M43.9086 159.68L4.35729 119.684L84.3486 119.684L43.9086 159.68Z" fill="#FFD668"/>
<path d="M43.9086 119.685L4.35729 79.6889L84.3486 79.6889L43.9086 119.685Z" fill="#C424A3"/>
<path d="M142.288 182.891L102.292 143.34V223.331L142.288 182.891Z" fill="#64E6FB"/>
<path fill-rule="evenodd" clip-rule="evenodd" d="M62.2969 143.339L102.293 182.89L62.2969 223.33H102.293V182.89V143.339H62.2969Z" fill="#64E6FB"/>
<g clip-path="url(#clip1_3320_11521)">
<circle cx="42.1741" cy="42.1741" r="30.8438" transform="matrix(-1 0 0 1 84.3477 141.216)" stroke="#5038BC" stroke-width="22.6607"/>
<path fill-rule="evenodd" clip-rule="evenodd" d="M62.3473 183.391H42.1758V203.429C42.2097 200.853 42.7334 198.307 43.7197 195.925C44.7402 193.462 46.2359 191.223 48.1215 189.338C50.0071 187.452 52.2457 185.956 54.7093 184.936C57.132 183.932 59.7258 183.408 62.3473 183.391ZM42.1758 203.696H62.4801V183.391H62.4819V203.697H42.1758V203.696Z" fill="#FFD668"/>
<path fill-rule="evenodd" clip-rule="evenodd" d="M22.1539 183.391C24.7754 183.408 27.3691 183.932 29.7919 184.936C32.2555 185.956 34.494 187.452 36.3796 189.338C38.2652 191.223 39.761 193.462 40.7815 195.925C41.8019 198.389 42.3272 201.03 42.3272 203.696H22.022V203.697H42.3281V183.391H22.1539Z" fill="#FFD668"/>
<path fill-rule="evenodd" clip-rule="evenodd" d="M22.117 183.547C24.751 183.534 27.3578 183.01 29.7919 182.001C32.2555 180.981 34.494 179.485 36.3796 177.6C38.2652 175.714 39.761 173.475 40.7815 171.012C41.8019 168.548 42.3272 165.908 42.3272 163.241H22.022V163.241H42.3281V183.547H22.117Z" fill="#FFD668"/>
<path fill-rule="evenodd" clip-rule="evenodd" d="M62.5449 183.547C59.9109 183.534 57.3041 183.01 54.87 182.001C52.4064 180.981 50.1679 179.485 48.2823 177.6C46.3967 175.714 44.9009 173.475 43.8805 171.012C42.86 168.548 42.3348 165.908 42.3348 163.241H62.6401V163.241H42.334V183.547H62.5449Z" fill="#FFD668"/>
</g>
<defs>
<clipPath id="clip0_3320_11521">
<rect width="80.065" height="80.0466" fill="white" transform="translate(102.292 143.356)"/>
</clipPath>
<clipPath id="clip1_3320_11521">
<rect width="84.3483" height="84.3289" fill="white" transform="matrix(-1 0 0 1 84.3486 141.216)"/>
</clipPath>
</defs>
</svg>
