<svg width="180" height="180" viewBox="0 0 180 180" fill="none" xmlns="http://www.w3.org/2000/svg">
<rect width="180" height="180" fill="#C424A3"/>
<path d="M180 0C168.181 1.03325e-06 156.478 2.32792 145.558 6.85085C134.639 11.3738 124.718 18.0031 116.36 26.3604C108.003 34.7177 101.374 44.6392 96.8508 55.5586C92.3279 66.4779 90 78.1811 90 90.0001L180 90L180 0Z" fill="#FFD668"/>
<path d="M7.62939e-06 180C11.819 180 23.5222 177.672 34.4415 173.149C45.3608 168.626 55.2824 161.997 63.6396 153.64C71.9969 145.282 78.6263 135.361 83.1492 124.441C87.6721 113.522 90 101.819 90 89.9999L0 90L7.62939e-06 180Z" fill="#FFD668"/>
</svg>
