<svg width="142" height="80" viewBox="0 0 142 80" fill="none" xmlns="http://www.w3.org/2000/svg">
<g clip-path="url(#clip0_2470_21926)">
<rect width="142" height="80" fill="white"/>
<path fill-rule="evenodd" clip-rule="evenodd" d="M44.0516 39.8563H24.8613V59.0465H24.8617C24.8617 56.5264 25.3581 54.0311 26.3224 51.7029C27.2868 49.3746 28.7004 47.2591 30.4824 45.4771C32.2643 43.6951 34.3799 42.2816 36.7081 41.3172C39.0363 40.3528 41.5316 39.8565 44.0516 39.8564V39.8563Z" fill="#5038BC"/>
<path fill-rule="evenodd" clip-rule="evenodd" d="M44.0516 39.8563H24.8613V59.0465H24.8617C24.8617 56.5264 25.3581 54.0311 26.3224 51.7029C27.2868 49.3746 28.7004 47.2591 30.4824 45.4771C32.2643 43.6951 34.3799 42.2816 36.7081 41.3172C39.0363 40.3528 41.5316 39.8565 44.0516 39.8564V39.8563Z" fill="#5038BC"/>
<path fill-rule="evenodd" clip-rule="evenodd" d="M5.69258 39.8564H24.8828V59.0467H24.8824C24.8824 56.5266 24.386 54.0313 23.4216 51.703C22.4572 49.3748 21.0437 47.2593 19.2617 45.4773C17.4797 43.6953 15.3642 42.2818 13.0359 41.3174C10.7078 40.353 8.21253 39.8567 5.69258 39.8566V39.8564Z" fill="#5038BC"/>
<path fill-rule="evenodd" clip-rule="evenodd" d="M5.69258 39.8564H24.8828V59.0467H24.8824C24.8824 56.5266 24.386 54.0313 23.4216 51.703C22.4572 49.3748 21.0437 47.2593 19.2617 45.4773C17.4797 43.6953 15.3642 42.2818 13.0359 41.3174C10.7078 40.353 8.21253 39.8567 5.69258 39.8566V39.8564Z" fill="#5038BC"/>
<path fill-rule="evenodd" clip-rule="evenodd" d="M5.69258 39.8564H24.8828V20.6662H24.8824C24.8823 23.1861 24.3859 25.6814 23.4216 28.0095C22.4572 30.3378 21.0437 32.4533 19.2617 34.2352C17.4797 36.0172 15.3642 37.4308 13.0359 38.3952C10.7078 39.3595 8.21253 39.8559 5.69258 39.8559V39.8564Z" fill="#5038BC"/>
<path fill-rule="evenodd" clip-rule="evenodd" d="M5.69258 39.8564H24.8828V20.6662H24.8824C24.8823 23.1861 24.3859 25.6814 23.4216 28.0095C22.4572 30.3378 21.0437 32.4533 19.2617 34.2352C17.4797 36.0172 15.3642 37.4308 13.0359 38.3952C10.7078 39.3595 8.21253 39.8559 5.69258 39.8559V39.8564Z" fill="#5038BC"/>
<path fill-rule="evenodd" clip-rule="evenodd" d="M44.0516 39.8563H24.8613V20.666H24.8617C24.8617 23.186 25.3581 25.6812 26.3224 28.0093C27.2868 30.3376 28.7004 32.4531 30.4824 34.2351C32.2643 36.017 34.3799 37.4306 36.7081 38.395C39.0363 39.3593 41.5316 39.8557 44.0516 39.8558V39.8563Z" fill="#5038BC"/>
<path fill-rule="evenodd" clip-rule="evenodd" d="M44.0516 39.8563H24.8613V20.666H24.8617C24.8617 23.186 25.3581 25.6812 26.3224 28.0093C27.2868 30.3376 28.7004 32.4531 30.4824 34.2351C32.2643 36.017 34.3799 37.4306 36.7081 38.395C39.0363 39.3593 41.5316 39.8557 44.0516 39.8558V39.8563Z" fill="#5038BC"/>
<rect x="62.1943" y="79.3992" width="79.3992" height="79.3992" transform="rotate(-90 62.1943 79.3992)" fill="#64E6FB"/>
<rect x="101.895" y="79.3992" width="39.6996" height="79.3992" transform="rotate(-180 101.895 79.3992)" fill="#C424A3"/>
<path d="M141.594 39.7L101.894 0.441521V79.8407L141.594 39.7Z" fill="#FFD668"/>
<path d="M141.594 39.7L101.894 0.441521V79.8407L141.594 39.7Z" fill="#5038BC"/>
<path d="M101.895 39.2585L62.1949 -5.34058e-05L62.1949 79.3992L101.895 39.2585Z" fill="#FFD668"/>
<path d="M101.718 39.4797L62.0182 0.22123L62.0182 79.6205L101.718 39.4797Z" fill="#FFD668"/>
<path fill-rule="evenodd" clip-rule="evenodd" d="M22.3184 79.6208H62.018V39.4801L62.018 0.221565H22.3184L62.018 39.4801L22.3184 79.6208Z" fill="#FFD668"/>
</g>
<defs>
<clipPath id="clip0_2470_21926">
<rect width="142" height="80" fill="white"/>
</clipPath>
</defs>
</svg>
