<svg width="26" height="25" viewBox="0 0 26 25" fill="none" xmlns="http://www.w3.org/2000/svg">
<path d="M25.3222 15.4536V24.7393H19.939V16.0755C19.939 13.8991 19.1604 12.4138 17.2118 12.4138C15.7243 12.4138 14.8392 13.4148 14.4497 14.3831C14.3077 14.7293 14.2712 15.2111 14.2712 15.6956V24.7393H8.88613C8.88613 24.7393 8.95865 10.0658 8.88613 8.54547H14.2706V10.8409C14.2597 10.858 14.2455 10.8766 14.2352 10.8932H14.2706V10.8409C14.986 9.73904 16.2636 8.16503 19.1233 8.16503C22.6662 8.16497 25.3222 10.4795 25.3222 15.4536ZM3.25316 0.739258C1.41095 0.739258 0.205994 1.9476 0.205994 3.53662C0.205994 5.091 1.37609 6.33602 3.18169 6.33602H3.21766C5.09555 6.33602 6.26342 5.09124 6.26342 3.53662C6.22804 1.9476 5.09555 0.739258 3.25316 0.739258ZM0.525817 24.7393H5.9088V8.54547H0.525817V24.7393Z" fill="#333333"/>
</svg>
