<svg width="30" height="25" viewBox="0 0 30 25" fill="none" xmlns="http://www.w3.org/2000/svg">
<path d="M29.206 3.56102C28.1282 4.05052 26.9861 4.37158 25.8169 4.51365C27.0489 3.76983 27.9689 2.57863 28.3977 1.1721C27.2467 1.8706 25.9911 2.36592 24.6825 2.63769C23.7958 1.67062 22.6263 1.03125 21.3539 0.817813C20.0814 0.604378 18.7764 0.828695 17.6392 1.45629C16.5021 2.08389 15.5958 3.08005 15.0596 4.29169C14.5235 5.50334 14.3871 6.86343 14.6714 8.16298C12.3372 8.042 10.0538 7.41441 7.96985 6.32103C5.88587 5.22766 4.04798 3.69301 2.57579 1.81696C2.05924 2.74983 1.78564 3.80523 1.7817 4.88005C1.781 5.87755 2.01882 6.85977 2.47401 7.73935C2.92921 8.61893 3.58767 9.3686 4.39084 9.9217C3.46102 9.901 2.5504 9.64432 1.73916 9.17424V9.24752C1.73784 10.6466 2.20433 12.0031 3.05967 13.0875C3.91501 14.1718 5.10662 14.9174 6.43277 15.1978C5.91342 15.3299 5.37923 15.3891 4.8446 15.3737C4.49085 15.4075 4.13484 15.4075 3.78109 15.3737C4.16169 16.5771 4.89367 17.6291 5.87637 18.3849C6.85906 19.1408 8.0442 19.5634 9.26878 19.5946C7.18495 21.2398 4.63071 22.1215 2.00858 22.1008C1.5349 22.1066 1.06133 22.0821 0.590576 22.0275C3.27522 23.8122 6.40296 24.754 9.59492 24.7389C11.7909 24.7544 13.968 24.3189 15.9997 23.4575C18.0314 22.5961 19.8773 21.3261 21.4301 19.7212C22.9829 18.1163 24.2117 16.2084 25.0451 14.1085C25.8785 12.0086 26.2999 9.75847 26.2849 7.48881C26.2849 7.225 26.2849 6.9612 26.2849 6.71205C27.4336 5.85131 28.423 4.78396 29.206 3.56102Z" fill="#333333"/>
</svg>
