<svg width="93" height="29" viewBox="0 0 93 29" fill="none" xmlns="http://www.w3.org/2000/svg">
<path d="M86.6304 6.75317V13.4298H82.4202V6.75317" fill="#66D9FB"/>
<path d="M86.6304 17.8235V24.5193H82.4202V17.8235" fill="#C28AEB"/>
<path d="M86.5636 13.3787H92.9819V17.8553H86.5636" fill="#7DFA8C"/>
<g style="mix-blend-mode:multiply">
<path d="M76.0018 13.3787H82.4202V17.8553H76.0018" fill="#FF9F1A"/>
</g>
<path d="M86.6304 13.3787H82.4202V17.8233H86.6304V13.3787Z" fill="#FF3838"/>
<path d="M4.91984 28.1389H0.0180664V0H4.91984V10.6096C6.10282 9.13235 8.09265 8.51202 9.82162 8.51202C14.4322 8.51202 16.5676 11.8887 16.5676 16.0903V28.1389H11.6659V16.9793C11.6659 14.8433 10.6709 13.1741 8.31105 13.1741C6.24842 13.1741 5.02904 14.8049 4.91984 16.9025V28.1389Z" fill="#333333"/>
<path d="M24.0114 17.1393L28.4704 16.4358C29.5017 16.2824 29.8353 15.7388 29.8353 15.0801C29.8353 13.7179 28.8404 12.5923 26.8021 12.5923C24.7637 12.5923 23.4836 14.0249 23.338 15.7004L18.9641 14.7091C19.2552 11.7162 21.876 8.41626 26.7414 8.41626C32.4864 8.41626 34.6279 11.8313 34.6279 15.6812V25.0822C34.6321 26.1053 34.7051 27.1268 34.8463 28.1391H30.351C30.2268 27.383 30.1659 26.6169 30.169 25.8496C29.5863 26.7684 28.7877 27.5124 27.851 28.0089C26.9143 28.5054 25.8715 28.7376 24.8244 28.6827C20.9539 28.6827 18.594 25.9263 18.594 22.927C18.594 19.5055 20.9903 17.5998 24.0114 17.1393ZM29.8353 20.4009V19.5439L25.7465 20.1834C24.4907 20.3817 23.4958 21.1171 23.4958 22.5944C23.4958 23.7264 24.2662 24.8136 25.8557 24.8136C27.9244 24.8328 29.8353 23.7839 29.8353 20.4009Z" fill="#333333"/>
<path d="M41.1857 18.5463C41.1857 22.0061 43.3211 23.9503 45.8266 23.9503C46.7615 23.9907 47.682 23.6969 48.4386 23.1164C49.1951 22.5359 49.7434 21.703 49.9943 20.7527L54.3076 22.2683C53.4947 25.4659 50.6677 28.7147 45.8144 28.7147C44.547 28.7368 43.2885 28.488 42.1148 27.9834C40.9411 27.4787 39.8765 26.7286 38.9853 25.7784C38.0941 24.8282 37.3947 23.6974 36.9294 22.4545C36.4641 21.2115 36.2424 19.8821 36.2778 18.5463C36.2778 12.6435 40.4092 8.40991 45.681 8.40991C50.6192 8.40991 53.4219 11.6075 54.1742 14.8563L49.8123 16.4359C49.5978 15.4938 49.0793 14.6597 48.3455 14.0763C47.6117 13.493 46.7084 13.1967 45.7902 13.2383C43.2847 13.2127 41.1857 15.1185 41.1857 18.5463Z" fill="#333333"/>
<path d="M66.3922 17.056L73.8055 28.1389H67.7936L63.001 20.8356L60.9748 23.0867V28.1389H56.073V0H60.9748V16.1287L67.2415 9.01724H73.6539L66.3922 17.056Z" fill="#333333"/>
</svg>
