<svg width="138" height="97" viewBox="0 0 138 97" fill="none" xmlns="http://www.w3.org/2000/svg">
<g clip-path="url(#clip0_287_4407)">
<rect x="0.194702" y="0.600464" width="93.4468" height="95.799" rx="46.7234" fill="#64E6FB"/>
<path d="M4.34808 96.3996L9.02042 75.1109L23.0374 88.4163L4.34808 96.3996Z" fill="#64E6FB" stroke="#64E6FB" stroke-width="5.98744" stroke-linejoin="round"/>
<rect width="93.4468" height="95.799" rx="46.7234" transform="matrix(-1 0 0 1 137.906 0.600464)" fill="#5038BC"/>
<path d="M133.753 96.3996L129.08 75.1109L115.063 88.4163L133.753 96.3996Z" fill="#5038BC" stroke="#5038BC" stroke-width="5.98744" stroke-linejoin="round"/>
<path d="M67.7498 35.8948C67.1399 35.8948 66.6526 36.5933 66.649 37.4608L66.5912 51.4802C66.5859 52.3477 67.0822 53.0521 67.6919 53.046L78.1177 52.941C79.0273 53.569 77.7555 57.6324 74.428 59.1977C71.6025 60.5269 74.299 63.1767 74.1616 63.6261C78.8041 62.5922 80.5369 60.9599 81.7367 60.1738C83.643 58.7597 86.6135 55.0666 87.3549 52.3182C87.464 52.0751 87.4345 51.7911 87.4358 51.4801L87.4937 37.4607C87.4989 36.5932 87.0027 35.8948 86.3927 35.8948L67.7498 35.8948Z" fill="#FFD668"/>
<path d="M96.0298 35.8948C95.4199 35.8948 94.9325 36.5933 94.9289 37.4608L94.8711 51.4802C94.8659 52.3477 95.3622 53.0521 95.9719 53.046L106.398 52.941C107.307 53.569 106.035 57.6324 102.708 59.1977C99.8825 60.5269 102.579 63.1767 102.442 63.6261C107.084 62.5922 108.817 60.9599 110.017 60.1738C111.923 58.7597 114.894 55.0666 115.635 52.3182C115.744 52.0751 115.714 51.7911 115.716 51.4801L115.774 37.4607C115.779 36.5932 115.283 35.8948 114.673 35.8948L96.0298 35.8948Z" fill="#FFD668"/>
</g>
<defs>
<clipPath id="clip0_287_4407">
<rect width="137.711" height="95.799" fill="white" transform="translate(0.194702 0.600464)"/>
</clipPath>
</defs>
</svg>
