<svg width="20" height="20" viewBox="0 0 20 20" fill="none" xmlns="http://www.w3.org/2000/svg">
<path d="M9.74625 1.85554C9.41438 1.86492 9.0725 1.90179 8.73063 1.95304H8.71125C5.38313 2.49742 2.6875 5.11929 2.01063 8.43742C1.80875 9.38242 1.82063 10.2637 1.9525 11.133C1.9575 11.1349 1.9525 11.1474 1.9525 11.1518C2.1575 12.6193 4.06188 13.2618 5.13625 12.1874C5.905 11.4187 7.0425 11.4187 7.81188 12.1874C8.58063 12.9562 8.58063 14.0937 7.81188 14.863C6.7375 15.9374 7.38 17.8418 8.84688 18.0468C8.85188 18.0468 8.86438 18.0418 8.86625 18.0468C9.72875 18.178 10.605 18.1862 11.5425 17.988H11.5619C14.8894 17.368 17.5044 14.6093 18.0463 11.2893V11.2693C18.7544 6.49429 15.2631 2.32429 10.7219 1.89429C10.3976 1.86053 10.0715 1.84759 9.74563 1.85554H9.74625ZM9.76563 3.10554C10.0458 3.09482 10.3263 3.10129 10.6056 3.12492C11.5481 3.21231 12.4627 3.49177 13.2931 3.94607C14.1235 4.40037 14.852 5.01989 15.4339 5.76646C16.0158 6.51303 16.4386 7.37084 16.6763 8.28702C16.9141 9.20321 16.9617 10.1584 16.8163 11.0937C16.36 13.8918 14.1163 16.2449 11.3281 16.758H11.3088C10.5571 16.9194 9.78198 16.9392 9.02313 16.8162C8.51063 16.753 8.27375 16.1787 8.69188 15.7618C8.98443 15.4695 9.21652 15.1224 9.37486 14.7403C9.5332 14.3583 9.6147 13.9488 9.6147 13.5352C9.6147 13.1217 9.5332 12.7122 9.37486 12.3301C9.21652 11.9481 8.98443 11.601 8.69188 11.3087C8.39956 11.016 8.05242 10.7839 7.67032 10.6255C7.28822 10.4671 6.87864 10.3855 6.465 10.3855C6.05137 10.3855 5.64179 10.4671 5.25969 10.6255C4.87758 10.7839 4.53045 11.016 4.23813 11.3087C3.82063 11.7262 3.24688 11.4893 3.18375 10.9762C3.06083 10.2175 3.08055 9.44259 3.24188 8.69117C3.81563 5.88617 6.10813 3.63992 8.90625 3.18367C9.19938 3.13992 9.4825 3.11492 9.76563 3.10554ZM8.75 4.37492C8.41848 4.37492 8.10054 4.50661 7.86612 4.74103C7.6317 4.97545 7.5 5.29339 7.5 5.62492C7.5 5.95644 7.6317 6.27438 7.86612 6.5088C8.10054 6.74322 8.41848 6.87492 8.75 6.87492C9.08152 6.87492 9.39947 6.74322 9.63389 6.5088C9.86831 6.27438 10 5.95644 10 5.62492C10 5.29339 9.86831 4.97545 9.63389 4.74103C9.39947 4.50661 9.08152 4.37492 8.75 4.37492ZM13.125 5.62492C12.7935 5.62492 12.4755 5.75661 12.2411 5.99103C12.0067 6.22545 11.875 6.5434 11.875 6.87492C11.875 7.20644 12.0067 7.52438 12.2411 7.7588C12.4755 7.99322 12.7935 8.12492 13.125 8.12492C13.4565 8.12492 13.7745 7.99322 14.0089 7.7588C14.2433 7.52438 14.375 7.20644 14.375 6.87492C14.375 6.5434 14.2433 6.22545 14.0089 5.99103C13.7745 5.75661 13.4565 5.62492 13.125 5.62492ZM5.625 6.87492C5.29348 6.87492 4.97554 7.00661 4.74112 7.24103C4.5067 7.47545 4.375 7.7934 4.375 8.12492C4.375 8.45644 4.5067 8.77438 4.74112 9.0088C4.97554 9.24322 5.29348 9.37492 5.625 9.37492C5.95652 9.37492 6.27447 9.24322 6.50889 9.0088C6.74331 8.77438 6.875 8.45644 6.875 8.12492C6.875 7.7934 6.74331 7.47545 6.50889 7.24103C6.27447 7.00661 5.95652 6.87492 5.625 6.87492ZM14.375 9.99992C14.0435 9.99992 13.7255 10.1316 13.4911 10.366C13.2567 10.6005 13.125 10.9184 13.125 11.2499C13.125 11.5814 13.2567 11.8994 13.4911 12.1338C13.7255 12.3682 14.0435 12.4999 14.375 12.4999C14.7065 12.4999 15.0245 12.3682 15.2589 12.1338C15.4933 11.8994 15.625 11.5814 15.625 11.2499C15.625 10.9184 15.4933 10.6005 15.2589 10.366C15.0245 10.1316 14.7065 9.99992 14.375 9.99992ZM11.875 13.1249C11.5435 13.1249 11.2255 13.2566 10.9911 13.491C10.7567 13.7255 10.625 14.0434 10.625 14.3749C10.625 14.7064 10.7567 15.0244 10.9911 15.2588C11.2255 15.4932 11.5435 15.6249 11.875 15.6249C12.2065 15.6249 12.5245 15.4932 12.7589 15.2588C12.9933 15.0244 13.125 14.7064 13.125 14.3749C13.125 14.0434 12.9933 13.7255 12.7589 13.491C12.5245 13.2566 12.2065 13.1249 11.875 13.1249Z" fill="#F8F8F8"/>
</svg>
