<svg width="79" height="79" viewBox="0 0 79 79" fill="none" xmlns="http://www.w3.org/2000/svg">
<g clip-path="url(#clip0_7106_4580)">
<path d="M38.1337 0.0109659C36.5298 0.0562743 34.8775 0.234487 33.2253 0.482173H33.1316C17.0472 3.11308 4.01951 15.7843 0.748246 31.8205C-0.227395 36.3875 -0.170004 40.6465 0.467334 44.8481C0.491498 44.8572 0.467334 44.9176 0.467334 44.9387C1.45808 52.031 10.6617 55.1361 15.8541 49.9438C19.5693 46.2285 25.0668 46.2285 28.7851 49.9438C32.5004 53.6591 32.5004 59.1565 28.7851 62.8748C23.5927 68.0672 26.6979 77.2708 33.7871 78.2615C33.8113 78.2615 33.8717 78.2374 33.8807 78.2615C38.0491 78.8959 42.2839 78.9351 46.8148 77.9776H46.9084C62.9899 74.9812 75.6279 61.6485 78.2467 45.6033V45.5066C81.669 22.4295 64.7962 2.27638 42.8488 0.19824C41.2817 0.0351002 39.7058 -0.0274523 38.1307 0.0109659H38.1337ZM38.2273 6.05208C39.5812 6.00027 40.9369 6.03154 42.287 6.14572C46.8419 6.56811 51.2621 7.9187 55.2752 10.1143C59.2884 12.3099 62.8094 15.3039 65.6215 18.912C68.4335 22.5201 70.477 26.6658 71.626 31.0936C72.7749 35.5215 73.0051 40.1377 72.3022 44.6578C70.0972 58.1809 59.2534 69.5533 45.7787 72.0331H45.6851C42.0526 72.8132 38.3064 72.9085 34.6389 72.3141C32.162 72.009 31.0173 69.2331 33.038 67.2184C34.4519 65.8057 35.5735 64.1282 36.3388 62.2818C37.104 60.4354 37.4979 58.4563 37.4979 56.4576C37.4979 54.4589 37.104 52.4798 36.3388 50.6335C35.5735 48.7871 34.4519 47.1096 33.038 45.6969C31.6253 44.2826 29.9476 43.1606 28.1009 42.395C26.2543 41.6295 24.2748 41.2355 22.2758 41.2355C20.2767 41.2355 18.2973 41.6295 16.4506 42.395C14.6039 43.1606 12.9263 44.2826 11.5135 45.6969C9.49578 47.7146 6.72291 46.5698 6.41783 44.09C5.82378 40.4235 5.91905 36.6783 6.69874 33.0468C9.47162 19.4905 20.551 8.63466 34.0741 6.42965C35.4907 6.21821 36.859 6.09739 38.2273 6.05208ZM33.3189 12.1868C31.7167 12.1868 30.1801 12.8233 29.0472 13.9562C27.9143 15.0892 27.2778 16.6257 27.2778 18.228C27.2778 19.8302 27.9143 21.3667 29.0472 22.4997C30.1801 23.6326 31.7167 24.2691 33.3189 24.2691C34.9211 24.2691 36.4577 23.6326 37.5906 22.4997C38.7236 21.3667 39.36 19.8302 39.36 18.228C39.36 16.6257 38.7236 15.0892 37.5906 13.9562C36.4577 12.8233 34.9211 12.1868 33.3189 12.1868ZM54.4628 18.228C52.8606 18.228 51.324 18.8644 50.1911 19.9974C49.0582 21.1303 48.4217 22.6669 48.4217 24.2691C48.4217 25.8713 49.0582 27.4079 50.1911 28.5408C51.324 29.6737 52.8606 30.3102 54.4628 30.3102C56.065 30.3102 57.6016 29.6737 58.7345 28.5408C59.8675 27.4079 60.5039 25.8713 60.5039 24.2691C60.5039 22.6669 59.8675 21.1303 58.7345 19.9974C57.6016 18.8644 56.065 18.228 54.4628 18.228ZM18.2161 24.2691C16.6139 24.2691 15.0773 24.9055 13.9444 26.0385C12.8115 27.1714 12.175 28.708 12.175 30.3102C12.175 31.9124 12.8115 33.449 13.9444 34.5819C15.0773 35.7148 16.6139 36.3513 18.2161 36.3513C19.8183 36.3513 21.3549 35.7148 22.4878 34.5819C23.6208 33.449 24.2572 31.9124 24.2572 30.3102C24.2572 28.708 23.6208 27.1714 22.4878 26.0385C21.3549 24.9055 19.8183 24.2691 18.2161 24.2691ZM60.5039 39.3719C58.9017 39.3719 57.3652 40.0083 56.2322 41.1413C55.0993 42.2742 54.4628 43.8108 54.4628 45.413C54.4628 47.0152 55.0993 48.5518 56.2322 49.6847C57.3652 50.8176 58.9017 51.4541 60.5039 51.4541C62.1061 51.4541 63.6427 50.8176 64.7757 49.6847C65.9086 48.5518 66.5451 47.0152 66.5451 45.413C66.5451 43.8108 65.9086 42.2742 64.7757 41.1413C63.6427 40.0083 62.1061 39.3719 60.5039 39.3719ZM48.4217 54.4746C46.8195 54.4746 45.2829 55.1111 44.15 56.244C43.0171 57.377 42.3806 58.9136 42.3806 60.5158C42.3806 62.118 43.0171 63.6545 44.15 64.7875C45.2829 65.9204 46.8195 66.5569 48.4217 66.5569C50.0239 66.5569 51.5605 65.9204 52.6934 64.7875C53.8264 63.6545 54.4628 62.118 54.4628 60.5158C54.4628 58.9136 53.8264 57.377 52.6934 56.244C51.5605 55.1111 50.0239 54.4746 48.4217 54.4746Z" fill="#5038BC"/>
</g>
<defs>
<clipPath id="clip0_7106_4580">
<rect width="79" height="79" fill="white"/>
</clipPath>
</defs>
</svg>
