<svg width="36" height="37" viewBox="0 0 36 37" fill="none" xmlns="http://www.w3.org/2000/svg">
<circle cx="18" cy="18.7393" r="18" fill="#FFD668" fill-opacity="0.2"/>
<path d="M25.7143 13.3392H21.2143V11.9892C21.2143 11.6311 21.0788 11.2877 20.8377 11.0346C20.5966 10.7814 20.2696 10.6392 19.9286 10.6392H16.0714C15.7304 10.6392 15.4034 10.7814 15.1623 11.0346C14.9212 11.2877 14.7857 11.6311 14.7857 11.9892V13.3392H10.2857C9.94472 13.3392 9.6177 13.4814 9.37658 13.7346C9.13546 13.9877 9 14.3311 9 14.6892V25.4892C9 25.8472 9.13546 26.1906 9.37658 26.4438C9.6177 26.6969 9.94472 26.8392 10.2857 26.8392H25.7143C26.0553 26.8392 26.3823 26.6969 26.6234 26.4438C26.8645 26.1906 27 25.8472 27 25.4892V14.6892C27 14.3311 26.8645 13.9877 26.6234 13.7346C26.3823 13.4814 26.0553 13.3392 25.7143 13.3392ZM16.0714 11.9892H19.9286V13.3392H16.0714V11.9892ZM25.7143 14.6892V20.7642H10.2857V14.6892H25.7143ZM10.2857 25.4892V22.1142H25.7143V25.4892H10.2857Z" fill="#FFD668"/>
<path d="M17.3575 20.0893H18.6432C18.8137 20.0893 18.9772 20.0181 19.0977 19.8916C19.2183 19.765 19.286 19.5933 19.286 19.4143C19.286 19.2352 19.2183 19.0635 19.0977 18.937C18.9772 18.8104 18.8137 18.7393 18.6432 18.7393H17.3575C17.187 18.7393 17.0234 18.8104 16.9029 18.937C16.7823 19.0635 16.7146 19.2352 16.7146 19.4143C16.7146 19.5933 16.7823 19.765 16.9029 19.8916C17.0234 20.0181 17.187 20.0893 17.3575 20.0893Z" fill="#FFD668"/>
</svg>
