<svg width="5" height="8" viewBox="0 0 5 8" fill="none" xmlns="http://www.w3.org/2000/svg">
<path fill-rule="evenodd" clip-rule="evenodd" d="M0.740741 2.73851C0.313333 2.6174 0 2.22443 0 1.75851C0 1.19629 0.456296 0.73999 1.01852 0.73999C1.58074 0.73999 2.03704 1.19629 2.03704 1.75851C2.03704 2.22443 1.7237 2.6174 1.2963 2.73851V4.83851C1.39926 4.78592 1.51259 4.74999 1.63296 4.73518C2.12704 4.67332 2.80407 4.58888 3.29815 4.52703C3.53 4.49814 3.7037 4.3011 3.7037 4.0674V3.84962C3.2763 3.72851 2.96296 3.33555 2.96296 2.86962C2.96296 2.3074 3.41926 1.8511 3.98148 1.8511C4.5437 1.8511 5 2.3074 5 2.86962C5 3.33555 4.68667 3.72851 4.25926 3.84962V4.0674C4.25926 4.5811 3.87667 5.01443 3.36704 5.07814C2.87296 5.13999 2.19593 5.22443 1.70185 5.28629C1.47 5.31518 1.2963 5.51221 1.2963 5.74592V5.96369C1.7237 6.08481 2.03704 6.47777 2.03704 6.94369C2.03704 7.50592 1.58074 7.96221 1.01852 7.96221C0.456296 7.96221 0 7.50592 0 6.94369C0 6.47777 0.313333 6.08481 0.740741 5.96369V2.73851ZM1.01852 6.48073C1.27407 6.48073 1.48148 6.68814 1.48148 6.94369C1.48148 7.19925 1.27407 7.40666 1.01852 7.40666C0.762963 7.40666 0.555556 7.19925 0.555556 6.94369C0.555556 6.68814 0.762963 6.48073 1.01852 6.48073ZM3.98148 2.40666C4.23704 2.40666 4.44444 2.61406 4.44444 2.86962C4.44444 3.12518 4.23704 3.33258 3.98148 3.33258C3.72593 3.33258 3.51852 3.12518 3.51852 2.86962C3.51852 2.61406 3.72593 2.40666 3.98148 2.40666ZM1.01852 1.29555C1.27407 1.29555 1.48148 1.50295 1.48148 1.75851C1.48148 2.01406 1.27407 2.22147 1.01852 2.22147C0.762963 2.22147 0.555556 2.01406 0.555556 1.75851C0.555556 1.50295 0.762963 1.29555 1.01852 1.29555Z" fill="#828282"/>
</svg>
