<svg width="36" height="37" viewBox="0 0 36 37" fill="none" xmlns="http://www.w3.org/2000/svg">
<circle cx="18" cy="18.7393" r="18" fill="#FFD668" fill-opacity="0.2"/>
<path d="M29.9672 17.5551L27.0426 10.956C27.0233 10.9121 26.9957 10.8724 26.9613 10.8394C26.9269 10.8063 26.8864 10.7804 26.8422 10.7633C26.7979 10.7461 26.7508 10.738 26.7035 10.7394C26.6561 10.7408 26.6095 10.7516 26.5664 10.7713L23.7378 12.0638C23.6946 12.0835 23.6556 12.1117 23.623 12.1467C23.5905 12.1817 23.5651 12.223 23.5483 12.268C23.5315 12.313 23.5236 12.361 23.5251 12.4091C23.5266 12.4573 23.5374 12.5046 23.557 12.5485L23.6444 12.7482C22.8685 12.9963 22.0457 13.0529 21.244 12.9134C20.7068 12.8224 20.1585 12.8224 19.6214 12.9134C19.1909 12.9846 18.7714 13.1127 18.3736 13.2942C18.1988 13.3829 18.017 13.4717 17.8327 13.5871L16.2913 14.355C16.0518 14.3066 15.8091 14.2769 15.5652 14.2662C14.7428 14.2414 13.9387 14.0145 13.2216 13.6049L13.3396 13.4415C13.3953 13.3626 13.418 13.2645 13.4026 13.1686C13.3872 13.0728 13.335 12.987 13.2574 12.9302L10.7348 11.0856C10.657 11.0289 10.5602 11.0058 10.4657 11.0215C10.3712 11.0371 10.2866 11.0902 10.2306 11.169L6.06777 17.0429C6.01199 17.1218 5.98931 17.22 6.00471 17.3158C6.02011 17.4117 6.07233 17.4975 6.14991 17.5542L8.66821 19.398C8.70657 19.4262 8.75004 19.4465 8.79611 19.4576C8.84219 19.4687 8.88998 19.4705 8.93673 19.4628C8.98349 19.4551 9.02829 19.4382 9.06858 19.4129C9.10887 19.3876 9.14385 19.3545 9.17152 19.3154L9.29211 19.145C9.89994 19.7069 10.3659 20.4089 10.6509 21.192C10.6745 21.2559 10.7007 21.319 10.7278 21.382L10.3311 21.9412C10.2048 22.1168 10.1264 22.3232 10.1038 22.5394C10.0811 22.7556 10.1149 22.974 10.2018 23.1727C10.2888 23.3714 10.4257 23.5433 10.5989 23.6711C10.7721 23.7988 10.9754 23.8779 11.1883 23.9004C11.1887 23.9637 11.194 24.027 11.204 24.0895C11.2504 24.3808 11.3969 24.646 11.6175 24.8381C11.8381 25.0301 12.1185 25.1367 12.409 25.1387C12.4428 25.1387 12.4767 25.137 12.5103 25.1334C12.5773 25.4012 12.7298 25.6388 12.9439 25.8092C13.1579 25.9796 13.4215 26.0732 13.6935 26.0753C13.8223 26.0746 13.9502 26.0536 14.0727 26.0131C14.1709 26.228 14.3272 26.4101 14.5234 26.5382C14.7195 26.6663 14.9475 26.7351 15.1807 26.7366C15.2487 26.7366 15.3165 26.7303 15.3834 26.718C15.5428 26.6935 15.6956 26.6366 15.8328 26.5507C15.9701 26.4648 16.0888 26.3517 16.1821 26.2182L16.4241 25.8773L17.5959 26.5617C17.7986 26.6778 18.0273 26.7389 18.26 26.7393C18.4421 26.7385 18.6222 26.6999 18.7892 26.6259C18.9561 26.5519 19.1064 26.4439 19.2308 26.3087C19.3686 26.1499 19.4659 25.9591 19.5139 25.753C19.756 25.8311 20.0128 25.8502 20.2636 25.8089C20.4683 25.7755 20.6645 25.7013 20.8408 25.5905C21.0172 25.4797 21.1702 25.3347 21.2912 25.1636C21.4517 24.9352 21.5513 24.6686 21.5804 24.3895C21.5937 24.267 21.5916 24.1432 21.5743 24.0211C21.7905 24.0119 22.0024 23.9566 22.1961 23.8587C22.3899 23.7608 22.5612 23.6226 22.6989 23.453C22.9347 23.1655 23.0631 22.8028 23.0615 22.4286C23.1518 22.4286 23.242 22.4224 23.3315 22.41C23.4973 22.3831 23.6562 22.3229 23.7987 22.2328C23.9413 22.1427 24.0647 22.0245 24.1616 21.8853C24.3278 21.6473 24.4315 21.3702 24.4631 21.0802C24.4631 21.058 24.4631 21.0358 24.4631 21.0145C24.54 20.9089 24.6151 20.7979 24.6868 20.6869C25.114 19.9851 25.7007 19.3975 26.3977 18.9737L26.4746 19.1512C26.5139 19.2398 26.5862 19.309 26.6757 19.3434C26.7652 19.3779 26.8644 19.3748 26.9517 19.335L29.7846 18.0434C29.8284 18.0238 29.8679 17.9955 29.9008 17.9603C29.9338 17.9251 29.9595 17.8835 29.9765 17.8381C29.9935 17.7926 30.0014 17.7442 29.9998 17.6957C29.9982 17.6471 29.9871 17.5993 29.9672 17.5551ZM10.6448 12.0887L12.353 13.3377L8.8622 18.2582L8.77482 18.3887L7.06129 17.1397L10.6448 12.0887ZM11.0319 22.4535L11.1551 22.2821L11.6033 21.6607C11.6334 21.6186 11.6719 21.5834 11.7164 21.5576C11.7609 21.5317 11.8102 21.5158 11.8612 21.5108C11.9122 21.5059 11.9637 21.512 12.0122 21.5288C12.0607 21.5456 12.1051 21.5728 12.1425 21.6084C12.1812 21.6475 12.2108 21.6949 12.2292 21.7471C12.2477 21.7993 12.2545 21.855 12.2491 21.9102C12.2432 21.972 12.2219 22.0313 12.187 22.0824L11.6059 22.9017C11.548 22.9756 11.4645 23.024 11.3724 23.0371C11.2804 23.0501 11.187 23.0268 11.1114 22.9719C11.0343 22.913 10.9829 22.8259 10.968 22.7291C10.9532 22.6322 10.9761 22.5334 11.0319 22.4535ZM12.2036 24.196C12.1254 24.1397 12.0722 24.0542 12.0558 23.9582C12.0395 23.8622 12.0612 23.7636 12.1162 23.6838L12.8852 22.599H12.8904L13.3885 21.8995C13.4155 21.8599 13.4501 21.8263 13.4902 21.8005C13.5303 21.7747 13.575 21.7574 13.6218 21.7495C13.6688 21.7406 13.7171 21.7417 13.7637 21.7525C13.8103 21.7633 13.8542 21.7838 13.8927 21.8125C13.9374 21.8456 13.9741 21.8886 13.9998 21.9383C14.0256 21.988 14.0398 22.0431 14.0412 22.0993C14.0412 22.1135 14.0412 22.1286 14.0412 22.1436C14.0355 22.1936 14.0194 22.2417 13.9941 22.2848C13.9871 22.2946 13.9801 22.3025 13.9731 22.3114L12.7034 24.1019C12.6973 24.1108 12.6921 24.1197 12.6868 24.1285C12.6293 24.2007 12.5468 24.2479 12.4562 24.2604C12.3656 24.273 12.2737 24.2499 12.1993 24.196H12.2036ZM13.4951 25.1325C13.4544 25.106 13.4195 25.0711 13.3928 25.0302C13.366 24.9892 13.3479 24.9431 13.3396 24.8946C13.3246 24.8095 13.3408 24.7217 13.385 24.6478C13.392 24.639 13.3999 24.6301 13.4069 24.6203L14.6765 22.8343C14.6875 22.8185 14.6998 22.8037 14.7132 22.7899C14.7271 22.7771 14.742 22.7655 14.7578 22.7553C14.7656 22.7497 14.7738 22.7447 14.7822 22.7402C14.7943 22.7328 14.8068 22.7263 14.8198 22.7206L14.8329 22.7153C14.8542 22.7072 14.8761 22.701 14.8984 22.6967C14.9209 22.6928 14.9438 22.691 14.9666 22.6914H14.978C15.0269 22.6938 15.0748 22.7065 15.1187 22.7285C15.1626 22.7505 15.2016 22.7814 15.2333 22.8194C15.265 22.8573 15.2887 22.9014 15.303 22.949C15.3172 22.9966 15.3217 23.0467 15.3161 23.0961C15.3095 23.1605 15.2859 23.2218 15.248 23.2737L14.7988 23.9048C14.7822 23.9253 14.7656 23.9448 14.7499 23.9661L14.1845 24.765C14.1615 24.7972 14.1402 24.8307 14.1208 24.8653L13.9879 25.0517C13.9315 25.128 13.8481 25.179 13.7554 25.1941C13.6627 25.2092 13.5678 25.1871 13.4907 25.1325H13.4951ZM15.2523 25.8569C15.1818 25.8689 15.1094 25.8594 15.0441 25.8297C14.9788 25.8 14.9237 25.7513 14.8856 25.6898C14.8475 25.6284 14.8281 25.5568 14.83 25.4842C14.8318 25.4115 14.8547 25.3411 14.8958 25.2817L15.4612 24.4827C15.5173 24.4039 15.6012 24.3502 15.6953 24.3327C15.7178 24.3287 15.7407 24.3269 15.7635 24.3274H15.781C15.7965 24.3283 15.812 24.3301 15.8273 24.3327L15.8456 24.3371C15.8885 24.3489 15.929 24.3681 15.9654 24.394C16.0169 24.4319 16.0576 24.483 16.0836 24.5421C16.1095 24.6011 16.1196 24.6661 16.113 24.7304C16.1059 24.7945 16.0828 24.8556 16.0457 24.9079L15.7687 25.3012L15.4856 25.7015C15.4586 25.7426 15.4235 25.7775 15.3826 25.8042C15.3418 25.8309 15.2959 25.8489 15.248 25.8569H15.2523ZM23.5928 20.9923C23.5805 21.1299 23.5316 21.2616 23.4512 21.3731C23.3856 21.4622 23.2891 21.5225 23.1812 21.5418C23.1277 21.5511 23.0728 21.5493 23.0199 21.5365C22.9671 21.5237 22.9173 21.5001 22.8737 21.4672L22.4525 21.1601C22.435 21.1413 22.416 21.1241 22.3957 21.1086L21.4555 20.4215C21.3625 20.3613 21.2505 20.3396 21.1423 20.3606C21.034 20.3817 20.9378 20.444 20.8734 20.5348C20.8089 20.6256 20.7811 20.738 20.7956 20.849C20.81 20.9599 20.8658 21.0611 20.9513 21.1317L21.8906 21.8179L21.8863 21.825C21.967 21.8826 22.0349 21.9567 22.0856 22.0427C22.1363 22.1286 22.1687 22.2244 22.1807 22.3238C22.1935 22.4238 22.1859 22.5253 22.1583 22.6221C22.1308 22.7189 22.084 22.809 22.0208 22.8866C21.8958 23.0282 21.7233 23.1173 21.5371 23.1369C21.3509 23.1564 21.1642 23.1049 21.0133 22.9923L20.9871 22.9728C20.9673 22.9499 20.945 22.9293 20.9207 22.9115L19.7594 22.062C19.6665 22.0018 19.5544 21.98 19.4462 22.0011C19.338 22.0221 19.2418 22.0845 19.1773 22.1753C19.1129 22.266 19.085 22.3784 19.0995 22.4894C19.114 22.6004 19.1697 22.7015 19.2552 22.7721L20.4174 23.6243L20.4244 23.6314C20.5243 23.7087 20.6032 23.8105 20.6536 23.9273C20.7041 24.0441 20.7244 24.172 20.7127 24.299C20.7005 24.4261 20.6552 24.5477 20.5817 24.6514C20.5082 24.7551 20.4089 24.8371 20.294 24.8891C20.1791 24.9412 20.0527 24.9614 19.9277 24.9477C19.8026 24.934 19.6834 24.8869 19.582 24.8112L19.0167 24.3931L17.9166 23.587C17.8709 23.5494 17.8182 23.5216 17.7617 23.5054C17.7051 23.4892 17.6459 23.4848 17.5876 23.4927C17.5294 23.5005 17.4733 23.5204 17.4229 23.551C17.3724 23.5817 17.3287 23.6224 17.2943 23.6709C17.2599 23.7193 17.2356 23.7743 17.2229 23.8326C17.2102 23.8909 17.2094 23.9513 17.2204 24.0099C17.2315 24.0685 17.2542 24.1243 17.2872 24.1737C17.3202 24.2231 17.3628 24.2651 17.4124 24.2972L18.5125 25.1023C18.5588 25.1368 18.5975 25.1808 18.6261 25.2314C18.6547 25.282 18.6726 25.3381 18.6785 25.3962C18.6875 25.4553 18.6834 25.5158 18.6663 25.5731C18.6492 25.6305 18.6196 25.6831 18.5798 25.7273C18.5102 25.8008 18.4178 25.8477 18.3182 25.8601C18.2186 25.8726 18.1178 25.8498 18.0328 25.7956L16.9021 25.1343C16.9185 25.0907 16.9316 25.0459 16.9414 25.0003C16.9566 24.9395 16.9683 24.8778 16.9763 24.8156C17.0047 24.5279 16.9337 24.2391 16.7756 23.9986C16.6175 23.7581 16.382 23.581 16.1095 23.4974C16.1498 23.3912 16.1765 23.2802 16.189 23.1672C16.2097 22.9497 16.1741 22.7304 16.0859 22.5312C15.9976 22.3319 15.8597 22.1595 15.6857 22.0309C15.4501 21.8591 15.1621 21.778 14.8731 21.8019C14.7988 21.4996 14.6156 21.2367 14.3595 21.0653C14.1035 20.8938 13.7935 20.8262 13.4907 20.876C13.275 20.9086 13.0722 21.0008 12.9044 21.1423L12.8948 21.1503C12.8163 21.0355 12.7187 20.9355 12.6065 20.8547C12.4768 20.7585 12.3296 20.6895 12.1734 20.6519C12.0172 20.6142 11.8552 20.6086 11.6968 20.6354C11.5874 20.6549 11.4811 20.6889 11.3805 20.7366C11.0318 19.8584 10.4868 19.0746 9.78843 18.4473L12.7069 14.331C13.2956 14.6849 13.9425 14.9276 14.6162 15.0474L14.2475 18.7375C14.2336 18.8692 14.2454 19.0023 14.2824 19.1293C14.3194 19.2562 14.3808 19.3745 14.463 19.4772C14.5452 19.58 14.6466 19.6652 14.7614 19.7279C14.8762 19.7906 15.0021 19.8297 15.1317 19.8427C15.5066 19.8843 15.885 19.8094 16.217 19.6279C16.3313 19.5671 16.4393 19.4948 16.5394 19.4122C16.7362 19.2535 16.8995 19.0562 17.0196 18.832C17.1397 18.6078 17.2141 18.3613 17.2385 18.1073L17.3364 17.145C17.7695 17.1251 18.1932 17.0107 18.5789 16.8095C18.6331 16.7819 18.6864 16.7518 18.7388 16.7207L23.2922 20.2919C23.3228 20.3168 23.3481 20.3354 23.3604 20.3478L23.3665 20.354C23.3726 20.3603 23.3848 20.3665 23.3909 20.3789L23.4032 20.3913C23.4093 20.3913 23.4093 20.3975 23.4154 20.4038L23.4276 20.4162L23.446 20.4348L23.4643 20.4597C23.4705 20.4659 23.4766 20.4792 23.4827 20.4854C23.4971 20.5069 23.5094 20.5298 23.5194 20.5538L23.5255 20.5662C23.5325 20.5786 23.5325 20.5848 23.5386 20.5973C23.5447 20.6097 23.5447 20.6221 23.5509 20.6346C23.557 20.647 23.557 20.6603 23.5631 20.6727L23.5753 20.71C23.5838 20.739 23.59 20.7687 23.5937 20.7988V20.8112C23.5992 20.8253 23.6013 20.8405 23.5998 20.8556V20.8929C23.6031 20.9265 23.5992 20.9604 23.5884 20.9923H23.5928ZM26.0447 18.1703C25.2991 18.6088 24.6565 19.2071 24.1616 19.9235V19.9182C24.1494 19.8995 24.1311 19.8809 24.1188 19.8623C24.1066 19.8436 24.076 19.8125 24.0507 19.7877L23.9895 19.7247C23.943 19.6781 23.8936 19.6345 23.8418 19.5942L18.7738 15.6226L18.5116 15.8223C18.0781 16.1571 17.5354 16.3114 16.9938 16.2538L16.563 16.2094L16.3883 18.0141C16.3582 18.2947 16.2215 18.5524 16.0073 18.7322C15.7914 18.9094 15.5152 18.9924 15.2392 18.963C15.2222 18.9618 15.2055 18.9571 15.1903 18.9492C15.1751 18.9413 15.1616 18.9303 15.1506 18.917C15.1397 18.9036 15.1315 18.8881 15.1266 18.8715C15.1217 18.8548 15.1202 18.8374 15.1221 18.8201L15.4297 15.754L17.6361 14.6612H17.6177L18.2294 14.3532L18.267 14.3346C18.418 14.243 18.5738 14.1597 18.7336 14.0851C19.0615 13.9304 19.4092 13.8232 19.7664 13.7664C20.212 13.6919 20.6665 13.6919 21.1121 13.7664C22.0762 13.9373 23.0671 13.8623 23.9956 13.5481L24.3984 14.4571L26.0447 18.1703ZM27.0583 18.3265L24.5444 12.6506L26.4667 11.7771L28.9807 17.4522L27.0583 18.3265Z" fill="#FFD668"/>
</svg>
