<svg width="9" height="9" viewBox="0 0 9 9" fill="none" xmlns="http://www.w3.org/2000/svg">
<path d="M4.125 8.25C3.30915 8.25 2.51163 8.00807 1.83327 7.55481C1.15492 7.10155 0.62621 6.45731 0.313999 5.70357C0.00178734 4.94982 -0.0799014 4.12042 0.0792625 3.32025C0.238427 2.52008 0.631295 1.78508 1.20819 1.20819C1.78508 0.631295 2.52008 0.238427 3.32025 0.0792625C4.12042 -0.0799014 4.94982 0.00178734 5.70357 0.313999C6.45731 0.62621 7.10155 1.15492 7.55481 1.83327C8.00807 2.51163 8.25 3.30915 8.25 4.125C8.25 5.21902 7.8154 6.26823 7.04182 7.04182C6.26823 7.8154 5.21902 8.25 4.125 8.25ZM4.125 0.550002C3.41793 0.550002 2.72674 0.759672 2.13884 1.1525C1.55093 1.54532 1.09272 2.10366 0.822132 2.75691C0.551549 3.41015 0.480752 4.12897 0.618694 4.82245C0.756636 5.51593 1.09712 6.15293 1.59709 6.65291C2.09707 7.15288 2.73407 7.49336 3.42755 7.63131C4.12104 7.76925 4.83985 7.69845 5.49309 7.42787C6.14634 7.15729 6.70468 6.69907 7.0975 6.11116C7.49033 5.52326 7.7 4.83207 7.7 4.125C7.7 3.17685 7.32335 2.26754 6.65291 1.59709C5.98246 0.926652 5.07315 0.550002 4.125 0.550002Z" fill="#828282"/>
<path d="M4.125 4.8125C3.98903 4.8125 3.8561 4.77218 3.74305 4.69664C3.62999 4.62109 3.54187 4.51372 3.48983 4.3881C3.4378 4.26247 3.42418 4.12424 3.45071 3.99088C3.47724 3.85751 3.54272 3.73501 3.63886 3.63886C3.73501 3.54272 3.85751 3.47724 3.99088 3.45071C4.12424 3.42418 4.26247 3.4378 4.3881 3.48983C4.51372 3.54187 4.62109 3.62999 4.69664 3.74305C4.77218 3.8561 4.8125 3.98903 4.8125 4.125C4.8125 4.30734 4.74007 4.48221 4.61114 4.61114C4.48221 4.74007 4.30734 4.8125 4.125 4.8125Z" fill="#828282"/>
</svg>
