<svg width="36" height="37" viewBox="0 0 36 37" fill="none" xmlns="http://www.w3.org/2000/svg">
<circle cx="18" cy="18.7393" r="18" fill="#64E6FB" fill-opacity="0.2"/>
<path d="M10.4273 23.6129C9.64393 22.3759 9.16719 20.9699 9.03664 19.5118C8.9061 18.0536 9.12552 16.5853 9.67668 15.229C10.1073 14.1097 10.7724 13.0955 11.6275 12.2544C12.4826 11.4133 13.5078 10.7648 14.6343 10.3524C21.1044 7.98538 27.1654 12.8132 26.9966 18.9802C26.8614 23.808 22.5943 27.7393 17.7793 27.7393H9.94689C9.94689 27.7393 12.2587 26.6777 10.4273 23.6129Z" stroke="#64E6FB" stroke-width="1.5" stroke-linecap="round" stroke-linejoin="round"/>
<path d="M21.5324 16.2021C21.069 15.7428 20.4416 15.4827 19.7861 15.4781C19.1306 15.4735 18.4996 15.7249 18.0297 16.1777L18.001 16.1493C17.7693 15.9192 17.4941 15.7366 17.1912 15.612C16.8882 15.4875 16.5633 15.4233 16.2353 15.4233C15.9072 15.4233 15.5824 15.4875 15.2794 15.612C14.9764 15.7366 14.7012 15.9192 14.4696 16.1493V16.1493C14.2373 16.3788 14.053 16.6514 13.9273 16.9516C13.8015 17.2517 13.7368 17.5735 13.7368 17.8985C13.7368 18.2235 13.8015 18.5453 13.9273 18.8454C14.053 19.1456 14.2373 19.4182 14.4696 19.6477L17.5375 22.687L17.7385 22.8861C17.8152 22.9606 17.9183 23.0023 18.0256 23.0023C18.133 23.0023 18.236 22.9606 18.3127 22.8861L21.5283 19.7006C21.7609 19.4713 21.9455 19.1989 22.0716 18.8989C22.1976 18.5989 22.2627 18.2772 22.2631 17.9522C22.2635 17.6272 22.1992 17.3053 22.0738 17.005C21.9484 16.7047 21.7644 16.4319 21.5324 16.2021V16.2021Z" stroke="#64E6FB" stroke-width="1.5" stroke-linecap="round" stroke-linejoin="round"/>
</svg>
