<svg width="10" height="8" viewBox="0 0 10 8" fill="none" xmlns="http://www.w3.org/2000/svg">
<path d="M8.39978 5.03504C8.03158 4.80864 7.58098 4.63184 7.09658 4.52364C6.79658 4.65724 6.47758 4.74304 6.15218 4.77944C5.94358 4.70424 5.72838 4.63804 5.50758 4.58444C5.64998 4.40904 5.76478 4.21064 5.84838 3.99684C6.25998 3.98844 6.64618 3.87724 6.98238 3.68604C7.78718 3.82344 8.49858 4.11744 9.02618 4.49004C9.12838 4.56224 9.19338 4.67544 9.19998 4.80024L9.19938 5.97924C9.21138 6.20804 9.02918 6.40024 8.79998 6.40024H7.79818V6.20044V6.18464L7.79738 6.16884C7.78638 5.95824 7.70898 5.76164 7.58058 5.60024H8.39938L8.39978 5.03504Z" fill="#828282"/>
<path d="M5.99193 3.3878C5.99713 3.326 6.00013 3.2634 6.00013 3.2002C6.00013 2.988 5.96833 2.7834 5.91193 2.589C6.30053 2.5348 6.60173 2.2036 6.60173 1.8002C6.60173 1.359 6.24293 1.0002 5.80173 1.0002C5.49573 1.0002 5.23253 1.1748 5.09793 1.4278C4.88293 1.27 4.63893 1.1506 4.37473 1.079C4.63873 0.557995 5.17793 0.200195 5.80173 0.200195C6.68533 0.200195 7.40173 0.916595 7.40173 1.8002C7.40173 2.6194 6.78573 3.2938 5.99193 3.3878Z" fill="#828282"/>
<path d="M0.961595 5.86623C1.39279 5.54143 2.0076 5.28243 2.7062 5.13503C3.0342 5.30343 3.4048 5.40043 3.7982 5.40043C4.2282 5.40043 4.63119 5.28523 4.98079 5.08643C5.78559 5.22383 6.49699 5.51783 7.02459 5.89043C7.12679 5.96263 7.19179 6.07563 7.19839 6.20043L7.19779 7.37942C7.20959 7.60822 7.02719 7.80042 6.79819 7.80042H1.1992C0.986395 7.80042 0.810795 7.63382 0.799795 7.42142L0.798395 6.19043C0.798195 6.06243 0.859395 5.94323 0.961595 5.86623ZM1.5994 7.00042H6.39779L6.39799 6.43523C6.02979 6.20883 5.57919 6.03203 5.09479 5.92383C4.68699 6.10543 4.2444 6.20043 3.7982 6.20043C3.3924 6.20043 2.99899 6.12502 2.62499 5.97602C2.22719 6.08062 1.8738 6.22603 1.5986 6.39843L1.5994 7.00042Z" fill="#828282"/>
<path d="M5.40009 3.2001C5.40009 4.0837 4.68369 4.8001 3.80009 4.8001C2.91649 4.8001 2.20009 4.0837 2.20009 3.2001C2.20009 2.3165 2.91649 1.6001 3.80009 1.6001C4.68369 1.6001 5.40009 2.3165 5.40009 3.2001ZM3.80009 2.4001C3.35889 2.4001 3.00009 2.7589 3.00009 3.2001C3.00009 3.6413 3.35889 4.0001 3.80009 4.0001C4.24129 4.0001 4.60009 3.6413 4.60009 3.2001C4.60009 2.7589 4.24129 2.4001 3.80009 2.4001Z" fill="#828282"/>
</svg>
