<svg width="19" height="33" viewBox="0 0 19 33" fill="none" xmlns="http://www.w3.org/2000/svg">
<path fill-rule="evenodd" clip-rule="evenodd" d="M2.55612 0.131592C1.10505 0.131592 -0.0712891 1.32807 -0.0712891 2.80398C-0.0712891 4.27989 1.10505 5.47636 2.55612 5.47636C4.00721 5.47636 5.18355 4.27989 5.18355 2.80398C5.18355 1.32807 4.00721 0.131592 2.55612 0.131592ZM2.55615 1.26887C1.72255 1.26887 1.04678 1.95614 1.04678 2.80398C1.04678 3.65182 1.72255 4.33924 2.55615 4.33924C3.38975 4.33924 4.06552 3.65182 4.06552 2.80398C4.06552 1.95614 3.38975 1.26887 2.55615 1.26887Z" fill="white"/>
<path fill-rule="evenodd" clip-rule="evenodd" d="M2.55612 13.8799C1.10505 13.8799 -0.0712891 15.0764 -0.0712891 16.5523C-0.0712891 18.028 1.10505 19.2245 2.55612 19.2245C4.00721 19.2245 5.18355 18.028 5.18355 16.5523C5.18355 15.0764 4.00721 13.8799 2.55612 13.8799ZM2.55615 15.017C1.72255 15.017 1.04678 15.7043 1.04678 16.5521C1.04678 17.4001 1.72255 18.0874 2.55615 18.0874C3.38975 18.0874 4.06552 17.4001 4.06552 16.5521C4.06552 15.7043 3.38975 15.017 2.55615 15.017Z" fill="white"/>
<path d="M3.39486 4.33887H1.71777V12.754H3.39486V4.33887Z" fill="white"/>
<path d="M4.17725 1.95097V3.65674L12.4508 3.65674V1.95097L4.17725 1.95097Z" fill="white"/>
<path fill-rule="evenodd" clip-rule="evenodd" d="M2.55614 32.9007C4.00721 32.9007 5.18355 31.7042 5.18355 30.2283C5.18355 28.7524 4.00721 27.5559 2.55614 27.5559C1.10505 27.5559 -0.0712891 28.7524 -0.0712891 30.2283C-0.0712891 31.7042 1.10505 32.9007 2.55614 32.9007ZM2.55611 31.7636C3.3897 31.7636 4.06548 31.0761 4.06548 30.2283C4.06548 29.3805 3.3897 28.6932 2.55611 28.6932C1.72251 28.6932 1.04674 29.3805 1.04674 30.2283C1.04674 31.0761 1.72251 31.7636 2.55611 31.7636Z" fill="white"/>
<path d="M1.71744 28.6934H3.39453L3.39453 20.2783H1.71744L1.71744 28.6934Z" fill="white"/>
<path fill-rule="evenodd" clip-rule="evenodd" d="M14.2128 27.8423C15.2389 26.7987 15.2389 25.1066 14.2128 24.0631C13.1867 23.0193 11.5232 23.0193 10.497 24.0631C9.47104 25.1066 9.47104 26.7987 10.497 27.8423C11.5232 28.886 13.1867 28.886 14.2128 27.8423ZM13.4223 27.0382C14.0117 26.4387 14.0117 25.4667 13.4223 24.8672C12.8327 24.2675 11.877 24.2675 11.2876 24.8672C10.6982 25.4667 10.6982 26.4387 11.2876 27.0382C11.877 27.6378 12.8327 27.6378 13.4223 27.0382Z" fill="white"/>
<path d="M10.6945 25.4701L11.8804 24.2639L6.03007 18.3136L4.84419 19.5197L10.6945 25.4701Z" fill="white"/>
<path fill-rule="evenodd" clip-rule="evenodd" d="M18.5999 16.5523C18.5999 15.0764 17.4236 13.8799 15.9725 13.8799C14.5214 13.8799 13.3452 15.0764 13.3452 16.5523C13.3452 18.028 14.5214 19.2245 15.9725 19.2245C17.4236 19.2245 18.5999 18.028 18.5999 16.5523ZM17.4819 16.5521C17.4819 15.7043 16.8061 15.017 15.9725 15.017C15.1389 15.017 14.4632 15.7043 14.4632 16.5521C14.4632 17.4001 15.1389 18.0874 15.9725 18.0874C16.8061 18.0874 17.4819 17.4001 17.4819 16.5521Z" fill="white"/>
<path d="M14.4634 17.4045V15.6987H6.1898V17.4045H14.4634Z" fill="white"/>
<path fill-rule="evenodd" clip-rule="evenodd" d="M15.8608 0.131592C14.4097 0.131592 13.2334 1.32807 13.2334 2.80398C13.2334 4.27989 14.4097 5.47636 15.8608 5.47636C17.3119 5.47636 18.4883 4.27989 18.4883 2.80398C18.4883 1.32807 17.3119 0.131592 15.8608 0.131592ZM15.8608 1.26887C15.0273 1.26887 14.3515 1.95614 14.3515 2.80398C14.3515 3.65182 15.0273 4.33924 15.8608 4.33924C16.6946 4.33924 17.3703 3.65182 17.3703 2.80398C17.3703 1.95614 16.6946 1.26887 15.8608 1.26887Z" fill="white"/>
<path d="M16.6995 4.33887H15.0225V12.754H16.6995V4.33887Z" fill="white"/>
</svg>
