<svg width="56" height="56" viewBox="0 0 56 56" fill="none" xmlns="http://www.w3.org/2000/svg">
<rect width="56" height="56" rx="12" fill="#F8F8F8"/>
<path fill-rule="evenodd" clip-rule="evenodd" d="M20.955 10C19.323 10 18 11.2779 18 12.8543C18 14.4307 19.323 15.7086 20.955 15.7086C22.5871 15.7086 23.9101 14.4307 23.9101 12.8543C23.9101 11.2779 22.5871 10 20.955 10ZM20.9551 11.2147C20.0175 11.2147 19.2575 11.9487 19.2575 12.8543C19.2575 13.7599 20.0175 14.4941 20.9551 14.4941C21.8926 14.4941 22.6527 13.7599 22.6527 12.8543C22.6527 11.9487 21.8926 11.2147 20.9551 11.2147Z" fill="#333333"/>
<path fill-rule="evenodd" clip-rule="evenodd" d="M20.955 24.6848C19.323 24.6848 18 25.9627 18 27.5391C18 29.1153 19.323 30.3932 20.955 30.3932C22.5871 30.3932 23.9101 29.1153 23.9101 27.5391C23.9101 25.9627 22.5871 24.6848 20.955 24.6848ZM20.9551 25.8993C20.0175 25.8993 19.2575 26.6334 19.2575 27.5389C19.2575 28.4447 20.0175 29.1787 20.9551 29.1787C21.8926 29.1787 22.6527 28.4447 22.6527 27.5389C22.6527 26.6334 21.8926 25.8993 20.9551 25.8993Z" fill="#333333"/>
<path d="M21.8985 14.4941H20.0123V23.482H21.8985V14.4941Z" fill="#333333"/>
<path d="M22.7783 11.9428V13.7646H32.0836V11.9428H22.7783Z" fill="#333333"/>
<path fill-rule="evenodd" clip-rule="evenodd" d="M20.9551 45.0003C22.5871 45.0003 23.9101 43.7224 23.9101 42.146C23.9101 40.5697 22.5871 39.2917 20.9551 39.2917C19.323 39.2917 18 40.5697 18 42.146C18 43.7224 19.323 45.0003 20.9551 45.0003ZM20.955 43.7858C21.8926 43.7858 22.6526 43.0516 22.6526 42.146C22.6526 41.2405 21.8926 40.5064 20.955 40.5064C20.0175 40.5064 19.2574 41.2405 19.2574 42.146C19.2574 43.0516 20.0175 43.7858 20.955 43.7858Z" fill="#333333"/>
<path d="M20.0111 40.5056H21.8973V31.5177H20.0111V40.5056Z" fill="#333333"/>
<path fill-rule="evenodd" clip-rule="evenodd" d="M34.0641 39.5969C35.2181 38.4823 35.2181 36.675 34.0641 35.5604C32.91 34.4457 31.0391 34.4457 29.885 35.5604C28.731 36.675 28.731 38.4823 29.885 39.5969C31.0391 40.7117 32.91 40.7117 34.0641 39.5969ZM33.175 38.7381C33.8379 38.0978 33.8379 37.0596 33.175 36.4193C32.5119 35.7788 31.4371 35.7788 30.7742 36.4193C30.1113 37.0596 30.1113 38.0978 30.7742 38.7381C31.4371 39.3785 32.5119 39.3785 33.175 38.7381Z" fill="#333333"/>
<path d="M30.1083 37.0637L31.442 35.7754L24.8622 29.42L23.5284 30.7082L30.1083 37.0637Z" fill="#333333"/>
<path fill-rule="evenodd" clip-rule="evenodd" d="M38.9995 27.5381C38.9995 25.9618 37.6764 24.6838 36.0444 24.6838C34.4123 24.6838 33.0895 25.9618 33.0895 27.5381C33.0895 29.1143 34.4123 30.3923 36.0444 30.3923C37.6764 30.3923 38.9995 29.1143 38.9995 27.5381ZM37.742 27.538C37.742 26.6324 36.9819 25.8984 36.0444 25.8984C35.1069 25.8984 34.3469 26.6324 34.3469 27.538C34.3469 28.4437 35.1069 29.1777 36.0444 29.1777C36.9819 29.1777 37.742 28.4437 37.742 27.538Z" fill="#333333"/>
<path d="M34.3473 28.4491V26.6272H25.042V28.4491H34.3473Z" fill="#333333"/>
<path fill-rule="evenodd" clip-rule="evenodd" d="M35.9192 10C34.2871 10 32.9641 11.2779 32.9641 12.8543C32.9641 14.4307 34.2871 15.7086 35.9192 15.7086C37.5512 15.7086 38.8743 14.4307 38.8743 12.8543C38.8743 11.2779 37.5512 10 35.9192 10ZM35.9192 11.2147C34.9817 11.2147 34.2217 11.9487 34.2217 12.8543C34.2217 13.7599 34.9817 14.4941 35.9192 14.4941C36.8569 14.4941 37.6169 13.7599 37.6169 12.8543C37.6169 11.9487 36.8569 11.2147 35.9192 11.2147Z" fill="#333333"/>
<path d="M36.8624 14.4941H34.9762V23.482H36.8624V14.4941Z" fill="#333333"/>
</svg>
