<svg width="8" height="8" viewBox="0 0 8 8" fill="none" xmlns="http://www.w3.org/2000/svg">
<path d="M7.97038 2.98245C7.90113 2.77626 7.72338 2.62529 7.50937 2.59252L5.4278 2.27303L4.52302 0.333935C4.42777 0.130323 4.22401 0 4.00001 0C3.776 0 3.57224 0.130323 3.47699 0.333935L2.57221 2.27303L0.490395 2.59252C0.276639 2.62529 0.0988828 2.77626 0.0298806 2.98245C-0.0388716 3.18916 0.0131301 3.41677 0.164135 3.57213L1.68968 5.14426L1.33592 7.32516C1.29992 7.54477 1.39217 7.76516 1.57293 7.89368C1.67218 7.96413 1.78894 8 1.90569 8C2.00169 8 2.09795 7.97574 2.1852 7.92748L4.00001 6.91897L5.81507 7.92748C5.90232 7.97574 5.99857 8 6.09432 8C6.21108 8 6.32783 7.96413 6.42734 7.89368C6.60809 7.76516 6.69984 7.54477 6.66409 7.32516L6.31008 5.14426L7.83613 3.57213C7.98689 3.41652 8.03864 3.1889 7.97038 2.98245ZM5.89707 4.73884C5.76906 4.87045 5.71106 5.056 5.74031 5.23794L6.09432 7.41884L4.27927 6.41084C4.19226 6.36232 4.09626 6.33832 3.99976 6.33832C3.90375 6.33832 3.8075 6.36258 3.7205 6.41084L1.90544 7.41884L2.25945 5.23794C2.28895 5.056 2.23095 4.87045 2.10295 4.73884L0.577398 3.16671L2.65896 2.84671C2.84922 2.81755 3.01298 2.69471 3.09473 2.51948L4.00001 0.580903L4.90504 2.51974C4.98704 2.69497 5.15054 2.81755 5.34055 2.84697L7.42262 3.16697L5.89707 4.73884Z" fill="#828282"/>
</svg>
