<svg width="36" height="37" viewBox="0 0 36 37" fill="none" xmlns="http://www.w3.org/2000/svg">
<rect y="0.5" width="36" height="36" rx="18" fill="#EDEBF8"/>
<path d="M11.999 10.4062C10.342 10.4062 8.99902 11.7493 8.99902 13.4062V20.4062C8.44702 20.4062 7.99902 20.8542 7.99902 21.4062V23.4062C7.99902 25.1023 9.24102 26.4062 10.999 26.4062H24.999C26.757 26.4062 27.999 25.1023 27.999 23.4062V21.4062C27.999 20.8542 27.551 20.4062 26.999 20.4062V13.4062C26.999 11.7493 25.656 10.4062 23.999 10.4062H11.999ZM11.999 12.4062H23.999C24.551 12.4062 24.999 12.8542 24.999 13.4062V20.4062H10.999V13.4062C10.999 12.8542 11.447 12.4062 11.999 12.4062ZM9.99902 22.4062H25.999V23.4062C25.999 24.0192 25.63 24.4062 24.999 24.4062H10.999C10.368 24.4062 9.99902 24.0192 9.99902 23.4062V22.4062Z" fill="#5038BC"/>
</svg>
