<svg width="36" height="37" viewBox="0 0 36 37" fill="none" xmlns="http://www.w3.org/2000/svg">
<rect y="0.5" width="36" height="36" rx="18" fill="#FFFBF0"/>
<path d="M18 8.5C15.2386 8.5 13 10.7386 13 13.5C13 16.2614 15.2386 18.5 18 18.5C20.7614 18.5 23 16.2614 23 13.5C23 10.7386 20.7614 8.5 18 8.5ZM18 10.5C19.6569 10.5 21 11.8431 21 13.5C21 15.1569 19.6569 16.5 18 16.5C16.3431 16.5 15 15.1569 15 13.5C15 11.8431 16.3431 10.5 18 10.5ZM14.4688 19.8125C11.8545 20.527 10 22.8002 10 25.5V27.5C10 28.0523 10.4477 28.5 11 28.5H25C25.5523 28.5 26 28.0523 26 27.5V25.5C26 22.8002 24.1455 20.527 21.5312 19.8125C21.3071 19.7512 21.0869 19.7795 20.875 19.875C19.9595 20.2876 18.9849 20.5 18 20.5C17.0151 20.5 16.0405 20.2876 15.125 19.875C14.9131 19.7795 14.6929 19.7512 14.4688 19.8125ZM14.875 21.8125C15.8848 22.1944 16.9197 22.5 18 22.5C19.0803 22.5 20.1152 22.1944 21.125 21.8125C22.8284 22.3285 24 23.7664 24 25.5V26.5H12V25.5C12 23.7664 13.1716 22.3285 14.875 21.8125Z" fill="#FFD668"/>
</svg>
