<svg width="31" height="26" viewBox="0 0 31 26" fill="none" xmlns="http://www.w3.org/2000/svg">
<path d="M30.3812 3.30066C29.2586 3.81056 28.0688 4.14499 26.8509 4.29299C28.1343 3.51817 29.0926 2.27734 29.5392 0.812205C28.3403 1.53981 27.0324 2.05577 25.6693 2.33887C24.7456 1.3315 23.5274 0.665483 22.2019 0.443156C20.8765 0.220829 19.517 0.454492 18.3325 1.10824C17.148 1.76199 16.204 2.79965 15.6454 4.06178C15.0869 5.32391 14.9448 6.74068 15.241 8.09438C12.8096 7.96836 10.431 7.31461 8.26023 6.17568C6.08941 5.03675 4.17495 3.43816 2.64141 1.48394C2.10335 2.45567 1.81834 3.55504 1.81424 4.67466C1.81351 5.71372 2.06124 6.73686 2.5354 7.65309C3.00956 8.56932 3.69546 9.35023 4.53209 9.92637C3.56353 9.90481 2.61497 9.63743 1.76993 9.14777V9.22411C1.76855 10.6815 2.25448 12.0945 3.14546 13.224C4.03643 14.3536 5.2777 15.1302 6.6591 15.4223C6.11811 15.5599 5.56166 15.6215 5.00476 15.6055C4.63627 15.6408 4.26543 15.6408 3.89694 15.6055C4.29339 16.8591 5.05587 17.9549 6.07952 18.7422C7.10316 19.5296 8.33768 19.9698 9.61328 20.0023C7.44262 21.716 4.78196 22.6345 2.05058 22.6129C1.55716 22.619 1.06386 22.5935 0.573486 22.5366C3.36999 24.3956 6.62805 25.3767 9.95301 25.3609C12.2405 25.3771 14.5083 24.9235 16.6246 24.0262C18.741 23.1289 20.6638 21.806 22.2813 20.1342C23.8989 18.4624 25.1789 16.475 26.047 14.2876C26.9151 12.1002 27.3541 9.75634 27.3384 7.39211C27.3384 7.11731 27.3384 6.84251 27.3384 6.58298C28.5349 5.68639 29.5656 4.57456 30.3812 3.30066Z" fill="#5038BC"/>
</svg>
