<svg width="242" height="45" viewBox="0 0 242 45" fill="none" xmlns="http://www.w3.org/2000/svg">
<rect y="7.55762" width="6.85343" height="37.1816" fill="#5038BC"/>
<path d="M21.8453 0.739258L28.6987 7.55766L-1.36495e-05 7.55765L6.85342 0.739257L21.8453 0.739258Z" fill="#5038BC"/>
<path d="M5.88965 24.3906L9.31636 17.5722L28.6987 17.5722L21.8453 24.3906L5.88965 24.3906Z" fill="#5038BC"/>
<mask id="mask0" style="mask-type:alpha" maskUnits="userSpaceOnUse" x="0" y="7" width="7" height="28">
<rect opacity="0.45" y="7.55762" width="6.85343" height="27.2736" fill="#B9B9B9"/>
</mask>
<g mask="url(#mask0)">
<ellipse opacity="0.5" cx="5.94175" cy="7.57246" rx="7.57701" ry="4.33857" fill="url(#paint0_radial)"/>
<ellipse opacity="0.5" cx="9.95872" cy="24.3903" rx="7.0676" ry="4.68765" fill="url(#paint1_radial)"/>
</g>
<mask id="mask1" style="mask-type:alpha" maskUnits="userSpaceOnUse" x="6" y="0" width="16" height="8">
<rect opacity="0.45" x="21.8457" y="0.739258" width="6.8184" height="14.9919" transform="rotate(90 21.8457 0.739258)" fill="#5038BC"/>
</mask>
<g mask="url(#mask1)">
<ellipse opacity="0.5" cx="22.1671" cy="6.38569" rx="6.71186" ry="4.39048" transform="rotate(90 22.1671 6.38569)" fill="#5038BC"/>
</g>
<path d="M21.8457 0.739258L28.6991 7.55765V17.5722H21.8457V0.739258Z" fill="#5038BC"/>
<mask id="mask2" style="mask-type:alpha" maskUnits="userSpaceOnUse" x="21" y="8" width="8" height="10">
<rect opacity="0.45" x="28.6987" y="17.5723" width="6.85343" height="9.37529" transform="rotate(-180 28.6987 17.5723)" fill="#B9B9B9"/>
</mask>
<g mask="url(#mask2)">
<ellipse opacity="0.5" cx="23.0232" cy="18.2116" rx="6.74635" ry="4.36803" transform="rotate(-180 23.0232 18.2116)" fill="url(#paint2_radial)"/>
</g>
<mask id="mask3" style="mask-type:alpha" maskUnits="userSpaceOnUse" x="9" y="17" width="10" height="8">
<rect opacity="0.45" width="6.8184" height="9.42347" transform="matrix(-4.3936e-08 1 1 4.34879e-08 9.42383 17.5723)" fill="#B9B9B9"/>
</mask>
<g mask="url(#mask3)">
<ellipse opacity="0.7" rx="12.2938" ry="4.38131" transform="matrix(0.641681 0.766972 0.770196 -0.637807 10.7094 23.012)" fill="url(#paint3_radial)"/>
</g>
<path d="M5.89002 24.3905L9.31674 17.5721L28.6456 40.2113L23.4519 44.6859L5.89002 24.3905Z" fill="#5038BC"/>
<path d="M44.6876 11.0425C44.6876 12.0369 44.1468 12.6336 42.9931 12.6336H41.0824V9.48752H42.9931C44.1468 9.48752 44.6876 10.1023 44.6876 11.0425ZM38 6.92006V19.6127H41.0824V14.8213H41.8215L44.4532 19.6127H47.9322L45.012 14.5863C46.9588 14.0077 47.8241 12.507 47.8241 10.9159C47.8241 8.71005 46.2738 6.92006 43.1734 6.92006H38ZM49.759 19.6127H52.8414V6.92006H49.759V19.6127ZM64.2684 15.8338C64.2684 11.5849 58.0135 12.5793 58.0135 10.3735C58.0135 9.57792 58.5723 9.19823 59.3113 9.21631C60.1405 9.23439 60.7173 9.72257 60.7714 10.5362H64.1062C63.98 8.11339 62.1233 6.73926 59.3654 6.73926C56.7156 6.73926 54.7508 8.07723 54.7508 10.482C54.7147 14.984 61.0418 13.7184 61.0418 16.0689C61.0418 16.8102 60.465 17.2622 59.5637 17.2622C58.6984 17.2622 58.0856 16.7921 57.9954 15.8158H54.7147C54.8049 18.3832 56.9319 19.7393 59.6538 19.7393C62.61 19.7393 64.2684 17.9674 64.2684 15.8338ZM65.4803 9.39712H68.8331V19.6127H71.9156V9.39712H75.2684V6.92006H65.4803V9.39712ZM84.5665 6.92006H76.8154V19.6127H84.5665V17.1356H79.8978V14.3512H84.0257V11.9646H79.8978V9.39712H84.5665V6.92006ZM93.904 19.6127H97.6714L92.5882 13.1398L97.4912 6.92006H93.868L89.65 12.4889V6.92006H86.5675V19.6127H89.65V14.0077L93.904 19.6127ZM102.956 19.6127H106.039V14.4778H109.896V12.0731H106.039V9.39712H111.194V6.92006H102.956V19.6127ZM121.448 19.6127H124.711L120.133 6.92006H116.563L111.985 19.6127H115.212L115.969 17.3707H120.691L121.448 19.6127ZM119.898 14.984H116.78L118.33 10.3373L119.898 14.984ZM135.298 15.8338C135.298 11.5849 129.043 12.5793 129.043 10.3735C129.043 9.57792 129.602 9.19823 130.341 9.21631C131.17 9.23439 131.747 9.72257 131.801 10.5362H135.136C135.009 8.11339 133.153 6.73926 130.395 6.73926C127.745 6.73926 125.78 8.07723 125.78 10.482C125.744 14.984 132.071 13.7184 132.071 16.0689C132.071 16.8102 131.494 17.2622 130.593 17.2622C129.728 17.2622 129.115 16.7921 129.025 15.8158H125.744C125.834 18.3832 127.961 19.7393 130.683 19.7393C133.639 19.7393 135.298 17.9674 135.298 15.8338ZM137.195 19.6127H140.277V6.92006H137.195V19.6127ZM142.511 6.92006V19.6127H149.631V17.226H145.593V6.92006H142.511ZM158.437 19.6127H162.205L157.122 13.1398L162.025 6.92006H158.401L154.183 12.4889V6.92006H151.101V19.6127H154.183V14.0077L158.437 19.6127ZM176.126 13.2302C176.126 9.4152 173.26 6.73926 169.655 6.73926C166.067 6.73926 163.147 9.4152 163.147 13.2302C163.147 17.0452 166.067 19.7393 169.655 19.7393C173.242 19.7393 176.126 17.0452 176.126 13.2302ZM166.302 13.2302C166.302 10.9701 167.6 9.54176 169.655 9.54176C171.673 9.54176 172.989 10.9701 172.989 13.2302C172.989 15.4541 171.673 16.9187 169.655 16.9187C167.6 16.9187 166.302 15.4541 166.302 13.2302ZM177.841 19.6127H180.924V11.9827L183.772 19.6127H186.259L189.089 12.0007V19.6127H192.172V6.92006H188.549L185.034 15.7073L181.482 6.92006H177.841V19.6127ZM198.154 14.4959C198.154 18.0035 200.444 19.7393 203.382 19.7393C206.302 19.7393 208.753 18.0035 208.753 14.4959V6.92006H205.671V14.5139C205.671 16.0146 204.896 16.8825 203.436 16.8825C201.976 16.8825 201.237 16.0146 201.237 14.5139V6.92006H198.154V14.4959ZM210.918 19.6127H214V6.92006H210.918V19.6127Z" fill="#5038BC"/>
<path d="M44.888 33.9693H42.34L42.802 31.8133H45.35L44.888 33.9693ZM44.006 38.0993H45.868L46.372 35.7193H48.528V33.9693H46.75L47.212 31.8133H49.382V30.0633H47.59L48.08 27.7393H46.218L45.728 30.0633H43.18L43.67 27.7393H41.822L41.332 30.0633H38.854V31.8133H40.954L40.492 33.9693H38V35.7193H40.114L39.61 38.0993H41.458L41.962 35.7193H44.51L44.006 38.0993ZM50.5401 33.1993C50.5401 36.1253 52.6821 38.1833 55.4961 38.1833C57.6661 38.1833 59.4301 37.0353 60.0881 35.0193H57.8341C57.3721 35.9713 56.5321 36.4333 55.4821 36.4333C53.7741 36.4333 52.5561 35.1733 52.5561 33.1993C52.5561 31.2113 53.7741 29.9653 55.4821 29.9653C56.5321 29.9653 57.3721 30.4273 57.8341 31.3653H60.0881C59.4301 29.3633 57.6661 28.2013 55.4961 28.2013C52.6821 28.2013 50.5401 30.2733 50.5401 33.1993ZM71.2962 33.1853C71.2962 30.2593 69.0842 28.1873 66.2982 28.1873C63.5402 28.1873 61.2862 30.2593 61.2862 33.1853C61.2862 36.1253 63.5402 38.1973 66.2982 38.1973C69.0702 38.1973 71.2962 36.1253 71.2962 33.1853ZM63.3022 33.1853C63.3022 31.1973 64.5202 29.9513 66.2982 29.9513C68.0622 29.9513 69.2802 31.1973 69.2802 33.1853C69.2802 35.1733 68.0622 36.4473 66.2982 36.4473C64.5202 36.4473 63.3022 35.1733 63.3022 33.1853ZM72.7543 28.3273V38.0993H77.9343V36.5453H74.7143V28.3273H72.7543ZM79.1801 28.3273V38.0993H84.3601V36.5453H81.1401V28.3273H79.1801ZM92.2419 38.0993H94.3139L90.7999 28.3133H88.5179L85.0039 38.0993H87.0619L87.7059 36.2373H91.5979L92.2419 38.0993ZM91.0659 34.6693H88.2379L89.6519 30.5813L91.0659 34.6693ZM101.073 35.2153C101.073 36.0413 100.513 36.5033 99.5614 36.5033H97.5874V33.8713H99.5194C100.471 33.8713 101.073 34.3753 101.073 35.2153ZM100.835 31.1413C100.835 31.9393 100.303 32.3593 99.3794 32.3593H97.5874V29.9093H99.3794C100.303 29.9093 100.835 30.3573 100.835 31.1413ZM103.061 35.4533C103.061 34.3053 102.277 33.2833 101.171 33.0873C102.123 32.7793 102.837 32.0373 102.837 30.8473C102.837 29.3913 101.703 28.3273 99.6594 28.3273H95.6274V38.0993H99.8414C101.871 38.0993 103.061 37.0073 103.061 35.4533ZM114.158 33.1853C114.158 30.2593 111.946 28.1873 109.16 28.1873C106.401 28.1873 104.147 30.2593 104.147 33.1853C104.147 36.1253 106.401 38.1973 109.16 38.1973C111.932 38.1973 114.158 36.1253 114.158 33.1853ZM106.163 33.1853C106.163 31.1973 107.382 29.9513 109.16 29.9513C110.924 29.9513 112.142 31.1973 112.142 33.1853C112.142 35.1733 110.924 36.4473 109.16 36.4473C107.382 36.4473 106.163 35.1733 106.163 33.1853ZM120.796 31.3653C120.796 32.2473 120.306 32.8213 119.214 32.8213H117.576V29.9513H119.214C120.306 29.9513 120.796 30.4973 120.796 31.3653ZM115.616 28.3273V38.0993H117.576V34.2913H118.5L120.656 38.0993H122.924L120.586 34.1373C122.154 33.7173 122.812 32.5133 122.812 31.3233C122.812 29.6853 121.636 28.3273 119.284 28.3273H115.616ZM131.22 38.0993H133.292L129.778 28.3133H127.496L123.982 38.0993H126.04L126.684 36.2373H130.576L131.22 38.0993ZM130.044 34.6693H127.216L128.63 30.5813L130.044 34.6693ZM134.088 29.9093H136.692V38.0993H138.652V29.9093H141.256V28.3273H134.088V29.9093ZM142.686 38.0993H144.646V28.3273H142.686V38.0993ZM150.6 36.0973L147.912 28.3273H145.812L149.396 38.0993H151.776L155.36 28.3273H153.274L150.6 36.0973ZM162.206 28.3133H156.536V38.0993H162.206V36.5033H158.496V33.9133H161.786V32.3593H158.496V29.9093H162.206V28.3133ZM167.137 28.3413H164.099V38.0993H167.137C170.343 38.0993 172.317 36.2653 172.317 33.2413C172.317 30.2173 170.343 28.3413 167.137 28.3413ZM165.373 37.0493V29.3773H167.137C169.685 29.3773 171.015 30.8613 171.015 33.2413C171.015 35.6213 169.685 37.0493 167.137 37.0493H165.373ZM173.997 38.0993H175.271V28.3413H173.997V38.0993ZM183.785 35.4393C183.785 31.8273 178.521 33.3953 178.521 30.8753C178.521 29.8253 179.347 29.2793 180.397 29.3073C181.587 29.3213 182.203 30.0633 182.287 30.7213H183.687C183.533 29.2373 182.315 28.2153 180.453 28.2153C178.521 28.2153 177.219 29.3073 177.219 30.9173C177.219 34.5433 182.497 32.8633 182.497 35.4953C182.497 36.4193 181.769 37.1193 180.537 37.1193C179.179 37.1193 178.605 36.3073 178.521 35.4953H177.163C177.191 37.1053 178.577 38.1973 180.537 38.1973C182.651 38.1973 183.785 36.8253 183.785 35.4393ZM190.881 31.2113C190.881 32.3033 190.251 33.0873 188.809 33.0873H186.933V29.3913H188.809C190.265 29.3913 190.881 30.1053 190.881 31.2113ZM185.659 28.3413V38.0993H186.933V34.1093H188.473L190.797 38.0993H192.323L189.873 34.0113C191.511 33.6473 192.197 32.4573 192.197 31.2113C192.197 29.6153 191.105 28.3413 188.809 28.3413H185.659ZM194.149 34.5013C194.149 37.0353 195.801 38.1973 197.817 38.1973C199.833 38.1973 201.499 37.0353 201.499 34.5013V28.3413H200.225V34.5153C200.225 36.3073 199.273 37.0773 197.831 37.0773C196.389 37.0773 195.423 36.3073 195.423 34.5153V28.3413H194.149V34.5013ZM204.898 32.9753V29.3913H206.774C208.23 29.3913 208.846 30.0633 208.846 31.1973C208.846 32.2893 208.23 32.9753 206.774 32.9753H204.898ZM210.148 31.1973C210.148 29.6013 209.07 28.3413 206.774 28.3413H203.624V38.0993H204.898V34.0253H206.774C209.196 34.0253 210.148 32.6813 210.148 31.1973ZM211.13 29.3773H213.804V38.0993H215.078V29.3773H217.738V28.3413H211.13V29.3773ZM219.306 38.0993H220.58V28.3413H219.306V38.0993ZM232.075 33.2133C232.075 30.2873 229.933 28.2293 227.175 28.2293C224.431 28.2293 222.275 30.2873 222.275 33.2133C222.275 36.1393 224.431 38.1973 227.175 38.1973C229.933 38.1973 232.075 36.1393 232.075 33.2133ZM223.577 33.2133C223.577 30.8193 225.117 29.3353 227.175 29.3353C229.233 29.3353 230.773 30.8193 230.773 33.2133C230.773 35.5933 229.233 37.0913 227.175 37.0913C225.117 37.0913 223.577 35.5933 223.577 33.2133ZM240.155 28.3273V36.0833L235.031 28.3273H233.757V38.0993H235.031V30.3293L240.155 38.0993H241.429V28.3273H240.155Z" fill="#5038BC"/>
<defs>
<radialGradient id="paint0_radial" cx="0" cy="0" r="1" gradientUnits="userSpaceOnUse" gradientTransform="translate(5.94175 7.57246) rotate(90) scale(4.33857 7.57701)">
<stop/>
<stop offset="0.917127" stop-opacity="0"/>
</radialGradient>
<radialGradient id="paint1_radial" cx="0" cy="0" r="1" gradientUnits="userSpaceOnUse" gradientTransform="translate(9.95872 24.3903) rotate(90) scale(4.68765 7.0676)">
<stop/>
<stop offset="0.917127" stop-opacity="0"/>
</radialGradient>
<radialGradient id="paint2_radial" cx="0" cy="0" r="1" gradientUnits="userSpaceOnUse" gradientTransform="translate(23.0232 18.2116) rotate(90) scale(4.36803 6.74635)">
<stop/>
<stop offset="0.917127" stop-opacity="0"/>
</radialGradient>
<radialGradient id="paint3_radial" cx="0" cy="0" r="1" gradientUnits="userSpaceOnUse" gradientTransform="translate(12.2938 4.38131) rotate(90) scale(4.38131 12.2938)">
<stop/>
<stop offset="0.917127" stop-opacity="0"/>
</radialGradient>
</defs>
</svg>
