<svg width="211" height="45" viewBox="0 0 211 45" fill="none" xmlns="http://www.w3.org/2000/svg">
<rect x="0.5" y="6.88545" width="6.90262" height="37.4484" fill="#5038BC"/>
<path d="M22.5022 0.0180817L29.4048 6.88542L0.500063 6.88542L7.40268 0.0180804L22.5022 0.0180817Z" fill="#5038BC"/>
<path d="M6.43201 23.8392L9.88332 16.9719L29.4048 16.9719L22.5022 23.8392L6.43201 23.8392Z" fill="#5038BC"/>
<mask id="mask0_253:1188" style="mask-type:alpha" maskUnits="userSpaceOnUse" x="0" y="6" width="8" height="29">
<rect opacity="0.45" x="0.5" y="6.88545" width="6.90262" height="27.4693" fill="#B9B9B9"/>
</mask>
<g mask="url(#mask0_253:1188)">
<ellipse opacity="0.5" cx="6.48417" cy="6.90086" rx="7.63139" ry="4.36971" fill="url(#paint0_radial_253:1188)"/>
<ellipse opacity="0.5" cx="10.5302" cy="23.8393" rx="7.11833" ry="4.72129" fill="url(#paint1_radial_253:1188)"/>
</g>
<mask id="mask1_253:1188" style="mask-type:alpha" maskUnits="userSpaceOnUse" x="7" y="0" width="16" height="7">
<rect opacity="0.45" x="22.5026" y="0.0180817" width="6.86733" height="15.0995" transform="rotate(90 22.5026 0.0180817)" fill="#5038BC"/>
</mask>
<g mask="url(#mask1_253:1188)">
<ellipse opacity="0.5" cx="22.8263" cy="5.7051" rx="6.76003" ry="4.42199" transform="rotate(90 22.8263 5.7051)" fill="#5038BC"/>
</g>
<path d="M22.5026 0.0180817L29.4052 6.88541V16.9718H22.5026V0.0180817Z" fill="#5038BC"/>
<mask id="mask2_253:1188" style="mask-type:alpha" maskUnits="userSpaceOnUse" x="22" y="7" width="8" height="10">
<rect opacity="0.45" x="29.4048" y="16.9718" width="6.90262" height="9.44258" transform="rotate(-180 29.4048 16.9718)" fill="#B9B9B9"/>
</mask>
<g mask="url(#mask2_253:1188)">
<ellipse opacity="0.5" cx="23.6885" cy="17.6159" rx="6.79477" ry="4.39938" transform="rotate(-180 23.6885 17.6159)" fill="url(#paint2_radial_253:1188)"/>
</g>
<mask id="mask3_253:1188" style="mask-type:alpha" maskUnits="userSpaceOnUse" x="9" y="16" width="11" height="8">
<rect opacity="0.45" width="6.86733" height="9.4911" transform="matrix(-4.3936e-08 1 1 4.34879e-08 9.99158 16.9718)" fill="#B9B9B9"/>
</mask>
<g mask="url(#mask3_253:1188)">
<ellipse opacity="0.7" rx="12.382" ry="4.41275" transform="matrix(0.641681 0.766972 0.770196 -0.637807 11.2863 22.4508)" fill="url(#paint3_radial_253:1188)"/>
</g>
<path d="M6.43239 23.8391L9.8837 16.9717L29.3512 39.7734L24.1204 44.2801L6.43239 23.8391Z" fill="#5038BC"/>
<path d="M49.4327 42.3093C48.1919 42.3093 47.08 42.1079 46.097 41.705C45.114 41.3021 44.3243 40.7059 43.7281 39.9162C43.148 39.1266 42.8418 38.1758 42.8095 37.0639H47.2089C47.2734 37.6924 47.4909 38.1758 47.8615 38.5143C48.2322 38.8365 48.7156 38.9977 49.3119 38.9977C49.9242 38.9977 50.4077 38.8607 50.7622 38.5868C51.1167 38.2967 51.294 37.9019 51.294 37.4023C51.294 36.9833 51.149 36.6369 50.8589 36.3629C50.585 36.089 50.2385 35.8634 49.8195 35.6861C49.4166 35.5088 48.8365 35.3074 48.0791 35.0818C46.9833 34.7434 46.0889 34.405 45.396 34.0666C44.703 33.7281 44.1068 33.2286 43.6072 32.5679C43.1077 31.9072 42.8579 31.045 42.8579 29.9814C42.8579 28.4022 43.43 27.1694 44.5741 26.2831C45.7183 25.3807 47.2089 24.9294 49.046 24.9294C50.9153 24.9294 52.422 25.3807 53.5662 26.2831C54.7104 27.1694 55.3227 28.4102 55.4033 30.0056H50.9314C50.8992 29.4577 50.6978 29.0307 50.3271 28.7245C49.9565 28.4022 49.4811 28.241 48.901 28.241C48.4014 28.241 47.9985 28.378 47.6923 28.652C47.3862 28.9098 47.2331 29.2885 47.2331 29.7881C47.2331 30.336 47.4909 30.763 48.0066 31.0692C48.5223 31.3754 49.328 31.7057 50.4238 32.0603C51.5196 32.4309 52.4059 32.7854 53.0828 33.1238C53.7757 33.4623 54.3719 33.9538 54.8715 34.5983C55.3711 35.2429 55.6208 36.0729 55.6208 37.0881C55.6208 38.055 55.3711 38.9332 54.8715 39.7229C54.3881 40.5125 53.679 41.141 52.7443 41.6083C51.8097 42.0756 50.7058 42.3093 49.4327 42.3093ZM71.4835 28.652V42.1401H67.3501V40.303C66.9311 40.8992 66.359 41.3827 65.6338 41.7533C64.9248 42.1079 64.1351 42.2851 63.2649 42.2851C62.2336 42.2851 61.3231 42.0595 60.5335 41.6083C59.7438 41.141 59.1315 40.4722 58.6964 39.602C58.2613 38.7318 58.0437 37.7085 58.0437 36.5321V28.652H62.153V35.9762C62.153 36.8786 62.3867 37.5796 62.854 38.0792C63.3213 38.5787 63.9498 38.8285 64.7394 38.8285C65.5452 38.8285 66.1817 38.5787 66.6491 38.0792C67.1164 37.5796 67.3501 36.8786 67.3501 35.9762V28.652H71.4835ZM79.9396 42.3335C78.7633 42.3335 77.7158 42.132 76.7972 41.7292C75.8787 41.3263 75.1535 40.7784 74.6217 40.0854C74.09 39.3764 73.7918 38.5868 73.7274 37.7166H77.8125C77.8608 38.1839 78.0784 38.5626 78.4651 38.8527C78.8519 39.1427 79.3273 39.2878 79.8913 39.2878C80.407 39.2878 80.8018 39.1911 81.0757 38.9977C81.3658 38.7882 81.5108 38.5223 81.5108 38.2C81.5108 37.8133 81.3094 37.5312 80.9065 37.354C80.5037 37.1606 79.851 36.9511 78.9486 36.7255C77.9817 36.4999 77.1759 36.2662 76.5314 36.0245C75.8868 35.7667 75.3308 35.3719 74.8635 34.8401C74.3961 34.2922 74.1625 33.5589 74.1625 32.6404C74.1625 31.8669 74.372 31.1659 74.7909 30.5374C75.226 29.8928 75.8545 29.3852 76.6764 29.0146C77.5144 28.6439 78.5054 28.4586 79.6496 28.4586C81.3416 28.4586 82.6711 28.8776 83.638 29.7156C84.621 30.5535 85.185 31.6654 85.3301 33.0513H81.5108C81.4464 32.584 81.2369 32.2134 80.8824 31.9394C80.5439 31.6654 80.0927 31.5285 79.5287 31.5285C79.0453 31.5285 78.6746 31.6252 78.4168 31.8185C78.1589 31.9958 78.03 32.2456 78.03 32.5679C78.03 32.9546 78.2315 33.2447 78.6343 33.4381C79.0533 33.6315 79.6979 33.8248 80.5681 34.0182C81.5672 34.2761 82.381 34.5339 83.0095 34.7917C83.638 35.0334 84.1859 35.4363 84.6532 36.0003C85.1367 36.5482 85.3865 37.2895 85.4026 38.2242C85.4026 39.0138 85.177 39.7229 84.7257 40.3513C84.2906 40.9637 83.6541 41.4472 82.8161 41.8017C81.9943 42.1562 81.0354 42.3335 79.9396 42.3335ZM101.25 28.652V42.1401H97.1169V40.303C96.6979 40.8992 96.1258 41.3827 95.4006 41.7533C94.6916 42.1079 93.902 42.2851 93.0317 42.2851C92.0004 42.2851 91.0899 42.0595 90.3003 41.6083C89.5107 41.141 88.8983 40.4722 88.4632 39.602C88.0281 38.7318 87.8105 37.7085 87.8105 36.5321V28.652H91.9198V35.9762C91.9198 36.8786 92.1535 37.5796 92.6208 38.0792C93.0882 38.5787 93.7166 38.8285 94.5063 38.8285C95.312 38.8285 95.9485 38.5787 96.4159 38.0792C96.8832 37.5796 97.1169 36.8786 97.1169 35.9762V28.652H101.25ZM112.438 28.5069C114.017 28.5069 115.274 29.0226 116.209 30.054C117.16 31.0692 117.635 32.4712 117.635 34.2599V42.1401H113.526V34.8159C113.526 33.9135 113.292 33.2125 112.825 32.7129C112.357 32.2134 111.729 31.9636 110.939 31.9636C110.15 31.9636 109.521 32.2134 109.054 32.7129C108.586 33.2125 108.353 33.9135 108.353 34.8159V42.1401H104.219V28.652H108.353V30.4407C108.772 29.8445 109.336 29.3771 110.045 29.0387C110.754 28.6842 111.552 28.5069 112.438 28.5069Z" fill="#333333"/>
<path d="M131.143 25.1712V36.7255C131.143 38.5143 130.635 39.8921 129.62 40.859C128.621 41.8259 127.267 42.3093 125.559 42.3093C123.771 42.3093 122.336 41.8017 121.257 40.7864C120.177 39.7712 119.637 38.3289 119.637 36.4596H123.746C123.746 37.1687 123.891 37.7085 124.181 38.0792C124.472 38.4337 124.891 38.6109 125.438 38.6109C125.938 38.6109 126.325 38.4498 126.599 38.1275C126.873 37.8052 127.01 37.3379 127.01 36.7255V25.1712H131.143ZM133.66 35.3719C133.66 33.986 133.918 32.7693 134.434 31.7218C134.965 30.6744 135.682 29.8686 136.585 29.3046C137.487 28.7406 138.494 28.4586 139.606 28.4586C140.557 28.4586 141.387 28.652 142.096 29.0387C142.821 29.4255 143.377 29.9331 143.764 30.5616V28.652H147.897V42.1401H143.764V40.2305C143.361 40.859 142.797 41.3666 142.072 41.7533C141.363 42.1401 140.533 42.3335 139.582 42.3335C138.486 42.3335 137.487 42.0515 136.585 41.4874C135.682 40.9073 134.965 40.0935 134.434 39.046C133.918 37.9825 133.66 36.7577 133.66 35.3719ZM143.764 35.396C143.764 34.3647 143.474 33.5509 142.894 32.9546C142.33 32.3584 141.637 32.0603 140.815 32.0603C139.993 32.0603 139.292 32.3584 138.712 32.9546C138.148 33.5348 137.866 34.3405 137.866 35.3719C137.866 36.4032 138.148 37.2251 138.712 37.8374C139.292 38.4337 139.993 38.7318 140.815 38.7318C141.637 38.7318 142.33 38.4337 142.894 37.8374C143.474 37.2412 143.764 36.4274 143.764 35.396ZM150.066 35.3719C150.066 33.986 150.324 32.7693 150.84 31.7218C151.371 30.6744 152.088 29.8686 152.991 29.3046C153.893 28.7406 154.9 28.4586 156.012 28.4586C156.899 28.4586 157.704 28.6439 158.43 29.0146C159.171 29.3852 159.751 29.8848 160.17 30.5132V24.2526H164.303V42.1401H160.17V40.2063C159.783 40.8509 159.227 41.3666 158.502 41.7533C157.793 42.1401 156.963 42.3335 156.012 42.3335C154.9 42.3335 153.893 42.0515 152.991 41.4874C152.088 40.9073 151.371 40.0935 150.84 39.046C150.324 37.9825 150.066 36.7577 150.066 35.3719ZM160.17 35.396C160.17 34.3647 159.88 33.5509 159.3 32.9546C158.736 32.3584 158.043 32.0603 157.221 32.0603C156.399 32.0603 155.698 32.3584 155.118 32.9546C154.554 33.5348 154.272 34.3405 154.272 35.3719C154.272 36.4032 154.554 37.2251 155.118 37.8374C155.698 38.4337 156.399 38.7318 157.221 38.7318C158.043 38.7318 158.736 38.4337 159.3 37.8374C159.88 37.2412 160.17 36.4274 160.17 35.396ZM186.656 28.652L183.006 42.1401H178.437L176.31 33.3897L174.11 42.1401H169.566L165.892 28.652H170.025L171.935 38.2967L174.207 28.652H178.582L180.879 38.2484L182.764 28.652H186.656ZM187.41 35.3719C187.41 33.986 187.668 32.7693 188.184 31.7218C188.716 30.6744 189.433 29.8686 190.335 29.3046C191.238 28.7406 192.245 28.4586 193.357 28.4586C194.307 28.4586 195.137 28.652 195.846 29.0387C196.572 29.4255 197.127 29.9331 197.514 30.5616V28.652H201.648V42.1401H197.514V40.2305C197.111 40.859 196.547 41.3666 195.822 41.7533C195.113 42.1401 194.283 42.3335 193.332 42.3335C192.237 42.3335 191.238 42.0515 190.335 41.4874C189.433 40.9073 188.716 40.0935 188.184 39.046C187.668 37.9825 187.41 36.7577 187.41 35.3719ZM197.514 35.396C197.514 34.3647 197.224 33.5509 196.644 32.9546C196.08 32.3584 195.387 32.0603 194.565 32.0603C193.743 32.0603 193.042 32.3584 192.462 32.9546C191.898 33.5348 191.616 34.3405 191.616 35.3719C191.616 36.4032 191.898 37.2251 192.462 37.8374C193.042 38.4337 193.743 38.7318 194.565 38.7318C195.387 38.7318 196.08 38.4337 196.644 37.8374C197.224 37.2412 197.514 36.4274 197.514 35.396ZM208.772 24.2526V42.1401H204.638V24.2526H208.772Z" fill="#5038BC"/>
<path d="M46.425 7.04744C46.425 7.74084 46.0506 8.15688 45.2517 8.15688H43.9287V5.96322H45.2517C46.0506 5.96322 46.425 6.39187 46.425 7.04744ZM41.7943 4.17299V13.0233H43.9287V9.68235H44.4404L46.2628 13.0233H48.6717L46.6497 9.51846C47.9977 9.11503 48.5968 8.06863 48.5968 6.95919C48.5968 5.42111 47.5234 4.17299 45.3766 4.17299H41.7943ZM49.9367 13.0233H52.071V4.17299H49.9367V13.0233ZM59.9835 10.3884C59.9835 7.42566 55.6523 8.11906 55.6523 6.58097C55.6523 6.02626 56.0392 5.7615 56.551 5.77411C57.1252 5.78672 57.5246 6.12711 57.562 6.69444H59.8711C59.7838 5.00507 58.4981 4.04692 56.5884 4.04692C54.7536 4.04692 53.3931 4.97986 53.3931 6.65662C53.3682 9.79582 57.7492 8.91331 57.7492 10.5522C57.7492 11.0691 57.3498 11.3843 56.7257 11.3843C56.1266 11.3843 55.7022 11.0565 55.6398 10.3757H53.3682C53.4306 12.166 54.9034 13.1115 56.7882 13.1115C58.8351 13.1115 59.9835 11.876 59.9835 10.3884ZM60.8226 5.90018H63.1442V13.0233H65.2786V5.90018H67.6002V4.17299H60.8226V5.90018ZM74.0385 4.17299H68.6714V13.0233H74.0385V11.2961H70.8058V9.35456H73.6641V7.69041H70.8058V5.90018H74.0385V4.17299ZM80.5042 13.0233H83.1129L79.593 8.50988L82.988 4.17299H80.4792L77.5585 8.05602V4.17299H75.4241V13.0233H77.5585V9.11503L80.5042 13.0233ZM86.7723 13.0233H88.9067V9.44281H91.5777V7.76605H88.9067V5.90018H92.4764V4.17299H86.7723V13.0233ZM99.5769 13.0233H101.836L98.6657 4.17299H96.1944L93.024 13.0233H95.2583L95.7825 11.46H99.0527L99.5769 13.0233ZM98.5035 9.79582H96.3442L97.4176 6.55576L98.5035 9.79582ZM109.167 10.3884C109.167 7.42566 104.836 8.11906 104.836 6.58097C104.836 6.02626 105.222 5.7615 105.734 5.77411C106.308 5.78672 106.708 6.12711 106.745 6.69444H109.054C108.967 5.00507 107.681 4.04692 105.772 4.04692C103.937 4.04692 102.576 4.97986 102.576 6.65662C102.551 9.79582 106.932 8.91331 106.932 10.5522C106.932 11.0691 106.533 11.3843 105.909 11.3843C105.31 11.3843 104.885 11.0565 104.823 10.3757H102.551C102.614 12.166 104.087 13.1115 105.971 13.1115C108.018 13.1115 109.167 11.876 109.167 10.3884ZM110.48 13.0233H112.615V4.17299H110.48V13.0233ZM114.161 4.17299V13.0233H119.091V11.3591H116.295V4.17299H114.161ZM125.189 13.0233H127.798L124.278 8.50988L127.673 4.17299H125.164L122.244 8.05602V4.17299H120.109V13.0233H122.244V9.11503L125.189 13.0233ZM137.437 8.57292C137.437 5.91279 135.453 4.04692 132.956 4.04692C130.473 4.04692 128.451 5.91279 128.451 8.57292C128.451 11.233 130.473 13.1115 132.956 13.1115C135.44 13.1115 137.437 11.233 137.437 8.57292ZM130.635 8.57292C130.635 6.99701 131.534 6.00104 132.956 6.00104C134.354 6.00104 135.266 6.99701 135.266 8.57292C135.266 10.1236 134.354 11.1448 132.956 11.1448C131.534 11.1448 130.635 10.1236 130.635 8.57292ZM138.625 13.0233H140.76V7.70302L142.732 13.0233H144.454L146.414 7.71562V13.0233H148.548V4.17299H146.039L143.605 10.3001L141.146 4.17299H138.625V13.0233ZM152.691 9.45542C152.691 11.9012 154.276 13.1115 156.31 13.1115C158.332 13.1115 160.03 11.9012 160.03 9.45542V4.17299H157.896V9.46803C157.896 10.5144 157.359 11.1196 156.348 11.1196C155.337 11.1196 154.825 10.5144 154.825 9.46803V4.17299H152.691V9.45542ZM161.528 13.0233H163.663V4.17299H161.528V13.0233Z" fill="#5038BC"/>
<defs>
<radialGradient id="paint0_radial_253:1188" cx="0" cy="0" r="1" gradientUnits="userSpaceOnUse" gradientTransform="translate(6.48417 6.90086) rotate(90) scale(4.36971 7.63139)">
<stop/>
<stop offset="0.917127" stop-opacity="0"/>
</radialGradient>
<radialGradient id="paint1_radial_253:1188" cx="0" cy="0" r="1" gradientUnits="userSpaceOnUse" gradientTransform="translate(10.5302 23.8393) rotate(90) scale(4.72129 7.11833)">
<stop/>
<stop offset="0.917127" stop-opacity="0"/>
</radialGradient>
<radialGradient id="paint2_radial_253:1188" cx="0" cy="0" r="1" gradientUnits="userSpaceOnUse" gradientTransform="translate(23.6885 17.6159) rotate(90) scale(4.39938 6.79477)">
<stop/>
<stop offset="0.917127" stop-opacity="0"/>
</radialGradient>
<radialGradient id="paint3_radial_253:1188" cx="0" cy="0" r="1" gradientUnits="userSpaceOnUse" gradientTransform="translate(12.382 4.41275) rotate(90) scale(4.41275 12.382)">
<stop/>
<stop offset="0.917127" stop-opacity="0"/>
</radialGradient>
</defs>
</svg>
