<svg width="138" height="26" viewBox="0 0 138 26" fill="none" xmlns="http://www.w3.org/2000/svg">
<path fill-rule="evenodd" clip-rule="evenodd" d="M25.7328 9.4346C25.3026 6.98756 24.0808 4.75364 22.2588 3.08266C20.1737 1.08662 17.4049 -0.0178974 14.5317 0.000219394C13.9491 -0.00312806 13.3672 0.0438108 12.7926 0.140523C11.5607 0.335925 10.3696 0.736795 9.268 1.32673C8.65518 1.65275 8.07551 2.03866 7.5373 2.47892C7.21103 2.74391 6.9003 3.02783 6.60668 3.32925C6.53229 3.4072 6.45649 3.48373 6.38069 3.56026C6.2291 3.71332 6.07751 3.86637 5.93714 4.03077L5.91821 4.05294L5.91818 4.05298C5.71839 4.28696 5.58686 4.441 5.42762 4.64301C5.10505 5.05875 4.811 5.49627 4.54753 5.95251C4.19081 6.56483 3.89193 7.20967 3.65481 7.8785C3.50909 8.28485 3.38677 8.69937 3.28846 9.11998C3.18739 9.57065 3.10739 10.0256 3.04422 10.4805C3.01243 10.6892 3.00224 10.9026 2.99191 11.1192L2.9919 11.1192C2.98855 11.1894 2.98518 11.26 2.98106 11.3308C2.97522 11.3812 2.96536 11.4309 2.95158 11.4796V12.33C2.96843 12.3696 2.96281 12.4131 2.9572 12.4566C2.95439 12.4783 2.95158 12.5 2.95158 12.5213C2.95709 12.8673 2.98664 13.2126 3.04001 13.5544C3.08605 13.9195 3.15354 14.2816 3.24214 14.6386C3.24214 14.6627 3.24869 14.6863 3.25524 14.7099C3.26834 14.7572 3.28144 14.8044 3.24214 14.8554C3.18565 14.9236 3.12858 14.9905 3.07158 15.0574L3.07157 15.0574C2.97559 15.1699 2.87982 15.2823 2.78735 15.3996C2.56293 15.6865 2.35485 15.986 2.16413 16.2967C2.14877 16.3168 2.14043 16.3415 2.14043 16.3669C2.14043 16.3923 2.14877 16.417 2.16413 16.437C2.25984 16.5941 2.35282 16.7538 2.44695 16.9156L2.44699 16.9156L2.447 16.9156C2.51852 17.0385 2.5907 17.1626 2.66524 17.2874C3.1506 18.0575 3.68364 18.7959 4.26118 19.4982C4.5412 19.8473 4.82974 20.1677 5.12213 20.4923C5.18589 20.5631 5.24984 20.6341 5.31392 20.7057C5.48657 20.8928 5.67185 21.0713 5.85713 21.2456C5.91955 21.3044 5.9877 21.3694 6.05885 21.4372C6.19891 21.5708 6.35057 21.7154 6.49299 21.8451C6.77873 22.1048 7.07239 22.3485 7.37013 22.5955L7.39834 22.6189C7.79417 22.942 8.19842 23.2482 8.61951 23.5373C9.04061 23.8264 9.4617 24.1027 9.8828 24.3578C9.91798 24.3865 9.96182 24.4021 10.007 24.4021C10.0522 24.4021 10.0961 24.3865 10.1312 24.3578C10.5858 24.059 11.0091 23.7143 11.3945 23.3289C11.3993 23.3247 11.404 23.3203 11.4087 23.316C11.4369 23.2895 11.4643 23.2639 11.504 23.2822C11.5827 23.306 11.6629 23.3244 11.744 23.3375C12.1473 23.439 12.5566 23.5143 12.9694 23.5628C13.1724 23.5884 13.3791 23.5988 13.5871 23.6092H13.5871C13.6898 23.6144 13.7928 23.6195 13.8958 23.6266H14.1822C14.2675 23.6169 14.3537 23.6169 14.439 23.6266C14.5039 23.6095 14.5688 23.6153 14.6324 23.621H14.6325C14.6638 23.6238 14.6948 23.6266 14.7254 23.6266C14.9865 23.6266 15.2433 23.6011 15.5002 23.5713C16.1262 23.4999 16.7457 23.3791 17.353 23.2099C18.3219 22.9361 19.2496 22.5313 20.1112 22.0067C21.1119 21.4005 22.0151 20.6435 22.7893 19.7618C24.0648 18.4053 24.9981 16.7587 25.5104 14.9612C26.0227 13.1637 26.099 11.2681 25.7328 9.4346ZM21.2987 18.7882C20.0578 20.0849 18.468 20.9865 16.7256 21.3817C15.912 21.5845 15.0742 21.6703 14.2369 21.6368C11.8946 21.5718 9.66046 20.6274 7.97103 18.988C6.46531 17.5829 5.45168 15.7225 5.08232 13.6862C4.77336 12.2076 4.808 10.6768 5.18354 9.21401C5.55908 7.75119 6.26529 6.39614 7.24674 5.25524C8.58415 3.66105 10.4202 2.57519 12.4515 2.17706C13.1867 2.01446 13.9396 1.9473 14.6917 1.97723C16.7799 2.03615 18.7892 2.79614 20.4017 4.13706C22.0848 5.4972 23.2703 7.38541 23.7705 9.50263C23.958 10.289 24.0471 11.096 24.0358 11.9048C24.0536 14.4756 23.0707 16.9506 21.2987 18.7967V18.7882ZM121.275 9.27331C121.275 8.1934 121.018 7.20702 119.965 6.72233C118.605 6.1186 117.018 6.81587 117.018 8.53778C116.965 8.68627 116.965 8.84846 117.018 8.99695C116.98 9.74099 117.439 10.1917 117.965 10.5828C118.829 11.1556 119.76 11.6197 120.736 11.9646C121.999 12.5003 123.182 13.1721 123.974 14.3838C124.407 15.0807 124.662 15.8755 124.715 16.6967C124.744 17.0149 124.744 17.3351 124.715 17.6533C124.484 20.2298 122.74 21.6328 120.525 21.9985C120.309 22.0343 120.091 22.0555 119.872 22.0767C119.78 22.0857 119.687 22.0946 119.595 22.1047C119.339 22.1312 119.08 22.1312 118.824 22.1047C117.611 22.0739 116.43 21.7029 115.413 21.0333C114.896 20.6972 114.453 20.2573 114.111 19.741C113.769 19.2246 113.536 18.6428 113.426 18.0317C113.388 17.8331 113.371 17.6344 113.354 17.4358L113.354 17.4356C113.344 17.3197 113.334 17.2037 113.32 17.0878C113.284 16.8511 113.284 16.6102 113.32 16.3735C113.727 16.2992 114.142 16.2806 114.554 16.3183H116.201C116.533 16.3183 116.622 16.3863 116.622 16.7434C116.604 17.1274 116.661 17.5113 116.791 17.8726C116.922 18.2339 117.122 18.5654 117.38 18.848C118.041 19.524 119.965 19.7961 120.807 18.7757C121.069 18.4448 121.242 18.0522 121.311 17.6349C121.381 17.2176 121.343 16.7893 121.203 16.3905C120.984 15.5615 120.327 15.1406 119.654 14.7537C119.228 14.5201 118.776 14.3443 118.323 14.1684C117.952 14.0241 117.581 13.8798 117.224 13.7035C116.398 13.323 115.625 12.8341 114.925 12.2495C114.26 11.6621 113.814 10.8623 113.661 9.98333C113.471 9.03273 113.519 8.04924 113.8 7.12198C114.1 6.20261 114.692 5.40895 115.485 4.86437C117.388 3.46133 120.711 3.49959 122.568 4.86437C123.162 5.27467 123.653 5.81914 124.002 6.45457C124.352 7.09 124.55 7.7989 124.58 8.52502C124.58 8.66289 124.598 8.7912 124.616 8.92652C124.628 9.01238 124.64 9.10106 124.648 9.19678C124.614 9.32858 124.513 9.34134 124.404 9.34134H121.414C121.386 9.34975 121.357 9.34741 121.331 9.3348C121.305 9.32219 121.285 9.30023 121.275 9.27331ZM62.4612 22.1517H59.4461C59.1893 22.1517 59.1219 22.0794 59.1219 21.8116V4.52443C59.1219 4.26508 59.1724 4.17579 59.4419 4.18005H63.1939C63.4255 4.18005 63.5139 4.23532 63.5771 4.49892C64.2633 7.36957 64.9594 10.2362 65.656 13.1044L65.656 13.1047L65.6561 13.105L65.6562 13.1054L65.6563 13.1058L65.6564 13.1063L65.6566 13.1073L65.6569 13.1083L65.6571 13.1091L65.6573 13.1099L65.6578 13.1121L65.6583 13.1143L65.6595 13.1191L65.6604 13.123L65.6612 13.126L65.6625 13.1317L65.6635 13.1357C65.9775 14.4285 66.2915 15.7217 66.6047 17.0157C66.6235 17.1294 66.6682 17.2371 66.7353 17.3304C66.9219 16.7965 67.0628 16.2474 67.1564 15.6892C67.4637 14.4949 67.7516 13.2948 68.0397 12.0939L68.04 12.0928L68.0402 12.0918C68.3519 10.7924 68.6638 9.49227 69.0008 8.19784C69.1658 7.56813 69.3155 6.93622 69.465 6.30547L69.465 6.30541L69.465 6.30535L69.4651 6.30529L69.4651 6.30523L69.4651 6.30517L69.4651 6.30506L69.4652 6.30494L69.4652 6.30483L69.4652 6.30471L69.4653 6.30429C69.6094 5.69616 69.7533 5.08911 69.9103 4.48616C69.9651 4.26933 70.0451 4.19705 70.2388 4.19705H74.1171C74.4394 4.19705 74.4297 4.37538 74.4196 4.56209V4.56216V4.56223V4.5623C74.4178 4.59508 74.416 4.62811 74.416 4.66048V18.9757V21.8243C74.416 22.0922 74.3487 22.1687 74.0876 22.1645H71.0726C71.0243 22.0283 71.0113 21.882 71.0347 21.7393V11.5651C71.0347 11.5357 71.0408 11.503 71.0472 11.4691C71.0666 11.3659 71.0879 11.2529 70.942 11.1952C70.7974 11.7095 70.6516 12.223 70.5057 12.7367C70.2777 13.5396 70.0495 14.3429 69.8261 15.1493C69.1973 17.4168 68.5727 19.6957 67.9522 21.9859C67.9059 22.139 67.8512 22.1815 67.7122 22.1815H65.8341C65.5558 22.1815 65.5205 21.9739 65.49 21.7949C65.4822 21.7491 65.4747 21.7051 65.4636 21.667C65.1768 20.691 64.9073 19.6951 64.638 18.7002C64.5554 18.3949 64.4728 18.0897 64.3898 17.7853C64.23 17.1994 64.0732 16.6125 63.9165 16.026C63.7469 15.3911 63.5773 14.7567 63.4044 14.1246C63.2332 13.4925 63.0544 12.8605 62.8757 12.2284C62.7863 11.9124 62.697 11.5963 62.6086 11.2803C62.4465 11.3432 62.469 11.4621 62.4916 11.5816L62.4916 11.5817C62.4995 11.6236 62.5075 11.6657 62.5075 11.7054V21.7606C62.5237 21.8928 62.5078 22.0271 62.4612 22.1517ZM103.455 4.17995H101.77C101.655 4.24758 101.669 4.35967 101.684 4.47925C101.69 4.52505 101.696 4.57195 101.694 4.61787V21.7945C101.669 21.9286 101.682 22.0673 101.732 22.1941H111.548C111.604 21.2896 111.614 20.3829 111.578 19.4773C111.578 19.4603 111.54 19.4348 111.514 19.4348C109.462 19.4518 107.412 19.4603 105.362 19.4603C105.132 19.4603 105.138 19.333 105.145 19.2005C105.146 19.1779 105.147 19.1552 105.147 19.133V14.656C105.147 14.3414 105.24 14.2818 105.531 14.2818C106.038 14.2818 106.548 14.2795 107.058 14.2771H107.058C108.079 14.2724 109.104 14.2677 110.121 14.2818C110.479 14.2818 110.542 14.1883 110.542 13.8567C110.516 13.2062 110.516 12.5514 110.542 11.9052C110.55 11.5991 110.466 11.5225 110.167 11.5225H105.493C105.232 11.5225 105.16 11.446 105.16 11.1824V7.35592C105.16 7.00729 105.253 6.93076 105.581 6.93076H111.258C111.514 6.93501 111.586 6.86698 111.586 6.59913C111.586 6.37948 111.584 6.15889 111.581 5.93814V5.93765V5.93717V5.93669V5.93621V5.93573V5.93525V5.93477V5.9343V5.93423V5.93416V5.93409V5.93403V5.93396V5.93389V5.93382V5.93375C111.577 5.4894 111.572 5.04442 111.586 4.60511C111.586 4.26498 111.502 4.17995 111.165 4.17995H103.455ZM40.5723 16.326H40.5726C41.2066 16.3308 41.84 16.3355 42.4715 16.3213C42.7873 16.3213 42.8926 16.4106 42.8673 16.7465C42.8083 17.9539 42.6315 19.1274 41.9156 20.1478C41.124 21.2404 40.0039 21.7506 38.7406 22.0142C38.3988 22.0682 38.0544 22.1037 37.7089 22.1205C37.4291 22.1536 37.1465 22.1536 36.8667 22.1205C36.0477 22.0975 35.2392 21.9277 34.4791 21.6188C33.7774 21.3189 33.1501 20.866 32.642 20.2927C32.1339 19.7194 31.7575 19.0398 31.5399 18.3026C31.3238 17.6308 31.1964 16.9332 31.1609 16.2278C31.1609 14.0509 31.1609 11.8868 31.1903 9.71426C31.2038 8.46951 31.5611 7.25327 32.222 6.20241C32.6463 5.55129 33.2126 5.00696 33.8776 4.61118C34.5426 4.21541 35.2885 3.97872 36.0582 3.91928C37.4222 3.72545 38.8127 3.90002 40.0881 4.42522C40.7639 4.70294 41.3587 5.14942 41.8169 5.72278C42.275 6.29615 42.5814 6.9776 42.7073 7.70324C42.8182 8.23875 42.8732 8.78452 42.8715 9.33161C42.8715 9.57821 42.8083 9.64623 42.5683 9.64198H40.1007C39.5533 9.64198 39.5112 9.57396 39.507 8.98723C39.5386 8.64623 39.4929 8.30244 39.3732 7.98197C39.2536 7.6615 39.0631 7.37278 38.8164 7.13777C38.5259 6.89829 38.1862 6.72711 37.822 6.63666C37.4578 6.54621 37.0783 6.53875 36.7109 6.61482C35.3718 6.85716 34.8075 7.57143 34.6054 8.96172C34.5178 9.90425 34.4925 10.8516 34.5296 11.7976C34.5296 13.3367 34.5296 14.88 34.5633 16.4191C34.5622 17.1121 34.7581 17.7908 35.1276 18.3748C35.324 18.7074 35.6088 18.9778 35.9497 19.1551C36.2906 19.3325 36.674 19.4098 37.0562 19.3782C37.2013 19.4257 37.3575 19.4257 37.5026 19.3782C37.982 19.4087 38.4541 19.2473 38.8166 18.9291C39.1791 18.6108 39.4029 18.1612 39.4396 17.6776C39.4499 17.6084 39.4698 17.5392 39.4898 17.4696L39.4898 17.4695C39.535 17.3122 39.5809 17.1525 39.5196 16.9846C39.5597 16.8945 39.5517 16.7948 39.5437 16.6949C39.5332 16.5638 39.5227 16.4323 39.6207 16.3213C39.9373 16.3213 40.254 16.3237 40.5706 16.326H40.5709H40.5712H40.5715H40.5718H40.5721H40.5723ZM97.0705 14.6541C97.5857 14.6571 98.1009 14.6601 98.6161 14.6601C98.6929 14.1881 98.7127 13.7084 98.6751 13.2316C98.7197 12.7908 98.7041 12.3458 98.6287 11.9093H96.3927L93.1335 11.8838C93.0972 11.8256 93.0823 11.7564 93.0914 11.6882V7.10071C93.083 7.03258 93.0978 6.96359 93.1335 6.90513H93.5546H99.3867C99.6394 6.90513 99.732 6.85411 99.732 6.57351V4.49871C99.7404 4.22235 99.6352 4.15858 99.3825 4.15858H89.9247C89.6679 4.15858 89.6173 4.24361 89.6173 4.48595V21.8114C89.6173 22.0707 89.6847 22.1302 89.9331 22.1302H93.045C93.0933 21.9941 93.1063 21.8477 93.0829 21.7051V15.1065C93.0556 14.964 93.0687 14.8167 93.1208 14.6814C94.4374 14.6386 95.754 14.6463 97.0705 14.6541ZM129.23 6.94728L129.23 6.94727C128.439 6.94255 127.648 6.93783 126.859 6.952C126.594 6.952 126.497 6.89248 126.51 6.59912V4.52007C126.51 4.26922 126.594 4.20544 126.821 4.20544H137.589C137.854 4.20544 137.921 4.29898 137.913 4.55833V6.63313C137.913 6.88398 137.85 6.95625 137.606 6.95625H134.321C133.9 6.95625 133.845 7.09231 133.845 7.47495V21.7137C133.845 22.1048 133.753 22.2069 133.378 22.1984C132.735 22.1757 132.093 22.1832 131.449 22.1908C131.126 22.1946 130.804 22.1984 130.481 22.1984C130.432 22.0622 130.419 21.9159 130.443 21.7732V7.45369C130.487 7.288 130.479 7.11227 130.417 6.952C130.022 6.952 129.626 6.94964 129.23 6.94728ZM55.4083 5.83658C56.4032 6.82621 57.0075 8.14751 57.1085 9.55393L57.1127 9.54542C57.262 11.6892 57.2845 13.8401 57.1801 15.9867C57.1892 16.804 57.0368 17.6149 56.7317 18.372C56.4265 19.129 55.9748 19.817 55.4031 20.3956C53.3313 22.4364 49.5077 22.6107 47.238 21.1226C45.3936 19.9067 44.6062 17.7808 44.6062 15.655C44.6145 14.8544 44.6078 14.1015 44.6013 13.3594C44.5911 12.21 44.5812 11.0865 44.6273 9.85154C44.6628 8.622 45.0747 7.43376 45.8063 6.45023C47.3012 4.43496 49.3814 3.98003 51.7016 4.17561C53.0959 4.25657 54.4135 4.84694 55.4083 5.83658ZM51.2258 14.8685C49.9246 15.468 51.4364 17.6831 52.9607 16.8327C53.0418 16.7946 53.1109 16.7346 53.1603 16.6593C53.2097 16.584 53.2374 16.4963 53.2405 16.4061C53.2435 16.3158 53.2218 16.2264 53.1776 16.1479C53.1334 16.0694 53.0685 16.0047 52.9902 15.9611C52.6688 15.8137 52.4124 15.5518 52.2701 15.2256C52.177 15.0399 52.0155 14.8985 51.8202 14.8317C51.6249 14.7649 51.4115 14.7781 51.2258 14.8685ZM54.4207 15.6273C54.5936 15.522 54.7317 15.3675 54.8177 15.1831C55.2273 14.5558 55.4548 13.8253 55.4746 13.0743C55.2767 7.89154 48.9182 6.65856 46.7664 10.8464C45.5031 13.3081 47.9286 15.8378 50.3499 14.4986C51.3985 13.9204 52.4386 13.9756 52.9312 15.0981C53.0007 15.2894 53.1246 15.4558 53.2874 15.5762C53.4503 15.6967 53.6448 15.7658 53.8464 15.7749C54.0481 15.784 54.2479 15.7326 54.4207 15.6273ZM87.9332 9.46054L87.9248 9.3883L87.9247 9.38807L87.9247 9.38793L87.9247 9.38783C87.898 9.15981 87.8706 8.92618 87.8364 8.6995C87.6689 7.56976 87.1429 6.5254 86.3373 5.72336C85.8249 5.22527 85.2199 4.83468 84.5571 4.57415C83.8943 4.31362 83.1869 4.18833 82.4759 4.20552C81.1928 4.18851 79.9078 4.19418 78.6235 4.19985C77.9815 4.20269 77.3397 4.20552 76.6984 4.20552C76.4247 4.20552 76.3742 4.29906 76.3742 4.5499V21.8328C76.3742 22.1007 76.4458 22.1772 76.7069 22.1729H79.7556C79.8072 22.0376 79.8217 21.8907 79.7977 21.7478V16.1484C79.7977 15.91 79.7977 15.7954 79.855 15.7391C79.9081 15.6869 80.0104 15.6849 80.2074 15.6809L80.2188 15.6807H82.6696C83.4565 15.6516 84.2297 15.4637 84.9435 15.128C86.8468 14.1841 87.7437 12.5557 87.9206 10.4512C87.9557 10.129 87.9557 9.80396 87.9206 9.4818L87.9332 9.46054ZM84.295 11.4248C84.1657 11.8738 83.8889 12.2651 83.51 12.534C83.1311 12.8029 82.6728 12.9336 82.2106 12.9044C81.9836 12.9044 81.7562 12.902 81.5284 12.8997H81.5283H81.5282H81.5281C81.0714 12.8949 80.6135 12.8902 80.1556 12.9044C79.8272 12.9044 79.7598 12.7938 79.7682 12.4792C79.7823 11.9121 79.7776 11.3279 79.7729 10.7457V10.745C79.7705 10.4545 79.7682 10.1644 79.7682 9.8772V7.23269C79.7682 6.98609 79.823 6.90106 80.0756 6.90956H81.8947C83.4149 6.90956 84.1518 7.51329 84.455 9.03538C84.6352 9.83185 84.5796 10.6643 84.295 11.4291V11.4248ZM3.33092 24.9148C3.57417 24.9694 3.8229 24.995 4.07205 24.9913C4.08499 24.9848 4.09873 24.9822 4.11142 24.9799C4.14005 24.9747 4.1634 24.9704 4.16048 24.9233C4.24 24.9198 4.31899 24.9084 4.39629 24.8893C4.46943 24.8667 4.54726 24.8647 4.62145 24.8834C4.69564 24.9021 4.76337 24.9409 4.81739 24.9956C5.3016 25.3541 5.80639 25.6835 6.32912 25.9819C6.345 25.9937 6.36417 26 6.38386 26C6.40354 26 6.42272 25.9937 6.4386 25.9819C7.00273 25.5999 7.52007 25.1518 7.97981 24.6469C8.02191 24.6087 8.03876 24.5874 7.97981 24.5491C7.49976 24.226 7.04077 23.8774 6.58598 23.5117C6.02172 23.0611 5.48693 22.5764 4.96898 22.0704C4.57736 21.692 4.21522 21.3179 3.82782 20.8885C3.44041 20.4591 3.05721 20.0254 2.69507 19.579C2.63804 19.5053 2.58055 19.4312 2.52278 19.3569L2.52275 19.3568C2.15398 18.8821 1.774 18.3929 1.43179 17.8783C1.35178 17.7805 1.30125 17.806 1.22545 17.8783L1.16229 17.9421C0.964374 18.1547 0.774881 18.3588 0.593811 18.5798C0.388534 18.8305 0.200027 19.0947 0.0295445 19.3706C0.010325 19.398 0 19.4307 0 19.4642C0 19.4977 0.010325 19.5304 0.0295445 19.5577C0.332617 20.1248 0.66722 20.6742 1.03175 21.2031C1.05881 21.2304 1.07845 21.2644 1.08878 21.3016C1.0991 21.3388 1.09976 21.3781 1.0907 21.4157C1.05712 21.5551 1.03737 21.6975 1.03175 21.8408C1.00734 22.279 1.08824 22.7166 1.26756 23.1163C1.50186 23.6029 1.84322 24.029 2.26556 24.3621C2.5788 24.619 2.94164 24.8072 3.33092 24.9148ZM19.329 5.6758C17.9088 4.52557 16.1426 3.8988 14.3219 3.899C14.0161 3.90012 13.7108 3.92285 13.4081 3.96703C13.2355 3.98829 13.0628 4.00954 12.8944 4.04781C11.7004 4.27531 10.5743 4.77709 9.60316 5.51434C8.632 6.25158 7.84185 7.20453 7.29384 8.29944C6.98989 8.85089 6.79962 9.45874 6.73448 10.0864C6.66935 10.714 6.73071 11.3485 6.91486 11.9516C7.10462 12.6151 7.44219 13.226 7.90173 13.7375C8.36127 14.249 8.9306 14.6476 9.56618 14.9028C10.2018 15.158 10.8867 15.2631 11.5687 15.2099C12.2506 15.1568 12.9115 14.9468 13.5008 14.5961C13.9442 14.3006 14.4584 14.1315 14.9892 14.1068C15.5199 14.0821 16.0474 14.2027 16.5158 14.4558C17.1742 14.7918 17.6761 15.3748 17.9138 16.0799C18.0178 16.3809 18.1982 16.649 18.4371 16.8574C18.6759 17.0658 18.9648 17.2072 19.2748 17.2675C19.5848 17.3278 19.905 17.3048 20.2034 17.2008C20.5018 17.0969 20.768 16.9156 20.9752 16.6752C21.1193 16.4884 21.2422 16.2859 21.3415 16.0714C22.3181 14.2906 22.6005 12.2056 22.1332 10.2254C21.7384 8.43092 20.7492 6.82603 19.329 5.6758ZM18.2844 18.9328C18.0899 19.1192 17.8479 19.2473 17.5854 19.3027L17.5896 19.3069C17.3586 19.3842 17.1171 19.4244 16.8737 19.426C16.3168 19.4354 15.77 19.2748 15.305 18.9653C14.8399 18.6558 14.4782 18.2118 14.2672 17.6913C14.1726 17.4806 14.1268 17.2508 14.1333 17.0195C14.1399 16.7882 14.1986 16.5615 14.3049 16.3565C14.4113 16.1516 14.5626 15.9738 14.7472 15.8367C14.9318 15.6997 15.145 15.6069 15.3704 15.5655C15.7001 15.5138 16.0375 15.5759 16.3278 15.7418C16.6182 15.9077 16.8447 16.1676 16.9706 16.4796C17.0481 16.7162 17.1744 16.9336 17.3412 17.1173C17.4911 17.2764 17.6822 17.3898 17.8928 17.4447C18.0382 17.4905 18.1697 17.5728 18.2751 17.6838C18.3804 17.7948 18.4562 17.931 18.4953 18.0796C18.5345 18.2282 18.5356 18.3844 18.4987 18.5336C18.4618 18.6828 18.3881 18.8202 18.2844 18.9328Z" fill="black"/>
</svg>
