<?xml version="1.0" standalone="no"?>
<!DOCTYPE svg PUBLIC "-//W3C//DTD SVG 20010904//EN"
 "http://www.w3.org/TR/2001/REC-SVG-20010904/DTD/svg10.dtd">
<svg version="1.0" xmlns="http://www.w3.org/2000/svg"
 width="519.000000pt" height="108.000000pt" viewBox="0 0 519.000000 108.000000"
 preserveAspectRatio="xMidYMid meet">

<g transform="translate(0.000000,108.000000) scale(0.100000,-0.100000)"
fill="#000000" stroke="none">
<path d="M1450 755 l0 -135 -37 24 c-123 81 -291 36 -357 -95 -81 -163 39
-359 219 -358 55 0 117 18 144 43 24 22 31 20 31 -9 0 -23 4 -25 40 -25 l40 0
-2 343 -3 342 -37 3 -38 3 0 -136z m-105 -164 c130 -60 137 -231 12 -302 -31
-17 -50 -20 -93 -17 -61 5 -96 26 -132 79 -20 29 -23 44 -20 94 4 74 30 114
90 144 52 26 91 26 143 2z"/>
<path d="M2180 756 l0 -65 -42 -3 c-42 -3 -43 -4 -46 -40 l-3 -38 45 0 46 0 0
-160 c0 -178 8 -208 60 -235 16 -8 54 -15 85 -15 l55 0 0 40 0 39 -57 3 -58 3
-3 163 -2 162 70 0 71 0 -3 38 -3 37 -67 3 -68 3 0 64 0 65 -40 0 -40 0 0 -64z"/>
<path d="M1753 680 c-155 -37 -237 -214 -164 -357 62 -123 225 -169 346 -99
l45 27 0 -26 c0 -23 4 -25 40 -25 l40 0 0 240 0 240 -40 0 c-38 0 -40 -2 -40
-31 l0 -30 -26 20 c-29 23 -115 52 -148 50 -12 -1 -35 -4 -53 -9z m156 -108
c72 -57 89 -135 48 -213 -57 -108 -209 -121 -282 -24 -64 83 -36 207 57 254
58 30 127 23 177 -17z"/>
<path d="M2605 684 c-89 -22 -151 -67 -185 -135 -60 -116 -16 -259 98 -327 40
-23 58 -27 122 -27 64 0 82 4 123 28 l47 28 0 -26 c0 -23 4 -25 40 -25 l40 0
0 240 0 240 -40 0 c-36 0 -40 -2 -40 -25 0 -14 -2 -25 -4 -25 -2 0 -23 11 -47
24 -44 25 -117 39 -154 30z m130 -105 c77 -52 97 -170 42 -242 -89 -116 -276
-73 -303 71 -14 73 31 157 101 189 43 19 117 11 160 -18z"/>
<path d="M3125 679 c-96 -23 -175 -116 -183 -215 -7 -84 14 -141 72 -199 74
-73 159 -93 257 -60 44 15 109 65 109 83 0 4 -16 16 -36 25 -34 17 -36 17 -61
-3 -79 -62 -192 -39 -241 49 -55 98 0 219 111 245 38 9 107 -11 138 -40 26
-25 27 -25 63 -8 20 10 36 21 36 25 0 12 -72 71 -104 84 -45 19 -115 25 -161
14z"/>
<path d="M3585 679 c-131 -31 -213 -178 -176 -315 25 -92 136 -174 236 -173
55 0 117 19 144 43 24 22 31 20 31 -9 0 -22 4 -25 40 -25 l40 0 0 240 0 240
-40 0 c-38 0 -40 -2 -40 -30 l0 -30 -37 24 c-36 24 -110 47 -143 45 -8 -1 -33
-5 -55 -10z m131 -88 c128 -58 135 -232 11 -302 -31 -17 -50 -20 -93 -17 -61
5 -96 26 -132 79 -20 29 -23 44 -20 94 5 74 33 119 92 146 52 23 90 23 142 0z"/>
<path d="M4549 683 c-8 -2 -54 -68 -102 -146 -127 -210 -116 -207 -117 -39 0
79 -5 152 -10 163 -14 25 -71 26 -92 2 -8 -10 -50 -76 -93 -148 -43 -72 -84
-137 -92 -145 -11 -12 -13 12 -13 148 l0 162 -35 0 -35 0 0 -241 0 -240 37 3
c36 3 39 7 142 175 l106 173 5 -166 c5 -177 9 -187 59 -182 20 3 44 36 130
176 l106 173 3 -175 2 -176 40 0 40 0 0 223 c0 164 -3 227 -12 239 -14 17 -44
26 -69 21z"/>
<path d="M4870 677 c-25 -7 -57 -20 -70 -30 -33 -23 -40 -22 -40 8 0 22 -4 25
-35 25 l-35 0 0 -340 0 -340 35 0 35 0 0 125 c0 122 5 140 29 111 18 -21 98
-46 147 -46 92 0 186 60 225 145 27 58 25 147 -5 210 -50 108 -172 164 -286
132z m137 -86 c162 -74 106 -321 -72 -321 -181 0 -235 246 -71 321 52 24 90
23 143 0z"/>
</g>
</svg>
