<svg width="24" height="25" viewBox="0 0 24 25" fill="none" xmlns="http://www.w3.org/2000/svg">
<path d="M16.2177 0.73927H7.37289C6.40418 0.737524 5.44467 0.930347 4.54938 1.30668C3.65409 1.68301 2.84063 2.23545 2.15565 2.93232C1.47067 3.62918 0.927657 4.45676 0.557743 5.36759C0.187829 6.27842 -0.00170449 7.25458 1.15492e-05 8.24009V17.2384C1.15492e-05 19.2278 0.776794 21.1356 2.15948 22.5423C3.54216 23.949 5.41748 24.7393 7.37289 24.7393H16.2177C18.1721 24.7358 20.0454 23.9444 21.4273 22.5384C22.8093 21.1325 23.5872 19.2267 23.5906 17.2384V8.24009C23.5906 6.25075 22.8138 4.34289 21.4311 2.93621C20.0485 1.52953 18.1731 0.73927 16.2177 0.73927ZM21.4282 17.2384C21.4282 18.6443 20.8793 19.9926 19.9021 20.9868C18.925 21.9809 17.5996 22.5394 16.2177 22.5394H7.37289C5.99097 22.5394 4.66566 21.9809 3.6885 20.9868C2.71134 19.9926 2.16237 18.6443 2.16237 17.2384V8.24009C2.16237 6.8342 2.71134 5.48588 3.6885 4.49177C4.66566 3.49765 5.99097 2.93916 7.37289 2.93916H16.2177C17.5996 2.93916 18.925 3.49765 19.9021 4.49177C20.8793 5.48588 21.4282 6.8342 21.4282 8.24009V17.2384Z" fill="#333333"/>
<path d="M11.7888 6.74269C10.6211 6.74269 9.47973 7.09512 8.50906 7.75536C7.53838 8.4156 6.78205 9.35398 6.33581 10.4517C5.88957 11.5494 5.77348 12.7572 6.00222 13.9221C6.23097 15.087 6.79427 16.1566 7.62083 16.9957C8.44739 17.8347 9.50005 18.4055 10.6456 18.6356C11.7911 18.8657 12.978 18.745 14.056 18.2885C15.134 17.8321 16.0547 17.0606 16.7015 16.0716C17.3484 15.0826 17.6923 13.9207 17.6897 12.7328C17.6897 11.945 17.537 11.165 17.2402 10.4374C16.9435 9.70978 16.5087 9.04885 15.9606 8.49245C15.4124 7.93605 14.7618 7.4951 14.046 7.19485C13.3301 6.8946 12.5631 6.74095 11.7888 6.74269ZM11.7888 16.4832C11.0597 16.4832 10.3469 16.2632 9.7407 15.8511C9.13447 15.439 8.66197 14.8533 8.38295 14.168C8.10393 13.4827 8.03093 12.7286 8.17317 12.0011C8.31541 11.2736 8.66651 10.6053 9.18207 10.0808C9.69763 9.55631 10.3545 9.19911 11.0696 9.0544C11.7847 8.90969 12.5259 8.98396 13.1995 9.26782C13.8731 9.55168 14.4489 10.0324 14.8539 10.6491C15.259 11.2659 15.4752 11.991 15.4752 12.7328C15.4752 13.2253 15.3799 13.713 15.1946 14.168C15.0093 14.623 14.7378 15.0364 14.3955 15.3847C14.0532 15.733 13.6468 16.0092 13.1995 16.1977C12.7523 16.3862 12.2729 16.4832 11.7888 16.4832Z" fill="#333333"/>
<path d="M18.1328 7.08689C18.5645 7.08689 18.9144 6.73089 18.9144 6.29173C18.9144 5.85258 18.5645 5.49658 18.1328 5.49658C17.7012 5.49658 17.3513 5.85258 17.3513 6.29173C17.3513 6.73089 17.7012 7.08689 18.1328 7.08689Z" fill="#333333"/>
</svg>
