<svg width="25" height="25" viewBox="0 0 25 25" fill="none" xmlns="http://www.w3.org/2000/svg">
<path d="M0.122192 0.739258V24.7393H24.1222V0.739258H0.122192ZM20.0602 6.42526L18.7732 7.65926C18.7186 7.70081 18.6764 7.75651 18.6512 7.82031C18.626 7.88412 18.6187 7.95361 18.6302 8.02126V17.0883C18.6189 17.1557 18.6263 17.225 18.6515 17.2886C18.6767 17.3523 18.7188 17.4078 18.7732 17.4493L20.0302 18.6833V18.9543H13.7082V18.6843L15.0102 17.4193C15.1382 17.2913 15.1382 17.2543 15.1382 17.0593V9.72926L11.5182 18.9243H11.0282L6.81219 9.72926V15.8923C6.79485 16.0201 6.80681 16.1501 6.84718 16.2726C6.88755 16.3951 6.95526 16.5068 7.04519 16.5993L8.73919 18.6533V18.9243H3.93719V18.6543L5.63219 16.5993C5.72139 16.5067 5.78759 16.3945 5.82546 16.2717C5.86333 16.1489 5.8718 16.0189 5.85019 15.8923V8.76626C5.86018 8.66864 5.84699 8.57005 5.81172 8.47848C5.77645 8.38691 5.72008 8.30495 5.64719 8.23926L4.14119 6.42526V6.15526H8.81519L12.4282 14.0783L15.6042 6.15426H20.0602V6.42526Z" fill="#333333"/>
</svg>
