<svg width="25" height="25" viewBox="0 0 25 25" fill="none" xmlns="http://www.w3.org/2000/svg">
<g clip-path="url(#clip0)">
<path d="M12.1222 24.7393C18.7462 24.7393 24.1222 19.3633 24.1222 12.7393C24.1222 6.11526 18.7462 0.739258 12.1222 0.739258C5.49819 0.739258 0.122192 6.11526 0.122192 12.7393C0.122192 19.3633 5.49819 24.7393 12.1222 24.7393ZM16.9942 18.3953V18.3963C16.1872 18.3963 13.6382 15.5683 6.47419 17.0363C6.28519 17.0853 6.03819 17.1623 5.89819 17.1623C4.98319 17.1623 4.80819 15.7933 5.79219 15.5843C9.75519 14.7093 13.8052 14.7863 17.2592 16.8523C18.0832 17.3783 17.7332 18.3953 16.9942 18.3953ZM18.2972 15.2223C18.1842 15.1923 18.2172 15.2913 17.7002 15.0193C14.6752 13.2293 10.1672 12.5073 6.15519 13.5963C5.92319 13.6593 5.79719 13.7223 5.57919 13.7223C4.50819 13.7223 4.22419 12.1113 5.39119 11.7823C10.1072 10.4573 15.1662 11.2303 18.6882 13.3253C19.0802 13.5573 19.2352 13.8583 19.2352 14.2783C19.2302 14.8003 18.8242 15.2223 18.2972 15.2223ZM4.67019 7.73726C9.19319 6.41326 16.0382 6.83126 20.2942 9.31526C21.3852 9.94426 20.9562 11.5353 19.7962 11.5353L19.7952 11.5343C19.5432 11.5343 19.3882 11.4713 19.1702 11.3453C15.7272 9.28926 9.56619 8.79626 5.58019 9.90926C5.40519 9.95726 5.18719 10.0343 4.95519 10.0343C4.31619 10.0343 3.82819 9.53526 3.82819 8.89226C3.82819 8.23526 4.23519 7.86326 4.67019 7.73726Z" fill="#333333"/>
</g>
<defs>
<clipPath id="clip0">
<rect width="24" height="24" fill="white" transform="translate(0.122192 0.739258)"/>
</clipPath>
</defs>
</svg>
