<svg width="36" height="37" viewBox="0 0 36 37" fill="none" xmlns="http://www.w3.org/2000/svg">
<rect y="0.5" width="36" height="36" rx="18" fill="#F9E9F6"/>
<path d="M17 9.5C14.7909 9.5 13 11.291 13 13.5H12C9.7909 13.5 8 15.291 8 17.5V23.5C8 25.709 9.7909 27.5 12 27.5H24C26.2091 27.5 28 25.709 28 23.5V17.5C28 15.291 26.2091 13.5 24 13.5H23C23 11.291 21.2091 9.5 19 9.5H17ZM17 11.5H19C20.1046 11.5 21 12.395 21 13.5H15C15 12.395 15.8954 11.5 17 11.5ZM12 15.5H24C25.1046 15.5 26 16.395 26 17.5V17.781L20.6562 19.562C19.2212 20.041 16.7788 20.041 15.3438 19.562L10 17.781V17.5C10 16.395 10.8954 15.5 12 15.5ZM10 19.875L14.7188 21.469C16.5643 22.084 19.4357 22.084 21.2812 21.469L26 19.875V23.5C26 24.605 25.1046 25.5 24 25.5H12C10.8954 25.5 10 24.605 10 23.5V19.875Z" fill="#C424A3"/>
</svg>
