<svg width="33" height="33" viewBox="0 0 33 33" fill="none" xmlns="http://www.w3.org/2000/svg">
<path d="M16.5 0.333496C7.66533 0.333496 0.5 7.67861 0.5 16.738C0.5 23.986 5.084 30.135 11.4427 32.3045C12.2413 32.4562 12.5 31.9477 12.5 31.5157V28.4617C8.04933 29.4542 7.12267 26.526 7.12267 26.526C6.39467 24.6299 5.34533 24.1255 5.34533 24.1255C3.89333 23.107 5.456 23.1289 5.456 23.1289C7.06267 23.2437 7.908 24.8199 7.908 24.8199C9.33467 27.3271 11.6507 26.6025 12.564 26.1829C12.7067 25.1234 13.1213 24.3989 13.58 23.9901C10.0267 23.5732 6.29067 22.1665 6.29067 15.8822C6.29067 14.09 6.916 12.6273 7.93867 11.479C7.77333 11.0648 7.22533 9.39561 8.09467 7.13726C8.09467 7.13726 9.43867 6.69707 12.496 8.81872C13.772 8.45508 15.14 8.27327 16.5 8.26643C17.86 8.27327 19.2293 8.45508 20.508 8.81872C23.5627 6.69707 24.904 7.13726 24.904 7.13726C25.7747 9.39697 25.2267 11.0661 25.0613 11.479C26.088 12.6273 26.708 14.0914 26.708 15.8822C26.708 22.1829 22.9653 23.5705 19.4027 23.9765C19.976 24.485 20.5 25.4829 20.5 27.014V31.5157C20.5 31.9518 20.756 32.4644 21.568 32.3031C27.9213 30.1309 32.5 23.9833 32.5 16.738C32.5 7.67861 25.336 0.333496 16.5 0.333496Z" fill="#5038BC"/>
</svg>
