<svg width="26" height="26" viewBox="0 0 26 26" fill="none" xmlns="http://www.w3.org/2000/svg">
<path d="M12.8812 0.361328C5.97914 0.361328 0.381226 6.09969 0.381226 13.1773C0.381226 18.8399 3.96248 23.6437 8.93018 25.3386C9.55414 25.4572 9.75623 25.0599 9.75623 24.7224V22.3365C6.27914 23.1119 5.55518 20.8242 5.55518 20.8242C4.98643 19.3429 4.16664 18.9488 4.16664 18.9488C3.03227 18.1531 4.2531 18.1702 4.2531 18.1702C5.50831 18.2599 6.16873 19.4914 6.16873 19.4914C7.28331 21.4501 9.09268 20.884 9.80623 20.5561C9.91768 19.7284 10.2416 19.1624 10.6 18.8431C7.82393 18.5173 4.90518 17.4184 4.90518 12.5088C4.90518 11.1086 5.39373 9.96585 6.19268 9.06873C6.06352 8.74513 5.63539 7.4411 6.31456 5.67677C6.31456 5.67677 7.36456 5.33287 9.7531 6.99041C10.75 6.70632 11.8187 6.56427 12.8812 6.55893C13.9437 6.56427 15.0135 6.70632 16.0125 6.99041C18.3989 5.33287 19.4468 5.67677 19.4468 5.67677C20.1271 7.44217 19.6989 8.7462 19.5698 9.06873C20.3718 9.96585 20.8562 11.1097 20.8562 12.5088C20.8562 17.4312 17.9323 18.5152 15.1489 18.8324C15.5969 19.2297 16.0062 20.0093 16.0062 21.2055V24.7224C16.0062 25.0631 16.2062 25.4636 16.8406 25.3376C21.8041 23.6405 25.3812 18.8377 25.3812 13.1773C25.3812 6.09969 19.7843 0.361328 12.8812 0.361328Z" fill="#5038BC"/>
</svg>
