<svg width="36" height="37" viewBox="0 0 36 37" fill="none" xmlns="http://www.w3.org/2000/svg">
<rect y="0.5" width="36" height="36" rx="18" fill="#EDEBF8"/>
<path d="M17.999 8.51416C12.476 8.51416 7.99902 12.9912 7.99902 18.5142C7.99902 24.0372 12.476 28.5142 17.999 28.5142C23.522 28.5142 27.999 24.0372 27.999 18.5142C27.999 12.9912 23.522 8.51416 17.999 8.51416ZM17.999 10.5142C19.319 10.5142 20.769 13.5462 20.99 17.5112L15.02 17.5232C15.24 13.5582 16.679 10.5142 17.999 10.5142ZM14.468 11.3172C13.608 12.9902 13.148 15.2082 13.037 17.5162L10.057 17.5072C10.355 14.7822 12.19 12.4962 14.468 11.3172ZM21.535 11.3222C23.813 12.5012 25.601 14.7232 25.946 17.5232L22.967 17.5142C22.873 15.1142 22.342 13.0042 21.535 11.3222ZM10.063 19.5182L13.042 19.4932C13.153 21.8012 13.616 24.0572 14.472 25.7122C12.08 24.5132 10.407 22.1662 10.063 19.5182ZM15.004 19.5262L20.974 19.5132C20.754 23.4772 19.319 26.5142 17.999 26.5142C16.679 26.5142 15.224 23.4912 15.004 19.5262ZM22.972 19.5162L25.938 19.5072C25.594 22.1562 23.922 24.5222 21.531 25.7012C22.419 23.8652 22.861 21.8242 22.972 19.5162Z" fill="#5038BC"/>
</svg>
