<svg width="25" height="26" viewBox="0 0 25 26" fill="none" xmlns="http://www.w3.org/2000/svg">
<path d="M16.8935 0.36134H7.68009C6.67103 0.359522 5.67153 0.560379 4.73894 0.952393C3.80634 1.34441 2.95899 1.91986 2.24547 2.64576C1.53195 3.37166 0.966309 4.23372 0.580982 5.18251C0.195655 6.13129 -0.00177551 7.14812 1.20304e-05 8.1747V17.548C1.20304e-05 19.6202 0.809161 21.6076 2.24945 23.0728C3.68975 24.5381 5.64321 25.3613 7.68009 25.3613H16.8935C18.9292 25.3577 20.8806 24.5333 22.3201 23.0688C23.7597 21.6043 24.57 19.6191 24.5735 17.548V8.1747C24.5735 6.10247 23.7644 4.11511 22.3241 2.64982C20.8838 1.18453 18.9304 0.36134 16.8935 0.36134ZM22.3211 17.548C22.3211 19.0124 21.7492 20.4169 20.7314 21.4525C19.7135 22.488 18.333 23.0698 16.8935 23.0698H7.68009C6.2406 23.0698 4.86006 22.488 3.84218 21.4525C2.82431 20.4169 2.25247 19.0124 2.25247 17.548V8.1747C2.25247 6.71022 2.82431 5.30573 3.84218 4.27019C4.86006 3.23465 6.2406 2.65289 7.68009 2.65289H16.8935C18.333 2.65289 19.7135 3.23465 20.7314 4.27019C21.7492 5.30573 22.3211 6.71022 22.3211 8.1747V17.548Z" fill="#5038BC"/>
<path d="M12.2798 6.61574C11.0635 6.61574 9.87457 6.98285 8.86345 7.6706C7.85232 8.35835 7.06449 9.33583 6.59965 10.4793C6.13482 11.6228 6.01389 12.8808 6.25216 14.0943C6.49044 15.3077 7.07721 16.4219 7.93821 17.2959C8.79921 18.17 9.89573 18.7645 11.089 19.0042C12.2822 19.2439 13.5186 19.1181 14.6415 18.6427C15.7644 18.1672 16.7235 17.3636 17.3973 16.3334C18.0711 15.3032 18.4293 14.0928 18.4266 12.8554C18.4266 12.0348 18.2675 11.2223 17.9584 10.4644C17.6494 9.70646 17.1964 9.01799 16.6254 8.4384C16.0545 7.85882 15.3767 7.39949 14.6311 7.08674C13.8854 6.77398 13.0864 6.61392 12.2798 6.61574ZM12.2798 16.7621C11.5203 16.7621 10.7779 16.533 10.1464 16.1037C9.51492 15.6744 9.02273 15.0643 8.73209 14.3504C8.44144 13.6366 8.3654 12.8511 8.51357 12.0932C8.66174 11.3354 9.02746 10.6393 9.5645 10.0929C10.1015 9.54659 10.7858 9.17451 11.5307 9.02377C12.2756 8.87303 13.0477 8.9504 13.7493 9.24609C14.451 9.54177 15.0507 10.0425 15.4727 10.685C15.8946 11.3274 16.1199 12.0827 16.1199 12.8554C16.1199 13.3684 16.0205 13.8764 15.8276 14.3504C15.6346 14.8244 15.3517 15.2551 14.9951 15.6178C14.6386 15.9806 14.2152 16.2684 13.7493 16.4647C13.2834 16.661 12.7841 16.7621 12.2798 16.7621Z" fill="#5038BC"/>
<path d="M18.8888 6.97395C19.3385 6.97395 19.703 6.60312 19.703 6.14567C19.703 5.68822 19.3385 5.31738 18.8888 5.31738C18.4392 5.31738 18.0747 5.68822 18.0747 6.14567C18.0747 6.60312 18.4392 6.97395 18.8888 6.97395Z" fill="#5038BC"/>
</svg>
