<svg width="48" height="48" viewBox="0 0 48 48" fill="none" xmlns="http://www.w3.org/2000/svg">
<rect width="48" height="48" rx="12" fill="#D3CDEE"/>
<g clip-path="url(#clip0_2607_1205)">
<path d="M24 10.8829C28.2722 10.8829 28.7782 10.8992 30.4653 10.9762C32.0253 11.0474 32.8725 11.308 33.4363 11.5271C34.1831 11.8173 34.7162 12.1641 35.276 12.724C35.8359 13.2838 36.1827 13.8169 36.4729 14.5637C36.692 15.1275 36.9526 15.9747 37.0238 17.5346C37.1008 19.2218 37.1171 19.7278 37.1171 24C37.1171 28.2722 37.1008 28.7782 37.0238 30.4654C36.9526 32.0254 36.692 32.8725 36.4729 33.4364C36.1827 34.1832 35.8359 34.7162 35.276 35.2761C34.7162 35.836 34.1831 36.1827 33.4363 36.4729C32.8725 36.692 32.0253 36.9527 30.4653 37.0239C28.7784 37.1009 28.2724 37.1171 24 37.1171C19.7275 37.1171 19.2215 37.1009 17.5346 37.0239C15.9746 36.9527 15.1275 36.692 14.5637 36.4729C13.8168 36.1827 13.2838 35.836 12.7239 35.2761C12.164 34.7162 11.8173 34.1832 11.5271 33.4364C11.308 32.8725 11.0473 32.0254 10.9761 30.4654C10.8991 28.7782 10.8829 28.2722 10.8829 24C10.8829 19.7278 10.8991 19.2218 10.9761 17.5347C11.0473 15.9747 11.308 15.1275 11.5271 14.5637C11.8173 13.8169 12.164 13.2838 12.7239 12.724C13.2838 12.1641 13.8168 11.8173 14.5637 11.5271C15.1275 11.308 15.9746 11.0474 17.5346 10.9762C19.2218 10.8992 19.7278 10.8829 24 10.8829ZM24 8C19.6546 8 19.1098 8.01842 17.4032 8.09628C15.7001 8.17402 14.5371 8.44446 13.5193 8.84001C12.4672 9.2489 11.5749 9.79599 10.6854 10.6855C9.79593 11.575 9.24884 12.4673 8.83995 13.5194C8.44439 14.5372 8.17396 15.7002 8.09622 17.4033C8.01835 19.1098 8 19.6547 8 24C8 28.3454 8.01835 28.8903 8.09622 30.5968C8.17396 32.2999 8.44439 33.4629 8.83995 34.4807C9.24884 35.5327 9.79593 36.4251 10.6854 37.3146C11.5749 38.2041 12.4672 38.7512 13.5193 39.1601C14.5371 39.5556 15.7001 39.826 17.4032 39.9038C19.1098 39.9816 19.6546 40 24 40C28.3453 40 28.8902 39.9816 30.5967 39.9038C32.2998 39.826 33.4628 39.5556 34.4806 39.1601C35.5327 38.7512 36.425 38.2041 37.3145 37.3146C38.204 36.4251 38.7511 35.5328 39.16 34.4807C39.5555 33.4629 39.826 32.2999 39.9037 30.5968C39.9816 28.8903 40 28.3454 40 24C40 19.6547 39.9816 19.1098 39.9037 17.4033C39.826 15.7002 39.5555 14.5372 39.16 13.5194C38.7511 12.4673 38.204 11.575 37.3145 10.6855C36.425 9.79599 35.5327 9.2489 34.4806 8.84001C33.4628 8.44446 32.2998 8.17402 30.5967 8.09628C28.8902 8.01842 28.3453 8 24 8ZM24 15.7838C19.4623 15.7838 15.7837 19.4623 15.7837 24C15.7837 28.5377 19.4623 32.2163 24 32.2163C28.5377 32.2163 32.2162 28.5377 32.2162 24C32.2162 19.4623 28.5377 15.7838 24 15.7838ZM24 29.3334C21.0545 29.3334 18.6666 26.9455 18.6666 24C18.6666 21.0545 21.0545 18.6667 24 18.6667C26.9455 18.6667 29.3333 21.0545 29.3333 24C29.3333 26.9455 26.9455 29.3334 24 29.3334ZM34.4608 15.4592C34.4608 16.5196 33.6012 17.3792 32.5408 17.3792C31.4804 17.3792 30.6208 16.5196 30.6208 15.4592C30.6208 14.3988 31.4804 13.5392 32.5408 13.5392C33.6012 13.5392 34.4608 14.3988 34.4608 15.4592Z" fill="#5038BC"/>
</g>
<defs>
<clipPath id="clip0_2607_1205">
<rect width="32" height="32" fill="white" transform="translate(8 8)"/>
</clipPath>
</defs>
</svg>
