<svg width="25" height="26" viewBox="0 0 25 26" fill="none" xmlns="http://www.w3.org/2000/svg">
<path d="M0 0.361328V25.3613H25V0.361328H0ZM20.7687 6.28424L19.4281 7.56966C19.3713 7.61294 19.3273 7.67096 19.3011 7.73743C19.2748 7.8039 19.2672 7.87628 19.2792 7.94674V17.3915C19.2674 17.4618 19.2751 17.534 19.3013 17.6003C19.3276 17.6665 19.3714 17.7244 19.4281 17.7676L20.7375 19.053V19.3353H14.1521V19.054L15.5083 17.7363C15.6417 17.603 15.6417 17.5645 15.6417 17.3613V9.72591L11.8708 19.304H11.3604L6.96875 9.72591V16.1457C6.95068 16.2788 6.96315 16.4143 7.0052 16.5419C7.04725 16.6695 7.11778 16.7859 7.21146 16.8822L8.97604 19.0217V19.304H3.97396V19.0228L5.73958 16.8822C5.8325 16.7858 5.90146 16.6689 5.9409 16.541C5.98035 16.4131 5.98917 16.2777 5.96667 16.1457V8.72279C5.97707 8.6211 5.96334 8.5184 5.92659 8.42302C5.88985 8.32763 5.83113 8.24226 5.75521 8.17383L4.18646 6.28424V6.00299H9.05521L12.8187 14.2561L16.1271 6.00195H20.7687V6.28424Z" fill="#5038BC"/>
</svg>
