<svg width="26" height="24" viewBox="0 0 26 24" fill="none" xmlns="http://www.w3.org/2000/svg">
<path d="M25.062 9.27532V9.03472V8.8663C24.7308 7.09154 23.8922 5.44983 22.6468 4.13853C21.3054 2.72706 19.6513 1.6477 17.8165 0.986685C16.1857 0.359796 14.4562 0.0258121 12.7084 0.000229142C10.4045 -0.0128774 8.13243 0.53646 6.09086 1.60021C4.30322 2.43337 2.80268 3.77432 1.77781 5.45455C0.752939 7.13477 0.249473 9.07929 0.330686 11.0437C0.512405 12.9859 1.27366 14.8295 2.51641 16.3369C3.7585 17.8276 5.35155 18.9889 7.15353 19.7173C8.26928 20.1449 9.42678 20.4554 10.6072 20.6436H10.7401C11.0782 20.6436 11.1627 20.788 11.1869 20.8241C11.2111 20.9106 11.2111 21.0022 11.1869 21.0887C11.1869 21.1609 11.1869 21.2211 11.1869 21.2812C11.0124 21.8122 10.9588 22.3751 11.0299 22.9293C11.0627 23.2249 11.2043 23.4979 11.4273 23.6956C11.6503 23.8934 11.9389 24.0018 12.2375 24C12.9372 23.9144 13.605 23.6582 14.1817 23.2541H14.242C15.4496 22.5564 16.5848 21.7504 17.4421 21.1368C19.5113 19.7864 21.3915 18.1682 23.0332 16.3249C24.6169 14.3338 25.3462 11.7998 25.062 9.27532ZM8.04714 13.0407H5.90972C5.83315 13.0423 5.75704 13.0285 5.68597 13.0001C5.6149 12.9716 5.55034 12.9292 5.49618 12.8752C5.44203 12.8213 5.39939 12.757 5.37085 12.6862C5.3423 12.6154 5.32843 12.5395 5.33008 12.4633V7.98811C5.32843 7.91183 5.3423 7.83601 5.37085 7.76521C5.39939 7.69441 5.44203 7.6301 5.49618 7.57615C5.55034 7.5222 5.6149 7.47973 5.68597 7.45129C5.75704 7.42285 5.83315 7.40904 5.90972 7.41068C5.98685 7.40908 6.06352 7.42283 6.13525 7.45113C6.20697 7.47943 6.27231 7.52171 6.32742 7.57549C6.38253 7.62927 6.42631 7.69347 6.45619 7.76432C6.48607 7.83518 6.50145 7.91126 6.50144 7.98811V11.8738H8.04714C8.20407 11.8738 8.35458 11.9359 8.46555 12.0464C8.57652 12.157 8.63886 12.3069 8.63886 12.4633C8.63887 12.5401 8.62349 12.6162 8.59361 12.687C8.56373 12.7579 8.51995 12.8221 8.46484 12.8759C8.40973 12.9297 8.34439 12.9719 8.27267 13.0002C8.20094 13.0285 8.12427 13.0423 8.04714 13.0407ZM10.2812 12.4512C10.2812 12.6108 10.2176 12.7637 10.1043 12.8765C9.99109 12.9894 9.83751 13.0527 9.67738 13.0527C9.51724 13.0527 9.36367 12.9894 9.25043 12.8765C9.1372 12.7637 9.07359 12.6108 9.07359 12.4512V7.97608C9.07359 7.81656 9.1372 7.66356 9.25043 7.55076C9.36367 7.43796 9.51724 7.37459 9.67738 7.37459C9.83751 7.37459 9.99109 7.43796 10.1043 7.55076C10.2176 7.66356 10.2812 7.81656 10.2812 7.97608V12.4512ZM15.5704 12.4512C15.5687 12.5747 15.5282 12.6945 15.4546 12.7938C15.3809 12.8931 15.2778 12.9668 15.1598 13.0046H14.9787C14.8865 13.0056 14.7954 12.9843 14.7133 12.9423C14.6313 12.9004 14.5607 12.8392 14.5077 12.764L12.4065 9.90088V12.4512C12.4034 12.6055 12.3396 12.7523 12.229 12.8603C12.1184 12.9682 11.9697 13.0287 11.8148 13.0287C11.7357 13.0336 11.6564 13.0223 11.5818 12.9955C11.5073 12.9687 11.439 12.927 11.3813 12.8728C11.3236 12.8187 11.2776 12.7534 11.2463 12.6809C11.2149 12.6083 11.1988 12.5302 11.1989 12.4512V8.10841C11.199 7.9848 11.2373 7.8642 11.3086 7.76303C11.3799 7.66186 11.4807 7.58504 11.5974 7.54301C11.7152 7.50696 11.8414 7.50846 11.9583 7.54728C12.0752 7.5861 12.177 7.6603 12.2495 7.75955L14.3628 10.6467V7.97608C14.3628 7.81656 14.4264 7.66356 14.5396 7.55076C14.6529 7.43796 14.8065 7.37459 14.9666 7.37459C15.1267 7.37459 15.2803 7.43796 15.3935 7.55076C15.5068 7.66356 15.5704 7.81656 15.5704 7.97608V12.4512ZM19.8332 12.9324H16.935C16.8584 12.9341 16.7823 12.9202 16.7112 12.8918C16.6401 12.8634 16.5756 12.8209 16.5214 12.767C16.4673 12.713 16.4246 12.6487 16.3961 12.5779C16.3675 12.5071 16.3537 12.4313 16.3553 12.355V7.87985C16.3553 7.7267 16.4164 7.57983 16.5251 7.47154C16.6338 7.36324 16.7812 7.30241 16.935 7.30241H19.7365C19.8967 7.30241 20.0503 7.36578 20.1635 7.47858C20.2767 7.59138 20.3403 7.74438 20.3403 7.9039C20.3403 8.06343 20.2767 8.21642 20.1635 8.32923C20.0503 8.44203 19.8967 8.5054 19.7365 8.5054H17.5146V9.57607H19.326C19.4797 9.57607 19.6271 9.63691 19.7358 9.7452C19.8445 9.85349 19.9056 10.0004 19.9056 10.1535C19.9056 10.3078 19.845 10.4559 19.7366 10.5661C19.6282 10.6763 19.4808 10.7398 19.326 10.743H17.5146V11.8136H19.8332C19.9933 11.8136 20.1469 11.877 20.2601 11.9898C20.3733 12.1026 20.4369 12.2556 20.4369 12.4151C20.4369 12.5747 20.3733 12.7277 20.2601 12.8405C20.1469 12.9533 19.9933 13.0166 19.8332 13.0166V12.9324Z" fill="#333333"/>
</svg>
