<svg width="26" height="24" viewBox="0 0 26 24" fill="none" xmlns="http://www.w3.org/2000/svg">
<path d="M25.3222 14.7144V24H19.939V15.3363C19.939 13.1599 19.1604 11.6746 17.2118 11.6746C15.7243 11.6746 14.8392 12.6756 14.4497 13.6438C14.3077 13.99 14.2712 14.4718 14.2712 14.9564V24H8.88613C8.88613 24 8.95865 9.3265 8.88613 7.80621H14.2706V10.1016C14.2597 10.1188 14.2455 10.1373 14.2352 10.1539H14.2706V10.1016C14.986 8.99978 16.2636 7.42577 19.1233 7.42577C22.6662 7.42572 25.3222 9.74027 25.3222 14.7144ZM3.25316 0C1.41095 0 0.205994 1.20834 0.205994 2.79736C0.205994 4.35175 1.37609 5.59676 3.18169 5.59676H3.21766C5.09555 5.59676 6.26342 4.35198 6.26342 2.79736C6.22804 1.20834 5.09555 0 3.25316 0ZM0.525817 24H5.9088V7.80621H0.525817V24Z" fill="#333333"/>
</svg>
