<svg width="30" height="24" viewBox="0 0 30 24" fill="none" xmlns="http://www.w3.org/2000/svg">
<path d="M29.206 2.82176C28.1282 3.31126 26.9861 3.63232 25.8169 3.7744C27.0489 3.03057 27.9689 1.83937 28.3977 0.432842C27.2467 1.13134 25.9911 1.62666 24.6825 1.89844C23.7958 0.931365 22.6263 0.291989 21.3539 0.0785549C20.0814 -0.134879 18.7764 0.0894372 17.6392 0.717036C16.5021 1.34464 15.5958 2.34079 15.0596 3.55244C14.5235 4.76408 14.3871 6.12418 14.6714 7.42373C12.3372 7.30275 10.0538 6.67515 7.96985 5.58178C5.88587 4.4884 4.04798 2.95376 2.57579 1.0777C2.05924 2.01057 1.78564 3.06597 1.7817 4.1408C1.781 5.13829 2.01882 6.12051 2.47401 7.00009C2.92921 7.87967 3.58767 8.62935 4.39084 9.18244C3.46102 9.16175 2.5504 8.90506 1.73916 8.43499V8.50827C1.73784 9.90732 2.20433 11.2639 3.05967 12.3482C3.91501 13.4326 5.10662 14.1781 6.43277 14.4586C5.91342 14.5906 5.37923 14.6498 4.8446 14.6344C4.49085 14.6683 4.13484 14.6683 3.78109 14.6344C4.16169 15.8378 4.89367 16.8898 5.87637 17.6457C6.85906 18.4015 8.0442 18.8241 9.26878 18.8554C7.18495 20.5005 4.63071 21.3822 2.00858 21.3615C1.5349 21.3673 1.06133 21.3429 0.590576 21.2882C3.27522 23.0729 6.40296 24.0147 9.59492 23.9996C11.7909 24.0152 13.968 23.5796 15.9997 22.7183C18.0314 21.8569 19.8773 20.5868 21.4301 18.9819C22.9829 17.377 24.2117 15.4692 25.0451 13.3693C25.8785 11.2693 26.2999 9.01921 26.2849 6.74955C26.2849 6.48575 26.2849 6.22194 26.2849 5.97279C27.4336 5.11205 28.423 4.0447 29.206 2.82176Z" fill="#333333"/>
</svg>
