<svg width="130" height="39" viewBox="0 0 130 39" fill="none" xmlns="http://www.w3.org/2000/svg">
<path d="M120.824 9.67578V18.511H114.951V9.67578" fill="#66D9FB"/>
<path d="M120.824 24.3252V33.1858H114.951V24.3252" fill="#C28AEB"/>
<path d="M120.731 18.4434H129.684V24.3673H120.731" fill="#7DFA8C"/>
<g style="mix-blend-mode:multiply">
<path d="M105.997 18.4434H114.951V24.3673H105.997" fill="#FF9F1A"/>
</g>
<path d="M120.824 18.4434H114.951V24.325H120.824V18.4434Z" fill="#FF3838"/>
<path d="M6.83797 37.9758H0V0.739258H6.83797V14.7791C8.48823 12.8242 11.264 12.0033 13.6759 12.0033C20.1077 12.0033 23.0866 16.4717 23.0866 22.0318V37.9758H16.2487V23.2081C16.2487 20.3815 14.8607 18.1727 11.5687 18.1727C8.69134 18.1727 6.99031 20.3307 6.83797 23.1065V37.9758Z" fill="#333333"/>
<path d="M33.4706 23.4198L39.6908 22.4889C41.1295 22.2858 41.595 21.5664 41.595 20.6947C41.595 18.8922 40.2071 17.4027 37.3636 17.4027C34.52 17.4027 32.7344 19.2984 32.5313 21.5156L26.4296 20.2039C26.8358 16.2433 30.4917 11.8765 37.2789 11.8765C45.2932 11.8765 48.2806 16.3956 48.2806 21.4903V33.9306C48.2865 35.2845 48.3883 36.6363 48.5853 37.9759H42.3143C42.1411 36.9754 42.0561 35.9616 42.0604 34.9462C41.2476 36.1621 40.1335 37.1466 38.8268 37.8036C37.5201 38.4607 36.0654 38.7678 34.6047 38.6952C29.2054 38.6952 25.9133 35.0477 25.9133 31.0786C25.9133 26.551 29.2562 24.0291 33.4706 23.4198ZM41.595 27.7358V26.6018L35.891 27.4481C34.1392 27.7104 32.7513 28.6837 32.7513 30.6386C32.7513 32.1365 33.8261 33.5752 36.0433 33.5752C38.9292 33.6006 41.595 32.2127 41.595 27.7358Z" fill="#333333"/>
<path d="M57.4288 25.2818C57.4288 29.8602 60.4077 32.4329 63.9029 32.4329C65.2071 32.4864 66.4912 32.0975 67.5466 31.3294C68.602 30.5613 69.3668 29.459 69.7169 28.2014L75.7339 30.2071C74.5999 34.4386 70.6562 38.7377 63.886 38.7377C62.1179 38.767 60.3623 38.4377 58.7249 37.7699C57.0876 37.1021 55.6025 36.1095 54.3593 34.8521C53.1161 33.5946 52.1404 32.0983 51.4913 30.4535C50.8422 28.8087 50.533 27.0494 50.5824 25.2818C50.5824 17.4706 56.3456 11.8682 63.6998 11.8682C70.5885 11.8682 74.4984 16.0996 75.5478 20.3987L69.463 22.489C69.1638 21.2424 68.4404 20.1385 67.4168 19.3666C66.3932 18.5946 65.133 18.2026 63.8521 18.2576C60.357 18.2238 57.4288 20.7457 57.4288 25.2818Z" fill="#333333"/>
<path d="M92.5919 23.3097L102.934 37.9758H94.5469L87.8612 28.3112L85.0346 31.2901V37.9758H78.1967V0.739258H85.0346V22.0825L93.7767 12.6719H102.722L92.5919 23.3097Z" fill="#333333"/>
</svg>
