<svg width="202" height="36" viewBox="0 0 202 36" fill="none" xmlns="http://www.w3.org/2000/svg">
<rect x="6.10352e-05" y="5.83447" width="5.49167" height="29.7937" fill="#5038BC"/>
<path d="M17.5047 0.371094L22.9963 5.8347L-4.79225e-05 5.83469L5.49163 0.371093L17.5047 0.371094Z" fill="#5038BC"/>
<path d="M4.71948 19.3228L7.46532 13.8592L22.9965 13.8592L17.5048 19.3228L4.71948 19.3228Z" fill="#5038BC"/>
<mask id="mask0_14_2719" style="mask-type:alpha" maskUnits="userSpaceOnUse" x="0" y="5" width="6" height="23">
<rect opacity="0.45" x="6.10352e-05" y="5.83447" width="5.49167" height="21.8544" fill="#B9B9B9"/>
</mask>
<g mask="url(#mask0_14_2719)">
<ellipse opacity="0.5" cx="4.76124" cy="5.84663" rx="6.07148" ry="3.47651" fill="url(#paint0_radial_14_2719)"/>
<ellipse opacity="0.5" cx="7.98006" cy="19.3226" rx="5.66329" ry="3.75623" fill="url(#paint1_radial_14_2719)"/>
</g>
<mask id="mask1_14_2719" style="mask-type:alpha" maskUnits="userSpaceOnUse" x="5" y="0" width="13" height="6">
<rect opacity="0.45" x="17.5051" y="0.371094" width="5.4636" height="12.013" transform="rotate(90 17.5051 0.371094)" fill="#5038BC"/>
</mask>
<g mask="url(#mask1_14_2719)">
<ellipse opacity="0.5" cx="17.7628" cy="4.89581" rx="5.37823" ry="3.5181" transform="rotate(90 17.7628 4.89581)" fill="#5038BC"/>
</g>
<path d="M17.5051 0.371094L22.9968 5.83469V13.8594H17.5051V0.371094Z" fill="#5038BC"/>
<mask id="mask2_14_2719" style="mask-type:alpha" maskUnits="userSpaceOnUse" x="17" y="6" width="6" height="8">
<rect opacity="0.45" x="22.9963" y="13.8594" width="5.49167" height="7.51245" transform="rotate(-180 22.9963 13.8594)" fill="#B9B9B9"/>
</mask>
<g mask="url(#mask2_14_2719)">
<ellipse opacity="0.5" cx="18.4484" cy="14.3715" rx="5.40587" ry="3.50012" transform="rotate(-180 18.4484 14.3715)" fill="url(#paint2_radial_14_2719)"/>
</g>
<mask id="mask3_14_2719" style="mask-type:alpha" maskUnits="userSpaceOnUse" x="7" y="13" width="9" height="7">
<rect opacity="0.45" width="5.4636" height="7.55105" transform="matrix(-4.3936e-08 1 1 4.34879e-08 7.55145 13.8594)" fill="#B9B9B9"/>
</mask>
<g mask="url(#mask3_14_2719)">
<ellipse opacity="0.7" rx="9.85105" ry="3.51075" transform="matrix(0.641681 0.766972 0.770196 -0.637807 8.58147 18.2181)" fill="url(#paint3_radial_14_2719)"/>
</g>
<path d="M4.71967 19.3228L7.4655 13.8592L22.9537 32L18.7921 35.5855L4.71967 19.3228Z" fill="#5038BC"/>
<path d="M36.2397 15.3711L34.1046 11.4957H33.505V15.3711H31.0042V5.10491H35.2014C36.0106 5.10491 36.6979 5.24628 37.2634 5.52902C37.8386 5.81175 38.2676 6.20173 38.5503 6.69895C38.833 7.18642 38.9744 7.73239 38.9744 8.33686C38.9744 9.01932 38.7794 9.62866 38.3894 10.1649C38.0092 10.7011 37.4438 11.0813 36.693 11.3056L39.0622 15.3711H36.2397ZM33.505 9.72616H35.0551C35.5134 9.72616 35.8546 9.61404 36.0788 9.3898C36.3128 9.16556 36.4298 8.84871 36.4298 8.43923C36.4298 8.04925 36.3128 7.74214 36.0788 7.51791C35.8546 7.29367 35.5134 7.18155 35.0551 7.18155H33.505V9.72616ZM43.045 5.10491V15.3711H40.5442V5.10491H43.045ZM48.5718 15.4735C47.8211 15.4735 47.1483 15.3516 46.5536 15.1079C45.9589 14.8641 45.4812 14.5034 45.1205 14.0257C44.7695 13.5479 44.5842 12.9727 44.5647 12.3H47.2263C47.2653 12.6802 47.397 12.9727 47.6212 13.1775C47.8454 13.3725 48.1379 13.4699 48.4986 13.4699C48.8691 13.4699 49.1616 13.3871 49.3761 13.2213C49.5906 13.0458 49.6978 12.807 49.6978 12.5048C49.6978 12.2513 49.6101 12.0417 49.4346 11.8759C49.2689 11.7102 49.0592 11.5737 48.8058 11.4664C48.562 11.3592 48.211 11.2373 47.7528 11.1008C47.0898 10.8961 46.5488 10.6914 46.1295 10.4866C45.7103 10.2819 45.3496 9.97964 45.0473 9.57992C44.7451 9.18019 44.594 8.65859 44.594 8.01513C44.594 7.05968 44.9401 6.31385 45.6323 5.77763C46.3245 5.23166 47.2263 4.95867 48.3378 4.95867C49.4687 4.95867 50.3803 5.23166 51.0725 5.77763C51.7647 6.31385 52.1352 7.06456 52.1839 8.02975H49.4785C49.459 7.69827 49.3371 7.43991 49.1129 7.25467C48.8886 7.05968 48.601 6.96219 48.25 6.96219C47.9478 6.96219 47.7041 7.04506 47.5188 7.2108C47.3336 7.36679 47.241 7.5959 47.241 7.89813C47.241 8.22962 47.397 8.48798 47.7089 8.67322C48.0209 8.85846 48.5084 9.05832 49.1714 9.27281C49.8343 9.49705 50.3705 9.71153 50.78 9.91627C51.1992 10.121 51.56 10.4184 51.8622 10.8083C52.1644 11.1983 52.3156 11.7004 52.3156 12.3146C52.3156 12.8996 52.1644 13.431 51.8622 13.9087C51.5697 14.3864 51.1407 14.7666 50.5753 15.0494C50.0098 15.3321 49.342 15.4735 48.5718 15.4735ZM61.2397 5.10491V7.10843H58.5196V15.3711H56.0189V7.10843H53.2988V5.10491H61.2397ZM64.9955 7.10843V9.18506H68.3445V11.1155H64.9955V13.3676H68.7832V15.3711H62.4948V5.10491H68.7832V7.10843H64.9955ZM76.3588 15.3711L72.9074 10.8376V15.3711H70.4067V5.10491H72.9074V9.60916L76.3295 5.10491H79.269L75.2912 10.1356L79.4152 15.3711H76.3588ZM90.386 5.10491V7.10843H86.2035V9.27281H89.333V11.2178H86.2035V15.3711H83.7027V5.10491H90.386ZM98.0911 13.5577H94.2596L93.6453 15.3711H91.0276L94.7422 5.10491H97.6377L101.352 15.3711H98.7053L98.0911 13.5577ZM97.4476 11.6273L96.1753 7.86889L94.9176 11.6273H97.4476ZM106.197 15.4735C105.447 15.4735 104.774 15.3516 104.179 15.1079C103.584 14.8641 103.107 14.5034 102.746 14.0257C102.395 13.5479 102.21 12.9727 102.19 12.3H104.852C104.891 12.6802 105.023 12.9727 105.247 13.1775C105.471 13.3725 105.763 13.4699 106.124 13.4699C106.495 13.4699 106.787 13.3871 107.002 13.2213C107.216 13.0458 107.323 12.807 107.323 12.5048C107.323 12.2513 107.236 12.0417 107.06 11.8759C106.894 11.7102 106.685 11.5737 106.431 11.4664C106.188 11.3592 105.837 11.2373 105.378 11.1008C104.715 10.8961 104.174 10.6914 103.755 10.4866C103.336 10.2819 102.975 9.97964 102.673 9.57992C102.371 9.18019 102.22 8.65859 102.22 8.01513C102.22 7.05968 102.566 6.31385 103.258 5.77763C103.95 5.23166 104.852 4.95867 105.963 4.95867C107.094 4.95867 108.006 5.23166 108.698 5.77763C109.39 6.31385 109.761 7.06456 109.81 8.02975H107.104C107.085 7.69827 106.963 7.43991 106.738 7.25467C106.514 7.05968 106.227 6.96219 105.876 6.96219C105.573 6.96219 105.33 7.04506 105.144 7.2108C104.959 7.36679 104.867 7.5959 104.867 7.89813C104.867 8.22962 105.023 8.48798 105.335 8.67322C105.647 8.85846 106.134 9.05832 106.797 9.27281C107.46 9.49705 107.996 9.71153 108.406 9.91627C108.825 10.121 109.186 10.4184 109.488 10.8083C109.79 11.1983 109.941 11.7004 109.941 12.3146C109.941 12.8996 109.79 13.431 109.488 13.9087C109.195 14.3864 108.766 14.7666 108.201 15.0494C107.635 15.3321 106.968 15.4735 106.197 15.4735ZM113.981 5.10491V15.3711H111.48V5.10491H113.981ZM118.294 13.4407H121.57V15.3711H115.793V5.10491H118.294V13.4407ZM128.714 15.3711L125.263 10.8376V15.3711H122.762V5.10491H125.263V9.60916L128.685 5.10491H131.625L127.647 10.1356L131.771 15.3711H128.714ZM137.815 15.4735C136.849 15.4735 135.962 15.2492 135.153 14.8008C134.354 14.3523 133.715 13.7283 133.237 12.9289C132.769 12.1196 132.535 11.2129 132.535 10.2088C132.535 9.20456 132.769 8.30274 133.237 7.50328C133.715 6.70383 134.354 6.07986 135.153 5.63139C135.962 5.18291 136.849 4.95867 137.815 4.95867C138.78 4.95867 139.662 5.18291 140.462 5.63139C141.271 6.07986 141.905 6.70383 142.363 7.50328C142.831 8.30274 143.065 9.20456 143.065 10.2088C143.065 11.2129 142.831 12.1196 142.363 12.9289C141.895 13.7283 141.261 14.3523 140.462 14.8008C139.662 15.2492 138.78 15.4735 137.815 15.4735ZM137.815 13.1921C138.634 13.1921 139.287 12.9191 139.774 12.3731C140.271 11.8272 140.52 11.1057 140.52 10.2088C140.52 9.30206 140.271 8.5806 139.774 8.04438C139.287 7.49841 138.634 7.22542 137.815 7.22542C136.986 7.22542 136.323 7.49353 135.826 8.02975C135.338 8.56597 135.095 9.29231 135.095 10.2088C135.095 11.1155 135.338 11.8418 135.826 12.3878C136.323 12.924 136.986 13.1921 137.815 13.1921ZM156.082 5.10491V15.3711H153.581V9.21431L151.285 15.3711H149.267L146.957 9.19969V15.3711H144.456V5.10491H147.41L150.291 12.2123L153.143 5.10491H156.082ZM163.436 5.10491V11.2471C163.436 11.8613 163.588 12.3341 163.89 12.6656C164.192 12.9971 164.636 13.1628 165.221 13.1628C165.806 13.1628 166.254 12.9971 166.566 12.6656C166.878 12.3341 167.034 11.8613 167.034 11.2471V5.10491H169.535V11.2324C169.535 12.1489 169.34 12.924 168.95 13.5577C168.56 14.1914 168.033 14.6691 167.37 14.9909C166.717 15.3126 165.986 15.4735 165.177 15.4735C164.367 15.4735 163.641 15.3175 162.998 15.0055C162.364 14.6838 161.862 14.206 161.491 13.5723C161.121 12.9289 160.936 12.1489 160.936 11.2324V5.10491H163.436ZM173.791 5.10491V15.3711H171.291V5.10491H173.791Z" fill="#5038BC"/>
<path d="M38.1554 24.4695L37.7796 26.2232H39.2258V27.6466H37.4721L37.0622 29.5825H35.5476L35.9576 27.6466H33.8851L33.4751 29.5825H31.972L32.3819 27.6466H30.6624V26.2232H32.6894L33.0652 24.4695H31.357V23.0461H33.3726L33.7712 21.1558H35.2743L34.8758 23.0461H36.9483L37.3469 21.1558H38.8614L38.4628 23.0461H39.9204V24.4695H38.1554ZM36.6408 24.4695H34.5683L34.1925 26.2232H36.265L36.6408 24.4695ZM45.3491 29.5825L43.5954 26.4851H42.8438V29.5825H41.2496V21.6341H44.2331C44.848 21.6341 45.3718 21.7441 45.8045 21.9643C46.2373 22.1769 46.5599 22.4691 46.7725 22.8411C46.9926 23.2055 47.1027 23.6155 47.1027 24.071C47.1027 24.5948 46.9509 25.0693 46.6472 25.4944C46.3436 25.912 45.8919 26.2004 45.2921 26.3599L47.1938 29.5825H45.3491ZM42.8438 25.2894H44.1761C44.6089 25.2894 44.9315 25.187 45.1441 24.982C45.3566 24.7694 45.4629 24.4771 45.4629 24.1051C45.4629 23.7407 45.3566 23.4599 45.1441 23.2625C44.9315 23.0575 44.6089 22.955 44.1761 22.955H42.8438V25.2894ZM50.1389 22.9208V24.9137H52.815V26.1777H50.1389V28.2843H53.1566V29.5825H48.5447V21.6227H53.1566V22.9208H50.1389ZM61.7453 21.6341L58.8301 29.5825H56.8943L53.9791 21.6341H55.6872L57.8736 27.9541L60.0486 21.6341H61.7453ZM66.3907 29.6622C65.6467 29.6622 64.9635 29.4876 64.341 29.1384C63.7184 28.7892 63.225 28.3071 62.8606 27.6922C62.4962 27.0697 62.314 26.3675 62.314 25.5855C62.314 24.8112 62.4962 24.1165 62.8606 23.5016C63.225 22.8791 63.7184 22.3932 64.341 22.044C64.9635 21.6948 65.6467 21.5202 66.3907 21.5202C67.1423 21.5202 67.8255 21.6948 68.4405 22.044C69.063 22.3932 69.5526 22.8791 69.9094 23.5016C70.2738 24.1165 70.456 24.8112 70.456 25.5855C70.456 26.3675 70.2738 27.0697 69.9094 27.6922C69.5526 28.3071 69.063 28.7892 68.4405 29.1384C67.8179 29.4876 67.1347 29.6622 66.3907 29.6622ZM66.3907 28.2388C66.869 28.2388 67.2903 28.1325 67.6547 27.9199C68.0191 27.6998 68.3038 27.3885 68.5088 26.9862C68.7138 26.5838 68.8162 26.1169 68.8162 25.5855C68.8162 25.0541 68.7138 24.591 68.5088 24.1962C68.3038 23.7939 68.0191 23.4864 67.6547 23.2739C67.2903 23.0613 66.869 22.955 66.3907 22.955C65.9124 22.955 65.4873 23.0613 65.1153 23.2739C64.7509 23.4864 64.4662 23.7939 64.2612 24.1962C64.0563 24.591 63.9538 25.0541 63.9538 25.5855C63.9538 26.1169 64.0563 26.5838 64.2612 26.9862C64.4662 27.3885 64.7509 27.6998 65.1153 27.9199C65.4873 28.1325 65.9124 28.2388 66.3907 28.2388ZM73.2364 28.3185H75.8555V29.5825H71.6421V21.6341H73.2364V28.3185ZM78.4403 21.6341V26.5535C78.4403 27.0925 78.5807 27.5062 78.8616 27.7947C79.1425 28.0756 79.5373 28.216 80.0459 28.216C80.5621 28.216 80.9607 28.0756 81.2416 27.7947C81.5225 27.5062 81.6629 27.0925 81.6629 26.5535V21.6341H83.2685V26.5421C83.2685 27.2177 83.1205 27.7909 82.8244 28.2616C82.536 28.7247 82.145 29.0739 81.6515 29.3092C81.1657 29.5446 80.6229 29.6622 80.0231 29.6622C79.431 29.6622 78.892 29.5446 78.4061 29.3092C77.9278 29.0739 77.5482 28.7247 77.2673 28.2616C76.9865 27.7909 76.846 27.2177 76.846 26.5421V21.6341H78.4403ZM90.2179 21.6341V22.9208H88.0999V29.5825H86.5056V22.9208H84.3875V21.6341H90.2179ZM92.9754 21.6341V29.5825H91.3811V21.6341H92.9754ZM98.2401 29.6622C97.4961 29.6622 96.8128 29.4876 96.1903 29.1384C95.5678 28.7892 95.0743 28.3071 94.7099 27.6922C94.3455 27.0697 94.1633 26.3675 94.1633 25.5855C94.1633 24.8112 94.3455 24.1165 94.7099 23.5016C95.0743 22.8791 95.5678 22.3932 96.1903 22.044C96.8128 21.6948 97.4961 21.5202 98.2401 21.5202C98.9916 21.5202 99.6749 21.6948 100.29 22.044C100.912 22.3932 101.402 22.8791 101.759 23.5016C102.123 24.1165 102.305 24.8112 102.305 25.5855C102.305 26.3675 102.123 27.0697 101.759 27.6922C101.402 28.3071 100.912 28.7892 100.29 29.1384C99.6673 29.4876 98.984 29.6622 98.2401 29.6622ZM98.2401 28.2388C98.7183 28.2388 99.1397 28.1325 99.5041 27.9199C99.8685 27.6998 100.153 27.3885 100.358 26.9862C100.563 26.5838 100.666 26.1169 100.666 25.5855C100.666 25.0541 100.563 24.591 100.358 24.1962C100.153 23.7939 99.8685 23.4864 99.5041 23.2739C99.1397 23.0613 98.7183 22.955 98.2401 22.955C97.7618 22.955 97.3367 23.0613 96.9647 23.2739C96.6003 23.4864 96.3156 23.7939 96.1106 24.1962C95.9056 24.591 95.8031 25.0541 95.8031 25.5855C95.8031 26.1169 95.9056 26.5838 96.1106 26.9862C96.3156 27.3885 96.6003 27.6998 96.9647 27.9199C97.3367 28.1325 97.7618 28.2388 98.2401 28.2388ZM110.29 29.5825H108.696L105.086 24.1279V29.5825H103.491V21.6227H105.086L108.696 27.0887V21.6227H110.29V29.5825ZM116.739 28.068H113.573L113.05 29.5825H111.376L114.234 21.6227H116.09L118.948 29.5825H117.263L116.739 28.068ZM116.306 26.7926L115.156 23.4674L114.006 26.7926H116.306ZM124.116 29.5825L122.362 26.4851H121.611V29.5825H120.017V21.6341H123C123.615 21.6341 124.139 21.7441 124.572 21.9643C125.004 22.1769 125.327 22.4691 125.54 22.8411C125.76 23.2055 125.87 23.6155 125.87 24.071C125.87 24.5948 125.718 25.0693 125.414 25.4944C125.111 25.912 124.659 26.2004 124.059 26.3599L125.961 29.5825H124.116ZM121.611 25.2894H122.943C123.376 25.2894 123.699 25.187 123.911 24.982C124.124 24.7694 124.23 24.4771 124.23 24.1051C124.23 23.7407 124.124 23.4599 123.911 23.2625C123.699 23.0575 123.376 22.955 122.943 22.955H121.611V25.2894ZM133.632 21.6341L130.944 26.8154V29.5825H129.35V26.8154L126.651 21.6341H128.451L130.159 25.2667L131.855 21.6341H133.632ZM135.679 21.6454V29.5825H134.642V21.6454H135.679ZM145.496 21.7024V29.5825H144.459V23.7066L141.84 29.5825H141.112L138.481 23.6952V29.5825H137.445V21.7024H138.561L141.476 28.216L144.391 21.7024H145.496ZM152.56 23.9685C152.56 24.629 152.332 25.1794 151.876 25.6197C151.428 26.0524 150.741 26.2688 149.815 26.2688H148.289V29.5825H147.253V21.6454H149.815C150.711 21.6454 151.391 21.8618 151.854 22.2945C152.324 22.7273 152.56 23.2852 152.56 23.9685ZM149.815 25.4147C150.392 25.4147 150.817 25.2894 151.091 25.0389C151.364 24.7884 151.501 24.4316 151.501 23.9685C151.501 22.9892 150.939 22.4995 149.815 22.4995H148.289V25.4147H149.815ZM158.539 27.8175H155.077L154.44 29.5825H153.347L156.216 21.691H157.412L160.27 29.5825H159.177L158.539 27.8175ZM158.243 26.9748L156.808 22.9664L155.374 26.9748H158.243ZM161.134 25.6083C161.134 24.8339 161.308 24.1393 161.657 23.5244C162.007 22.9019 162.481 22.416 163.081 22.0668C163.688 21.7176 164.36 21.543 165.096 21.543C165.962 21.543 166.717 21.7517 167.363 22.1693C168.008 22.5868 168.479 23.179 168.775 23.9457H167.533C167.313 23.4674 166.994 23.0992 166.577 22.8411C166.167 22.583 165.673 22.454 165.096 22.454C164.542 22.454 164.045 22.583 163.605 22.8411C163.164 23.0992 162.819 23.4674 162.568 23.9457C162.318 24.4164 162.193 24.9706 162.193 25.6083C162.193 26.2384 162.318 26.7926 162.568 27.2709C162.819 27.7415 163.164 28.1059 163.605 28.3641C164.045 28.6222 164.542 28.7512 165.096 28.7512C165.673 28.7512 166.167 28.626 166.577 28.3754C166.994 28.1173 167.313 27.7491 167.533 27.2709H168.775C168.479 28.03 168.008 28.6184 167.363 29.0359C166.717 29.4459 165.962 29.6508 165.096 29.6508C164.36 29.6508 163.688 29.48 163.081 29.1384C162.481 28.7892 162.007 28.3071 161.657 27.6922C161.308 27.0773 161.134 26.3826 161.134 25.6083ZM175.202 21.6454V22.4881H173.039V29.5825H172.003V22.4881H169.828V21.6454H175.202Z" fill="#5038BC"/>
<defs>
<radialGradient id="paint0_radial_14_2719" cx="0" cy="0" r="1" gradientUnits="userSpaceOnUse" gradientTransform="translate(4.76124 5.84663) rotate(90) scale(3.47651 6.07148)">
<stop/>
<stop offset="0.917127" stop-opacity="0"/>
</radialGradient>
<radialGradient id="paint1_radial_14_2719" cx="0" cy="0" r="1" gradientUnits="userSpaceOnUse" gradientTransform="translate(7.98006 19.3226) rotate(90) scale(3.75623 5.66329)">
<stop/>
<stop offset="0.917127" stop-opacity="0"/>
</radialGradient>
<radialGradient id="paint2_radial_14_2719" cx="0" cy="0" r="1" gradientUnits="userSpaceOnUse" gradientTransform="translate(18.4484 14.3715) rotate(90) scale(3.50012 5.40587)">
<stop/>
<stop offset="0.917127" stop-opacity="0"/>
</radialGradient>
<radialGradient id="paint3_radial_14_2719" cx="0" cy="0" r="1" gradientUnits="userSpaceOnUse" gradientTransform="translate(9.85105 3.51075) rotate(90) scale(3.51075 9.85105)">
<stop/>
<stop offset="0.917127" stop-opacity="0"/>
</radialGradient>
</defs>
</svg>
