<svg width="228" height="40" viewBox="0 0 228 40" fill="none" xmlns="http://www.w3.org/2000/svg">
<rect y="6.21307" width="6.22384" height="33.7659" fill="#5038BC"/>
<path d="M19.8384 0.0210571L26.0623 6.21308L-5.36764e-05 6.21308L6.22378 0.021056L19.8384 0.0210571Z" fill="#5038BC"/>
<path d="M5.34863 21.4997L8.46055 15.3076L26.0623 15.3076L19.8385 21.4997L5.34863 21.4997Z" fill="#5038BC"/>
<mask id="mask0_102_4174" style="mask-type:alpha" maskUnits="userSpaceOnUse" x="0" y="6" width="7" height="25">
<rect opacity="0.45" y="6.21307" width="6.22384" height="24.7681" fill="#B9B9B9"/>
</mask>
<g mask="url(#mask0_102_4174)">
<ellipse opacity="0.5" cx="5.39607" cy="6.22669" rx="6.88094" ry="3.94001" fill="url(#paint0_radial_102_4174)"/>
<ellipse opacity="0.5" cx="9.04382" cy="21.4995" rx="6.41833" ry="4.25701" fill="url(#paint1_radial_102_4174)"/>
</g>
<mask id="mask1_102_4174" style="mask-type:alpha" maskUnits="userSpaceOnUse" x="6" y="0" width="14" height="7">
<rect opacity="0.45" x="19.8389" y="0.0210571" width="6.19202" height="13.6146" transform="rotate(90 19.8389 0.0210571)" fill="#5038BC"/>
</mask>
<g mask="url(#mask1_102_4174)">
<ellipse opacity="0.5" cx="20.1308" cy="5.14876" rx="6.09527" ry="3.98714" transform="rotate(90 20.1308 5.14876)" fill="#5038BC"/>
</g>
<path d="M19.8389 0.0210571L26.0627 6.21307V15.3076H19.8389V0.0210571Z" fill="#5038BC"/>
<mask id="mask2_102_4174" style="mask-type:alpha" maskUnits="userSpaceOnUse" x="19" y="6" width="8" height="10">
<rect opacity="0.45" x="26.0623" y="15.3077" width="6.22384" height="8.51402" transform="rotate(-180 26.0623 15.3077)" fill="#B9B9B9"/>
</mask>
<g mask="url(#mask2_102_4174)">
<ellipse opacity="0.5" cx="20.9081" cy="15.8883" rx="6.12659" ry="3.96676" transform="rotate(-180 20.9081 15.8883)" fill="url(#paint2_radial_102_4174)"/>
</g>
<mask id="mask3_102_4174" style="mask-type:alpha" maskUnits="userSpaceOnUse" x="8" y="15" width="10" height="7">
<rect opacity="0.45" width="6.19202" height="8.55777" transform="matrix(-4.3936e-08 1 1 4.34879e-08 8.55835 15.3077)" fill="#B9B9B9"/>
</mask>
<g mask="url(#mask3_102_4174)">
<ellipse opacity="0.7" cx="11.1644" cy="3.97881" rx="11.1644" ry="3.97881" transform="matrix(0.641681 0.766972 0.770196 -0.637807 -0.502686 14.2226)" fill="url(#paint3_radial_102_4174)"/>
</g>
<path d="M5.34886 21.4996L8.46078 15.3076L26.0139 35.867L21.2974 39.9305L5.34886 21.4996Z" fill="#5038BC"/>
<path d="M41.0714 17.0211L38.6516 12.629H37.9721V17.0211H35.1379V5.38617H39.8946C40.8117 5.38617 41.5907 5.54639 42.2316 5.86681C42.8835 6.18724 43.3696 6.62921 43.6901 7.19273C44.0105 7.74519 44.1707 8.36395 44.1707 9.04901C44.1707 9.82245 43.9497 10.513 43.5078 11.1207C43.0768 11.7285 42.436 12.1594 41.5852 12.4135L44.2702 17.0211H41.0714ZM37.9721 10.6235H39.7289C40.2482 10.6235 40.6349 10.4965 40.8891 10.2423C41.1543 9.98819 41.2869 9.62909 41.2869 9.16502C41.2869 8.72305 41.1543 8.375 40.8891 8.12087C40.6349 7.86673 40.2482 7.73967 39.7289 7.73967H37.9721V10.6235ZM48.784 5.38617V17.0211H45.9498V5.38617H48.784ZM55.0476 17.1371C54.1968 17.1371 53.4344 16.999 52.7604 16.7227C52.0864 16.4465 51.545 16.0377 51.1362 15.4963C50.7384 14.9548 50.5285 14.3029 50.5064 13.5405H53.5228C53.567 13.9715 53.7162 14.3029 53.9703 14.535C54.2244 14.756 54.5559 14.8664 54.9647 14.8664C55.3846 14.8664 55.7161 14.7725 55.9592 14.5847C56.2023 14.3858 56.3238 14.1151 56.3238 13.7726C56.3238 13.4853 56.2244 13.2477 56.0255 13.0599C55.8376 12.8721 55.6001 12.7174 55.3128 12.5958C55.0366 12.4743 54.6388 12.3362 54.1195 12.1815C53.3681 11.9494 52.7549 11.7174 52.2798 11.4854C51.8046 11.2533 51.3958 10.9108 51.0533 10.4578C50.7108 10.0048 50.5395 9.41363 50.5395 8.68438C50.5395 7.60155 50.9317 6.75628 51.7162 6.14857C52.5007 5.52981 53.5228 5.22043 54.7824 5.22043C56.0641 5.22043 57.0972 5.52981 57.8817 6.14857C58.6662 6.75628 59.0861 7.60707 59.1414 8.70095H56.0752C56.0531 8.32528 55.915 8.03247 55.6608 7.82254C55.4067 7.60155 55.0808 7.49106 54.683 7.49106C54.3405 7.49106 54.0642 7.58498 53.8543 7.77281C53.6443 7.9496 53.5394 8.20926 53.5394 8.55179C53.5394 8.92746 53.7162 9.22027 54.0697 9.43021C54.4233 9.64014 54.9758 9.86665 55.7271 10.1097C56.4785 10.3639 57.0862 10.607 57.5503 10.839C58.0254 11.071 58.4342 11.408 58.7767 11.85C59.1193 12.292 59.2905 12.861 59.2905 13.5571C59.2905 14.2201 59.1193 14.8223 58.7767 15.3637C58.4453 15.9051 57.9591 16.336 57.3182 16.6564C56.6774 16.9769 55.9205 17.1371 55.0476 17.1371ZM69.4045 5.38617V7.6568H66.3217V17.0211H63.4876V7.6568H60.4049V5.38617H69.4045ZM73.661 7.6568V10.0103H77.4564V12.198H73.661V14.7504H77.9537V17.0211H70.8269V5.38617H77.9537V7.6568H73.661ZM86.5392 17.0211L82.6278 11.8831V17.0211H79.7936V5.38617H82.6278V10.4909L86.5061 5.38617H89.8374L85.3293 11.0876L90.0031 17.0211H86.5392ZM102.437 5.38617V7.6568H97.6964V10.1097H101.243V12.3141H97.6964V17.0211H94.8623V5.38617H102.437ZM111.169 14.9659H106.827L106.13 17.0211H103.164L107.374 5.38617H110.655L114.865 17.0211H111.865L111.169 14.9659ZM110.44 12.7781L108.998 8.51864L107.572 12.7781H110.44ZM120.356 17.1371C119.505 17.1371 118.743 16.999 118.069 16.7227C117.395 16.4465 116.853 16.0377 116.444 15.4963C116.047 14.9548 115.837 14.3029 115.815 13.5405H118.831C118.875 13.9715 119.025 14.3029 119.279 14.535C119.533 14.756 119.864 14.8664 120.273 14.8664C120.693 14.8664 121.024 14.7725 121.268 14.5847C121.511 14.3858 121.632 14.1151 121.632 13.7726C121.632 13.4853 121.533 13.2477 121.334 13.0599C121.146 12.8721 120.908 12.7174 120.621 12.5958C120.345 12.4743 119.947 12.3362 119.428 12.1815C118.676 11.9494 118.063 11.7174 117.588 11.4854C117.113 11.2533 116.704 10.9108 116.362 10.4578C116.019 10.0048 115.848 9.41363 115.848 8.68438C115.848 7.60155 116.24 6.75628 117.025 6.14857C117.809 5.52981 118.831 5.22043 120.091 5.22043C121.372 5.22043 122.406 5.52981 123.19 6.14857C123.975 6.75628 124.394 7.60707 124.45 8.70095H121.384C121.361 8.32528 121.223 8.03247 120.969 7.82254C120.715 7.60155 120.389 7.49106 119.991 7.49106C119.649 7.49106 119.373 7.58498 119.163 7.77281C118.953 7.9496 118.848 8.20926 118.848 8.55179C118.848 8.92746 119.025 9.22027 119.378 9.43021C119.732 9.64014 120.284 9.86665 121.035 10.1097C121.787 10.3639 122.395 10.607 122.859 10.839C123.334 11.071 123.743 11.408 124.085 11.85C124.428 12.292 124.599 12.861 124.599 13.5571C124.599 14.2201 124.428 14.8223 124.085 15.3637C123.754 15.9051 123.267 16.336 122.627 16.6564C121.986 16.9769 121.229 17.1371 120.356 17.1371ZM129.177 5.38617V17.0211H126.343V5.38617H129.177ZM134.065 14.8333H137.778V17.0211H131.231V5.38617H134.065V14.8333ZM145.875 17.0211L141.964 11.8831V17.0211H139.13V5.38617H141.964V10.4909L145.842 5.38617H149.173L144.665 11.0876L149.339 17.0211H145.875ZM156.188 17.1371C155.095 17.1371 154.089 16.8829 153.172 16.3747C152.266 15.8664 151.542 15.1593 151.001 14.2532C150.47 13.3361 150.205 12.3085 150.205 11.1705C150.205 10.0324 150.47 9.01033 151.001 8.10429C151.542 7.19825 152.266 6.4911 153.172 5.98283C154.089 5.47457 155.095 5.22043 156.188 5.22043C157.282 5.22043 158.282 5.47457 159.188 5.98283C160.105 6.4911 160.824 7.19825 161.343 8.10429C161.873 9.01033 162.139 10.0324 162.139 11.1705C162.139 12.3085 161.873 13.3361 161.343 14.2532C160.813 15.1593 160.094 15.8664 159.188 16.3747C158.282 16.8829 157.282 17.1371 156.188 17.1371ZM156.188 14.5515C157.117 14.5515 157.857 14.2422 158.409 13.6234C158.973 13.0046 159.255 12.187 159.255 11.1705C159.255 10.1429 158.973 9.32524 158.409 8.71753C157.857 8.09877 157.117 7.78939 156.188 7.78939C155.249 7.78939 154.498 8.09324 153.934 8.70095C153.382 9.30866 153.106 10.1318 153.106 11.1705C153.106 12.198 153.382 13.0212 153.934 13.64C154.498 14.2477 155.249 14.5515 156.188 14.5515ZM176.891 5.38617V17.0211H174.057V10.0434L171.455 17.0211H169.168L166.549 10.0269V17.0211H163.715V5.38617H167.063L170.328 13.4411L173.56 5.38617H176.891ZM185.226 5.38617V12.3472C185.226 13.0433 185.397 13.5792 185.74 13.9549C186.083 14.3306 186.585 14.5184 187.248 14.5184C187.911 14.5184 188.419 14.3306 188.773 13.9549C189.127 13.5792 189.303 13.0433 189.303 12.3472V5.38617H192.138V12.3306C192.138 13.3693 191.917 14.2477 191.475 14.9659C191.033 15.6841 190.436 16.2255 189.685 16.5901C188.944 16.9548 188.116 17.1371 187.199 17.1371C186.281 17.1371 185.458 16.9603 184.729 16.6067C184.011 16.2421 183.442 15.7007 183.022 14.9825C182.602 14.2532 182.392 13.3693 182.392 12.3306V5.38617H185.226ZM196.962 5.38617V17.0211H194.128V5.38617H196.962Z" fill="#5038BC"/>
<path d="M42.5327 27.5906L42.0423 29.9136H43.8233V30.9461H41.8229L41.268 33.5272H40.1452L40.7001 30.9461H37.9899L37.435 33.5272H36.3122L36.8671 30.9461H34.8409V29.9136H37.0865L37.5769 27.5906H35.5766V26.5581H37.7963L38.3513 23.977H39.4741L38.9191 26.5581H41.6293L42.1843 23.977H43.3071L42.7521 26.5581H44.546V27.5906H42.5327ZM41.4099 27.5906H38.6997L38.2093 29.9136H40.9195L41.4099 27.5906ZM53.0617 27.1389C52.8122 26.614 52.4509 26.2097 51.9776 25.9257C51.5044 25.6332 50.9538 25.487 50.3257 25.487C49.6976 25.487 49.1298 25.6332 48.6222 25.9257C48.1232 26.2097 47.7274 26.6227 47.4349 27.1647C47.1509 27.6981 47.009 28.3176 47.009 29.0231C47.009 29.7286 47.1509 30.3481 47.4349 30.8815C47.7274 31.415 48.1232 31.8279 48.6222 32.1205C49.1298 32.4044 49.6976 32.5464 50.3257 32.5464C51.2033 32.5464 51.926 32.2839 52.4939 31.7591C53.0617 31.2343 53.393 30.5245 53.4876 29.6297H49.8998V28.6747H54.7395V29.5781C54.6706 30.318 54.4383 30.9977 54.0426 31.6172C53.6468 32.228 53.1263 32.7141 52.481 33.0755C51.8357 33.4282 51.1173 33.6046 50.3257 33.6046C49.4912 33.6046 48.7297 33.411 48.0414 33.0239C47.3531 32.6281 46.8068 32.0818 46.4024 31.3848C46.0066 30.6879 45.8087 29.9007 45.8087 29.0231C45.8087 28.1455 46.0066 27.3583 46.4024 26.6614C46.8068 25.9559 47.3531 25.4095 48.0414 25.0223C48.7297 24.6266 49.4912 24.4287 50.3257 24.4287C51.2807 24.4287 52.1239 24.6653 52.8552 25.1385C53.5952 25.6117 54.1329 26.2785 54.4684 27.1389H53.0617ZM57.4667 27.6035C57.6732 27.1991 57.9657 26.8851 58.3443 26.6614C58.7315 26.4377 59.2004 26.3258 59.751 26.3258V27.539H59.4413C58.1249 27.539 57.4667 28.2531 57.4667 29.6813V33.5272H56.2923V26.4549H57.4667V27.6035ZM64.1912 33.6433C63.5287 33.6433 62.9264 33.4928 62.3844 33.1916C61.8509 32.8905 61.4293 32.4646 61.1196 31.914C60.8185 31.3547 60.6679 30.7095 60.6679 29.9781C60.6679 29.2554 60.8228 28.6187 61.1325 28.0681C61.4509 27.5088 61.881 27.083 62.4231 26.7904C62.9651 26.4893 63.5717 26.3387 64.2428 26.3387C64.9139 26.3387 65.5204 26.4893 66.0625 26.7904C66.6045 27.083 67.0304 27.5045 67.3401 28.0552C67.6585 28.6058 67.8177 29.2468 67.8177 29.9781C67.8177 30.7095 67.6542 31.3547 67.3272 31.914C67.0089 32.4646 66.5744 32.8905 66.0238 33.1916C65.4731 33.4928 64.8623 33.6433 64.1912 33.6433ZM64.1912 32.6109C64.6127 32.6109 65.0085 32.5119 65.3785 32.3141C65.7484 32.1162 66.0453 31.8193 66.269 31.4236C66.5013 31.0278 66.6174 30.546 66.6174 29.9781C66.6174 29.4103 66.5056 28.9285 66.2819 28.5327C66.0582 28.1369 65.7657 27.8444 65.4043 27.6551C65.0429 27.4572 64.6515 27.3583 64.2299 27.3583C63.7997 27.3583 63.4039 27.4572 63.0426 27.6551C62.6898 27.8444 62.4059 28.1369 62.1908 28.5327C61.9757 28.9285 61.8681 29.4103 61.8681 29.9781C61.8681 30.5546 61.9714 31.0407 62.1779 31.4365C62.393 31.8322 62.6769 32.1291 63.0296 32.327C63.3824 32.5162 63.7696 32.6109 64.1912 32.6109ZM75.634 26.4549V33.5272H74.4595V32.4818C74.2358 32.8432 73.9218 33.1271 73.5174 33.3336C73.1217 33.5315 72.6829 33.6304 72.201 33.6304C71.6504 33.6304 71.1557 33.5186 70.7169 33.2949C70.2781 33.0626 69.9296 32.7184 69.6715 32.2624C69.422 31.8064 69.2973 31.2515 69.2973 30.5976V26.4549H70.4588V30.4427C70.4588 31.1396 70.6352 31.6774 70.9879 32.0559C71.3407 32.4259 71.8225 32.6109 72.4333 32.6109C73.0614 32.6109 73.5561 32.4173 73.9175 32.0301C74.2789 31.643 74.4595 31.0794 74.4595 30.3395V26.4549H75.634ZM81.0627 26.3258C81.9231 26.3258 82.62 26.5882 83.1534 27.1131C83.6869 27.6293 83.9536 28.3778 83.9536 29.3587V33.5272H82.7921V29.5264C82.7921 28.8209 82.6157 28.2832 82.2629 27.9132C81.9102 27.5347 81.4284 27.3454 80.8175 27.3454C80.198 27.3454 79.7033 27.539 79.3333 27.9261C78.972 28.3133 78.7913 28.8768 78.7913 29.6168V33.5272H77.6169V26.4549H78.7913V27.4615C79.0236 27.1002 79.3377 26.8205 79.7334 26.6227C80.1378 26.4248 80.5809 26.3258 81.0627 26.3258ZM85.4332 29.9652C85.4332 29.2425 85.5795 28.6101 85.872 28.0681C86.1645 27.5174 86.5646 27.0916 87.0722 26.7904C87.5884 26.4893 88.1649 26.3387 88.8016 26.3387C89.3522 26.3387 89.8641 26.4678 90.3374 26.7259C90.8106 26.9754 91.1719 27.3067 91.4214 27.7196V23.977H92.6088V33.5272H91.4214V32.1979C91.1891 32.6195 90.845 32.9679 90.389 33.2433C89.933 33.51 89.3995 33.6433 88.7887 33.6433C88.1606 33.6433 87.5884 33.4885 87.0722 33.1787C86.5646 32.869 86.1645 32.4345 85.872 31.8753C85.5795 31.316 85.4332 30.6793 85.4332 29.9652ZM91.4214 29.9781C91.4214 29.4447 91.3139 28.9801 91.0988 28.5843C90.8837 28.1885 90.5912 27.8874 90.2212 27.6809C89.8598 27.4658 89.4598 27.3583 89.021 27.3583C88.5822 27.3583 88.1821 27.4615 87.8207 27.668C87.4594 27.8745 87.1712 28.1756 86.9561 28.5714C86.741 28.9672 86.6334 29.4318 86.6334 29.9652C86.6334 30.5073 86.741 30.9805 86.9561 31.3848C87.1712 31.7806 87.4594 32.0861 87.8207 32.3012C88.1821 32.5076 88.5822 32.6109 89.021 32.6109C89.4598 32.6109 89.8598 32.5076 90.2212 32.3012C90.5912 32.0861 90.8837 31.7806 91.0988 31.3848C91.3139 30.9805 91.4214 30.5116 91.4214 29.9781ZM95.7678 27.7713C96.0087 27.3497 96.3615 27.0055 96.8261 26.7388C97.2907 26.4721 97.8198 26.3387 98.4135 26.3387C99.0502 26.3387 99.6223 26.4893 100.13 26.7904C100.638 27.0916 101.038 27.5174 101.33 28.0681C101.623 28.6101 101.769 29.2425 101.769 29.9652C101.769 30.6793 101.623 31.316 101.33 31.8753C101.038 32.4345 100.633 32.869 100.117 33.1787C99.6094 33.4885 99.0416 33.6433 98.4135 33.6433C97.8026 33.6433 97.2649 33.51 96.8003 33.2433C96.3443 32.9765 96.0001 32.6367 95.7678 32.2237V33.5272H94.5934V23.977H95.7678V27.7713ZM100.569 29.9652C100.569 29.4318 100.461 28.9672 100.246 28.5714C100.031 28.1756 99.7385 27.8745 99.3685 27.668C99.0071 27.4615 98.6071 27.3583 98.1683 27.3583C97.7381 27.3583 97.338 27.4658 96.968 27.6809C96.6067 27.8874 96.3142 28.1928 96.0905 28.5972C95.8754 28.993 95.7678 29.4533 95.7678 29.9781C95.7678 30.5116 95.8754 30.9805 96.0905 31.3848C96.3142 31.7806 96.6067 32.0861 96.968 32.3012C97.338 32.5076 97.7381 32.6109 98.1683 32.6109C98.6071 32.6109 99.0071 32.5076 99.3685 32.3012C99.7385 32.0861 100.031 31.7806 100.246 31.3848C100.461 30.9805 100.569 30.5073 100.569 29.9652ZM104.489 27.6035C104.696 27.1991 104.988 26.8851 105.367 26.6614C105.754 26.4377 106.223 26.3258 106.774 26.3258V27.539H106.464C105.147 27.539 104.489 28.2531 104.489 29.6813V33.5272H103.315V26.4549H104.489V27.6035ZM114.582 29.72C114.582 29.9437 114.569 30.1803 114.543 30.4298H108.891C108.934 31.1267 109.17 31.6731 109.6 32.0688C110.039 32.456 110.568 32.6496 111.188 32.6496C111.696 32.6496 112.117 32.5335 112.453 32.3012C112.797 32.0602 113.038 31.7419 113.175 31.3461H114.44C114.251 32.0258 113.872 32.5808 113.304 33.011C112.737 33.4325 112.031 33.6433 111.188 33.6433C110.517 33.6433 109.915 33.4928 109.381 33.1916C108.856 32.8905 108.443 32.4646 108.142 31.914C107.841 31.3547 107.69 30.7095 107.69 29.9781C107.69 29.2468 107.837 28.6058 108.129 28.0552C108.422 27.5045 108.83 27.083 109.355 26.7904C109.889 26.4893 110.5 26.3387 111.188 26.3387C111.859 26.3387 112.453 26.485 112.969 26.7775C113.485 27.0701 113.881 27.4744 114.156 27.9907C114.44 28.4983 114.582 29.0747 114.582 29.72ZM113.369 29.4748C113.369 29.0274 113.27 28.6445 113.072 28.3262C112.874 27.9993 112.603 27.7541 112.259 27.5906C111.924 27.4185 111.549 27.3325 111.136 27.3325C110.543 27.3325 110.035 27.5217 109.613 27.9003C109.2 28.2789 108.964 28.8037 108.904 29.4748H113.369ZM115.693 29.9652C115.693 29.2425 115.84 28.6101 116.132 28.0681C116.425 27.5174 116.825 27.0916 117.332 26.7904C117.849 26.4893 118.421 26.3387 119.049 26.3387C119.668 26.3387 120.206 26.4721 120.662 26.7388C121.118 27.0055 121.458 27.3411 121.682 27.7454V26.4549H122.869V33.5272H121.682V32.2108C121.449 32.6238 121.101 32.9679 120.636 33.2433C120.18 33.51 119.647 33.6433 119.036 33.6433C118.408 33.6433 117.84 33.4885 117.332 33.1787C116.825 32.869 116.425 32.4345 116.132 31.8753C115.84 31.316 115.693 30.6793 115.693 29.9652ZM121.682 29.9781C121.682 29.4447 121.574 28.9801 121.359 28.5843C121.144 28.1885 120.851 27.8874 120.481 27.6809C120.12 27.4658 119.72 27.3583 119.281 27.3583C118.842 27.3583 118.442 27.4615 118.081 27.668C117.72 27.8745 117.431 28.1756 117.216 28.5714C117.001 28.9672 116.894 29.4318 116.894 29.9652C116.894 30.5073 117.001 30.9805 117.216 31.3848C117.431 31.7806 117.72 32.0861 118.081 32.3012C118.442 32.5076 118.842 32.6109 119.281 32.6109C119.72 32.6109 120.12 32.5076 120.481 32.3012C120.851 32.0861 121.144 31.7806 121.359 31.3848C121.574 30.9805 121.682 30.5116 121.682 29.9781ZM128.803 33.5272L126.028 30.404V33.5272H124.854V23.977H126.028V29.591L128.751 26.4549H130.39L127.061 29.9781L130.403 33.5272H128.803ZM132.102 25.3063C131.878 25.3063 131.689 25.2288 131.534 25.074C131.379 24.9191 131.302 24.7298 131.302 24.5061C131.302 24.2824 131.379 24.0931 131.534 23.9383C131.689 23.7834 131.878 23.706 132.102 23.706C132.317 23.706 132.498 23.7834 132.644 23.9383C132.799 24.0931 132.876 24.2824 132.876 24.5061C132.876 24.7298 132.799 24.9191 132.644 25.074C132.498 25.2288 132.317 25.3063 132.102 25.3063ZM132.67 26.4549V33.5272H131.496V26.4549H132.67ZM138.117 26.3258C138.978 26.3258 139.675 26.5882 140.208 27.1131C140.742 27.6293 141.008 28.3778 141.008 29.3587V33.5272H139.847V29.5264C139.847 28.8209 139.67 28.2832 139.318 27.9132C138.965 27.5347 138.483 27.3454 137.872 27.3454C137.253 27.3454 136.758 27.539 136.388 27.9261C136.027 28.3133 135.846 28.8768 135.846 29.6168V33.5272H134.672V26.4549H135.846V27.4615C136.078 27.1002 136.392 26.8205 136.788 26.6227C137.192 26.4248 137.636 26.3258 138.117 26.3258ZM145.843 26.3387C146.454 26.3387 146.988 26.4721 147.444 26.7388C147.908 27.0055 148.252 27.3411 148.476 27.7454V26.4549H149.663V33.6821C149.663 34.3273 149.526 34.8995 149.25 35.3985C148.975 35.9061 148.579 36.3019 148.063 36.5858C147.556 36.8698 146.962 37.0117 146.282 37.0117C145.353 37.0117 144.579 36.7923 143.959 36.3535C143.34 35.9147 142.974 35.3168 142.862 34.5596H144.024C144.153 34.9898 144.419 35.334 144.824 35.5921C145.228 35.8588 145.714 35.9922 146.282 35.9922C146.927 35.9922 147.452 35.79 147.857 35.3856C148.27 34.9812 148.476 34.4134 148.476 33.6821V32.1979C148.244 32.6109 147.9 32.955 147.444 33.2304C146.988 33.5057 146.454 33.6433 145.843 33.6433C145.215 33.6433 144.643 33.4885 144.127 33.1787C143.619 32.869 143.219 32.4345 142.927 31.8753C142.634 31.316 142.488 30.6793 142.488 29.9652C142.488 29.2425 142.634 28.6101 142.927 28.0681C143.219 27.5174 143.619 27.0916 144.127 26.7904C144.643 26.4893 145.215 26.3387 145.843 26.3387ZM148.476 29.9781C148.476 29.4447 148.369 28.9801 148.153 28.5843C147.938 28.1885 147.646 27.8874 147.276 27.6809C146.915 27.4658 146.514 27.3583 146.076 27.3583C145.637 27.3583 145.237 27.4615 144.875 27.668C144.514 27.8745 144.226 28.1756 144.011 28.5714C143.796 28.9672 143.688 29.4318 143.688 29.9652C143.688 30.5073 143.796 30.9805 144.011 31.3848C144.226 31.7806 144.514 32.0861 144.875 32.3012C145.237 32.5076 145.637 32.6109 146.076 32.6109C146.514 32.6109 146.915 32.5076 147.276 32.3012C147.646 32.0861 147.938 31.7806 148.153 31.3848C148.369 30.9805 148.476 30.5116 148.476 29.9781ZM157.817 27.2292C157.611 26.8507 157.327 26.5624 156.965 26.3645C156.604 26.1667 156.182 26.0677 155.7 26.0677C155.167 26.0677 154.694 26.1882 154.281 26.4291C153.868 26.67 153.545 27.0141 153.313 27.4615C153.081 27.9089 152.964 28.4251 152.964 29.0102C152.964 29.6125 153.081 30.1373 153.313 30.5847C153.554 31.0321 153.885 31.3762 154.307 31.6172C154.728 31.8581 155.219 31.9785 155.778 31.9785C156.466 31.9785 157.03 31.7978 157.469 31.4365C157.907 31.0665 158.196 30.5546 158.333 29.9007H155.236V28.5198H160.114V30.0943C159.994 30.7224 159.736 31.3031 159.34 31.8365C158.944 32.37 158.432 32.8002 157.804 33.1271C157.185 33.4455 156.488 33.6046 155.713 33.6046C154.844 33.6046 154.057 33.411 153.352 33.0239C152.655 32.6281 152.104 32.0818 151.7 31.3848C151.304 30.6879 151.106 29.8964 151.106 29.0102C151.106 28.124 151.304 27.3325 151.7 26.6356C152.104 25.93 152.655 25.3837 153.352 24.9965C154.057 24.6008 154.84 24.4029 155.7 24.4029C156.716 24.4029 157.598 24.6524 158.346 25.1514C159.095 25.6418 159.611 26.3344 159.895 27.2292H157.817ZM163.258 27.4873C163.49 27.1088 163.791 26.8119 164.161 26.5968C164.54 26.3817 164.97 26.2742 165.452 26.2742V28.1713H164.974C164.406 28.1713 163.976 28.3047 163.684 28.5714C163.4 28.8381 163.258 29.3027 163.258 29.9652V33.5272H161.451V26.3774H163.258V27.4873ZM169.843 33.6433C169.155 33.6433 168.536 33.4928 167.985 33.1916C167.434 32.8819 167 32.4474 166.682 31.8882C166.372 31.3289 166.217 30.6836 166.217 29.9523C166.217 29.221 166.376 28.5757 166.695 28.0165C167.021 27.4572 167.465 27.027 168.024 26.7259C168.583 26.4162 169.207 26.2613 169.895 26.2613C170.583 26.2613 171.207 26.4162 171.766 26.7259C172.326 27.027 172.764 27.4572 173.083 28.0165C173.41 28.5757 173.573 29.221 173.573 29.9523C173.573 30.6836 173.405 31.3289 173.07 31.8882C172.743 32.4474 172.296 32.8819 171.728 33.1916C171.168 33.4928 170.54 33.6433 169.843 33.6433ZM169.843 32.0688C170.17 32.0688 170.476 31.9914 170.76 31.8365C171.052 31.6731 171.285 31.4322 171.457 31.1138C171.629 30.7955 171.715 30.4083 171.715 29.9523C171.715 29.2726 171.534 28.7521 171.173 28.3907C170.82 28.0208 170.386 27.8358 169.869 27.8358C169.353 27.8358 168.919 28.0208 168.566 28.3907C168.222 28.7521 168.05 29.2726 168.05 29.9523C168.05 30.632 168.217 31.1568 168.553 31.5268C168.897 31.8882 169.327 32.0688 169.843 32.0688ZM184.81 26.3774L182.719 33.5272H180.771L179.467 28.5327L178.164 33.5272H176.202L174.098 26.3774H175.931L177.196 31.8236L178.564 26.3774H180.474L181.816 31.8107L183.081 26.3774H184.81ZM187.891 27.8616V31.3203C187.891 31.5612 187.947 31.7376 188.059 31.8495C188.18 31.9527 188.377 32.0043 188.653 32.0043H189.492V33.5272H188.356C186.833 33.5272 186.072 32.7873 186.072 31.3074V27.8616H185.22V26.3774H186.072V24.6094H187.891V26.3774H189.492V27.8616H187.891ZM194.818 26.2742C195.36 26.2742 195.842 26.3947 196.263 26.6356C196.685 26.8679 197.012 27.2163 197.244 27.6809C197.485 28.1369 197.605 28.6876 197.605 29.3328V33.5272H195.799V29.5781C195.799 29.0102 195.657 28.5757 195.373 28.2746C195.089 27.9648 194.702 27.81 194.211 27.81C193.712 27.81 193.316 27.9648 193.024 28.2746C192.74 28.5757 192.598 29.0102 192.598 29.5781V33.5272H190.791V23.977H192.598V27.2679C192.83 26.9582 193.14 26.7173 193.527 26.5452C193.914 26.3645 194.345 26.2742 194.818 26.2742Z" fill="#5038BC"/>
<defs>
<radialGradient id="paint0_radial_102_4174" cx="0" cy="0" r="1" gradientUnits="userSpaceOnUse" gradientTransform="translate(5.39607 6.22669) rotate(90) scale(3.94001 6.88094)">
<stop/>
<stop offset="0.917127" stop-opacity="0"/>
</radialGradient>
<radialGradient id="paint1_radial_102_4174" cx="0" cy="0" r="1" gradientUnits="userSpaceOnUse" gradientTransform="translate(9.04382 21.4995) rotate(90) scale(4.25701 6.41833)">
<stop/>
<stop offset="0.917127" stop-opacity="0"/>
</radialGradient>
<radialGradient id="paint2_radial_102_4174" cx="0" cy="0" r="1" gradientUnits="userSpaceOnUse" gradientTransform="translate(20.9081 15.8883) rotate(90) scale(3.96676 6.12659)">
<stop/>
<stop offset="0.917127" stop-opacity="0"/>
</radialGradient>
<radialGradient id="paint3_radial_102_4174" cx="0" cy="0" r="1" gradientUnits="userSpaceOnUse" gradientTransform="translate(11.1644 3.97881) rotate(90) scale(3.97881 11.1644)">
<stop/>
<stop offset="0.917127" stop-opacity="0"/>
</radialGradient>
</defs>
</svg>