<svg width="22" height="22" viewBox="0 0 22 22" fill="none" xmlns="http://www.w3.org/2000/svg">
<path d="M15.3193 12.3431C15.2842 12.3263 13.972 11.6801 13.7388 11.5961C13.6436 11.562 13.5416 11.5286 13.4331 11.5286C13.2559 11.5286 13.1071 11.6169 12.9911 11.7903C12.8601 11.9852 12.4632 12.449 12.3406 12.5876C12.3246 12.6059 12.3028 12.6278 12.2897 12.6278C12.2779 12.6278 12.0748 12.5441 12.0133 12.5174C10.6057 11.9059 9.53718 10.4355 9.39066 10.1875C9.36974 10.1519 9.36887 10.1357 9.36869 10.1357C9.37383 10.1168 9.42117 10.0694 9.4456 10.0449C9.51707 9.97415 9.59451 9.88094 9.66943 9.79076C9.70491 9.74804 9.74044 9.70526 9.77533 9.66494C9.88403 9.53847 9.93242 9.44029 9.98852 9.32656L10.0179 9.26748C10.1549 8.99531 10.0379 8.76564 10.0001 8.69148C9.96906 8.62941 9.41498 7.29215 9.35607 7.15166C9.2144 6.81264 9.02722 6.65479 8.76709 6.65479C8.74296 6.65479 8.76709 6.65479 8.66587 6.65905C8.54262 6.66425 7.87142 6.75262 7.57465 6.93969C7.25994 7.1381 6.72754 7.77055 6.72754 8.88281C6.72754 9.88386 7.3628 10.829 7.63555 11.1885C7.64233 11.1976 7.65477 11.216 7.67283 11.2424C8.71736 12.7678 10.0195 13.8983 11.3395 14.4256C12.6103 14.9333 13.2121 14.9919 13.5542 14.9919H13.5543C13.698 14.9919 13.8131 14.9807 13.9146 14.9707L13.979 14.9645C14.418 14.9256 15.3828 14.4257 15.6022 13.8159C15.7751 13.3355 15.8207 12.8107 15.7057 12.6203C15.6269 12.4908 15.4912 12.4256 15.3193 12.3431Z" fill="white"/>
<path d="M11.1598 2C6.28481 2 2.31873 5.93628 2.31873 10.7746C2.31873 12.3395 2.73752 13.8713 3.53086 15.212L2.01238 19.6912C1.98409 19.7747 2.00513 19.8671 2.0669 19.9299C2.11149 19.9755 2.17198 20 2.23375 20C2.25742 20 2.28127 19.9965 2.30453 19.989L6.97518 18.5048C8.2533 19.1877 9.69786 19.5482 11.1598 19.5482C16.0343 19.5483 20 15.6124 20 10.7746C20 5.93628 16.0343 2 11.1598 2ZM11.1598 17.7204C9.78412 17.7204 8.45171 17.3232 7.30637 16.5717C7.26785 16.5464 7.22315 16.5334 7.17815 16.5334C7.15436 16.5334 7.13052 16.537 7.10732 16.5444L4.76761 17.2881L5.5229 15.0598C5.54733 14.9877 5.53512 14.9081 5.49012 14.8466C4.61794 13.6549 4.15689 12.2469 4.15689 10.7746C4.15689 6.94416 7.29836 3.82782 11.1597 3.82782C15.0206 3.82782 18.1617 6.94416 18.1617 10.7746C18.1618 14.6046 15.0207 17.7204 11.1598 17.7204Z" fill="white"/>
</svg>
