<svg width="26" height="25" viewBox="0 0 26 25" fill="none" xmlns="http://www.w3.org/2000/svg">
<path d="M25.062 10.0146V9.77398V9.60556C24.7308 7.8308 23.8922 6.18909 22.6468 4.87779C21.3054 3.46632 19.6513 2.38696 17.8165 1.72594C16.1857 1.09905 14.4562 0.76507 12.7084 0.739487C10.4045 0.72638 8.13243 1.27572 6.09086 2.33947C4.30322 3.17263 2.80268 4.51358 1.77781 6.1938C0.752939 7.87403 0.249473 9.81855 0.330686 11.783C0.512405 13.7252 1.27366 15.5687 2.51641 17.0762C3.7585 18.5668 5.35155 19.7281 7.15353 20.4566C8.26928 20.8842 9.42678 21.1946 10.6072 21.3829H10.7401C11.0782 21.3829 11.1627 21.5272 11.1869 21.5633C11.2111 21.6499 11.2111 21.7414 11.1869 21.828C11.1869 21.9002 11.1869 21.9603 11.1869 22.0205C11.0124 22.5514 10.9588 23.1144 11.0299 23.6686C11.0627 23.9642 11.2043 24.2372 11.4273 24.4349C11.6503 24.6326 11.9389 24.741 12.2375 24.7392C12.9372 24.6537 13.605 24.3975 14.1817 23.9934H14.242C15.4496 23.2956 16.5848 22.4896 17.4421 21.8761C19.5113 20.5256 21.3915 18.9075 23.0332 17.0641C24.6169 15.0731 25.3462 12.5391 25.062 10.0146ZM8.04714 13.78H5.90972C5.83315 13.7816 5.75704 13.7678 5.68597 13.7393C5.6149 13.7109 5.55034 13.6684 5.49618 13.6145C5.44203 13.5605 5.39939 13.4962 5.37085 13.4254C5.3423 13.3546 5.32843 13.2788 5.33008 13.2025V8.72737C5.32843 8.65109 5.3423 8.57527 5.37085 8.50447C5.39939 8.43367 5.44203 8.36936 5.49618 8.31541C5.55034 8.26146 5.6149 8.21898 5.68597 8.19055C5.75704 8.16211 5.83315 8.14829 5.90972 8.14993C5.98685 8.14833 6.06352 8.16209 6.13525 8.19039C6.20697 8.21869 6.27231 8.26097 6.32742 8.31475C6.38253 8.36853 6.42631 8.43273 6.45619 8.50358C6.48607 8.57444 6.50145 8.65052 6.50144 8.72737V12.613H8.04714C8.20407 12.613 8.35458 12.6751 8.46555 12.7857C8.57652 12.8962 8.63886 13.0462 8.63886 13.2025C8.63887 13.2794 8.62349 13.3554 8.59361 13.4263C8.56373 13.4972 8.51995 13.5614 8.46484 13.6151C8.40973 13.6689 8.34439 13.7112 8.27267 13.7395C8.20094 13.7678 8.12427 13.7816 8.04714 13.78ZM10.2812 13.1905C10.2812 13.35 10.2176 13.503 10.1043 13.6158C9.99109 13.7286 9.83751 13.792 9.67738 13.792C9.51724 13.792 9.36367 13.7286 9.25043 13.6158C9.1372 13.503 9.07359 13.35 9.07359 13.1905V8.71534C9.07359 8.55582 9.1372 8.40282 9.25043 8.29002C9.36367 8.17722 9.51724 8.11384 9.67738 8.11384C9.83751 8.11384 9.99109 8.17722 10.1043 8.29002C10.2176 8.40282 10.2812 8.55582 10.2812 8.71534V13.1905ZM15.5704 13.1905C15.5687 13.3139 15.5282 13.4338 15.4546 13.5331C15.3809 13.6323 15.2778 13.7061 15.1598 13.7439H14.9787C14.8865 13.7449 14.7954 13.7235 14.7133 13.6816C14.6313 13.6397 14.5607 13.5785 14.5077 13.5033L12.4065 10.6401V13.1905C12.4034 13.3447 12.3396 13.4916 12.229 13.5995C12.1184 13.7075 11.9697 13.768 11.8148 13.7679C11.7357 13.7729 11.6564 13.7616 11.5818 13.7348C11.5073 13.708 11.439 13.6662 11.3813 13.6121C11.3236 13.558 11.2776 13.4926 11.2463 13.4201C11.2149 13.3476 11.1988 13.2694 11.1989 13.1905V8.84767C11.199 8.72406 11.2373 8.60346 11.3086 8.50229C11.3799 8.40112 11.4807 8.32429 11.5974 8.28226C11.7152 8.24622 11.8414 8.24772 11.9583 8.28653C12.0752 8.32535 12.177 8.39956 12.2495 8.4988L14.3628 11.386V8.71534C14.3628 8.55582 14.4264 8.40282 14.5396 8.29002C14.6529 8.17722 14.8065 8.11384 14.9666 8.11384C15.1267 8.11384 15.2803 8.17722 15.3935 8.29002C15.5068 8.40282 15.5704 8.55582 15.5704 8.71534V13.1905ZM19.8332 13.6717H16.935C16.8584 13.6733 16.7823 13.6595 16.7112 13.6311C16.6401 13.6026 16.5756 13.5602 16.5214 13.5062C16.4673 13.4523 16.4246 13.3879 16.3961 13.3171C16.3675 13.2463 16.3537 13.1705 16.3553 13.0942V8.6191C16.3553 8.46596 16.4164 8.31908 16.5251 8.21079C16.6338 8.1025 16.7812 8.04167 16.935 8.04167H19.7365C19.8967 8.04167 20.0503 8.10504 20.1635 8.21784C20.2767 8.33064 20.3403 8.48364 20.3403 8.64316C20.3403 8.80269 20.2767 8.95568 20.1635 9.06849C20.0503 9.18129 19.8967 9.24466 19.7365 9.24466H17.5146V10.3153H19.326C19.4797 10.3153 19.6271 10.3762 19.7358 10.4845C19.8445 10.5927 19.9056 10.7396 19.9056 10.8928C19.9056 11.047 19.845 11.1952 19.7366 11.3054C19.6282 11.4156 19.4808 11.4791 19.326 11.4822H17.5146V12.5529H19.8332C19.9933 12.5529 20.1469 12.6163 20.2601 12.7291C20.3733 12.8419 20.4369 12.9949 20.4369 13.1544C20.4369 13.3139 20.3733 13.4669 20.2601 13.5797C20.1469 13.6925 19.9933 13.7559 19.8332 13.7559V13.6717Z" fill="#333333"/>
</svg>
