<svg width="668" height="494" viewBox="0 0 668 494" fill="none" xmlns="http://www.w3.org/2000/svg">
<g clip-path="url(#clip0_34_4046)">
<path d="M603.822 485.146C674.752 431.213 706.342 281.661 591.172 208.326C514.925 159.785 467.504 187.476 381.728 155.364C277.013 116.173 261.406 -2.23776 134.033 56.0266C66.554 86.8839 19.7752 173.855 11.5461 272.7C3.48076 369.498 37.788 435.917 107.896 481.367C272.533 488.372 437.498 487.102 603.822 485.146Z" fill="#F8F8F8"/>
<path d="M312.429 59.7582C301.716 102.773 341.5 145.355 383.413 163.009C425.327 180.678 473.39 178.572 518.293 170.148C537.668 166.519 557.583 161.411 572.635 149.059C587.688 136.707 596.413 115.259 588.164 97.934C580.884 82.6547 563.163 74.8284 546.266 70.8107C529.371 66.7929 511.425 65.15 496.373 56.6964C482.101 48.6759 471.976 35.398 459.563 24.8832C436.627 5.48169 404.409 -4.13696 374.592 2.00163C344.757 8.14023 321.535 23.1955 312.429 59.7582Z" fill="#F8F8F8"/>
<path d="M559.084 269.529C543.509 269.529 530.881 256.902 530.881 241.327C530.881 225.768 543.509 213.142 559.084 213.142C574.643 213.142 587.269 225.768 587.269 241.327C587.269 256.902 574.643 269.529 559.084 269.529ZM633.343 257.606V225.065H621.003C619.522 219.374 617.263 214.01 614.369 209.069L623.093 200.33L600.081 177.317L591.342 186.042C586.4 183.148 581.037 180.89 575.346 179.406V167.068H542.804V179.406C537.115 180.89 531.75 183.148 526.809 186.042L518.07 177.317L495.057 200.33L503.783 209.069C500.888 214.01 498.644 219.374 497.147 225.065H484.809V257.606H497.147C498.644 263.296 500.888 268.661 503.783 273.602L495.057 282.341L518.07 305.354L526.809 296.628C531.75 299.523 537.115 301.768 542.804 303.264V315.603H575.346V303.264C581.037 301.768 586.4 299.523 591.342 296.628L600.081 305.354L623.093 282.341L614.369 273.602C617.263 268.661 619.522 263.296 621.003 257.606H633.343Z" fill="#A9CAED"/>
<path d="M500.448 359.183C492.723 362.146 484.059 358.286 481.095 350.563C478.135 342.847 481.995 334.182 489.719 331.218C497.435 328.26 506.099 332.119 509.06 339.835C512.023 347.558 508.164 356.224 500.448 359.183ZM535.006 339.142L528.815 323.004L522.695 325.352C520.878 322.811 518.737 320.581 516.362 318.681L519.026 312.688L503.235 305.653L500.561 311.642C497.559 311.148 494.469 311.048 491.365 311.396L489.019 305.276L472.879 311.467L475.227 317.586C472.688 319.404 470.457 321.544 468.557 323.921L462.563 321.256L455.53 337.046L461.519 339.721C461.023 342.722 460.931 345.809 461.271 348.916L455.152 351.264L461.343 367.402L467.462 365.054C469.287 367.591 471.422 369.824 473.796 371.724L471.132 377.718L486.923 384.753L489.597 378.763C492.597 379.258 495.686 379.35 498.791 379.01L501.139 385.129L517.277 378.938L514.931 372.819C517.467 370.994 519.701 368.861 521.601 366.485L527.595 369.149L534.628 353.359L528.639 350.684C529.135 347.683 529.233 344.593 528.887 341.49L535.006 339.142Z" stroke="#A9CAED" stroke-width="1.49358" stroke-miterlimit="10"/>
<path d="M458.78 296.076C453.561 298.079 447.707 295.469 445.704 290.251C443.704 285.037 446.312 279.184 451.532 277.181C456.744 275.181 462.599 277.789 464.599 283.003C466.602 288.221 463.993 294.076 458.78 296.076ZM482.131 282.534L477.947 271.63L473.813 273.217C472.584 271.501 471.138 269.994 469.532 268.709L471.333 264.658L460.663 259.906L458.856 263.954C456.829 263.619 454.741 263.552 452.644 263.786L451.058 259.652L440.154 263.834L441.74 267.97C440.024 269.197 438.517 270.645 437.232 272.249L433.182 270.449L428.429 281.119L432.477 282.925C432.142 284.953 432.079 287.04 432.309 289.138L428.175 290.724L432.357 301.629L436.493 300.043C437.725 301.757 439.168 303.266 440.772 304.549L438.972 308.599L449.642 313.352L451.448 309.306C453.476 309.64 455.563 309.703 457.661 309.473L459.247 313.607L470.152 309.424L468.566 305.29C470.28 304.056 471.789 302.615 473.073 301.009L477.123 302.81L481.875 292.14L477.829 290.333C478.164 288.306 478.231 286.218 477.996 284.12L482.131 282.534Z" stroke="#A9CAED" stroke-width="1.49358" stroke-miterlimit="10"/>
<path d="M478.334 91.613C478.334 107.965 470.691 122.54 458.801 131.959C450.047 138.907 438.975 143.029 426.916 143.029C414.888 143.029 403.818 138.907 395.031 131.959C383.127 122.54 375.5 107.965 375.5 91.613C375.5 63.2171 398.522 40.1952 426.916 40.1952C455.312 40.1952 478.334 63.2171 478.334 91.613Z" fill="#4497D8"/>
<path d="M478.334 91.613C478.334 107.965 470.691 122.54 458.801 131.959C450.047 138.907 438.975 143.029 426.916 143.029C414.888 143.029 403.818 138.907 395.031 131.959C383.127 122.54 375.5 107.965 375.5 91.613C375.5 63.2171 398.522 40.1952 426.916 40.1952C455.312 40.1952 478.334 63.2171 478.334 91.613Z" stroke="#4497D8" stroke-width="1.49358" stroke-miterlimit="10"/>
<path d="M426.916 57.8593C436.212 57.8593 443.747 65.3944 443.747 74.6889C443.747 83.9834 436.212 91.52 426.916 91.52C417.622 91.52 410.086 83.9834 410.086 74.6889C410.086 65.3944 417.622 57.8593 426.916 57.8593Z" fill="white"/>
<path d="M458.801 125.474C450.047 132.422 438.975 136.544 426.916 136.544C414.888 136.544 403.818 132.422 395.031 125.474C398.32 111.005 401.346 98.5145 404.496 95.3481C408.944 90.9018 420.755 88.3074 426.901 88.3074C433.046 88.3074 445.414 91.4574 447.699 93.7425C452.362 98.3906 456.377 111.222 458.801 125.474Z" fill="white"/>
<path d="M353.021 218.364V192.973C353.021 186.043 358.637 180.427 365.567 180.427H445.563C452.494 180.427 458.109 186.043 458.109 192.973V218.364C458.109 225.294 452.494 230.91 445.563 230.91H365.582C358.652 230.925 353.021 225.294 353.021 218.364Z" fill="#4497D8"/>
<path d="M386.806 217.034L348.093 254.747L410.838 223.038" fill="#4497D8"/>
<path d="M362.73 192.345V192.211C362.73 191.18 363.566 190.344 364.597 190.344H404.146C405.177 190.344 406.013 191.18 406.013 192.211V192.345C406.013 193.376 405.177 194.212 404.146 194.212H364.597C363.566 194.212 362.73 193.376 362.73 192.345Z" fill="white"/>
<path d="M407.791 192.345V192.211C407.791 191.18 408.627 190.344 409.658 190.344H444.174C445.205 190.344 446.041 191.18 446.041 192.211V192.345C446.041 193.376 445.205 194.212 444.174 194.212H409.658C408.627 194.212 407.791 193.376 407.791 192.345Z" fill="white"/>
<path d="M392.721 200.844V200.71C392.721 199.679 393.557 198.843 394.588 198.843H444.174C445.205 198.843 446.041 199.679 446.041 200.71V200.844C446.041 201.875 445.205 202.711 444.174 202.711H394.588C393.557 202.711 392.721 201.875 392.721 200.844Z" fill="white"/>
<path d="M362.73 200.844V200.71C362.73 199.679 363.566 198.843 364.597 198.843H386.746C387.777 198.843 388.613 199.679 388.613 200.71V200.844C388.613 201.875 387.777 202.711 386.746 202.711H364.597C363.566 202.711 362.73 201.875 362.73 200.844Z" fill="white"/>
<path d="M399.606 209.343V209.208C399.606 208.177 400.442 207.341 401.473 207.341H444.174C445.205 207.341 446.041 208.177 446.041 209.208V209.343C446.041 210.373 445.205 211.209 444.174 211.209H401.473C400.442 211.209 399.606 210.373 399.606 209.343Z" fill="white"/>
<path d="M362.73 209.343V209.208C362.73 208.177 363.566 207.341 364.597 207.341H394.095C395.125 207.341 395.962 208.177 395.962 209.208V209.343C395.962 210.373 395.125 211.209 394.095 211.209H364.597C363.566 211.209 362.73 210.373 362.73 209.343Z" fill="white"/>
<path d="M362.73 217.841V217.707C362.73 216.676 363.566 215.84 364.597 215.84H375.545C376.575 215.84 377.411 216.676 377.411 217.707V217.841C377.411 218.872 376.575 219.708 375.545 219.708H364.597C363.566 219.708 362.73 218.872 362.73 217.841Z" fill="white"/>
<path d="M381.28 217.841V217.707C381.28 216.676 382.116 215.84 383.147 215.84H444.174C445.205 215.84 446.041 216.676 446.041 217.707V217.841C446.041 218.872 445.205 219.708 444.174 219.708H383.147C382.116 219.708 381.28 218.872 381.28 217.841Z" fill="white"/>
<path d="M357.696 387.825C354.814 343.376 374.26 297.374 407.014 271.057C408.03 315.73 388.778 360.941 357.696 387.825Z" fill="#C424A3"/>
<path d="M401.667 283.021C387.867 308.74 375.933 335.654 366.016 363.42C353.962 397.13 344.478 432.946 323.837 461.204" stroke="#35257B" stroke-width="1.49358" stroke-miterlimit="10" stroke-linecap="round"/>
<path d="M347.361 415.785C363.939 378.7 396.843 350.68 433.122 342.749C417.678 382.493 382.938 412.813 347.361 415.785Z" fill="#C424A3"/>
<path d="M424.22 350.919C399.442 372.725 374.245 393.919 348.63 414.485" stroke="#35257B" stroke-width="1.49358" stroke-miterlimit="10" stroke-linecap="round"/>
<path d="M337.578 448.091C359.728 415.008 400.592 397.743 434.406 407.182C409.538 439.846 368.585 457.157 337.578 448.091Z" fill="#C424A3"/>
<path d="M426.296 409.571C397.261 427.733 365.941 441.146 333.65 449.211" stroke="#6E86C5" stroke-width="1.49358" stroke-miterlimit="10" stroke-linecap="round"/>
<path d="M349.541 404.538C356.621 367.288 346.002 325.767 322.358 298.3C312.665 334.908 321.91 377.803 349.541 404.538Z" fill="#C424A3"/>
<path d="M324.793 307.799C329.453 342.45 337.742 374.905 350.587 406.629" stroke="#35257B" stroke-width="1.49358" stroke-miterlimit="10" stroke-linecap="round"/>
<path d="M337.384 436.262C334.367 397.966 314.741 362.001 286.035 342.152C287.692 362.434 293.084 381.985 301.642 399.759C311.485 420.176 325.943 433.125 337.384 436.262Z" fill="#C424A3"/>
<path d="M290.291 349.903C301.583 381.836 317.833 411.439 338.101 437.068" stroke="#35257B" stroke-width="1.49358" stroke-miterlimit="10" stroke-linecap="round"/>
<path d="M559.075 427.076C574.743 386.317 610.783 353.249 650.527 343.182C633.112 383.389 597.565 415.8 559.075 427.076Z" fill="#C424A3"/>
<path d="M640.893 351.65C618.161 368.931 596.564 388.034 576.43 408.72C551.966 433.842 528.89 461.861 499.063 478.619" stroke="#35257B" stroke-width="1.49358" stroke-miterlimit="10" stroke-linecap="round"/>
<path d="M538.479 447.762C568.335 421.49 608.901 409.959 644.209 417.696C614.278 446.806 571.143 459.636 538.479 447.762Z" fill="#C424A3"/>
<path d="M632.992 421.356C602.15 430.676 571.188 439.264 540.122 447.135" stroke="#35257B" stroke-width="1.49358" stroke-miterlimit="10" stroke-linecap="round"/>
<path d="M516.583 472.555C549.725 452.124 592.919 453.423 618.938 475.632C583.57 494.571 540.271 493.272 516.583 472.555Z" fill="#C424A3"/>
<path d="M610.798 474.437C577.7 478.769 544.498 477.932 512.67 471.943" stroke="#35257B" stroke-width="1.49358" stroke-miterlimit="10" stroke-linecap="round"/>
<path d="M545.021 438.637C566.543 408.347 574.175 367.02 564.542 332.907C540.958 361.553 531.548 403.538 545.021 438.637Z" fill="#C424A3"/>
<path d="M562.794 342.346C552.698 375.115 546.738 407.406 545.095 440.922" stroke="#35257B" stroke-width="1.49358" stroke-miterlimit="10" stroke-linecap="round"/>
<path d="M521.273 461.936C534.297 426.598 531.698 386.54 514.462 357.146C507.621 375.891 504.365 395.501 504.649 414.828C504.963 437.023 512.431 454.468 521.273 461.936Z" fill="#A9CAED"/>
<path d="M515.03 365.779C511.923 398.832 514.148 431.84 521.556 462.937" stroke="#35257B" stroke-width="1.49358" stroke-miterlimit="10" stroke-linecap="round"/>
<path d="M115.031 355.812C99.0584 306.958 54.4858 267.484 2.63364 256.281C24.4328 298.546 63.9734 332.183 115.031 355.812Z" fill="#C424A3"/>
<path d="M117.736 363.39C82.7493 343.605 38.9129 339.244 0.910782 351.749C36.1574 369.356 77.9215 374.261 117.736 363.39Z" fill="#C424A3"/>
<path d="M127.412 373.984C89.5992 368.744 50.002 378.064 19.2934 399.43C54.1146 412.088 95.8921 403.879 127.412 373.984Z" fill="#C424A3"/>
<path d="M139.203 397.126C101.757 396.969 64.9402 414.767 42.9304 443.662C59.5954 447.001 77.2919 445.006 92.5806 438.082C107.87 431.157 120.679 419.343 139.203 397.126Z" fill="#C424A3"/>
<path d="M165.602 435.848C128.679 429.518 89.3385 440.96 62.7145 465.774C78.6052 471.81 96.3986 472.775 112.657 468.488C128.916 464.2 143.555 454.679 165.602 435.848Z" fill="#C424A3"/>
<path d="M125.74 358.127C101.358 325.264 94.7405 280.979 108.593 243.305C119.171 261.218 128.297 280.156 132.558 300.287C136.817 320.417 135.99 341.88 125.74 358.127Z" fill="#C424A3"/>
<path d="M140.635 389.832C134.861 354.918 146.799 317.912 172.015 292.626C174.917 328.748 163.865 365.546 140.635 389.832Z" fill="#A9CAED"/>
<path d="M13.9842 265.037C88.1916 312.516 146.225 383.286 176.86 463.691" stroke="#35257B" stroke-width="1.49358" stroke-miterlimit="10" stroke-linecap="round"/>
<path d="M110.898 260.629C119.924 297.28 125.416 334.698 127.274 372.228" stroke="#35257B" stroke-width="1.49358" stroke-miterlimit="10" stroke-linecap="round"/>
<path d="M166.471 306.803C163.515 336.372 154.376 365.273 139.778 391.305" stroke="#6E86C5" stroke-width="1.49358" stroke-miterlimit="10" stroke-linecap="round"/>
<path d="M16.5315 352.602C50.5523 359.072 85.1308 362.579 119.716 363.093" stroke="#35257B" stroke-width="1.49358" stroke-miterlimit="10" stroke-linecap="round"/>
<path d="M37.0319 396.525C68.4017 394.248 99.2633 386.647 127.79 374.165" stroke="#35257B" stroke-width="1.49358" stroke-miterlimit="10" stroke-linecap="round"/>
<path d="M55.8258 438.388C84.7714 423.949 113.719 409.494 142.666 395.055" stroke="#35257B" stroke-width="1.49358" stroke-miterlimit="10" stroke-linecap="round"/>
<path d="M74.6519 463.886C112.444 456.594 123.673 447.893 165.618 435.851" stroke="#35257B" stroke-width="1.49358" stroke-miterlimit="10" stroke-linecap="round"/>
<path d="M313.905 394.666C313.905 394.666 317.176 424.642 320.835 427.046C327.377 431.363 403.101 441.34 403.101 441.34L400.622 461.04C400.622 461.04 296.908 470.36 292.502 465.177C284.855 456.186 271.412 412.813 271.412 412.813L313.905 394.666Z" fill="#E1534D"/>
<path d="M263.9 317.492L272.279 297.373C272.279 297.373 295.011 308.052 302.509 321.241C310.529 335.34 320.342 410.303 320.342 410.303C320.342 410.303 280.21 419.548 272.831 415.62C265.453 411.692 263.9 317.492 263.9 317.492Z" fill="#35257B"/>
<path d="M200.079 224.114C194.21 221.963 187.996 220.081 181.708 220.559C175.42 221.037 168.998 224.368 166.862 229.894C165.339 233.807 166.041 238.422 163.636 241.947C161.336 245.323 156.766 246.727 152.494 247.01C148.207 247.309 143.891 246.742 139.634 247.294C126.491 249.042 117.111 263.32 121.428 275.015C123.145 279.675 126.67 284.126 125.864 288.98C125.012 294.178 119.561 297.598 117.32 302.422C114.348 308.844 117.903 316.626 123.773 321.002C129.642 325.363 137.274 327.021 144.683 328.127C154.884 329.65 165.413 330.367 175.495 328.216C185.577 326.065 195.21 320.748 200.423 312.444C202.738 308.77 204.142 304.618 206.83 301.167C212.386 294.043 222.229 291.28 229.981 286.232C238.449 280.691 244.663 269.907 239.674 261.468C234.865 253.358 222.349 251.551 217.33 243.56C215.254 240.259 214.761 236.331 213.417 232.732C212.043 229.117 208.757 227.295 200.079 224.114Z" fill="#16233A"/>
<path d="M234.282 323.601C235.761 325.304 237.508 327.171 239.928 327.335C242.482 327.515 244.618 325.707 246.261 323.96C254.744 314.983 260.345 303.961 262.615 292.595C260.509 291.4 258.478 290.25 256.641 289.175C254.938 288.159 253.654 286.74 252.922 285.082C252.414 283.857 252.235 282.573 252.369 281.229C253.564 269.997 254.625 263.739 258.568 252.343C239.838 248.116 222.169 243.098 212.013 234.614C210.773 239.842 209.31 250.073 206.188 260.214C202.857 270.953 197.66 281.572 188.848 286.143C206.143 296.359 221.572 309.054 234.282 323.601Z" fill="#F7906C"/>
<path d="M252.369 281.243C252.235 282.588 252.414 283.887 252.922 285.097C241.84 298.539 217.061 280.975 206.188 260.229C209.31 250.087 210.773 239.856 212.013 234.629C222.154 243.112 239.838 248.146 258.568 252.358C254.625 263.754 253.564 269.997 252.369 281.243Z" fill="#E1534D"/>
<path d="M283.227 443.744C280.777 459.964 298.282 477.424 298.715 486.087C261.54 486.087 183.665 488.357 144.011 482.966C142.203 472.959 161.784 450.45 161.784 428.226C161.784 425.284 161.665 422.058 161.426 418.592C160.798 408.675 159.335 396.876 157.707 384.778C153.286 352.323 147.401 317.612 151.747 310.413C160.261 296.388 180.17 286.859 190.043 282.767C193.433 281.363 195.643 280.601 195.808 280.511C208.189 301.631 233.386 319.643 242.9 318.837C245.544 318.627 253.385 315.894 258.568 289.801C260.584 290.952 262.6 292.012 264.602 293.043C274.444 298.165 283.675 302.392 286.333 308.979C293.353 326.319 300.238 370.036 298.715 385.586C297.177 401.268 290.874 413.245 286.453 428.988C285.422 432.677 284.481 436.59 283.72 440.803C283.525 441.743 283.376 442.729 283.227 443.744Z" fill="#5038BC"/>
<path d="M298.715 486.087C261.54 486.087 183.665 488.357 144.011 482.966C142.203 472.959 161.784 450.45 161.784 428.226C161.784 425.284 161.665 422.058 161.426 418.592C160.798 408.675 159.335 396.876 157.707 384.778C164.741 392.201 175.002 360.836 179.543 370.021C204.112 419.608 223.484 432.647 257.149 432.647C267.186 432.647 276.446 431.258 286.453 428.988C285.422 432.677 284.481 436.59 283.72 440.802C283.54 441.758 283.376 442.744 283.227 443.759C280.777 459.95 298.282 477.409 298.715 486.087Z" fill="#35257B"/>
<path d="M264.602 293.042C263.004 304.647 258.269 320.285 244.498 324.407C225.888 329.978 198.959 295.208 190.042 282.766C193.433 281.362 195.643 280.601 195.808 280.511C208.189 301.63 233.386 319.643 242.9 318.836C245.544 318.627 253.385 315.894 258.568 289.801C260.584 290.936 262.6 291.997 264.602 293.042Z" fill="#35257B"/>
<path d="M272.249 468.628L272.114 481.577L503.619 482.951L504.097 468.269L272.249 468.628Z" fill="#333333"/>
<path d="M603.957 353.099L598.804 347.872L430.18 346.767L345.583 469.105L350.004 472.66L603.957 353.099Z" fill="#333333"/>
<path d="M433.436 351.292L350.004 472.66L509.369 473.451L603.957 353.099L433.436 351.292Z" fill="#35257B"/>
<path d="M473.702 410.213C483.948 410.213 492.252 414.367 492.252 419.489C492.252 424.612 483.948 428.764 473.702 428.764C463.458 428.764 455.152 424.612 455.152 419.489C455.152 414.367 463.458 410.213 473.702 410.213Z" fill="#333333"/>
<path d="M275.672 231.483C278.301 217.38 287.972 207.352 297.272 209.086C306.574 210.819 311.984 223.656 309.357 237.759C306.728 251.861 297.057 261.889 287.757 260.155C278.455 258.422 273.045 245.585 275.672 231.483Z" fill="#FFD668"/>
<path d="M309.379 193.496C307.647 205.773 302.165 219.305 294.175 234.255C291.367 222.008 289.574 207.087 287.095 192.166C284.571 177.216 281.36 162.265 275.789 150.048C274.534 147.344 273.175 144.76 271.696 142.371C274.997 142.057 278.343 142.371 281.524 143.252C286.498 144.581 291.158 147.15 294.966 150.585C301.299 156.216 305.541 163.893 308.065 171.988C310.141 178.709 310.514 185.849 309.379 193.496Z" fill="#1A2C4C"/>
<path d="M300 206.191C299.91 208.611 299.746 211.075 299.522 213.525C296.116 253.254 279.433 280.512 253.908 280.512C217.868 280.512 194.508 240.096 194.508 200.501C194.508 161.444 218.435 133.171 246.44 136.441C262.585 138.293 274.385 143.655 282.764 151.512C288.305 156.739 292.308 163.057 295.041 170.241C298.162 178.291 299.671 187.402 299.985 197.215C299.985 197.245 300.014 197.275 300.014 197.305C300.134 200.202 300.104 203.159 300 206.191Z" fill="#F7906C"/>
<path d="M300 206.191C298.924 202.353 297.326 198.604 295.145 195.243C273.892 206.355 248.561 210.642 224.544 206.579C219.974 210.388 215.508 214.137 211.012 217.886C211.102 199.813 211.356 187.581 218.405 178.829C225.022 170.614 236.06 167.522 246.515 166.178C258.284 164.64 270.247 164.7 281.987 166.402C286.483 167.03 291.143 168 295.056 170.271C298.177 178.321 299.686 187.432 300 197.245C300 197.274 300.029 197.304 300.029 197.334C300.134 200.202 300.104 203.159 300 206.191Z" fill="#E1534D"/>
<path d="M305.197 181.727C300.253 185.909 294.055 189.374 287.095 192.182C267.29 200.172 241.556 202.816 221.497 201.845C211.64 223.502 207.652 231.268 205.128 250.162C195.494 241.126 187.653 224.577 185.323 211.568C183.023 198.604 183.247 184.997 186.861 172.257C192.552 152.169 206.905 141.415 216.852 136.187C219.332 134.828 221.572 133.887 223.304 133.2C236.015 128.286 250.338 128.734 263.377 132.722C270.486 134.933 276.476 138.667 281.509 143.267C291.68 152.452 297.968 164.894 302.031 174.214C303.315 177.067 304.346 179.65 305.197 181.727Z" fill="#1A2C4C"/>
<path d="M309.379 193.496C308.558 189.15 307.333 184.938 305.6 180.875C304.63 178.575 303.435 176.35 302.046 174.199C297.52 167.09 290.933 161.235 282.973 158.651C280.703 155.47 278.313 152.602 275.804 150.063C266.767 140.877 256.163 135.62 244.931 133.783C235.582 132.274 225.858 133.126 216.882 136.173C219.361 134.814 221.602 133.873 223.334 133.186C236.045 128.272 250.368 128.72 263.407 132.708C270.516 134.918 276.506 138.652 281.539 143.252C286.512 144.582 291.172 147.15 294.981 150.586C301.314 156.216 305.556 163.893 308.08 171.989C310.141 178.71 310.514 185.849 309.379 193.496Z" fill="#2A5070"/>
<path d="M232.983 217.856C239.644 214.047 246.559 212.33 256.253 215.869" stroke="#1A2C4C" stroke-width="2.98715" stroke-miterlimit="10" stroke-linecap="round"/>
<path d="M278.597 217.587C284.302 213.33 292.756 212.897 297.162 217.587" stroke="#1A2C4C" stroke-width="2.98715" stroke-miterlimit="10" stroke-linecap="round"/>
<path d="M271.711 239.304C272.294 242.321 271.98 248.997 270.546 251.999" stroke="#CD3249" stroke-width="2.98715" stroke-miterlimit="10" stroke-linecap="round"/>
<path d="M249.203 232.672C250.72 232.672 251.951 234.612 251.951 237.004C251.951 239.396 250.72 241.335 249.203 241.335C247.686 241.335 246.455 239.396 246.455 237.004C246.455 234.612 247.686 232.672 249.203 232.672Z" fill="#25293B"/>
<path d="M285.124 230.656C286.641 230.656 287.872 232.596 287.872 234.987C287.872 237.38 286.641 239.318 285.124 239.318C283.606 239.318 282.375 237.38 282.375 234.987C282.375 232.596 283.606 230.656 285.124 230.656Z" fill="#25293B"/>
<path d="M268.306 257.899C268.306 257.899 267.768 258.944 266.738 260.363C265.124 262.529 262.376 265.516 258.627 266.681H258.613C257.029 267.189 255.312 267.368 253.4 267.024C247.784 266.024 246.305 260.841 246.037 256.853C245.977 256.076 245.977 255.359 245.992 254.702C246.022 253.089 246.201 252.014 246.201 252.014C255.147 256.943 268.306 257.899 268.306 257.899Z" fill="#CD3249"/>
<path d="M268.306 257.899C268.306 257.899 267.768 258.944 266.738 260.363C262.167 260.304 252.817 257.959 245.992 254.703C246.022 253.09 246.201 252.014 246.201 252.014C255.147 256.943 268.306 257.899 268.306 257.899Z" fill="white"/>
<path d="M258.613 266.666C257.029 267.174 255.312 267.353 253.4 267.01C247.784 266.009 246.306 260.826 246.037 256.838C248.755 257.167 251.384 258.212 253.564 259.87C255.849 261.618 257.597 263.993 258.613 266.666Z" fill="#EA509C"/>
<path d="M199.408 209.543C199.398 209.625 199.39 209.688 199.385 209.731L205.142 210.909C205.141 210.876 205.141 210.836 205.141 210.787C205.141 210.646 205.141 210.436 205.144 210.163C205.151 209.617 205.169 208.816 205.215 207.798C205.307 205.761 205.51 202.852 205.955 199.365C206.846 192.392 208.707 183.102 212.586 173.841C222.322 150.586 242.171 140.639 261.418 139.966C273.018 139.555 282.449 143.242 288.979 147.031C292.244 148.926 294.784 150.847 296.508 152.294C297.371 153.017 298.029 153.622 298.472 154.047C298.553 154.125 298.627 154.197 298.694 154.262C298.687 154.251 298.679 154.24 298.672 154.228C298.438 153.858 298.086 153.324 297.617 152.672C296.679 151.367 295.274 149.587 293.404 147.688C289.665 143.889 284.072 139.616 276.651 137.708C266.895 135.202 252.17 134.8 240.359 139.602L240.331 139.533L240.359 139.602C234.276 142.07 227.44 146.731 221.437 152.588C215.435 158.445 210.271 165.493 207.527 172.732C204.789 179.976 202.751 189.242 201.398 196.7C200.722 200.428 200.216 203.703 199.88 206.046C199.712 207.218 199.586 208.156 199.502 208.802C199.46 209.124 199.429 209.374 199.408 209.543Z" fill="#5038BC" stroke="#5038BC" stroke-width="0.149358"/>
<path d="M199.174 205.067C209.093 204.035 218.4 215.383 219.963 230.414C221.526 245.444 214.751 258.463 204.832 259.496C194.913 260.526 185.605 249.178 184.043 234.148C182.481 219.118 189.254 206.097 199.174 205.067Z" fill="#FFD668"/>
<path d="M208.722 232.534L208.796 232.523L208.722 232.534C207.877 226.912 205.818 222.02 203.174 218.656C200.53 215.291 197.312 213.466 194.147 213.942C190.984 214.417 188.445 217.106 186.906 221.101C185.368 225.093 184.837 230.374 185.682 235.996L185.608 236.007L185.682 235.996C186.526 241.619 188.586 246.51 191.229 249.875C193.874 253.241 197.092 255.065 200.256 254.59C203.42 254.114 205.959 251.424 207.498 247.43C209.036 243.437 209.567 238.156 208.722 232.534Z" fill="#5038BC" stroke="#5038BC" stroke-width="0.149358"/>
<path d="M271.114 275.074C271.114 273.456 270.06 271.979 268.332 270.903C266.605 269.827 264.214 269.16 261.57 269.16C258.926 269.16 256.535 269.827 254.808 270.903C253.08 271.979 252.026 273.456 252.026 275.074C252.026 276.693 253.08 278.17 254.808 279.246C256.535 280.321 258.926 280.989 261.57 280.989C264.214 280.989 266.605 280.321 268.332 279.246C270.06 278.17 271.114 276.693 271.114 275.074Z" fill="#4D92CF" stroke="#5038BC" stroke-width="0.149358"/>
<path d="M213.253 255.045C213.253 255.045 227.382 273.207 251.951 275.074" stroke="#5038BC" stroke-width="2.98715" stroke-miterlimit="10" stroke-linecap="round"/>
<path d="M272.114 434.05L271.188 457.933C271.188 457.933 184.815 483.816 170.551 475.632C163.591 471.629 157.094 449.614 152.24 428.121C147.162 405.538 143.906 383.553 143.906 383.553L194.538 373.635C194.538 373.635 194.568 404.508 196.286 422.356C196.898 429.002 197.779 433.841 198.959 434.633C203.425 437.575 272.114 434.05 272.114 434.05Z" fill="#F7906C"/>
<path d="M196.286 422.326C187.085 425.313 169.327 429.928 152.24 428.106C147.162 405.523 143.906 383.538 143.906 383.538L194.538 373.62C194.538 373.606 194.568 404.478 196.286 422.326Z" fill="#E1534D"/>
<path d="M269.65 434.29C282.495 431.542 304.241 424.94 313.262 422.67C319.67 421.057 336.353 429.69 340.759 437.83C342.686 441.384 344.508 461.518 337.832 459.442C334.486 458.396 335.039 449.763 333.993 446.238C333.142 443.371 330.424 440.593 326.286 438.203C329.05 445.088 328.945 451.093 328.646 458.531C328.586 460.174 328.482 461.891 327.69 463.31C326.884 464.729 325.151 465.745 323.658 465.117C322.134 464.49 321.612 462.593 321.268 460.935C320.088 455.2 318.893 449.465 318.415 442.983C318.535 449.36 318.4 455.753 317.997 462.115C317.698 466.984 315.279 469.658 312.307 468.806C310.977 468.433 310.44 467.208 309.872 465.595C308.976 468.717 306.736 472.167 303.838 470.853C302.076 470.061 300.985 463.698 301.299 457.157C295.743 460.607 289.47 462.07 282.241 462.399C275.759 462.698 269.127 461.488 265.229 457.082C265.617 450.196 267.888 440.01 269.65 434.29Z" fill="#F7906C"/>
<path d="M310.006 464.609C310.44 459.442 309.992 454.199 308.677 449.211" stroke="#CD3249" stroke-width="1.49358" stroke-miterlimit="10" stroke-linecap="round"/>
<path d="M188.848 323.542C185.173 313.191 171.716 292.012 171.716 292.012C171.716 292.012 151.18 300.555 143.891 315.058C131.554 339.612 137.827 410.109 137.827 410.109C154.451 417.069 187.817 417.174 202.021 415.172C202.021 415.172 196.211 344.228 188.848 323.542Z" fill="#5038BC"/>
<path d="M191.461 327.873C197.062 354.683 200.064 379.685 201.02 404.18" stroke="#35257B" stroke-width="1.49358" stroke-miterlimit="10" stroke-linecap="round"/>
<path d="M42.134 478.694H631.021V493.465H42.134V478.694Z" fill="#333333"/>
</g>
<defs>
<clipPath id="clip0_34_4046">
<rect width="667.628" height="494" fill="white"/>
</clipPath>
</defs>
</svg>
