<svg width="1366" height="667" viewBox="0 0 1366 667" fill="none" xmlns="http://www.w3.org/2000/svg">
<g clip-path="url(#clip0_402_2266)">
<g clip-path="url(#clip1_402_2266)">
<circle cx="134" cy="134" r="134" transform="matrix(0 -1 -1 0 130 134)" fill="#C424A3"/>
</g>
<rect width="134" height="134" transform="matrix(-1 0 0 -1 130 268)" fill="#FFD668"/>
<rect x="130" y="201" width="134" height="67" transform="rotate(-180 130 201)" fill="#C424A3"/>
<g clip-path="url(#clip2_402_2266)">
<path d="M-4.00001 268L130 402L130 268L-4.00001 268Z" fill="#5038BC"/>
<circle cx="63" cy="335" r="45" fill="#FFD668"/>
</g>
<g clip-path="url(#clip3_402_2266)">
<rect x="130" y="469" width="134" height="67" transform="rotate(-180 130 469)" fill="#C424A3"/>
<path d="M130 469L-4 335L-4.00001 469L130 469Z" fill="#5038BC"/>
</g>
<g clip-path="url(#clip4_402_2266)">
<circle cx="63" cy="536" r="49" stroke="#FFD668" stroke-width="36"/>
</g>
<g clip-path="url(#clip5_402_2266)">
<rect x="63" y="268" width="134" height="67" transform="rotate(-90 63 268)" fill="#64E6FB"/>
<circle cx="63" cy="201" r="45" fill="#5038BC"/>
</g>
<g clip-path="url(#clip6_402_2266)">
<circle cx="-4.08039" cy="725.906" r="134" transform="rotate(89.1792 -4.08039 725.906)" fill="#5038BC"/>
</g>
</g>
<g clip-path="url(#clip7_402_2266)">
<path d="M1348.4 516.025C1338.53 493.577 1319.58 474.843 1296.81 465.626C1273.1 456.024 1245.87 459.516 1220.89 456.302C1199.19 453.505 1183.54 443.821 1170.59 426.602C1158.18 410.104 1147.05 391.833 1126.76 384.201C1110.72 378.173 1092.49 379.844 1076.56 386.129C1047.19 397.705 1025.01 422.323 1006.33 446.851C989.275 469.246 975.364 493.765 943.818 494.564C929.542 494.928 915.576 491.444 901.619 487.959C884.716 483.737 867.827 479.515 850.418 482.132C808.412 488.438 773.429 523.408 766.099 565.035C759.229 604.051 776.469 641.895 806.086 664.129H1315.16C1352.48 624.537 1372.06 569.847 1348.4 516.025Z" fill="#C424A3"/>
<path d="M888.206 664.129H889.606C899.332 653.438 906.95 640.466 911.793 626.068C919.632 602.765 919.301 578.307 910.863 557.202C906.598 546.539 900.44 536.597 894.484 526.982C888.444 517.237 882.199 507.155 877.96 496.349C876.208 491.886 874.913 487.087 874.134 482.193C873.783 482.148 873.432 482.111 873.081 482.071C873.864 487.136 875.195 492.103 877.008 496.726C881.28 507.614 887.55 517.736 893.614 527.523C899.546 537.101 905.681 547.002 909.912 557.583C918.26 578.462 918.584 602.671 910.823 625.745C905.92 640.318 898.142 653.413 888.206 664.129Z" fill="white"/>
<path d="M1312.7 619.73C1323.19 621.965 1333.29 623.972 1343.07 625.233C1343.24 624.909 1343.4 624.582 1343.57 624.258C1333.71 623.005 1323.51 620.987 1312.91 618.73C1296.78 615.291 1279.32 611.573 1262 611.573C1251.28 611.573 1240.61 612.998 1230.35 616.802C1226.46 618.243 1222.71 620.069 1219.14 622.248C1209.88 618.296 1200.56 613.984 1191.34 609.255C1198.03 604.21 1204.8 599.268 1211.64 594.493C1262.4 559.045 1309.25 538.947 1354.52 533.243C1354.43 532.912 1354.33 532.58 1354.24 532.248C1308.85 537.997 1261.9 558.148 1211.05 593.654C1204.07 598.531 1197.16 603.58 1190.32 608.731C1179.94 603.371 1169.7 597.478 1159.77 590.976C1141.77 579.183 1120.36 562.349 1101.66 539.983C1174.12 531.851 1247.89 521.61 1308.13 481.35C1310.42 479.818 1312.95 478.017 1315.58 475.973C1315.29 475.765 1315 475.564 1314.7 475.359C1312.19 477.308 1309.76 479.028 1307.56 480.498C1247.34 520.75 1173.43 530.913 1100.88 539.042C1087.67 523.06 1075.86 504.285 1067.66 482.554C1054.88 448.702 1055.55 415.485 1069.51 391.416C1070.12 390.372 1070.76 389.34 1071.42 388.32C1070.83 388.59 1070.26 388.869 1069.68 389.143C1069.32 389.725 1068.97 390.31 1068.62 390.9C1054.51 415.239 1053.81 448.776 1066.7 482.918C1074.86 504.531 1086.56 523.227 1099.67 539.173C1095.46 539.643 1091.26 540.11 1087.08 540.569C1071.97 542.235 1056.35 543.963 1041.18 545.917C1035.64 546.629 1030.01 547.46 1024.41 548.5C1012.39 523.15 999.201 498.421 982.146 477.21C981.902 477.456 981.654 477.689 981.407 477.931C998.316 498.978 1011.43 523.526 1023.37 548.697C998.928 553.357 975.198 562.12 962.528 582.512C950.694 601.557 950.705 627.882 962.559 660.755C962.969 661.894 963.392 663.016 963.82 664.129H964.916C964.447 662.909 963.98 661.681 963.522 660.407C951.779 627.845 951.738 601.819 963.397 583.052C975.917 562.902 999.517 554.258 1023.82 549.651C1028.06 558.623 1032.15 567.664 1036.23 576.652L1036.67 577.631C1050.81 608.841 1065.43 638.959 1084.58 664.129H1085.85C1066.53 638.914 1051.83 608.612 1037.6 577.209L1037.16 576.23C1033.12 567.32 1029.06 558.353 1024.86 549.459C1030.35 548.443 1035.88 547.628 1041.31 546.932C1056.47 544.979 1072.08 543.255 1087.19 541.588C1091.6 541.101 1096.02 540.614 1100.44 540.118C1119.32 562.836 1141 579.903 1159.21 591.832C1169.02 598.265 1179.16 604.1 1189.42 609.419C1172 622.588 1155.06 636.444 1138.53 649.978C1132.8 654.662 1127.01 659.396 1121.17 664.129H1122.79C1128.3 659.658 1133.77 655.19 1139.18 650.768C1155.83 637.145 1172.89 623.186 1190.43 609.939C1199.6 614.66 1208.87 618.964 1218.08 622.907C1205.48 630.925 1195.2 643.344 1188.99 658.421C1188.21 660.309 1187.53 662.213 1186.9 664.129H1187.98C1188.57 662.344 1189.21 660.571 1189.93 658.81C1196.16 643.692 1206.52 631.285 1219.23 623.394C1244.99 634.34 1270.31 642.464 1292.07 648.901L1292.89 649.142C1302.06 651.857 1311.44 654.634 1319.73 659.097C1319.96 658.831 1320.2 658.569 1320.42 658.303C1312 653.729 1302.48 650.911 1293.18 648.164L1292.36 647.922C1270.82 641.547 1245.8 633.521 1220.31 622.739C1223.63 620.765 1227.1 619.095 1230.7 617.76C1257.26 607.92 1286.72 614.193 1312.7 619.73Z" fill="white"/>
<path d="M808.652 553.422C813.174 571.927 811.156 591.914 803.117 608.26C797.851 618.964 790.247 628.652 780.881 636.977C781.067 637.268 781.258 637.554 781.447 637.841C790.965 629.41 798.691 619.578 804.036 608.71C812.179 592.155 814.224 571.915 809.646 553.177C806.069 538.538 798.879 526.139 788.944 517.167C788.723 517.425 788.503 517.687 788.284 517.949C798.053 526.786 805.128 538.996 808.652 553.422Z" fill="white"/>
<path d="M1342.3 225.892C1337.52 209.992 1329.11 195.394 1317.07 182.049C1305 168.704 1288.55 157.685 1267.71 148.971C1246.87 140.257 1220.38 135.9 1188.26 135.9C1162.64 135.9 1136.53 139.356 1109.92 146.268C1083.29 153.205 1060.2 163.069 1040.6 175.89L1066.11 245.899L1052.44 256.971L1072.26 262.798C1091.82 252.557 1109.65 245.121 1125.74 240.49C1141.8 235.883 1158.86 233.578 1176.96 233.578C1195.03 233.578 1208.71 237.935 1218.01 246.648C1227.3 255.387 1231.93 265.877 1231.93 278.199C1231.93 293.071 1227.15 306.264 1217.64 317.808C1208.08 329.351 1197.53 341.017 1185.98 352.814C1177.96 361 1170.17 369.464 1162.64 378.177C1155.11 386.916 1148.44 396.256 1142.68 406.272C1136.89 416.259 1132.26 427.028 1128.75 438.572C1125.22 450.115 1123.48 463.058 1123.48 477.407C1123.48 482.038 1123.58 487.545 1123.85 493.958C1123.9 495.137 1123.96 496.292 1124.03 497.43H1105.29L1125.74 511.258H1225.16C1224.65 508.179 1224.41 504.596 1224.41 500.493C1224.41 496.386 1224.41 493.307 1224.41 491.251C1224.41 482.537 1226.17 473.951 1229.68 465.487C1233.19 457.023 1237.6 448.96 1242.87 441.25C1248.14 433.564 1254.02 426.25 1260.57 419.342C1267.09 412.406 1273.37 405.87 1279.4 399.712C1287.42 391.522 1295.71 382.809 1304.24 373.571C1312.78 364.329 1320.33 354.616 1326.85 344.35C1333.37 334.085 1338.77 322.943 1343.03 310.871C1347.3 298.828 1349.46 285.635 1349.46 271.262C1349.46 256.914 1347.05 241.792 1342.3 225.892Z" fill="#F7B500"/>
<path d="M1155.91 228.693C1138.03 228.693 1121.16 230.924 1105.29 235.384C1089.39 239.863 1071.77 247.062 1052.44 256.971L1021.15 172.864C1040.51 160.457 1063.34 150.908 1089.66 144.196C1115.95 137.506 1141.76 134.164 1167.08 134.164C1198.83 134.164 1225 138.382 1245.59 146.813C1266.19 155.244 1282.45 165.907 1294.37 178.822C1306.27 191.741 1314.58 205.868 1319.31 221.252C1324.01 236.641 1326.38 251.28 1326.38 265.165C1326.38 279.071 1324.25 291.843 1320.04 303.501C1315.82 315.179 1310.49 325.96 1304.04 335.899C1297.6 345.833 1290.13 355.234 1281.7 364.177C1273.27 373.12 1265.08 381.551 1257.15 389.475C1251.19 395.437 1244.99 401.759 1238.54 408.475C1232.07 415.162 1226.26 422.237 1221.04 429.678C1215.84 437.138 1211.47 444.943 1208.01 453.133C1204.54 461.322 1202.8 469.635 1202.8 478.066C1202.8 480.056 1202.8 483.037 1202.8 487.009C1202.8 490.985 1203.04 494.449 1203.55 497.43H1105.29C1104.27 492.463 1103.66 486.89 1103.42 480.687C1103.15 474.483 1103.06 469.151 1103.06 464.668C1103.06 450.782 1104.78 438.256 1108.27 427.082C1111.73 415.911 1116.31 405.494 1122.03 395.822C1127.73 386.129 1134.32 377.092 1141.76 368.636C1149.2 360.201 1156.9 352.012 1164.83 344.088C1176.24 332.676 1186.66 321.382 1196.11 310.212C1205.51 299.041 1210.24 286.27 1210.24 271.876C1210.24 259.952 1205.66 249.801 1196.48 241.341C1187.29 232.91 1173.77 228.693 1155.91 228.693Z" fill="#FFD668"/>
<path d="M1231.97 607.769C1231.97 625.696 1226.17 639.528 1214.56 649.286C1202.95 659.064 1189.84 663.933 1175.19 663.933C1160.52 663.933 1147.41 659.064 1135.8 649.286C1124.21 639.528 1118.41 625.696 1118.41 607.769C1118.41 589.866 1124.21 576.034 1135.8 566.256C1153.67 551.179 1180.1 547.817 1201.02 558.398C1219.57 567.791 1231.97 586.857 1231.97 607.769Z" fill="#F7B500"/>
<path d="M1212.52 607.769C1212.52 625.696 1206.72 639.528 1195.11 649.286C1183.5 659.064 1170.39 663.933 1155.74 663.933C1141.07 663.933 1127.96 659.064 1116.35 649.286C1104.76 639.528 1098.96 625.696 1098.96 607.769C1098.96 589.866 1104.76 576.034 1116.35 566.256C1127.96 556.498 1141.07 551.609 1155.74 551.609C1170.39 551.609 1183.5 556.498 1195.11 566.256C1206.72 576.034 1212.52 589.866 1212.52 607.769Z" fill="#FFD668"/>
<path d="M916.478 345.62C919.818 350.501 918.569 357.163 913.688 360.504C908.808 363.842 902.144 362.593 898.805 357.712C895.465 352.831 896.714 346.168 901.594 342.827C906.475 339.49 913.138 340.739 916.478 345.62Z" fill="#F8F8F8"/>
<path d="M923.281 373.751C922.668 377.018 919.502 379.172 916.21 378.554C912.917 377.935 910.745 374.787 911.358 371.515C911.97 368.247 915.136 366.097 918.429 366.716C921.721 367.33 923.893 370.483 923.281 373.751Z" fill="#F8F8F8"/>
<path d="M922.657 305.519C918.368 328.405 896.337 343.478 873.451 339.191C850.565 334.9 835.49 312.87 839.78 289.984C844.069 267.098 866.099 252.021 888.985 256.312C911.871 260.604 926.947 282.634 922.657 305.519Z" fill="#F8F8F8"/>
<path d="M870.342 297.751C870.342 300.683 867.963 303.062 865.03 303.062C862.096 303.062 859.718 300.683 859.718 297.751C859.718 294.815 862.096 292.44 865.03 292.44C867.963 292.44 870.342 294.815 870.342 297.751Z" fill="#333333"/>
<path d="M886.53 297.751C886.53 300.683 884.152 303.062 881.218 303.062C878.285 303.062 875.906 300.683 875.906 297.751C875.906 294.815 878.285 292.44 881.218 292.44C884.152 292.44 886.53 294.815 886.53 297.751Z" fill="#333333"/>
<path d="M902.719 297.751C902.719 300.683 900.341 303.062 897.407 303.062C894.473 303.062 892.095 300.683 892.095 297.751C892.095 294.815 894.473 292.44 897.407 292.44C900.341 292.44 902.719 294.815 902.719 297.751Z" fill="#333333"/>
<path d="M851.016 642.828L854.955 658.016C855.983 661.975 859.812 664.653 864.048 664.363C876.964 663.486 903.801 660.321 919.203 648.97L914.825 627.084C893.647 625.884 873.842 627.063 856.693 632.837C852.399 634.282 849.916 638.586 851.016 642.828Z" fill="#333333"/>
<path d="M875.699 654.916C875.475 654.916 875.269 654.769 875.206 654.543L869.917 635.605C869.841 635.331 870 635.048 870.272 634.974C870.547 634.897 870.827 635.056 870.903 635.331L876.192 654.269C876.268 654.539 876.109 654.822 875.837 654.9C875.791 654.912 875.744 654.916 875.699 654.916Z" fill="white"/>
<path d="M887.13 652.357C886.906 652.357 886.7 652.21 886.637 651.984L881.348 633.046C881.272 632.772 881.431 632.489 881.704 632.415C881.978 632.337 882.258 632.497 882.334 632.772L887.623 651.71C887.699 651.98 887.54 652.263 887.268 652.341C887.222 652.353 887.175 652.357 887.13 652.357Z" fill="white"/>
<path d="M985.085 557.628L900.41 560.756L851.219 575.357L887.75 625.41L940.214 629.581L1012.57 598.988L985.085 557.628Z" fill="#FFD668" stroke="#FFD668" stroke-width="0.040948"/>
<path d="M1023.65 564.412C1009.47 559.689 988.145 559.714 961.151 567.695L991.287 579.385L991.332 579.402L991.288 579.422L902.241 620.572C905.006 630.282 911.957 641.898 917.907 648.597C960.064 644.249 990.595 635.018 1010.99 624.119C1031.39 613.219 1041.64 600.651 1043.25 589.632C1044.06 584.123 1042.71 579 1039.38 574.664C1036.05 570.327 1030.75 566.776 1023.65 564.412Z" fill="#FFD668" stroke="#FFD668" stroke-width="0.040948"/>
<path d="M965.679 636.158C960.624 634.541 955.78 631.342 955.78 631.342L938.408 636.793L942.389 655.69L960.436 659.355C965.933 649.302 966.254 641.043 965.679 636.158Z" fill="#F9B384"/>
<path d="M902.602 621.224L901.83 619.897C920.41 609.099 968.004 583.155 1008.55 575.506L1008.84 577.017C968.522 584.621 921.114 610.467 902.602 621.224Z" fill="#E49B31"/>
<path d="M869.149 581.82L900.354 560.747C875.226 555.978 854.754 558.436 840.812 565.077C826.861 571.721 819.449 582.551 820.443 594.518C821.438 606.486 830.841 619.6 850.54 630.81C870.237 642.018 900.224 651.321 942.381 655.669C948.33 648.973 952.993 641.059 955.756 631.351C929.853 614.022 900.892 597.548 869.152 581.855L869.12 581.839L869.149 581.82Z" fill="#FFD668" stroke="#FFD668" stroke-width="0.040948"/>
<path d="M955.368 631.99C950.581 628.943 945.594 625.725 940.315 622.314C913.81 605.202 883.769 585.809 858.247 574.749L858.858 573.34C884.496 584.449 914.593 603.879 941.147 621.024C946.425 624.435 951.41 627.653 956.192 630.696L955.368 631.99Z" fill="#E49B31"/>
<path d="M826.587 608.678L825.243 607.937C829.02 601.098 835.069 596.488 843.222 594.231L843.632 595.709C835.783 597.884 830.207 602.126 826.587 608.678Z" fill="#E49B31"/>
<path d="M1036.58 602.859C1032.96 596.307 1027.39 592.065 1019.54 589.887L1019.95 588.408C1028.1 590.669 1034.15 595.279 1037.93 602.118L1036.58 602.859Z" fill="#E49B31"/>
<path d="M932.967 654.843L931.845 653.795C939.894 645.175 944.837 636.072 946.957 625.974L948.46 626.29C946.28 636.67 941.213 646.01 932.967 654.843Z" fill="#E49B31"/>
<path d="M1015.86 630.532C1002.97 622.567 977.977 636.33 971.704 637.022C969.875 637.227 967.76 636.825 965.679 636.158C966.254 641.043 965.933 649.302 960.436 659.355L963.501 659.977C963.501 659.977 984.692 667.749 1007.17 663.224C1027.92 659.052 1025.99 636.792 1015.86 630.532Z" fill="#333333"/>
<path d="M998.287 656.583C998.236 656.583 998.184 656.575 998.133 656.558C997.863 656.472 997.714 656.186 997.799 655.916C999.33 651.067 999.999 641.526 995.563 635.118C995.402 634.885 995.46 634.569 995.692 634.406C995.924 634.246 996.243 634.303 996.405 634.537C1001.05 641.244 1000.37 651.182 998.775 656.223C998.706 656.44 998.504 656.583 998.287 656.583Z" fill="white"/>
<path d="M988.178 658.499C988.127 658.499 988.075 658.491 988.024 658.474C987.754 658.393 987.605 658.102 987.69 657.836C989.221 652.983 989.889 643.447 985.454 637.038C985.293 636.805 985.351 636.485 985.583 636.326C985.815 636.166 986.134 636.223 986.295 636.457C990.941 643.164 990.258 653.102 988.666 658.143C988.597 658.36 988.396 658.499 988.178 658.499Z" fill="white"/>
<path d="M882.606 436.065C882.606 436.065 907.946 414.519 907.007 410.424C906.337 407.496 899.159 411.787 899.159 411.787C899.159 411.787 909.225 399.847 908.713 398.393C907.799 395.805 900.837 400.633 900.837 400.633C900.837 400.633 905.542 393.86 903.293 392.759C901.043 391.653 896.138 395.83 896.138 395.83C896.138 395.83 899.004 392.067 897.657 391.08C896.311 390.093 890.503 394.151 890.503 394.151C890.503 394.151 892.587 389.409 888.159 391.207C883.731 393.005 852.685 421.496 852.685 421.496L882.606 436.065Z" fill="#F9B384"/>
<path d="M892.974 410.51C892.85 410.51 892.727 410.465 892.628 410.375C888.279 406.403 886.361 405.436 881.563 403.958C881.292 403.876 881.141 403.59 881.224 403.319C881.307 403.049 881.593 402.898 881.864 402.984C886.835 404.511 888.821 405.51 893.319 409.617C893.528 409.81 893.542 410.133 893.352 410.342C893.251 410.452 893.112 410.51 892.974 410.51Z" fill="#E28B6D"/>
<path d="M885.339 422.196L885.268 422.192C884.988 422.151 884.793 421.893 884.832 421.615C885.33 418.052 886.451 415.825 888.261 414.805C889.808 413.937 891.82 414.027 894.243 415.071C894.503 415.186 894.622 415.485 894.51 415.743C894.398 416.005 894.097 416.124 893.837 416.013C891.724 415.1 890.017 414.994 888.763 415.698C887.272 416.537 886.29 418.576 885.845 421.754C885.81 422.012 885.591 422.196 885.339 422.196Z" fill="#E28B6D"/>
<path d="M884.144 400.658C884.008 400.658 883.873 400.601 883.772 400.494C883.578 400.29 883.588 399.966 883.794 399.774L890.152 393.779C890.357 393.586 890.681 393.595 890.875 393.799C891.069 394.008 891.06 394.332 890.854 394.524L884.495 400.515C884.397 400.609 884.271 400.658 884.144 400.658Z" fill="#E28B6D"/>
<path d="M890.031 402.705C889.903 402.705 889.776 402.656 889.676 402.562C889.472 402.365 889.466 402.042 889.661 401.837L895.769 395.474C895.965 395.269 896.288 395.261 896.493 395.457C896.697 395.654 896.703 395.977 896.507 396.182L890.4 402.545C890.299 402.652 890.165 402.705 890.031 402.705Z" fill="#E28B6D"/>
<path d="M896.045 406.288C895.92 406.288 895.795 406.239 895.696 406.149C895.489 405.956 895.478 405.633 895.67 405.424L900.462 400.285C900.655 400.08 900.979 400.068 901.186 400.261C901.393 400.453 901.404 400.777 901.211 400.981L896.419 406.124C896.318 406.231 896.182 406.288 896.045 406.288Z" fill="#E28B6D"/>
<path d="M978.325 580.186L885.68 583.769L875.443 499.314C875.443 499.314 906.458 469.893 918.391 459.062L938.535 458.03C1001.03 486.436 990.801 521.917 978.325 580.186Z" fill="#5038BC"/>
<path d="M938.535 458.03C938.535 458.03 1010.04 464.144 1032.58 513.134C1054.64 561.067 963.993 578.139 963.993 578.139L938.535 458.03Z" fill="#5038BC"/>
<path d="M856.802 468.525L886.349 432.569L858.719 415.821C847.193 423.839 824.904 441.991 806.015 462.547C801.846 467.084 798.589 472.382 796.949 478.217C795.549 483.197 795.295 488.115 796.082 492.93C798.132 505.485 808.006 515.173 821.187 516.717C832.444 518.035 875.443 514.669 910.249 504.432L920.486 464.922C915.225 461.937 876.129 461.416 856.802 468.525Z" fill="#5038BC"/>
<path d="M977.983 480.871C973.285 480.871 966.472 479.818 963.987 474.151C962.346 470.412 963.502 466.297 965.305 463.361C965.56 463.435 965.814 463.509 966.071 463.582C964.311 466.35 963.134 470.298 964.69 473.844C967.003 479.118 973.459 480.105 977.961 480.105C979.546 480.105 980.888 479.982 981.722 479.88C987.051 479.237 992.458 478.004 997.698 476.796C998.022 476.985 998.347 477.173 998.669 477.361C998.515 477.398 998.361 477.435 998.207 477.468C992.843 478.704 987.297 479.982 981.814 480.641C980.961 480.744 979.597 480.871 977.983 480.871Z" fill="#D8E1FB"/>
<path d="M1013.8 559.503C1010.18 554.917 1008.28 549.705 1008.51 544.733C1008.85 537.437 1014.41 531.004 1020.92 530.385C1021.32 530.348 1021.72 530.332 1022.12 530.332C1025.39 530.332 1028.53 531.544 1031.58 532.719C1032.79 533.19 1034.03 533.665 1035.28 534.071C1035.23 534.32 1035.16 534.566 1035.09 534.816C1033.81 534.402 1032.54 533.919 1031.3 533.436C1028.19 532.236 1025.24 531.098 1022.13 531.098C1021.75 531.098 1021.38 531.114 1020.99 531.151C1014.85 531.733 1009.6 537.838 1009.27 544.766C1009.05 549.578 1010.91 554.639 1014.45 559.09C1014.24 559.229 1014.02 559.368 1013.8 559.503Z" fill="#D8E1FB"/>
<path d="M816.224 515.706C815.957 515.628 815.7 515.529 815.437 515.443C819.443 510.837 825.274 507.356 832.072 505.595C834.651 504.928 837.15 504.6 839.502 504.6C844.106 504.6 848.145 505.862 851.099 508.302C853.299 510.124 854.822 512.487 855.915 515.018C855.65 515.046 855.385 515.079 855.121 515.108C854.078 512.753 852.641 510.575 850.61 508.896C847.794 506.566 843.929 505.366 839.506 505.366C837.218 505.366 834.781 505.69 832.264 506.341C825.736 508.028 820.122 511.332 816.224 515.706Z" fill="#D8E1FB"/>
<path d="M810.742 457.522C811.076 457.178 811.409 456.83 811.743 456.486C819.633 454.443 827.314 451.613 834.416 447.522C837.191 445.925 840.322 443.89 842.497 440.938C844.753 437.875 845.509 434.247 844.521 431.242C844.133 430.058 843.441 429.022 842.577 428.199C842.774 428.039 842.972 427.876 843.168 427.716C844.093 428.613 844.833 429.726 845.251 431C846.316 434.243 845.518 438.129 843.115 441.397C840.856 444.464 837.643 446.552 834.799 448.19C827.27 452.526 819.107 455.446 810.742 457.522Z" fill="#D8E1FB"/>
<path d="M945.079 439.251L945.066 440.562L944.858 460.925L944.833 463.132C944.794 466.584 943.379 469.713 941.095 471.985C938.824 474.242 935.696 475.658 932.23 475.683C925.248 475.72 919.537 470.114 919.472 463.12L919.226 437.953L945.079 439.251Z" fill="#F9B384"/>
<path d="M945.066 440.561L944.859 460.925C933.541 456.318 928.882 444.067 928.882 444.067L945.066 440.561Z" fill="#102048"/>
<path d="M949.544 405.027C953.6 409.896 965.443 437.474 953.438 446.884C939.928 457.473 919.368 440.07 919.368 440.07L916.611 407.947L934.456 403.242L949.544 405.027Z" fill="#F9B384"/>
<path d="M907.519 403.258C907.519 403.258 867.936 423.904 900.211 483.414C904.356 491.055 913.538 494.392 921.392 490.661H921.393C929.819 486.661 933.009 476.367 928.433 468.238C923.154 458.861 918.058 446.786 920.234 437.798L907.519 403.258Z" fill="#102048"/>
<path d="M921.964 413.028C921.964 418.945 917.17 423.736 911.257 423.736C905.343 423.736 900.55 418.945 900.55 413.028C900.55 407.115 905.343 402.324 911.257 402.324C917.17 402.324 921.964 407.115 921.964 413.028Z" fill="#FBC343"/>
<path d="M924.429 425.894C923.272 419.215 922.567 414.633 929.319 411.189C929.319 411.189 953.113 415.518 957.656 406.542C962.198 397.562 955.276 383.394 940.783 393.238C903.686 385.99 898.711 420.71 909.959 432.282L921.061 430.578C923.295 430.234 924.814 428.121 924.429 425.894Z" fill="#102048"/>
<path d="M944.433 425.915C944.433 426.787 943.725 427.495 942.852 427.495C941.978 427.495 941.27 426.787 941.27 425.915C941.27 425.042 941.978 424.334 942.852 424.334C943.725 424.334 944.433 425.042 944.433 425.915Z" fill="#102048"/>
<path d="M955.141 420.64C955.141 421.517 954.433 422.225 953.559 422.225C952.686 422.225 951.977 421.517 951.977 420.64C951.977 419.768 952.686 419.06 953.559 419.06C954.433 419.06 955.141 419.768 955.141 420.64Z" fill="#102048"/>
<path d="M952.464 430.783C952.353 430.783 952.242 430.742 952.155 430.66C951.976 430.488 951.969 430.206 952.139 430.026C952.774 429.358 953.469 428.421 953.177 427.741C952.873 427.032 951.591 426.729 951.004 426.729C949.742 426.729 949.136 424.481 949.027 424.031C948.97 423.793 949.117 423.552 949.357 423.49C949.597 423.433 949.84 423.58 949.898 423.822C950.128 424.772 950.65 425.833 951.004 425.833C951.608 425.833 953.455 426.115 954 427.385C954.389 428.294 953.981 429.387 952.789 430.644C952.701 430.738 952.583 430.783 952.464 430.783Z" fill="#102048"/>
<path d="M952.545 436.786C952.459 436.786 952.372 436.762 952.295 436.708C949.316 434.698 946.309 436.385 946.279 436.401C946.065 436.524 945.791 436.45 945.668 436.237C945.544 436.02 945.618 435.75 945.832 435.623C945.975 435.541 949.359 433.645 952.796 435.967C953.001 436.106 953.055 436.385 952.917 436.59C952.83 436.716 952.689 436.786 952.545 436.786Z" fill="#102048"/>
<path d="M942.159 419.064C943.059 420.755 941.491 421.099 939.654 422.074C937.816 423.048 935.935 423.409 935.506 422.598C935.076 421.791 936.218 420.346 938.055 419.367C939.892 418.393 941.462 417.754 942.159 419.064Z" fill="#102048"/>
<path d="M948.86 416.005C949.255 417.516 950.382 416.857 952.022 416.427C953.662 415.997 954.987 415.174 954.798 414.453C954.61 413.732 953.127 413.495 951.487 413.925C949.847 414.355 948.553 414.834 948.86 416.005Z" fill="#102048"/>
<path d="M935.551 437.961C932.975 437.961 930.887 435.873 930.887 433.297C930.887 430.718 932.975 428.633 935.551 428.633C938.127 428.633 940.215 430.718 940.215 433.297C940.215 435.873 938.127 437.961 935.551 437.961Z" fill="#F39176"/>
<path d="M921.698 428.314C924.837 430.734 925.653 434.935 923.521 437.699C921.39 440.459 917.118 440.733 913.979 438.313C910.841 435.893 910.024 431.688 912.156 428.928C914.287 426.164 918.559 425.89 921.698 428.314Z" fill="#F9B384"/>
<path d="M920.614 435.652C920.366 435.652 920.166 435.451 920.166 435.206C920.166 433.883 919.522 432.663 918.442 431.934C917.519 431.315 916.418 431.168 915.498 431.545C915.269 431.635 915.008 431.528 914.915 431.299C914.822 431.07 914.931 430.808 915.16 430.714C916.357 430.226 917.77 430.406 918.942 431.193C920.269 432.085 921.062 433.584 921.062 435.206C921.062 435.451 920.861 435.652 920.614 435.652Z" fill="#102048"/>
<path d="M841.013 486.354L840.261 485.657L856.426 468.177L857.178 468.873L841.013 486.354Z" fill="#102048"/>
<path d="M970.284 543.312L969.986 542.334C981.752 538.747 993.17 534.455 1003.52 521.516L1004.32 522.155C993.787 535.324 982.21 539.676 970.284 543.312Z" fill="#102048"/>
<path d="M977.438 503.67H877.354C873.754 503.67 870.836 506.827 870.836 510.717V582.176C870.836 586.07 873.754 589.227 877.354 589.227H977.438C981.038 589.227 983.955 586.07 983.955 582.176V510.717C983.955 506.827 981.038 503.67 977.438 503.67Z" fill="#D3DFFF"/>
<path d="M932.679 539.885H922.112C920.604 539.885 919.377 541.138 919.377 542.678V550.221C919.377 551.76 920.604 553.013 922.112 553.013H932.679C934.187 553.013 935.415 551.76 935.415 550.221V542.678C935.415 541.138 934.187 539.885 932.679 539.885ZM932.679 541.933C933.059 541.933 933.367 542.264 933.367 542.678V550.221C933.367 550.63 933.059 550.966 932.679 550.966H922.112C921.732 550.966 921.424 550.63 921.424 550.221V542.678C921.424 542.264 921.732 541.933 922.112 541.933H932.679Z" fill="#1F3C88"/>
<path d="M1365.87 665.153H762.431V663.105H1365.87V665.153Z" fill="#102048"/>
</g>
<defs>
<clipPath id="clip0_402_2266">
<rect width="136" height="667" fill="white" transform="translate(-6)"/>
</clipPath>
<clipPath id="clip1_402_2266">
<rect width="134" height="134" fill="white" transform="matrix(0 -1 -1 0 130 134)"/>
</clipPath>
<clipPath id="clip2_402_2266">
<rect width="134" height="134" fill="white" transform="translate(-4 268)"/>
</clipPath>
<clipPath id="clip3_402_2266">
<rect width="134" height="134" fill="white" transform="translate(130 469) rotate(-180)"/>
</clipPath>
<clipPath id="clip4_402_2266">
<rect width="134" height="134" fill="white" transform="translate(-4 469)"/>
</clipPath>
<clipPath id="clip5_402_2266">
<rect width="134" height="134" fill="white" transform="translate(-4 268) rotate(-90)"/>
</clipPath>
<clipPath id="clip6_402_2266">
<rect width="134" height="134" fill="white" transform="translate(127.986 590) rotate(89.1792)"/>
</clipPath>
<clipPath id="clip7_402_2266">
<rect width="603.778" height="531.3" fill="white" transform="translate(762.222 134)"/>
</clipPath>
</defs>
</svg>
