<svg width="603" height="524" viewBox="0 0 603 524" fill="none" xmlns="http://www.w3.org/2000/svg">
<path d="M585.969 381.86C576.101 359.412 557.146 340.679 534.379 331.461C510.666 321.859 483.436 325.352 458.457 322.137C436.763 319.341 421.113 309.657 408.157 292.438C395.745 275.94 384.62 257.669 364.326 250.036C348.291 244.009 330.061 245.679 314.124 251.965C284.758 263.541 262.579 288.159 243.898 312.687C226.844 335.081 212.933 359.601 181.387 360.399C167.111 360.764 153.145 357.279 139.188 353.794C122.285 349.573 105.396 345.351 87.9869 347.967C45.9809 354.273 10.9982 389.243 3.66768 430.871C-3.20258 469.886 14.0373 507.73 43.6546 529.965H552.728C590.048 490.372 609.633 435.682 585.969 381.86Z" fill="#C424A3"/>
<path d="M125.775 529.965H127.175C136.9 519.273 144.519 506.301 149.362 491.904C157.2 468.6 156.87 444.142 148.431 423.037C144.167 412.375 138.009 402.432 132.053 392.818C126.013 383.072 119.768 372.991 115.529 362.185C113.776 357.721 112.482 352.922 111.703 348.029C111.352 347.984 111.001 347.947 110.65 347.906C111.432 352.971 112.763 357.938 114.576 362.561C118.849 373.449 125.119 383.572 131.183 393.358C137.115 402.936 143.249 412.837 147.481 423.418C155.829 444.298 156.153 468.506 148.391 491.58C143.489 506.154 135.711 519.249 125.775 529.965Z" fill="white"/>
<path d="M550.267 485.565C560.758 487.801 570.864 489.807 580.642 491.068C580.81 490.745 580.97 490.417 581.137 490.094C571.281 488.841 561.077 486.822 550.484 484.566C534.35 481.126 516.886 477.408 499.569 477.408C488.845 477.408 478.178 478.833 467.916 482.637C464.026 484.079 460.279 485.905 456.713 488.083C447.446 484.132 438.131 479.82 428.905 475.09C435.6 470.046 442.365 465.103 449.207 460.329C499.97 424.88 546.823 404.783 592.087 399.079C591.997 398.747 591.903 398.415 591.809 398.084C546.422 403.833 499.471 423.983 448.617 459.489C441.636 464.366 434.728 469.415 427.894 474.566C417.513 469.206 407.264 463.314 397.338 456.811C379.342 445.018 357.93 428.185 339.233 405.819C411.691 397.686 485.458 387.445 545.701 347.185C547.986 345.654 550.521 343.852 553.145 341.809C552.855 341.6 552.564 341.399 552.269 341.195C549.755 343.144 547.327 344.864 545.132 346.334C484.906 386.585 410.999 396.749 338.451 404.877C325.237 388.895 313.432 370.12 305.226 348.389C292.448 314.538 293.123 281.321 307.081 257.251C307.687 256.207 308.326 255.175 308.985 254.156C308.403 254.426 307.826 254.704 307.249 254.979C306.888 255.56 306.536 256.146 306.192 256.735C292.083 281.075 291.382 314.611 304.268 348.754C312.429 370.366 324.127 389.063 337.235 405.008C333.034 405.479 328.832 405.946 324.647 406.404C309.538 408.071 293.915 409.799 278.746 411.752C273.209 412.465 267.577 413.296 261.974 414.336C249.964 388.985 236.77 364.257 219.715 343.046C219.471 343.291 219.222 343.525 218.976 343.766C235.885 364.813 248.997 389.362 260.934 414.532C236.497 419.192 212.766 427.955 200.096 448.347C188.263 467.392 188.274 493.718 200.128 526.591C200.538 527.729 200.96 528.851 201.389 529.965H202.485C202.016 528.745 201.549 527.516 201.091 526.243C189.348 493.681 189.307 467.654 200.966 448.888C213.486 428.737 237.085 420.093 261.387 415.487C265.627 424.458 269.723 433.5 273.795 442.488L274.238 443.466C288.375 474.677 302.998 504.794 322.146 529.965H323.423C304.1 504.749 289.396 474.448 275.17 443.045L274.727 442.066C270.691 433.156 266.629 424.188 262.427 415.294C267.923 414.279 273.445 413.464 278.877 412.768C294.037 410.814 309.652 409.09 324.758 407.424C329.168 406.937 333.59 406.449 338.013 405.954C356.89 428.672 378.572 445.739 396.777 457.667C406.593 464.1 416.731 469.935 426.989 475.254C409.574 488.423 392.633 502.28 376.099 515.813C370.37 520.498 364.576 525.231 358.737 529.965H360.362C365.87 525.493 371.336 521.026 376.746 516.604C393.399 502.98 410.458 489.021 427.996 475.774C437.173 480.496 446.435 484.799 455.652 488.743C443.044 496.76 432.766 509.18 426.555 524.257C425.777 526.144 425.097 528.048 424.466 529.965H425.547C426.141 528.18 426.776 526.406 427.501 524.646C433.733 509.528 444.093 497.12 456.799 489.23C482.563 500.175 507.881 508.299 529.641 514.736L530.46 514.978C539.628 517.693 549.006 520.469 557.302 524.932C557.531 524.666 557.764 524.404 557.994 524.138C549.567 519.564 540.05 516.747 530.747 513.999L529.928 513.758C508.393 507.382 483.366 499.356 457.876 488.575C461.197 486.601 464.673 484.93 468.273 483.595C494.831 473.756 524.285 480.029 550.267 485.565Z" fill="white"/>
<path d="M46.2204 419.258C50.7423 437.763 48.7248 457.749 40.6855 474.096C35.42 484.8 27.8159 494.488 18.4499 502.813C18.6362 503.103 18.8266 503.39 19.0158 503.677C28.5337 495.246 36.2594 485.414 41.6043 474.546C49.7481 457.991 51.793 437.75 47.2146 419.013C43.6382 404.374 36.4478 391.975 26.513 383.003C26.2914 383.261 26.0715 383.523 25.8529 383.785C35.6218 392.622 42.6964 404.832 46.2204 419.258Z" fill="white"/>
<path d="M579.868 91.7274C575.085 75.8273 566.675 61.2294 554.636 47.8845C542.573 34.5395 526.12 23.5204 505.277 14.8067C484.435 6.09293 457.954 1.73608 425.83 1.73608C400.209 1.73608 374.096 5.19208 347.492 12.1041C320.86 19.0407 297.765 28.9051 278.172 41.7259L303.674 111.735L290.006 122.807L309.828 128.634C329.393 118.393 347.222 110.957 363.306 106.325C379.366 101.719 396.433 99.4134 414.528 99.4134C432.599 99.4134 446.279 103.77 455.574 112.484C464.866 121.222 469.501 131.713 469.501 144.034C469.501 158.907 464.722 172.1 455.206 183.643C445.645 195.187 435.1 206.853 423.553 218.65C415.531 226.835 407.735 235.299 400.209 244.013C392.682 252.751 386.012 262.092 380.251 272.107C374.461 282.095 369.829 292.864 366.32 304.407C362.79 315.95 361.05 328.894 361.05 343.242C361.05 347.874 361.148 353.381 361.419 359.793C361.464 360.973 361.525 362.127 361.595 363.266H342.857L363.306 377.094H462.732C462.22 374.015 461.975 370.432 461.975 366.329C461.975 362.222 461.975 359.142 461.975 357.087C461.975 348.373 463.74 339.786 467.245 331.322C470.754 322.858 475.164 314.796 480.438 307.085C485.708 299.399 491.592 292.086 498.14 285.178C504.663 278.241 510.94 271.706 516.972 265.548C524.99 257.358 533.277 248.644 541.811 239.406C550.344 230.164 557.895 220.452 564.418 210.186C570.941 199.92 576.334 188.778 580.601 176.707C584.868 164.664 587.026 151.471 587.026 137.098C587.026 122.75 584.622 107.628 579.868 91.7274Z" fill="#F7B500"/>
<path d="M393.477 94.5284C375.595 94.5284 358.728 96.76 342.857 101.219C326.961 105.699 309.341 112.898 290.006 122.807L258.722 38.6999C278.083 26.2926 300.91 16.7435 327.227 10.0322C353.52 3.34125 379.325 -9.15527e-05 404.648 -9.15527e-05C436.395 -9.15527e-05 462.564 4.21756 483.161 12.6487C503.758 21.0799 520.019 31.7428 531.943 44.6578C543.838 57.5769 552.15 71.7039 556.876 87.0881C561.577 102.476 563.952 117.115 563.952 131.001C563.952 144.907 561.818 157.678 557.605 169.336C553.387 181.015 548.056 191.796 541.61 201.734C535.165 211.668 527.7 221.07 519.269 230.013C510.834 238.956 502.644 247.387 494.721 255.311C488.759 261.273 482.555 267.595 476.11 274.31C469.64 280.997 463.826 288.073 458.613 295.513C453.404 302.974 449.043 310.779 445.579 318.968C442.111 327.158 440.367 335.47 440.367 343.902C440.367 345.892 440.367 348.873 440.367 352.845C440.367 356.821 440.608 360.285 441.12 363.266H342.857C341.837 358.299 341.231 352.726 340.99 346.522C340.724 340.319 340.625 334.987 340.625 330.503C340.625 316.618 342.349 304.092 345.838 292.917C349.302 281.747 353.88 271.329 359.601 261.658C365.297 251.965 371.885 242.928 379.325 234.472C386.766 226.037 394.472 217.847 402.395 209.924C413.808 198.512 424.229 187.218 433.68 176.048C443.081 164.877 447.807 152.105 447.807 137.712C447.807 125.788 443.225 115.637 434.044 107.177C424.859 98.746 411.338 94.5284 393.477 94.5284Z" fill="#FFD668"/>
<path d="M469.538 473.604C469.538 491.531 463.735 505.364 452.131 515.121C440.522 524.9 427.406 529.769 412.759 529.769C398.092 529.769 384.976 524.9 373.371 515.121C361.783 505.364 355.981 491.531 355.981 473.604C355.981 455.702 361.783 441.87 373.371 432.091C391.237 417.014 417.665 413.652 438.585 424.233C457.143 433.627 469.538 452.692 469.538 473.604Z" fill="#F7B500"/>
<path d="M450.088 473.604C450.088 491.531 444.285 505.364 432.681 515.121C421.072 524.9 407.956 529.769 393.309 529.769C378.642 529.769 365.526 524.9 353.921 515.121C342.333 505.364 336.531 491.531 336.531 473.604C336.531 455.702 342.333 441.87 353.921 432.091C365.526 422.333 378.642 417.444 393.309 417.444C407.956 417.444 421.072 422.333 432.681 432.091C444.285 441.87 450.088 455.702 450.088 473.604Z" fill="#FFD668"/>
<path d="M154.047 211.455C157.387 216.336 156.138 222.998 151.257 226.34C146.377 229.677 139.713 228.428 136.374 223.547C133.034 218.666 134.283 212.004 139.163 208.663C144.044 205.325 150.707 206.574 154.047 211.455Z" fill="#F8F8F8"/>
<path d="M160.85 239.586C160.237 242.854 157.071 245.008 153.778 244.39C150.486 243.771 148.314 240.622 148.927 237.351C149.539 234.083 152.705 231.933 155.997 232.551C159.29 233.166 161.462 236.319 160.85 239.586Z" fill="#F8F8F8"/>
<path d="M160.226 171.355C155.936 194.241 133.906 209.314 111.02 205.027C88.1339 200.735 73.0585 178.705 77.3482 155.819C81.6375 132.934 103.668 117.857 126.554 122.148C149.44 126.439 164.515 148.469 160.226 171.355Z" fill="#F8F8F8"/>
<path d="M107.911 163.587C107.911 166.519 105.532 168.898 102.598 168.898C99.665 168.898 97.2867 166.519 97.2867 163.587C97.2867 160.651 99.665 158.276 102.598 158.276C105.532 158.276 107.911 160.651 107.911 163.587Z" fill="#333333"/>
<path d="M124.099 163.587C124.099 166.519 121.721 168.898 118.787 168.898C115.853 168.898 113.475 166.519 113.475 163.587C113.475 160.651 115.853 158.276 118.787 158.276C121.721 158.276 124.099 160.651 124.099 163.587Z" fill="#333333"/>
<path d="M140.288 163.587C140.288 166.519 137.91 168.898 134.976 168.898C132.042 168.898 129.664 166.519 129.664 163.587C129.664 160.651 132.042 158.276 134.976 158.276C137.91 158.276 140.288 160.651 140.288 163.587Z" fill="#333333"/>
<path d="M88.5847 508.664L92.524 523.852C93.5513 527.811 97.3808 530.489 101.617 530.199C114.533 529.322 141.37 526.157 156.772 514.806L152.394 492.92C131.216 491.72 111.411 492.899 94.2618 498.673C89.968 500.118 87.4845 504.422 88.5847 508.664Z" fill="#333333"/>
<path d="M113.268 520.752C113.044 520.752 112.838 520.604 112.775 520.379L107.486 501.441C107.41 501.166 107.569 500.884 107.841 500.81C108.115 500.732 108.396 500.892 108.472 501.166L113.761 520.105C113.837 520.375 113.678 520.658 113.405 520.735C113.36 520.748 113.313 520.752 113.268 520.752Z" fill="white"/>
<path d="M124.699 518.193C124.475 518.193 124.269 518.045 124.206 517.82L118.917 498.882C118.841 498.607 119 498.325 119.272 498.251C119.546 498.173 119.827 498.333 119.903 498.607L125.192 517.546C125.268 517.816 125.109 518.098 124.837 518.176C124.791 518.189 124.744 518.193 124.699 518.193Z" fill="white"/>
<path d="M222.653 423.464L137.978 426.592L88.7879 441.193L125.319 491.246L177.783 495.417L250.139 464.824L222.653 423.464Z" fill="#FFD668" stroke="#FFD668" stroke-width="0.040948"/>
<path d="M261.221 430.248C247.042 425.525 225.714 425.549 198.72 433.531L228.856 445.22L228.901 445.238L228.857 445.258L139.809 486.407C142.575 496.118 149.526 507.734 155.476 514.432C197.633 510.084 228.164 500.854 248.559 489.955C268.956 479.054 279.211 466.487 280.823 455.468C281.628 449.959 280.275 444.836 276.947 440.499C273.618 436.163 268.315 432.611 261.221 430.248Z" fill="#FFD668" stroke="#FFD668" stroke-width="0.040948"/>
<path d="M203.248 501.994C198.193 500.376 193.349 497.178 193.349 497.178L175.977 502.628L179.958 521.526L198.004 525.191C203.502 515.138 203.823 506.879 203.248 501.994Z" fill="#F9B384"/>
<path d="M140.171 487.06L139.399 485.733C157.979 474.935 205.572 448.99 246.121 441.341L246.406 442.852C206.091 450.456 158.682 476.303 140.171 487.06Z" fill="#E49B31"/>
<path d="M106.718 447.655L137.922 426.582C112.794 421.814 92.323 424.272 78.3806 430.912C64.4293 437.556 57.0175 448.386 58.0118 460.353C59.0063 472.321 68.4095 485.435 88.1086 496.645C107.806 507.854 137.793 517.157 179.949 521.504C185.898 514.808 190.562 506.894 193.325 497.187C167.422 479.857 138.461 463.383 106.721 447.69L106.689 447.675L106.718 447.655Z" fill="#FFD668" stroke="#FFD668" stroke-width="0.040948"/>
<path d="M192.937 497.825C188.15 494.779 183.163 491.56 177.883 488.149C151.379 471.037 121.338 451.644 95.8154 440.584L96.4264 439.176C122.065 450.285 152.162 469.715 178.716 486.86C183.994 490.271 188.979 493.489 193.761 496.531L192.937 497.825Z" fill="#E49B31"/>
<path d="M64.156 474.513L62.8117 473.772C66.5883 466.934 72.6376 462.323 80.7912 460.067L81.2011 461.545C73.3513 463.72 67.7758 467.962 64.156 474.513Z" fill="#E49B31"/>
<path d="M274.151 468.695C270.531 462.143 264.955 457.901 257.105 455.722L257.515 454.244C265.669 456.504 271.718 461.115 275.495 467.953L274.151 468.695Z" fill="#E49B31"/>
<path d="M170.536 520.678L169.414 519.63C177.462 511.01 182.405 501.908 184.526 491.81L186.028 492.125C183.849 502.506 178.781 511.846 170.536 520.678Z" fill="#E49B31"/>
<path d="M253.427 496.367C240.536 488.403 215.546 502.166 209.273 502.858C207.444 503.062 205.328 502.661 203.248 501.994C203.823 506.879 203.502 515.138 198.004 525.191L201.069 525.813C201.069 525.813 222.261 533.585 244.741 529.06C265.491 524.888 263.561 502.628 253.427 496.367Z" fill="#333333"/>
<path d="M235.856 522.418C235.805 522.418 235.753 522.41 235.702 522.394C235.432 522.308 235.283 522.021 235.368 521.751C236.899 516.903 237.567 507.362 233.132 500.954C232.971 500.72 233.029 500.405 233.261 500.241C233.493 500.081 233.812 500.139 233.973 500.372C238.619 507.079 237.936 517.017 236.344 522.058C236.275 522.275 236.073 522.418 235.856 522.418Z" fill="white"/>
<path d="M225.747 524.335C225.696 524.335 225.644 524.327 225.593 524.31C225.323 524.228 225.174 523.938 225.259 523.671C226.79 518.819 227.458 509.282 223.023 502.874C222.862 502.64 222.92 502.321 223.152 502.161C223.384 502.002 223.703 502.059 223.864 502.292C228.509 509 227.827 518.938 226.235 523.978C226.166 524.195 225.964 524.335 225.747 524.335Z" fill="white"/>
<path d="M120.175 301.901C120.175 301.901 145.514 280.354 144.576 276.259C143.906 273.331 136.728 277.623 136.728 277.623C136.728 277.623 146.794 265.682 146.282 264.229C145.367 261.641 138.405 266.469 138.405 266.469C138.405 266.469 143.111 259.696 140.861 258.594C138.612 257.489 133.707 261.665 133.707 261.665C133.707 261.665 136.573 257.902 135.226 256.915C133.879 255.929 128.072 259.987 128.072 259.987C128.072 259.987 130.156 255.245 125.728 257.042C121.3 258.84 90.2534 287.332 90.2534 287.332L120.175 301.901Z" fill="#F9B384"/>
<path d="M130.543 276.345C130.419 276.345 130.296 276.3 130.197 276.21C125.848 272.238 123.93 271.272 119.132 269.794C118.861 269.712 118.71 269.425 118.793 269.155C118.876 268.885 119.162 268.733 119.433 268.819C124.404 270.347 126.39 271.346 130.888 275.453C131.097 275.645 131.111 275.969 130.92 276.178C130.82 276.288 130.681 276.345 130.543 276.345Z" fill="#E28B6D"/>
<path d="M122.908 288.032L122.837 288.028C122.557 287.987 122.361 287.729 122.401 287.451C122.899 283.888 124.02 281.661 125.83 280.641C127.376 279.773 129.389 279.863 131.812 280.907C132.071 281.022 132.191 281.321 132.079 281.579C131.967 281.841 131.666 281.96 131.406 281.849C129.293 280.936 127.586 280.83 126.331 281.534C124.84 282.373 123.859 284.412 123.414 287.59C123.379 287.848 123.16 288.032 122.908 288.032Z" fill="#E28B6D"/>
<path d="M121.713 266.494C121.577 266.494 121.441 266.437 121.341 266.33C121.147 266.125 121.156 265.802 121.362 265.609L127.72 259.615C127.926 259.422 128.25 259.43 128.444 259.635C128.638 259.844 128.629 260.167 128.423 260.36L122.064 266.351C121.966 266.445 121.839 266.494 121.713 266.494Z" fill="#E28B6D"/>
<path d="M127.6 268.541C127.472 268.541 127.345 268.492 127.245 268.398C127.041 268.201 127.035 267.878 127.23 267.673L133.338 261.31C133.533 261.105 133.857 261.097 134.062 261.293C134.266 261.49 134.272 261.813 134.076 262.018L127.969 268.381C127.868 268.488 127.734 268.541 127.6 268.541Z" fill="#E28B6D"/>
<path d="M133.614 272.124C133.489 272.124 133.363 272.074 133.265 271.984C133.058 271.792 133.046 271.468 133.239 271.26L138.031 266.121C138.224 265.916 138.547 265.904 138.755 266.096C138.961 266.288 138.972 266.612 138.78 266.817L133.988 271.96C133.887 272.066 133.751 272.124 133.614 272.124Z" fill="#E28B6D"/>
<path d="M215.894 446.022L123.249 449.605L113.012 365.15C113.012 365.15 144.027 335.728 155.96 324.898L176.104 323.866C238.603 352.271 228.369 387.753 215.894 446.022Z" fill="#5038BC"/>
<path d="M176.104 323.866C176.104 323.866 247.608 329.979 270.15 378.969C292.207 426.903 201.562 443.974 201.562 443.974L176.104 323.866Z" fill="#5038BC"/>
<path d="M94.3707 334.361L123.918 298.404L96.2875 281.657C84.7614 289.674 62.4726 307.826 43.5837 328.382C39.4144 332.919 36.1578 338.218 34.5174 344.053C33.1182 349.032 32.8635 353.95 33.6505 358.766C35.7008 371.32 45.575 381.009 58.7558 382.552C70.0128 383.871 113.012 380.505 147.818 370.268L158.055 330.757C152.794 327.772 113.698 327.252 94.3707 334.361Z" fill="#5038BC"/>
<path d="M215.551 346.706C210.854 346.706 204.041 345.654 201.556 339.987C199.915 336.248 201.071 332.133 202.873 329.197C203.129 329.271 203.383 329.344 203.64 329.418C201.88 332.186 200.702 336.134 202.259 339.68C204.572 344.954 211.028 345.941 215.53 345.941C217.114 345.941 218.457 345.818 219.291 345.715C224.62 345.072 230.027 343.84 235.267 342.632C235.591 342.82 235.916 343.009 236.238 343.197C236.084 343.234 235.93 343.271 235.776 343.304C230.412 344.54 224.866 345.818 219.382 346.477C218.53 346.579 217.166 346.706 215.551 346.706Z" fill="#D8E1FB"/>
<path d="M251.369 425.339C247.746 420.753 245.846 415.54 246.077 410.569C246.414 403.272 251.983 396.839 258.491 396.221C258.892 396.184 259.29 396.168 259.687 396.168C262.962 396.168 266.099 397.38 269.146 398.555C270.364 399.026 271.601 399.501 272.854 399.906C272.794 400.156 272.73 400.402 272.664 400.651C271.378 400.238 270.113 399.755 268.869 399.271C265.759 398.072 262.805 396.933 259.7 396.933C259.323 396.933 258.944 396.95 258.563 396.986C252.421 397.568 247.165 403.673 246.843 410.602C246.621 415.413 248.479 420.474 252.021 424.925C251.805 425.065 251.587 425.204 251.369 425.339Z" fill="#D8E1FB"/>
<path d="M53.7929 381.541C53.5259 381.463 53.2688 381.365 53.0055 381.279C57.0118 376.672 62.8432 373.192 69.6406 371.431C72.2195 370.763 74.7189 370.436 77.071 370.436C81.6752 370.436 85.7135 371.697 88.6679 374.138C90.868 375.96 92.3909 378.322 93.4838 380.853C93.2184 380.882 92.9535 380.915 92.6902 380.943C91.6465 378.589 90.2104 376.41 88.1794 374.731C85.3626 372.401 81.4979 371.202 77.0747 371.202C74.7873 371.202 72.3501 371.525 69.8326 372.176C63.3051 373.863 57.6907 377.168 53.7929 381.541Z" fill="#D8E1FB"/>
<path d="M48.3112 323.358C48.6445 323.014 48.9779 322.666 49.312 322.322C57.2023 320.279 64.8833 317.449 71.9845 313.358C74.7599 311.761 77.8908 309.726 80.0656 306.774C82.3214 303.711 83.0781 300.083 82.09 297.077C81.7019 295.894 81.0094 294.858 80.1458 294.035C80.3432 293.875 80.541 293.712 80.7367 293.552C81.6617 294.449 82.4021 295.562 82.8197 296.836C83.8848 300.079 83.0867 303.965 80.6835 307.233C78.4244 310.3 75.212 312.388 72.3673 314.026C64.8387 318.362 56.6761 321.282 48.3112 323.358Z" fill="#D8E1FB"/>
<path d="M182.648 305.087L182.635 306.398L182.427 326.761L182.402 328.968C182.363 332.42 180.948 335.548 178.664 337.821C176.392 340.077 173.264 341.494 169.799 341.519C162.817 341.555 157.106 335.95 157.041 328.956L156.795 303.789L182.648 305.087Z" fill="#F9B384"/>
<path d="M182.635 306.397L182.427 326.76C171.11 322.154 166.451 309.902 166.451 309.902L182.635 306.397Z" fill="#102048"/>
<path d="M187.113 270.863C191.169 275.731 203.012 303.31 191.006 312.72C177.497 323.309 156.937 305.906 156.937 305.906L154.179 273.782L172.025 269.077L187.113 270.863Z" fill="#F9B384"/>
<path d="M145.088 269.093C145.088 269.093 105.505 289.739 137.78 349.249C141.925 356.89 151.107 360.227 158.961 356.497H158.962C167.388 352.496 170.578 342.202 166.002 334.074C160.723 324.697 155.627 312.621 157.802 303.633L145.088 269.093Z" fill="#102048"/>
<path d="M159.533 278.864C159.533 284.781 154.739 289.572 148.825 289.572C142.912 289.572 138.118 284.781 138.118 278.864C138.118 272.951 142.912 268.16 148.825 268.16C154.739 268.16 159.533 272.951 159.533 278.864Z" fill="#FBC343"/>
<path d="M161.998 291.729C160.841 285.051 160.136 280.469 166.888 277.025C166.888 277.025 190.682 281.353 195.224 272.377C199.767 263.397 192.845 249.229 178.352 259.073C141.255 251.825 136.28 286.545 147.528 298.117L158.63 296.414C160.864 296.07 162.383 293.957 161.998 291.729Z" fill="#102048"/>
<path d="M182.002 291.75C182.002 292.622 181.294 293.331 180.421 293.331C179.547 293.331 178.839 292.622 178.839 291.75C178.839 290.878 179.547 290.17 180.421 290.17C181.294 290.17 182.002 290.878 182.002 291.75Z" fill="#102048"/>
<path d="M192.71 286.476C192.71 287.352 192.001 288.061 191.128 288.061C190.255 288.061 189.546 287.352 189.546 286.476C189.546 285.604 190.255 284.896 191.128 284.896C192.001 284.896 192.71 285.604 192.71 286.476Z" fill="#102048"/>
<path d="M190.033 296.619C189.922 296.619 189.811 296.578 189.724 296.496C189.545 296.324 189.538 296.041 189.708 295.861C190.343 295.194 191.037 294.256 190.746 293.576C190.442 292.868 189.16 292.565 188.573 292.565C187.311 292.565 186.705 290.317 186.596 289.866C186.539 289.629 186.686 289.387 186.926 289.326C187.166 289.269 187.409 289.416 187.467 289.657C187.697 290.607 188.219 291.668 188.573 291.668C189.177 291.668 191.024 291.951 191.569 293.22C191.958 294.129 191.55 295.222 190.358 296.479C190.27 296.574 190.151 296.619 190.033 296.619Z" fill="#102048"/>
<path d="M190.114 302.622C190.028 302.622 189.94 302.597 189.863 302.544C186.885 300.533 183.878 302.221 183.848 302.237C183.634 302.36 183.36 302.286 183.236 302.073C183.113 301.856 183.187 301.586 183.401 301.459C183.544 301.377 186.928 299.481 190.365 301.803C190.569 301.942 190.624 302.221 190.485 302.425C190.399 302.552 190.257 302.622 190.114 302.622Z" fill="#102048"/>
<path d="M179.728 284.9C180.628 286.591 179.059 286.935 177.222 287.909C175.385 288.884 173.504 289.244 173.075 288.433C172.645 287.627 173.786 286.181 175.624 285.203C177.461 284.228 179.031 283.589 179.728 284.9Z" fill="#102048"/>
<path d="M186.428 281.841C186.824 283.352 187.951 282.693 189.591 282.263C191.231 281.833 192.555 281.01 192.367 280.289C192.178 279.568 190.696 279.331 189.056 279.761C187.416 280.191 186.122 280.67 186.428 281.841Z" fill="#102048"/>
<path d="M173.12 303.797C170.544 303.797 168.456 301.709 168.456 299.133C168.456 296.553 170.544 294.469 173.12 294.469C175.696 294.469 177.784 296.553 177.784 299.133C177.784 301.709 175.696 303.797 173.12 303.797Z" fill="#F39176"/>
<path d="M159.267 294.149C162.405 296.569 163.221 300.77 161.09 303.534C158.959 306.294 154.687 306.569 151.548 304.149C148.409 301.729 147.593 297.523 149.725 294.763C151.856 291.999 156.128 291.725 159.267 294.149Z" fill="#F9B384"/>
<path d="M158.183 301.487C157.935 301.487 157.735 301.287 157.735 301.041C157.735 299.718 157.09 298.498 156.011 297.769C155.088 297.151 153.987 297.004 153.067 297.38C152.838 297.47 152.577 297.364 152.484 297.135C152.39 296.905 152.5 296.643 152.729 296.549C153.925 296.062 155.339 296.242 156.511 297.028C157.838 297.921 158.63 299.419 158.63 301.041C158.63 301.287 158.43 301.487 158.183 301.487Z" fill="#102048"/>
<path d="M78.5821 352.189L77.8302 351.493L93.9949 334.012L94.7467 334.709L78.5821 352.189Z" fill="#102048"/>
<path d="M207.853 409.148L207.555 408.169C219.321 404.582 230.739 400.291 241.087 387.351L241.886 387.99C231.356 401.159 219.779 405.512 207.853 409.148Z" fill="#102048"/>
<path d="M215.007 369.506H114.923C111.323 369.506 108.405 372.663 108.405 376.553V448.012C108.405 451.906 111.323 455.063 114.923 455.063H215.007C218.606 455.063 221.524 451.906 221.524 448.012V376.553C221.524 372.663 218.606 369.506 215.007 369.506Z" fill="#D3DFFF"/>
<path d="M170.248 405.721H159.681C158.173 405.721 156.946 406.974 156.946 408.514V416.056C156.946 417.596 158.173 418.849 159.681 418.849H170.248C171.756 418.849 172.983 417.596 172.983 416.056V408.514C172.983 406.974 171.756 405.721 170.248 405.721ZM170.248 407.768C170.628 407.768 170.936 408.1 170.936 408.514V416.056C170.936 416.466 170.628 416.801 170.248 416.801H159.681C159.301 416.801 158.993 416.466 158.993 416.056V408.514C158.993 408.1 159.301 407.768 159.681 407.768H170.248Z" fill="#1F3C88"/>
</svg>
