<svg width="15" height="24" viewBox="0 0 15 24" fill="none" xmlns="http://www.w3.org/2000/svg">
<rect y="3.71924" width="3.54486" height="20.2808" fill="#5038BC"/>
<path d="M11.2994 7.61666e-09L14.8442 3.71911L0.000128583 3.71911L3.54499 -6.56473e-07L11.2994 7.61666e-09Z" fill="#5038BC"/>
<path d="M3.04639 12.9009L4.81882 9.18177L14.8441 9.18177L11.2993 12.9009L3.04639 12.9009Z" fill="#5038BC"/>
<mask id="mask0_691:2643" style="mask-type:alpha" maskUnits="userSpaceOnUse" x="0" y="3" width="4" height="16">
<rect opacity="0.45" y="3.71924" width="3.54486" height="14.8764" fill="#B9B9B9"/>
</mask>
<g mask="url(#mask0_691:2643)">
<ellipse opacity="0.5" cx="3.07342" cy="3.72733" rx="3.91912" ry="2.36649" fill="url(#paint0_radial_691:2643)"/>
<ellipse opacity="0.5" cx="5.15076" cy="12.9006" rx="3.65564" ry="2.55689" fill="url(#paint1_radial_691:2643)"/>
</g>
<mask id="mask1_691:2643" style="mask-type:alpha" maskUnits="userSpaceOnUse" x="3" y="0" width="9" height="4">
<rect opacity="0.45" x="11.2993" width="3.71911" height="7.75439" transform="rotate(90 11.2993 0)" fill="#5038BC"/>
</mask>
<g mask="url(#mask1_691:2643)">
<ellipse opacity="0.5" cx="11.4659" cy="3.07994" rx="3.661" ry="2.27093" transform="rotate(90 11.4659 3.07994)" fill="#5038BC"/>
</g>
<mask id="mask2_691:2643" style="mask-type:alpha" maskUnits="userSpaceOnUse" x="7" y="0" width="5" height="4">
<rect opacity="0.45" x="12" width="3.46133" height="5.00003" transform="rotate(90 12 0)" fill="#B9B9B9"/>
</mask>
<g mask="url(#mask2_691:2643)">
<ellipse opacity="0.5" cx="12.3408" cy="2.86623" rx="3.40725" ry="2.32956" transform="rotate(90 12.3408 2.86623)" fill="url(#paint2_radial_691:2643)"/>
</g>
<path d="M11.2993 0L14.8442 3.71911V9.18155H11.2993V0Z" fill="#5038BC"/>
<mask id="mask3_691:2643" style="mask-type:alpha" maskUnits="userSpaceOnUse" x="11" y="4" width="4" height="6">
<rect opacity="0.45" x="14.8442" y="9.18164" width="3.54486" height="5.11378" transform="rotate(-180 14.8442 9.18164)" fill="#B9B9B9"/>
</mask>
<g mask="url(#mask3_691:2643)">
<ellipse opacity="0.5" cx="11.9085" cy="9.53004" rx="3.48947" ry="2.38255" transform="rotate(-180 11.9085 9.53004)" fill="url(#paint3_radial_691:2643)"/>
</g>
<mask id="mask4_691:2643" style="mask-type:alpha" maskUnits="userSpaceOnUse" x="4" y="9" width="6" height="4">
<rect opacity="0.45" width="3.71911" height="4.87418" transform="matrix(-4.16634e-08 1 1 4.586e-08 4.87451 9.18164)" fill="#B9B9B9"/>
</mask>
<g mask="url(#mask4_691:2643)">
<ellipse opacity="0.7" rx="6.56508" ry="2.31726" transform="matrix(0.621522 0.783397 0.753218 -0.657771 5.53961 12.1486)" fill="url(#paint4_radial_691:2643)"/>
</g>
<path d="M3.04701 12.9008L4.81945 9.18167L14.8171 21.5303L12.1307 23.9709L3.04701 12.9008Z" fill="#5038BC"/>
<defs>
<radialGradient id="paint0_radial_691:2643" cx="0" cy="0" r="1" gradientUnits="userSpaceOnUse" gradientTransform="translate(3.07342 3.72733) rotate(90) scale(2.36649 3.91912)">
<stop/>
<stop offset="0.917127" stop-opacity="0"/>
</radialGradient>
<radialGradient id="paint1_radial_691:2643" cx="0" cy="0" r="1" gradientUnits="userSpaceOnUse" gradientTransform="translate(5.15076 12.9006) rotate(90) scale(2.55689 3.65564)">
<stop/>
<stop offset="0.917127" stop-opacity="0"/>
</radialGradient>
<radialGradient id="paint2_radial_691:2643" cx="0" cy="0" r="1" gradientUnits="userSpaceOnUse" gradientTransform="translate(12.3409 2.86623) rotate(90) scale(2.32956 3.40725)">
<stop/>
<stop offset="0.917127" stop-opacity="0"/>
</radialGradient>
<radialGradient id="paint3_radial_691:2643" cx="0" cy="0" r="1" gradientUnits="userSpaceOnUse" gradientTransform="translate(11.9085 9.53004) rotate(90) scale(2.38255 3.48947)">
<stop/>
<stop offset="0.917127" stop-opacity="0"/>
</radialGradient>
<radialGradient id="paint4_radial_691:2643" cx="0" cy="0" r="1" gradientUnits="userSpaceOnUse" gradientTransform="translate(6.56508 2.31726) rotate(90) scale(2.31726 6.56508)">
<stop/>
<stop offset="0.917127" stop-opacity="0"/>
</radialGradient>
</defs>
</svg>
