<svg width="210" height="38" viewBox="0 0 210 38" fill="none" xmlns="http://www.w3.org/2000/svg">
<rect width="210" height="38" fill="white"/>
<rect y="5.88867" width="5.94719" height="32.1114" fill="#5038BC"/>
<path d="M18.9566 -1.3226e-09L24.9038 5.88862L-5.93864e-05 5.88862L5.94713 -1.08208e-06L18.9566 -1.3226e-09Z" fill="#5038BC"/>
<path d="M5.11084 20.4263L8.08444 14.5377L24.9038 14.5377L18.9566 20.4263L5.11084 20.4263Z" fill="#5038BC"/>
<mask id="mask0" style="mask-type:alpha" maskUnits="userSpaceOnUse" x="0" y="5" width="6" height="25">
<rect opacity="0.45" y="5.88867" width="5.94719" height="23.5545" fill="#B9B9B9"/>
</mask>
<g mask="url(#mask0)">
<ellipse opacity="0.5" cx="5.15602" cy="5.90125" rx="6.57509" ry="3.74695" fill="url(#paint0_radial)"/>
<ellipse opacity="0.5" cx="8.64183" cy="20.4264" rx="6.13304" ry="4.04842" fill="url(#paint1_radial)"/>
</g>
<mask id="mask1" style="mask-type:alpha" maskUnits="userSpaceOnUse" x="5" y="0" width="14" height="6">
<rect opacity="0.45" x="18.957" width="5.88862" height="13.0095" transform="rotate(90 18.957 0)" fill="#5038BC"/>
</mask>
<g mask="url(#mask1)">
<ellipse opacity="0.5" cx="19.236" cy="4.87668" rx="5.79661" ry="3.80992" transform="rotate(90 19.236 4.87668)" fill="#5038BC"/>
</g>
<path d="M18.957 0L24.9042 5.88861V14.5375H18.957V0Z" fill="#5038BC"/>
<mask id="mask2" style="mask-type:alpha" maskUnits="userSpaceOnUse" x="18" y="6" width="7" height="9">
<rect opacity="0.45" x="24.9038" y="14.5376" width="5.94719" height="8.09684" transform="rotate(-180 24.9038 14.5376)" fill="#B9B9B9"/>
</mask>
<g mask="url(#mask2)">
<ellipse opacity="0.5" cx="19.9787" cy="15.0899" rx="5.85427" ry="3.77239" transform="rotate(-180 19.9787 15.0899)" fill="url(#paint2_radial)"/>
</g>
<mask id="mask3" style="mask-type:alpha" maskUnits="userSpaceOnUse" x="8" y="14" width="9" height="7">
<rect opacity="0.45" width="5.88862" height="8.17739" transform="matrix(-4.41462e-08 1 1 4.32809e-08 8.17773 14.5376)" fill="#B9B9B9"/>
</mask>
<g mask="url(#mask3)">
<ellipse opacity="0.7" rx="10.6383" ry="3.79461" transform="matrix(0.643482 0.765461 0.771689 -0.636 9.29335 19.2357)" fill="url(#paint3_radial)"/>
</g>
<path d="M5.11117 20.4261L8.08477 14.5375L24.8577 34.0895L20.3508 37.9539L5.11117 20.4261Z" fill="#5038BC"/>
<path d="M38.7785 8.89804C38.7785 9.75687 38.3092 10.2722 37.3081 10.2722H35.65V7.55514H37.3081C38.3092 7.55514 38.7785 8.08605 38.7785 8.89804ZM32.9752 5.33779V16.2996H35.65V12.1616H36.2914L38.5751 16.2996H41.5941L39.06 11.9586C40.7494 11.4589 41.5002 10.1629 41.5002 8.78873C41.5002 6.88369 40.155 5.33779 37.4645 5.33779H32.9752ZM43.1793 16.2996H45.8542V5.33779H43.1793V16.2996ZM55.7701 13.036C55.7701 9.36649 50.3423 10.2253 50.3423 8.32028C50.3423 7.63321 50.8272 7.3053 51.4685 7.32091C52.1881 7.33653 52.6886 7.75814 52.7355 8.46082H55.6293C55.5198 6.36839 53.9087 5.18164 51.5154 5.18164C49.216 5.18164 47.511 6.33716 47.511 8.41397C47.4797 12.3021 52.9702 11.2091 52.9702 13.239C52.9702 13.8793 52.4696 14.2696 51.6875 14.2696C50.9367 14.2696 50.4048 13.8636 50.3266 13.0204H47.4797C47.558 15.2378 49.4037 16.4089 51.7657 16.4089C54.331 16.4089 55.7701 14.8786 55.7701 13.036ZM56.8218 7.47706H59.7313V16.2996H62.4061V7.47706H65.3155V5.33779H56.8218V7.47706ZM73.3841 5.33779H66.658V16.2996H73.3841V14.1603H69.3328V11.7556H72.9149V9.69441H69.3328V7.47706H73.3841V5.33779ZM81.487 16.2996H84.7562L80.3451 10.7094L84.5998 5.33779H81.4557L77.7954 10.1472V5.33779H75.1206V16.2996H77.7954V11.4589L81.487 16.2996ZM89.3423 16.2996H92.0171V11.8649H95.3645V9.7881H92.0171V7.47706H96.4908V5.33779H89.3423V16.2996ZM105.389 16.2996H108.22L104.247 5.33779H101.15L97.177 16.2996H99.977L100.634 14.3633H104.732L105.389 16.2996ZM104.044 12.3021H101.338L102.683 8.28905L104.044 12.3021ZM117.407 13.036C117.407 9.36649 111.979 10.2253 111.979 8.32028C111.979 7.63321 112.464 7.3053 113.106 7.32091C113.825 7.33653 114.326 7.75814 114.373 8.46082H117.266C117.157 6.36839 115.546 5.18164 113.153 5.18164C110.853 5.18164 109.148 6.33716 109.148 8.41397C109.117 12.3021 114.607 11.2091 114.607 13.239C114.607 13.8793 114.107 14.2696 113.325 14.2696C112.574 14.2696 112.042 13.8636 111.964 13.0204H109.117C109.195 15.2378 111.041 16.4089 113.403 16.4089C115.968 16.4089 117.407 14.8786 117.407 13.036ZM119.053 16.2996H121.728V5.33779H119.053V16.2996ZM123.666 5.33779V16.2996H129.845V14.2384H126.341V5.33779H123.666ZM137.487 16.2996H140.756L136.345 10.7094L140.6 5.33779H137.456L133.795 10.1472V5.33779H131.121V16.2996H133.795V11.4589L137.487 16.2996ZM152.836 10.7875C152.836 7.49268 150.349 5.18164 147.221 5.18164C144.108 5.18164 141.574 7.49268 141.574 10.7875C141.574 14.0823 144.108 16.4089 147.221 16.4089C150.334 16.4089 152.836 14.0823 152.836 10.7875ZM144.311 10.7875C144.311 8.83558 145.438 7.60198 147.221 7.60198C148.973 7.60198 150.115 8.83558 150.115 10.7875C150.115 12.7081 148.973 13.973 147.221 13.973C145.438 13.973 144.311 12.7081 144.311 10.7875ZM154.325 16.2996H157V9.71003L159.471 16.2996H161.63L164.086 9.72564V16.2996H166.761V5.33779H163.617L160.566 12.9267L157.485 5.33779H154.325V16.2996ZM171.952 11.8805C171.952 14.9099 173.939 16.4089 176.488 16.4089C179.022 16.4089 181.15 14.9099 181.15 11.8805V5.33779H178.475V11.8961C178.475 13.1922 177.802 13.9417 176.535 13.9417C175.268 13.9417 174.627 13.1922 174.627 11.8961V5.33779H171.952V11.8805ZM183.028 16.2996H185.702V5.33779H183.028V16.2996Z" fill="#5038BC"/>
<path d="M38.9524 28.6988H36.7413L37.1422 26.8368H39.3533L38.9524 28.6988ZM38.187 32.2656H39.8028L40.2402 30.2102H42.1111V28.6988H40.5682L40.9691 26.8368H42.8522V25.3255H41.2971L41.7223 23.3184H40.1065L39.6813 25.3255H37.4703L37.8955 23.3184H36.2918L35.8666 25.3255H33.7163V26.8368H35.5386L35.1377 28.6988H32.9752V30.2102H34.8097L34.3723 32.2656H35.976L36.4133 30.2102H38.6244L38.187 32.2656ZM43.8571 28.0338C43.8571 30.5608 45.7159 32.3382 48.1578 32.3382C50.0408 32.3382 51.5716 31.3467 52.1426 29.6056H50.1866C49.7857 30.4278 49.0568 30.8268 48.1456 30.8268C46.6635 30.8268 45.6065 29.7386 45.6065 28.0338C45.6065 26.3169 46.6635 25.2408 48.1456 25.2408C49.0568 25.2408 49.7857 25.6398 50.1866 26.4499H52.1426C51.5716 24.7209 50.0408 23.7174 48.1578 23.7174C45.7159 23.7174 43.8571 25.5068 43.8571 28.0338ZM61.8686 28.0217C61.8686 25.4947 59.9491 23.7053 57.5315 23.7053C55.1382 23.7053 53.1823 25.4947 53.1823 28.0217C53.1823 30.5608 55.1382 32.3503 57.5315 32.3503C59.937 32.3503 61.8686 30.5608 61.8686 28.0217ZM54.9317 28.0217C54.9317 26.3048 55.9886 25.2287 57.5315 25.2287C59.0623 25.2287 60.1192 26.3048 60.1192 28.0217C60.1192 29.7386 59.0623 30.8389 57.5315 30.8389C55.9886 30.8389 54.9317 29.7386 54.9317 28.0217ZM63.1339 23.8262V32.2656H67.629V30.9235H64.8347V23.8262H63.1339ZM68.71 23.8262V32.2656H73.2051V30.9235H70.4108V23.8262H68.71ZM80.0446 32.2656H81.8427L78.7933 23.8141H76.8131L73.7637 32.2656H75.5496L76.1084 30.6575H79.4858L80.0446 32.2656ZM79.0241 29.3034H76.5701L77.7971 25.7728L79.0241 29.3034ZM87.7083 29.7749C87.7083 30.4883 87.2224 30.8873 86.3963 30.8873H84.6833V28.6142H86.3598C87.1859 28.6142 87.7083 29.0495 87.7083 29.7749ZM87.5018 26.2565C87.5018 26.9456 87.0402 27.3084 86.2383 27.3084H84.6833V25.1925H86.2383C87.0402 25.1925 87.5018 25.5794 87.5018 26.2565ZM89.4335 29.9805C89.4335 28.989 88.7531 28.1064 87.7934 27.9371C88.6195 27.6711 89.2391 27.0303 89.2391 26.0025C89.2391 24.7451 88.255 23.8262 86.4813 23.8262H82.9825V32.2656H86.6392C88.4008 32.2656 89.4335 31.3225 89.4335 29.9805ZM99.0623 28.0217C99.0623 25.4947 97.1428 23.7053 94.7252 23.7053C92.3319 23.7053 90.3759 25.4947 90.3759 28.0217C90.3759 30.5608 92.3319 32.3503 94.7252 32.3503C97.1307 32.3503 99.0623 30.5608 99.0623 28.0217ZM92.1254 28.0217C92.1254 26.3048 93.1823 25.2287 94.7252 25.2287C96.2559 25.2287 97.3129 26.3048 97.3129 28.0217C97.3129 29.7386 96.2559 30.8389 94.7252 30.8389C93.1823 30.8389 92.1254 29.7386 92.1254 28.0217ZM104.823 26.4499C104.823 27.2116 104.398 27.7074 103.45 27.7074H102.029V25.2287H103.45C104.398 25.2287 104.823 25.7003 104.823 26.4499ZM100.328 23.8262V32.2656H102.029V28.9769H102.83L104.701 32.2656H106.669L104.64 28.8439C106.001 28.4812 106.572 27.4414 106.572 26.4136C106.572 24.999 105.552 23.8262 103.511 23.8262H100.328ZM113.869 32.2656H115.667L112.618 23.8141H110.637L107.588 32.2656H109.374L109.933 30.6575H113.31L113.869 32.2656ZM112.848 29.3034H110.394L111.621 25.7728L112.848 29.3034ZM116.357 25.1925H118.617V32.2656H120.318V25.1925H122.578V23.8262H116.357V25.1925ZM123.818 32.2656H125.519V23.8262H123.818V32.2656ZM130.686 30.5366L128.353 23.8262H126.531L129.641 32.2656H131.706L134.817 23.8262H133.006L130.686 30.5366ZM140.757 23.8141H135.837V32.2656H140.757V30.8873H137.538V28.6505H140.393V27.3084H137.538V25.1925H140.757V23.8141ZM145.036 23.8383H142.4V32.2656H145.036C147.818 32.2656 149.531 30.6817 149.531 28.0701C149.531 25.4585 147.818 23.8383 145.036 23.8383ZM143.506 31.3588V24.733H145.036C147.247 24.733 148.401 26.0146 148.401 28.0701C148.401 30.1255 147.247 31.3588 145.036 31.3588H143.506ZM150.989 32.2656H152.095V23.8383H150.989V32.2656ZM159.483 29.9684C159.483 26.8489 154.915 28.2031 154.915 26.0267C154.915 25.1199 155.632 24.6484 156.543 24.6725C157.576 24.6846 158.11 25.3255 158.183 25.8937H159.398C159.264 24.6121 158.207 23.7295 156.591 23.7295C154.915 23.7295 153.785 24.6725 153.785 26.063C153.785 29.1945 158.365 27.7436 158.365 30.0167C158.365 30.8147 157.733 31.4193 156.664 31.4193C155.486 31.4193 154.988 30.718 154.915 30.0167H153.736C153.761 31.4072 154.964 32.3503 156.664 32.3503C158.499 32.3503 159.483 31.1654 159.483 29.9684ZM165.641 26.3169C165.641 27.26 165.094 27.9371 163.843 27.9371H162.215V24.7451H163.843C165.106 24.7451 165.641 25.3617 165.641 26.3169ZM161.109 23.8383V32.2656H162.215V28.8197H163.551L165.568 32.2656H166.892L164.766 28.7351C166.187 28.4207 166.783 27.393 166.783 26.3169C166.783 24.9385 165.835 23.8383 163.843 23.8383H161.109ZM168.476 29.1583C168.476 31.3467 169.91 32.3503 171.659 32.3503C173.409 32.3503 174.855 31.3467 174.855 29.1583V23.8383H173.749V29.1704C173.749 30.718 172.923 31.383 171.672 31.383C170.42 31.383 169.582 30.718 169.582 29.1704V23.8383H168.476V29.1583ZM177.804 27.8404V24.7451H179.432C180.695 24.7451 181.23 25.3255 181.23 26.3048C181.23 27.2479 180.695 27.8404 179.432 27.8404H177.804ZM182.36 26.3048C182.36 24.9265 181.424 23.8383 179.432 23.8383H176.699V32.2656H177.804V28.7472H179.432C181.534 28.7472 182.36 27.5865 182.36 26.3048ZM183.212 24.733H185.532V32.2656H186.638V24.733H188.946V23.8383H183.212V24.733ZM190.307 32.2656H191.412V23.8383H190.307V32.2656ZM201.387 28.0459C201.387 25.5189 199.529 23.7415 197.135 23.7415C194.754 23.7415 192.883 25.5189 192.883 28.0459C192.883 30.5729 194.754 32.3503 197.135 32.3503C199.529 32.3503 201.387 30.5729 201.387 28.0459ZM194.013 28.0459C194.013 25.9784 195.349 24.6967 197.135 24.6967C198.921 24.6967 200.258 25.9784 200.258 28.0459C200.258 30.1014 198.921 31.3951 197.135 31.3951C195.349 31.3951 194.013 30.1014 194.013 28.0459ZM208.399 23.8262V30.5245L203.953 23.8262H202.847V32.2656H203.953V25.5552L208.399 32.2656H209.505V23.8262H208.399Z" fill="#5038BC"/>
<defs>
<radialGradient id="paint0_radial" cx="0" cy="0" r="1" gradientUnits="userSpaceOnUse" gradientTransform="translate(5.15602 5.90125) rotate(90) scale(3.74695 6.57509)">
<stop/>
<stop offset="0.917127" stop-opacity="0"/>
</radialGradient>
<radialGradient id="paint1_radial" cx="0" cy="0" r="1" gradientUnits="userSpaceOnUse" gradientTransform="translate(8.64183 20.4264) rotate(90) scale(4.04842 6.13304)">
<stop/>
<stop offset="0.917127" stop-opacity="0"/>
</radialGradient>
<radialGradient id="paint2_radial" cx="0" cy="0" r="1" gradientUnits="userSpaceOnUse" gradientTransform="translate(19.9787 15.0899) rotate(90) scale(3.77239 5.85427)">
<stop/>
<stop offset="0.917127" stop-opacity="0"/>
</radialGradient>
<radialGradient id="paint3_radial" cx="0" cy="0" r="1" gradientUnits="userSpaceOnUse" gradientTransform="translate(10.6383 3.79461) rotate(90) scale(3.79461 10.6383)">
<stop/>
<stop offset="0.917127" stop-opacity="0"/>
</radialGradient>
</defs>
</svg>
