<svg width="36" height="37" viewBox="0 0 36 37" fill="none" xmlns="http://www.w3.org/2000/svg">
<circle cx="18" cy="18.4985" r="18" fill="#5038BC" fill-opacity="0.1"/>
<path d="M25.7143 13.0984H21.2143V11.7484C21.2143 11.3904 21.0788 11.047 20.8377 10.7938C20.5966 10.5407 20.2696 10.3984 19.9286 10.3984H16.0714C15.7304 10.3984 15.4034 10.5407 15.1623 10.7938C14.9212 11.047 14.7857 11.3904 14.7857 11.7484V13.0984H10.2857C9.94472 13.0984 9.6177 13.2407 9.37658 13.4938C9.13546 13.747 9 14.0904 9 14.4484V25.2484C9 25.6065 9.13546 25.9499 9.37658 26.203C9.6177 26.4562 9.94472 26.5984 10.2857 26.5984H25.7143C26.0553 26.5984 26.3823 26.4562 26.6234 26.203C26.8645 25.9499 27 25.6065 27 25.2484V14.4484C27 14.0904 26.8645 13.747 26.6234 13.4938C26.3823 13.2407 26.0553 13.0984 25.7143 13.0984ZM16.0714 11.7484H19.9286V13.0984H16.0714V11.7484ZM25.7143 14.4484V20.5234H10.2857V14.4484H25.7143ZM10.2857 25.2484V21.8734H25.7143V25.2484H10.2857Z" fill="#5038BC"/>
<path d="M17.3575 19.8483H18.6432C18.8137 19.8483 18.9772 19.7772 19.0977 19.6506C19.2183 19.524 19.286 19.3523 19.286 19.1733C19.286 18.9943 19.2183 18.8226 19.0977 18.696C18.9772 18.5694 18.8137 18.4983 18.6432 18.4983H17.3575C17.187 18.4983 17.0234 18.5694 16.9029 18.696C16.7823 18.8226 16.7146 18.9943 16.7146 19.1733C16.7146 19.3523 16.7823 19.524 16.9029 19.6506C17.0234 19.7772 17.187 19.8483 17.3575 19.8483Z" fill="#5038BC"/>
</svg>
