<svg width="36" height="37" viewBox="0 0 36 37" fill="none" xmlns="http://www.w3.org/2000/svg">
<circle cx="18" cy="18.4985" r="18" fill="#C424A3" fill-opacity="0.1"/>
<path d="M29.9672 17.3144L27.0426 10.7153C27.0233 10.6713 26.9957 10.6317 26.9613 10.5986C26.9269 10.5656 26.8864 10.5397 26.8422 10.5226C26.7979 10.5054 26.7508 10.4973 26.7035 10.4987C26.6561 10.5001 26.6095 10.5109 26.5664 10.5306L23.7378 11.8231C23.6946 11.8428 23.6556 11.8709 23.623 11.906C23.5905 11.941 23.5651 11.9822 23.5483 12.0273C23.5315 12.0723 23.5236 12.1203 23.5251 12.1684C23.5266 12.2166 23.5374 12.2639 23.557 12.3078L23.6444 12.5075C22.8685 12.7556 22.0457 12.8122 21.244 12.6726C20.7068 12.5817 20.1585 12.5817 19.6214 12.6726C19.1909 12.7439 18.7714 12.8719 18.3736 13.0535C18.1988 13.1422 18.017 13.231 17.8327 13.3464L16.2913 14.1143C16.0518 14.0659 15.8091 14.0362 15.5652 14.0255C14.7428 14.0007 13.9387 13.7738 13.2216 13.3642L13.3396 13.2008C13.3953 13.1219 13.418 13.0238 13.4026 12.9279C13.3872 12.832 13.335 12.7463 13.2574 12.6895L10.7348 10.8449C10.657 10.7882 10.5602 10.7651 10.4657 10.7807C10.3712 10.7964 10.2866 10.8494 10.2306 10.9283L6.06777 16.8022C6.01199 16.8811 5.98931 16.9793 6.00471 17.0751C6.02011 17.171 6.07233 17.2567 6.14991 17.3135L8.66821 19.1573C8.70657 19.1855 8.75004 19.2057 8.79611 19.2169C8.84219 19.228 8.88998 19.2298 8.93673 19.2221C8.98349 19.2144 9.02829 19.1975 9.06858 19.1722C9.10887 19.1469 9.14385 19.1138 9.17152 19.0747L9.29211 18.9043C9.89994 19.4662 10.3659 20.1682 10.6509 20.9513C10.6745 21.0152 10.7007 21.0782 10.7278 21.1413L10.3311 21.7005C10.2048 21.8761 10.1264 22.0824 10.1038 22.2986C10.0811 22.5148 10.1149 22.7333 10.2018 22.932C10.2888 23.1307 10.4257 23.3026 10.5989 23.4303C10.7721 23.5581 10.9754 23.6372 11.1883 23.6597C11.1887 23.723 11.194 23.7862 11.204 23.8488C11.2504 24.1401 11.3969 24.4053 11.6175 24.5974C11.8381 24.7894 12.1185 24.8959 12.409 24.898C12.4428 24.898 12.4767 24.8962 12.5103 24.8927C12.5773 25.1604 12.7298 25.3981 12.9439 25.5685C13.1579 25.7389 13.4215 25.8325 13.6935 25.8345C13.8223 25.8338 13.9502 25.8129 14.0727 25.7724C14.1709 25.9873 14.3272 26.1694 14.5234 26.2974C14.7195 26.4255 14.9475 26.4943 15.1807 26.4959C15.2487 26.4958 15.3165 26.4896 15.3834 26.4772C15.5428 26.4527 15.6956 26.3959 15.8328 26.31C15.9701 26.2241 16.0888 26.111 16.1821 25.9775L16.4241 25.6366L17.5959 26.321C17.7986 26.437 18.0273 26.4982 18.26 26.4985C18.4421 26.4978 18.6222 26.4592 18.7892 26.3852C18.9561 26.3111 19.1064 26.2032 19.2308 26.068C19.3686 25.9092 19.4659 25.7183 19.5139 25.5123C19.756 25.5903 20.0128 25.6095 20.2636 25.5682C20.4683 25.5348 20.6645 25.4605 20.8408 25.3498C21.0172 25.239 21.1702 25.0939 21.2912 24.9229C21.4517 24.6945 21.5513 24.4278 21.5804 24.1488C21.5937 24.0262 21.5916 23.9024 21.5743 23.7804C21.7905 23.7712 22.0024 23.7159 22.1961 23.618C22.3899 23.5201 22.5612 23.3819 22.6989 23.2123C22.9347 22.9248 23.0631 22.5621 23.0615 22.1879C23.1518 22.1879 23.242 22.1817 23.3315 22.1692C23.4973 22.1424 23.6562 22.0821 23.7987 21.992C23.9413 21.9019 24.0647 21.7838 24.1616 21.6446C24.3278 21.4066 24.4315 21.1295 24.4631 20.8395C24.4631 20.8173 24.4631 20.7951 24.4631 20.7738C24.54 20.6681 24.6151 20.5572 24.6868 20.4462C25.114 19.7443 25.7007 19.1568 26.3977 18.7329L26.4746 18.9105C26.5139 18.9991 26.5862 19.0683 26.6757 19.1027C26.7652 19.1372 26.8644 19.1341 26.9517 19.0942L29.7846 17.8026C29.8284 17.7831 29.8679 17.7548 29.9008 17.7196C29.9338 17.6843 29.9595 17.6428 29.9765 17.5974C29.9935 17.5519 30.0014 17.5035 29.9998 17.4549C29.9982 17.4064 29.9871 17.3586 29.9672 17.3144ZM10.6448 11.848L12.353 13.097L8.8622 18.0175L8.77482 18.148L7.06129 16.899L10.6448 11.848ZM11.0319 22.2127L11.1551 22.0414L11.6033 21.42C11.6334 21.3779 11.6719 21.3427 11.7164 21.3168C11.7609 21.291 11.8102 21.2751 11.8612 21.2701C11.9122 21.2652 11.9637 21.2713 12.0122 21.2881C12.0607 21.3049 12.1051 21.332 12.1425 21.3676C12.1812 21.4068 12.2108 21.4541 12.2292 21.5063C12.2477 21.5585 12.2545 21.6143 12.2491 21.6695C12.2432 21.7313 12.2219 21.7906 12.187 21.8417L11.6059 22.661C11.548 22.7349 11.4645 22.7833 11.3724 22.7963C11.2804 22.8094 11.187 22.7861 11.1114 22.7311C11.0343 22.6722 10.9829 22.5851 10.968 22.4883C10.9532 22.3915 10.9761 22.2927 11.0319 22.2127ZM12.2036 23.9553C12.1254 23.899 12.0722 23.8135 12.0558 23.7175C12.0395 23.6215 12.0612 23.5228 12.1162 23.4431L12.8852 22.3583H12.8904L13.3885 21.6588C13.4155 21.6192 13.4501 21.5856 13.4902 21.5598C13.5303 21.534 13.575 21.5167 13.6218 21.5088C13.6688 21.4999 13.7171 21.5009 13.7637 21.5118C13.8103 21.5226 13.8542 21.543 13.8927 21.5718C13.9374 21.6048 13.9741 21.6479 13.9998 21.6976C14.0256 21.7473 14.0398 21.8024 14.0412 21.8585C14.0412 21.8727 14.0412 21.8878 14.0412 21.9029C14.0355 21.9528 14.0194 22.0009 13.9941 22.0441C13.9871 22.0538 13.9801 22.0618 13.9731 22.0707L12.7034 23.8612C12.6973 23.8701 12.6921 23.8789 12.6868 23.8878C12.6293 23.96 12.5468 24.0072 12.4562 24.0197C12.3656 24.0322 12.2737 24.0092 12.1993 23.9553H12.2036ZM13.4951 24.8918C13.4544 24.8652 13.4195 24.8304 13.3928 24.7894C13.366 24.7485 13.3479 24.7023 13.3396 24.6539C13.3246 24.5688 13.3408 24.481 13.385 24.4071C13.392 24.3982 13.3999 24.3894 13.4069 24.3796L14.6765 22.5935C14.6875 22.5778 14.6998 22.5629 14.7132 22.5492C14.7271 22.5364 14.742 22.5248 14.7578 22.5145C14.7656 22.509 14.7738 22.504 14.7822 22.4995C14.7943 22.4921 14.8068 22.4855 14.8198 22.4799L14.8329 22.4746C14.8542 22.4665 14.8761 22.4603 14.8984 22.456C14.9209 22.452 14.9438 22.4503 14.9666 22.4506H14.978C15.0269 22.4531 15.0748 22.4657 15.1187 22.4877C15.1626 22.5098 15.2016 22.5407 15.2333 22.5786C15.265 22.6166 15.2887 22.6607 15.303 22.7083C15.3172 22.7559 15.3217 22.806 15.3161 22.8554C15.3095 22.9197 15.2859 22.9811 15.248 23.033L14.7988 23.6641C14.7822 23.6845 14.7656 23.7041 14.7499 23.7254L14.1845 24.5243C14.1615 24.5565 14.1402 24.59 14.1208 24.6246L13.9879 24.811C13.9315 24.8873 13.8481 24.9383 13.7554 24.9534C13.6627 24.9684 13.5678 24.9464 13.4907 24.8918H13.4951ZM15.2523 25.6162C15.1818 25.6282 15.1094 25.6187 15.0441 25.589C14.9788 25.5592 14.9237 25.5106 14.8856 25.4491C14.8475 25.3876 14.8281 25.3161 14.83 25.2435C14.8318 25.1708 14.8547 25.1004 14.8958 25.0409L15.4612 24.242C15.5173 24.1632 15.6012 24.1095 15.6953 24.092C15.7178 24.088 15.7407 24.0862 15.7635 24.0867H15.781C15.7965 24.0876 15.812 24.0893 15.8273 24.092L15.8456 24.0964C15.8885 24.1082 15.929 24.1274 15.9654 24.1532C16.0169 24.1912 16.0576 24.2423 16.0836 24.3014C16.1095 24.3604 16.1196 24.4254 16.113 24.4897C16.1059 24.5537 16.0828 24.6149 16.0457 24.6672L15.7687 25.0605L15.4856 25.4608C15.4586 25.5018 15.4235 25.5368 15.3826 25.5635C15.3418 25.5902 15.2959 25.6081 15.248 25.6162H15.2523ZM23.5928 20.7516C23.5805 20.8892 23.5316 21.0209 23.4512 21.1324C23.3856 21.2214 23.2891 21.2817 23.1812 21.3011C23.1277 21.3104 23.0728 21.3086 23.0199 21.2958C22.9671 21.283 22.9173 21.2594 22.8737 21.2265L22.4525 20.9194C22.435 20.9006 22.416 20.8834 22.3957 20.8679L21.4555 20.1808C21.3625 20.1206 21.2505 20.0988 21.1423 20.1199C21.034 20.141 20.9378 20.2033 20.8734 20.2941C20.8089 20.3849 20.7811 20.4973 20.7956 20.6082C20.81 20.7192 20.8658 20.8204 20.9513 20.8909L21.8906 21.5771L21.8863 21.5842C21.967 21.6418 22.0349 21.716 22.0856 21.8019C22.1363 21.8879 22.1687 21.9837 22.1807 22.0831C22.1935 22.1831 22.1859 22.2846 22.1583 22.3814C22.1308 22.4782 22.084 22.5683 22.0208 22.6459C21.8958 22.7874 21.7233 22.8766 21.5371 22.8962C21.3509 22.9157 21.1642 22.8641 21.0133 22.7516L20.9871 22.732C20.9673 22.7092 20.945 22.6886 20.9207 22.6708L19.7594 21.8213C19.6665 21.7611 19.5544 21.7393 19.4462 21.7604C19.338 21.7814 19.2418 21.8437 19.1773 21.9345C19.1129 22.0253 19.085 22.1377 19.0995 22.2487C19.114 22.3597 19.1697 22.4608 19.2552 22.5314L20.4174 23.3836L20.4244 23.3907C20.5243 23.4679 20.6032 23.5698 20.6536 23.6865C20.7041 23.8033 20.7244 23.9313 20.7127 24.0583C20.7005 24.1854 20.6552 24.307 20.5817 24.4107C20.5082 24.5143 20.4089 24.5964 20.294 24.6484C20.1791 24.7004 20.0527 24.7206 19.9277 24.707C19.8026 24.6933 19.6834 24.6462 19.582 24.5705L19.0167 24.1523L17.9166 23.3463C17.8709 23.3087 17.8182 23.2809 17.7617 23.2647C17.7051 23.2484 17.6459 23.2441 17.5876 23.252C17.5294 23.2598 17.4733 23.2797 17.4229 23.3103C17.3724 23.3409 17.3287 23.3817 17.2943 23.4302C17.2599 23.4786 17.2356 23.5336 17.2229 23.5919C17.2102 23.6502 17.2094 23.7105 17.2204 23.7692C17.2315 23.8278 17.2542 23.8835 17.2872 23.9329C17.3202 23.9824 17.3628 24.0244 17.4124 24.0565L18.5125 24.8616C18.5588 24.8961 18.5975 24.9401 18.6261 24.9907C18.6547 25.0413 18.6726 25.0974 18.6785 25.1554C18.6875 25.2146 18.6834 25.2751 18.6663 25.3324C18.6492 25.3897 18.6196 25.4424 18.5798 25.4866C18.5102 25.56 18.4178 25.607 18.3182 25.6194C18.2186 25.6319 18.1178 25.6091 18.0328 25.5549L16.9021 24.8936C16.9185 24.85 16.9316 24.8052 16.9414 24.7595C16.9566 24.6987 16.9683 24.6371 16.9763 24.5749C17.0047 24.2871 16.9337 23.9983 16.7756 23.7579C16.6175 23.5174 16.382 23.3402 16.1095 23.2567C16.1498 23.1505 16.1765 23.0395 16.189 22.9264C16.2097 22.7089 16.1741 22.4897 16.0859 22.2904C15.9976 22.0912 15.8597 21.9187 15.6857 21.7902C15.4501 21.6184 15.1621 21.5372 14.8731 21.5612C14.7988 21.2589 14.6156 20.996 14.3595 20.8245C14.1035 20.6531 13.7935 20.5855 13.4907 20.6353C13.275 20.6679 13.0722 20.76 12.9044 20.9016L12.8948 20.9096C12.8163 20.7948 12.7187 20.6947 12.6065 20.614C12.4768 20.5178 12.3296 20.4488 12.1734 20.4112C12.0172 20.3735 11.8552 20.3679 11.6968 20.3947C11.5874 20.4141 11.4811 20.4482 11.3805 20.4959C11.0318 19.6177 10.4868 18.8339 9.78843 18.2065L12.7069 14.0903C13.2956 14.4441 13.9425 14.6868 14.6162 14.8067L14.2475 18.4968C14.2336 18.6285 14.2454 18.7616 14.2824 18.8886C14.3194 19.0155 14.3808 19.1338 14.463 19.2365C14.5452 19.3393 14.6466 19.4245 14.7614 19.4872C14.8762 19.5499 15.0021 19.5889 15.1317 19.602C15.5066 19.6436 15.885 19.5687 16.217 19.3872C16.3313 19.3264 16.4393 19.2541 16.5394 19.1715C16.7362 19.0128 16.8995 18.8154 17.0196 18.5912C17.1397 18.3671 17.2141 18.1206 17.2385 17.8666L17.3364 16.9043C17.7695 16.8844 18.1932 16.7699 18.5789 16.5687C18.6331 16.5412 18.6864 16.511 18.7388 16.48L23.2922 20.0512C23.3228 20.076 23.3481 20.0947 23.3604 20.1071L23.3665 20.1133C23.3726 20.1195 23.3848 20.1257 23.3909 20.1382L23.4032 20.1506C23.4093 20.1506 23.4093 20.1568 23.4154 20.163L23.4276 20.1755L23.446 20.1941L23.4643 20.219C23.4705 20.2252 23.4766 20.2385 23.4827 20.2447C23.4971 20.2662 23.5094 20.2891 23.5194 20.3131L23.5255 20.3255C23.5325 20.3379 23.5325 20.3441 23.5386 20.3566C23.5447 20.369 23.5447 20.3814 23.5509 20.3938C23.557 20.4063 23.557 20.4196 23.5631 20.432L23.5753 20.4693C23.5838 20.4983 23.59 20.528 23.5937 20.5581V20.5705C23.5992 20.5846 23.6013 20.5998 23.5998 20.6149V20.6522C23.6031 20.6857 23.5992 20.7196 23.5884 20.7516H23.5928ZM26.0447 17.9296C25.2991 18.3681 24.6565 18.9664 24.1616 19.6828V19.6775C24.1494 19.6588 24.1311 19.6402 24.1188 19.6215C24.1066 19.6029 24.076 19.5718 24.0507 19.547L23.9895 19.4839C23.943 19.4374 23.8936 19.3938 23.8418 19.3535L18.7738 15.3819L18.5116 15.5816C18.0781 15.9164 17.5354 16.0706 16.9938 16.013L16.563 15.9687L16.3883 17.7733C16.3582 18.054 16.2215 18.3117 16.0073 18.4915C15.7914 18.6687 15.5152 18.7516 15.2392 18.7223C15.2222 18.7211 15.2055 18.7164 15.1903 18.7085C15.1751 18.7006 15.1616 18.6896 15.1506 18.6762C15.1397 18.6629 15.1315 18.6474 15.1266 18.6308C15.1217 18.6141 15.1202 18.5966 15.1221 18.5794L15.4297 15.5133L17.6361 14.4205H17.6177L18.2294 14.1125L18.267 14.0938C18.418 14.0023 18.5738 13.919 18.7336 13.8444C19.0615 13.6897 19.4092 13.5824 19.7664 13.5257C20.212 13.4511 20.6665 13.4511 21.1121 13.5257C22.0762 13.6966 23.0671 13.6216 23.9956 13.3073L24.3984 14.2163L26.0447 17.9296ZM27.0583 18.0858L24.5444 12.4099L26.4667 11.5364L28.9807 17.2114L27.0583 18.0858Z" fill="#C424A3"/>
</svg>
