<svg width="375" height="72" viewBox="0 0 375 72" fill="none" xmlns="http://www.w3.org/2000/svg">
<rect width="375" height="75" transform="translate(0 -3)" fill="white"/>
<g clip-path="url(#clip0)">
<path d="M75 72L0 -3L-3.27836e-06 72L75 72Z" fill="#5038BC"/>
<path d="M7.62939e-06 72L75 -3.00001L1.41861e-05 -3.00001L7.62939e-06 72Z" fill="#64E6FB"/>
</g>
<g clip-path="url(#clip1)">
<circle cx="112.5" cy="34.5" r="27.5" transform="rotate(90 112.5 34.5)" stroke="#C424A3" stroke-width="20"/>
</g>
<rect width="75" height="75" transform="translate(150 -3)" fill="#FFD668"/>
<rect x="150" y="34.5" width="75" height="37.5" fill="#5038BC"/>
<rect width="75" height="75" transform="translate(225 -3)" fill="#C424A3"/>
<circle cx="262.78" cy="34.2201" r="25.4664" transform="rotate(-90 262.78 34.2201)" fill="#FFD668"/>
<g clip-path="url(#clip2)">
<path d="M300 -3.00001L375 72L375 -3.00001L300 -3.00001Z" fill="#5038BC"/>
<circle cx="337.78" cy="34.7799" r="25.4664" fill="#64E6FB"/>
</g>
<defs>
<clipPath id="clip0">
<rect width="75" height="75" fill="white" transform="translate(0 72) rotate(-90)"/>
</clipPath>
<clipPath id="clip1">
<rect width="75" height="75" fill="white" transform="translate(150 -3) rotate(90)"/>
</clipPath>
<clipPath id="clip2">
<rect width="75" height="75" fill="white" transform="translate(375 -3) rotate(90)"/>
</clipPath>
</defs>
</svg>
