<svg width="10" height="10" viewBox="0 0 10 10" fill="none" xmlns="http://www.w3.org/2000/svg">
<g clip-path="url(#clip0_184_2069)">
<path d="M7.39965 5.7461C7.38017 5.73675 6.65114 5.37776 6.52159 5.33113C6.46871 5.31214 6.41205 5.2936 6.35179 5.2936C6.25335 5.2936 6.17065 5.34266 6.10624 5.43902C6.03341 5.54727 5.81296 5.80496 5.74484 5.88194C5.73595 5.89211 5.7238 5.90425 5.71653 5.90425C5.71 5.90425 5.59718 5.85779 5.56302 5.84295C4.78098 5.50324 4.18737 4.68633 4.10598 4.54857C4.09435 4.52876 4.09387 4.51977 4.09377 4.51977C4.09663 4.50928 4.12293 4.48292 4.1365 4.46931C4.17621 4.43003 4.21922 4.37824 4.26085 4.32815C4.28056 4.30441 4.3003 4.28065 4.31968 4.25824C4.38007 4.18798 4.40695 4.13344 4.43812 4.07026L4.45445 4.03743C4.53056 3.88623 4.46556 3.75863 4.44455 3.71743C4.42731 3.68295 4.11948 2.94003 4.08676 2.86198C4.00806 2.67363 3.90406 2.58594 3.75955 2.58594C3.74614 2.58594 3.75955 2.58594 3.70332 2.58831C3.63484 2.5912 3.26195 2.64029 3.09708 2.74422C2.92224 2.85444 2.62646 3.20581 2.62646 3.82373C2.62646 4.37987 2.97939 4.90496 3.13091 5.10467C3.13468 5.1097 3.14159 5.11993 3.15163 5.13461C3.73192 5.98207 4.45533 6.61013 5.18867 6.90308C5.89468 7.18509 6.229 7.21769 6.41906 7.21769H6.41909C6.49897 7.21769 6.56289 7.21142 6.61929 7.20587L6.65507 7.20246C6.89896 7.18084 7.43494 6.90311 7.55685 6.56431C7.65289 6.29746 7.67822 6.0059 7.61432 5.90009C7.57056 5.82815 7.49513 5.79194 7.39965 5.7461Z" fill="#5038BC"/>
<path d="M5.08876 0C2.38045 0 0.17707 2.18682 0.17707 4.87477C0.17707 5.74416 0.409733 6.59516 0.850479 7.33997L0.00687558 9.82844C-0.00883871 9.87484 0.0028496 9.92614 0.0371678 9.96107C0.0619405 9.98636 0.0955444 10 0.129863 10C0.143012 10 0.156259 9.99802 0.169181 9.9939L2.76399 9.16935C3.47405 9.54873 4.27658 9.74899 5.08879 9.74899C7.79684 9.74903 9.99999 7.56244 9.99999 4.87477C9.99999 2.18682 7.79684 0 5.08876 0ZM5.08876 8.73357C4.3245 8.73357 3.58428 8.51289 2.94798 8.09536C2.92658 8.0813 2.90175 8.07409 2.87675 8.07409C2.86353 8.07409 2.85028 8.0761 2.83739 8.08019L1.53756 8.49338L1.95717 7.25542C1.97074 7.21536 1.96395 7.17117 1.93895 7.13701C1.45441 6.47494 1.19827 5.6927 1.19827 4.87477C1.19827 2.74675 2.94353 1.01545 5.08873 1.01545C7.23366 1.01545 8.97873 2.74675 8.97873 4.87477C8.97876 7.00253 7.23373 8.73357 5.08876 8.73357Z" fill="#5038BC"/>
</g>
<defs>
<clipPath id="clip0_184_2069">
<rect width="10" height="10" fill="white"/>
</clipPath>
</defs>
</svg>
