<svg width="309" height="181" viewBox="0 0 309 181" fill="none" xmlns="http://www.w3.org/2000/svg">
<g filter="url(#filter0_d_374_3044)">
<rect x="7" y="7" width="295" height="166.915" rx="10.583" fill="#5038BC"/>
<circle cx="251.81" cy="57.308" r="23.81" fill="#64E6FB" fill-opacity="0.5"/>
<path d="M267.64 55.7415L263.771 47.0123C263.746 46.9542 263.709 46.9017 263.664 46.858C263.618 46.8143 263.565 46.7801 263.506 46.7574C263.448 46.7347 263.385 46.724 263.323 46.7258C263.26 46.7276 263.198 46.742 263.141 46.768L259.4 48.4777C259.343 48.5037 259.291 48.541 259.248 48.5873C259.205 48.6337 259.171 48.6882 259.149 48.7478C259.127 48.8073 259.116 48.8708 259.118 48.9345C259.12 48.9981 259.135 49.0608 259.16 49.1188L259.276 49.383C258.25 49.7112 257.161 49.786 256.101 49.6014C255.39 49.4811 254.665 49.4811 253.955 49.6014C253.385 49.6957 252.83 49.8651 252.304 50.1052C252.073 50.2226 251.832 50.34 251.589 50.4927L249.55 51.5084C249.233 51.4444 248.912 51.4052 248.589 51.391C247.501 51.3581 246.438 51.058 245.489 50.5162L245.645 50.3001C245.719 50.1957 245.749 50.0659 245.729 49.9391C245.708 49.8123 245.639 49.6989 245.536 49.6237L242.2 47.1837C242.097 47.1087 241.969 47.0782 241.844 47.0989C241.719 47.1196 241.607 47.1898 241.533 47.2941L236.026 55.0639C235.952 55.1683 235.922 55.2981 235.943 55.425C235.963 55.5518 236.032 55.6652 236.135 55.7403L239.466 58.1792C239.517 58.2165 239.574 58.2433 239.635 58.258C239.696 58.2727 239.759 58.2751 239.821 58.2649C239.883 58.2548 239.942 58.2323 239.996 58.1989C240.049 58.1654 240.095 58.1216 240.132 58.07L240.291 57.8445C241.095 58.5878 241.712 59.5164 242.089 60.5523C242.12 60.6368 242.154 60.7202 242.19 60.8036L241.666 61.5433C241.499 61.7756 241.395 62.0485 241.365 62.3345C241.335 62.6205 241.38 62.9095 241.495 63.1723C241.61 63.4351 241.791 63.6625 242.02 63.8315C242.249 64.0005 242.518 64.1051 242.799 64.1348C242.8 64.2186 242.807 64.3023 242.82 64.385C242.882 64.7703 243.075 65.1211 243.367 65.3752C243.659 65.6293 244.03 65.7702 244.414 65.7729C244.459 65.7729 244.504 65.7705 244.548 65.7659C244.637 66.12 244.839 66.4344 245.122 66.6598C245.405 66.8852 245.754 67.009 246.113 67.0117C246.284 67.0108 246.453 66.9831 246.615 66.9295C246.745 67.2137 246.952 67.4546 247.211 67.624C247.471 67.7935 247.772 67.8845 248.081 67.8865C248.17 67.8865 248.26 67.8782 248.349 67.8618C248.559 67.8295 248.762 67.7542 248.943 67.6406C249.125 67.527 249.282 67.3774 249.405 67.2008L249.725 66.7499L251.275 67.6552C251.543 67.8087 251.846 67.8896 252.154 67.89C252.395 67.8891 252.633 67.838 252.854 67.7401C253.075 67.6422 253.273 67.4994 253.438 67.3205C253.62 67.1105 253.749 66.858 253.812 66.5855C254.133 66.6887 254.472 66.714 254.804 66.6594C255.075 66.6152 255.334 66.517 255.568 66.3705C255.801 66.224 256.003 66.0321 256.163 65.8058C256.376 65.5037 256.507 65.1509 256.546 64.7818C256.564 64.6197 256.561 64.456 256.538 64.2945C256.824 64.2824 257.104 64.2092 257.36 64.0797C257.617 63.9502 257.843 63.7674 258.025 63.543C258.337 63.1628 258.507 62.6829 258.505 62.188C258.625 62.188 258.744 62.1798 258.862 62.1633C259.082 62.1278 259.292 62.0481 259.48 61.9289C259.669 61.8098 259.832 61.6535 259.96 61.4694C260.18 61.1545 260.317 60.788 260.359 60.4043C260.359 60.375 260.359 60.3456 260.359 60.3174C260.461 60.1777 260.56 60.0309 260.655 59.8841C261.22 58.9557 261.996 58.1786 262.918 57.6179L263.02 57.8527C263.072 57.97 263.168 58.0614 263.286 58.107C263.404 58.1526 263.536 58.1486 263.651 58.0958L267.398 56.3873C267.456 56.3614 267.508 56.324 267.552 56.2774C267.596 56.2308 267.63 56.1758 267.652 56.1157C267.675 56.0556 267.685 55.9916 267.683 55.9274C267.681 55.8631 267.666 55.7999 267.64 55.7415ZM242.081 48.5106L244.34 50.1627L239.723 56.6715L239.607 56.8441L237.34 55.1919L242.081 48.5106ZM242.593 62.2209L242.756 61.9942L243.348 61.1723C243.388 61.1165 243.439 61.07 243.498 61.0358C243.557 61.0016 243.622 60.9805 243.69 60.974C243.757 60.9674 243.825 60.9755 243.889 60.9978C243.953 61.02 244.012 61.0559 244.062 61.103C244.113 61.1547 244.152 61.2174 244.176 61.2865C244.201 61.3555 244.21 61.4292 244.203 61.5022C244.195 61.584 244.167 61.6625 244.121 61.73L243.352 62.8138C243.275 62.9115 243.165 62.9756 243.043 62.9929C242.921 63.0101 242.798 62.9792 242.698 62.9066C242.596 62.8287 242.528 62.7135 242.508 62.5854C242.488 62.4574 242.519 62.3266 242.593 62.2209ZM244.143 64.5259C244.039 64.4514 243.969 64.3383 243.947 64.2113C243.925 64.0844 243.954 63.9538 244.027 63.8483L245.044 62.4134H245.051L245.71 61.4881C245.746 61.4358 245.791 61.3913 245.844 61.3572C245.897 61.3231 245.957 61.3001 246.018 61.2897C246.081 61.278 246.145 61.2793 246.206 61.2937C246.268 61.308 246.326 61.335 246.377 61.3731C246.436 61.4168 246.484 61.4737 246.519 61.5395C246.553 61.6052 246.571 61.6781 246.573 61.7523C246.573 61.7711 246.573 61.7911 246.573 61.8111C246.566 61.8771 246.544 61.9407 246.511 61.9978C246.502 62.0107 246.492 62.0212 246.483 62.033L244.804 64.4014C244.796 64.4131 244.789 64.4249 244.782 64.4366C244.706 64.5321 244.596 64.5945 244.477 64.6111C244.357 64.6277 244.235 64.5972 244.137 64.5259H244.143ZM245.851 65.7647C245.797 65.7295 245.751 65.6834 245.715 65.6293C245.68 65.5751 245.656 65.5141 245.645 65.45C245.625 65.3374 245.647 65.2213 245.705 65.1236C245.714 65.1118 245.725 65.1001 245.734 65.0871L247.414 62.7246C247.428 62.7038 247.444 62.6841 247.462 62.6659C247.48 62.649 247.5 62.6337 247.521 62.6201C247.531 62.6128 247.542 62.6061 247.553 62.6001C247.569 62.5904 247.586 62.5817 247.603 62.5743L247.62 62.5673C247.649 62.5566 247.678 62.5483 247.707 62.5426C247.737 62.5374 247.767 62.5351 247.797 62.5356H247.812C247.877 62.5388 247.94 62.5555 247.999 62.5847C248.057 62.6138 248.108 62.6547 248.15 62.7049C248.192 62.7551 248.223 62.8134 248.242 62.8764C248.261 62.9394 248.267 63.0056 248.26 63.071C248.251 63.1561 248.22 63.2372 248.17 63.3058L247.575 64.1407C247.553 64.1677 247.531 64.1936 247.511 64.2217L246.763 65.2785C246.732 65.3212 246.704 65.3654 246.678 65.4112L246.503 65.6578C246.428 65.7587 246.318 65.8262 246.195 65.8461C246.073 65.866 245.947 65.8368 245.845 65.7647H245.851ZM248.175 66.7228C248.082 66.7387 247.986 66.7262 247.9 66.6869C247.814 66.6476 247.741 66.5832 247.69 66.5019C247.64 66.4206 247.614 66.3259 247.617 66.2298C247.619 66.1338 247.649 66.0406 247.704 65.9619L248.452 64.9051C248.526 64.8009 248.637 64.7298 248.761 64.7067C248.791 64.7014 248.821 64.6991 248.851 64.6997H248.875C248.895 64.7008 248.916 64.7032 248.936 64.7067L248.96 64.7126C249.017 64.7281 249.07 64.7535 249.118 64.7877C249.187 64.838 249.241 64.9055 249.275 64.9837C249.309 65.0618 249.323 65.1477 249.314 65.2328C249.304 65.3175 249.274 65.3983 249.225 65.4676L248.858 65.9878L248.484 66.5174C248.448 66.5716 248.402 66.6178 248.348 66.6532C248.294 66.6885 248.233 66.7122 248.17 66.7228H248.175ZM259.208 60.2881C259.192 60.4701 259.127 60.6443 259.021 60.7918C258.934 60.9096 258.806 60.9894 258.663 61.0149C258.593 61.0273 258.52 61.0249 258.45 61.008C258.38 60.991 258.314 60.9598 258.257 60.9163L257.699 60.51C257.676 60.4852 257.651 60.4624 257.624 60.4419L256.381 59.5331C256.258 59.4535 256.11 59.4246 255.966 59.4525C255.823 59.4804 255.696 59.5628 255.611 59.6829C255.525 59.803 255.489 59.9517 255.508 60.0985C255.527 60.2453 255.601 60.3791 255.714 60.4724L256.956 61.3801L256.951 61.3895C257.057 61.4657 257.147 61.5638 257.214 61.6775C257.281 61.7912 257.324 61.9179 257.34 62.0494C257.357 62.1816 257.347 62.3159 257.31 62.444C257.274 62.5721 257.212 62.6912 257.129 62.7939C256.963 62.9811 256.735 63.0991 256.489 63.1249C256.242 63.1507 255.995 63.0825 255.796 62.9336L255.761 62.9078C255.735 62.8775 255.705 62.8503 255.673 62.8268L254.137 61.703C254.014 61.6234 253.866 61.5946 253.723 61.6225C253.58 61.6503 253.452 61.7328 253.367 61.8529C253.282 61.973 253.245 62.1216 253.264 62.2684C253.283 62.4152 253.357 62.549 253.47 62.6424L255.008 63.7697L255.017 63.7791C255.149 63.8812 255.253 64.0159 255.32 64.1704C255.387 64.3249 255.414 64.4941 255.398 64.6621C255.382 64.8303 255.322 64.9911 255.225 65.1283C255.128 65.2654 254.996 65.3739 254.844 65.4427C254.692 65.5116 254.525 65.5383 254.36 65.5202C254.194 65.5021 254.037 65.4398 253.903 65.3396L253.155 64.7865L251.699 63.7203C251.639 63.6705 251.569 63.6338 251.495 63.6123C251.42 63.5909 251.341 63.5851 251.264 63.5955C251.187 63.6059 251.113 63.6322 251.046 63.6727C250.98 63.7132 250.922 63.7672 250.876 63.8312C250.831 63.8953 250.799 63.9681 250.782 64.0452C250.765 64.1223 250.764 64.2021 250.779 64.2797C250.793 64.3573 250.823 64.431 250.867 64.4963C250.911 64.5617 250.967 64.6173 251.033 64.6597L252.488 65.7248C252.549 65.7704 252.6 65.8285 252.638 65.8955C252.676 65.9624 252.7 66.0367 252.707 66.1134C252.719 66.1917 252.714 66.2717 252.691 66.3475C252.669 66.4233 252.629 66.493 252.577 66.5514C252.485 66.6486 252.363 66.7107 252.231 66.7271C252.099 66.7436 251.966 66.7135 251.853 66.6418L250.358 65.767C250.379 65.7093 250.397 65.6501 250.41 65.5897C250.43 65.5093 250.445 65.4278 250.456 65.3455C250.493 64.9649 250.399 64.5828 250.19 64.2647C249.981 63.9467 249.67 63.7123 249.309 63.6018C249.362 63.4613 249.398 63.3145 249.414 63.1649C249.442 62.8772 249.395 62.5872 249.278 62.3237C249.161 62.0601 248.979 61.832 248.749 61.6619C248.437 61.4347 248.056 61.3273 247.674 61.359C247.575 60.9592 247.333 60.6114 246.994 60.3846C246.656 60.1578 246.246 60.0684 245.845 60.1343C245.56 60.1774 245.291 60.2993 245.07 60.4865L245.057 60.4971C244.953 60.3452 244.824 60.2129 244.675 60.1061C244.504 59.9788 244.309 59.8876 244.103 59.8378C243.896 59.788 243.682 59.7806 243.472 59.816C243.327 59.8417 243.187 59.8867 243.054 59.9499C242.592 58.7882 241.872 57.7514 240.948 56.9216L244.808 51.4767C245.587 51.9447 246.443 52.2658 247.334 52.4243L246.846 57.3055C246.828 57.4797 246.843 57.6558 246.892 57.8237C246.941 57.9917 247.022 58.1481 247.131 58.284C247.24 58.4199 247.374 58.5326 247.526 58.6156C247.678 58.6985 247.844 58.7502 248.016 58.7675C248.512 58.8225 249.012 58.7234 249.451 58.4833C249.603 58.4028 249.745 58.3073 249.878 58.198C250.138 57.988 250.354 57.727 250.513 57.4304C250.672 57.1339 250.77 56.8079 250.803 56.4718L250.932 55.199C251.505 55.1726 252.065 55.0212 252.576 54.7551C252.647 54.7187 252.718 54.6788 252.787 54.6377L258.81 59.3616C258.851 59.3945 258.884 59.4192 258.9 59.4356L258.909 59.4438C258.917 59.452 258.933 59.4602 258.941 59.4767L258.957 59.4931C258.965 59.4931 258.965 59.5013 258.973 59.5096L258.989 59.526L259.014 59.5507L259.038 59.5835C259.046 59.5918 259.054 59.6094 259.062 59.6176C259.081 59.646 259.098 59.6763 259.111 59.708L259.119 59.7245C259.128 59.7409 259.128 59.7491 259.136 59.7655C259.144 59.782 259.144 59.7984 259.152 59.8149C259.16 59.8313 259.16 59.8489 259.169 59.8654L259.185 59.9147C259.196 59.9531 259.204 59.9923 259.209 60.0321V60.0485C259.216 60.0672 259.219 60.0873 259.217 60.1073V60.1566C259.221 60.201 259.216 60.2458 259.202 60.2881H259.208ZM262.451 56.5552C261.465 57.1353 260.615 57.9267 259.96 58.8743V58.8673C259.944 58.8426 259.92 58.8179 259.904 58.7933C259.888 58.7686 259.847 58.7275 259.814 58.6947L259.733 58.6113C259.671 58.5497 259.606 58.4921 259.537 58.4387L252.833 53.1852L252.487 53.4494C251.913 53.8922 251.195 54.0962 250.479 54.0201L249.909 53.9613L249.678 56.3485C249.638 56.7198 249.457 57.0606 249.174 57.2985C248.888 57.5328 248.523 57.6426 248.158 57.6038C248.135 57.6022 248.113 57.596 248.093 57.5855C248.073 57.575 248.055 57.5605 248.041 57.5429C248.026 57.5252 248.016 57.5047 248.009 57.4827C248.003 57.4607 248.001 57.4376 248.003 57.4147L248.41 53.359L251.328 51.9135H251.304L252.113 51.506L252.163 51.4814C252.363 51.3603 252.569 51.2501 252.78 51.1514C253.214 50.9468 253.674 50.8049 254.146 50.7299C254.736 50.6312 255.337 50.6312 255.926 50.7299C257.202 50.9559 258.512 50.8566 259.741 50.441L260.274 51.6434L262.451 56.5552ZM263.792 56.7619L260.467 49.2539L263.009 48.0984L266.335 55.6053L263.792 56.7619Z" fill="#64E6FB"/>
<path d="M46.7395 82.045C47.3195 85.0997 49.0982 86.627 52.0755 86.627C54.1249 86.627 55.5749 85.7184 56.4255 83.901C57.2762 82.0837 57.7015 79.1257 57.7015 75.027C56.8509 76.2257 55.6909 77.1537 54.2215 77.811C52.7522 78.4684 51.1089 78.797 49.2915 78.797C46.8169 78.797 44.6129 78.2944 42.6795 77.289C40.7462 76.245 39.2189 74.7177 38.0975 72.707C37.0149 70.6577 36.4735 68.183 36.4735 65.283C36.4735 62.4217 37.0535 59.9277 38.2135 57.801C39.4122 55.6744 41.0942 54.031 43.2595 52.871C45.4635 51.711 48.0542 51.131 51.0315 51.131C56.7542 51.131 60.7562 52.9097 63.0375 56.467C65.3189 60.0244 66.4595 65.2637 66.4595 72.185C66.4595 77.2117 65.9955 81.3684 65.0675 84.655C64.1782 87.903 62.6509 90.3777 60.4855 92.079C58.3589 93.7804 55.4395 94.631 51.7275 94.631C48.7889 94.631 46.2755 94.051 44.1875 92.891C42.1382 91.731 40.5529 90.2037 39.4315 88.309C38.3489 86.4144 37.7302 84.3264 37.5755 82.045H46.7395ZM51.5535 70.967C53.1775 70.967 54.4729 70.4837 55.4395 69.517C56.4062 68.5117 56.8895 67.1584 56.8895 65.457C56.8895 63.601 56.3869 62.1704 55.3815 61.165C54.3762 60.1597 53.0229 59.657 51.3215 59.657C49.6202 59.657 48.2669 60.179 47.2615 61.223C46.2949 62.2284 45.8115 63.6204 45.8115 65.399C45.8115 67.0617 46.2949 68.415 47.2615 69.459C48.2669 70.4644 49.6975 70.967 51.5535 70.967ZM72.0991 64.065C72.2538 59.9277 73.6071 56.7377 76.1591 54.495C78.7111 52.2524 82.1718 51.131 86.5411 51.131C89.4411 51.131 91.9158 51.6337 93.9651 52.639C96.0531 53.6444 97.6191 55.017 98.6631 56.757C99.7458 58.497 100.287 60.4497 100.287 62.615C100.287 65.167 99.6491 67.255 98.3731 68.879C97.0971 70.4644 95.6084 71.547 93.9071 72.127V72.359C96.1111 73.0937 97.8511 74.3117 99.1271 76.013C100.403 77.7144 101.041 79.899 101.041 82.567C101.041 84.9644 100.48 87.091 99.3591 88.947C98.2764 90.7644 96.6718 92.195 94.5451 93.239C92.4571 94.283 89.9631 94.805 87.0631 94.805C82.4231 94.805 78.7111 93.6644 75.9271 91.383C73.1818 89.1017 71.7318 85.6604 71.5771 81.059H81.2051C81.2438 82.7604 81.7271 84.1137 82.6551 85.119C83.5831 86.0857 84.9364 86.569 86.7151 86.569C88.2231 86.569 89.3831 86.1437 90.1951 85.293C91.0458 84.4037 91.4711 83.2437 91.4711 81.813C91.4711 79.957 90.8718 78.623 89.6731 77.811C88.5131 76.9604 86.6378 76.535 84.0471 76.535H82.1911V68.473H84.0471C86.0191 68.473 87.6044 68.1444 88.8031 67.487C90.0404 66.791 90.6591 65.573 90.6591 63.833C90.6591 62.441 90.2724 61.3584 89.4991 60.585C88.7258 59.8117 87.6624 59.425 86.3091 59.425C84.8398 59.425 83.7378 59.8697 83.0031 60.759C82.3071 61.6484 81.9011 62.7504 81.7851 64.065H72.0991ZM106.056 62.789C106.056 59.657 106.946 57.2404 108.724 55.539C110.542 53.8377 112.881 52.987 115.742 52.987C118.604 52.987 120.924 53.8377 122.702 55.539C124.481 57.2404 125.37 59.657 125.37 62.789C125.37 65.921 124.481 68.3377 122.702 70.039C120.924 71.7404 118.604 72.591 115.742 72.591C112.881 72.591 110.542 71.7404 108.724 70.039C106.946 68.3377 106.056 65.921 106.056 62.789ZM145.438 53.625L123.108 94.457H113.538L135.868 53.625H145.438ZM115.684 58.787C113.828 58.787 112.9 60.121 112.9 62.789C112.9 65.4184 113.828 66.733 115.684 66.733C116.574 66.733 117.27 66.4044 117.772 65.747C118.275 65.0897 118.526 64.1037 118.526 62.789C118.526 60.121 117.579 58.787 115.684 58.787ZM133.664 85.293C133.664 82.161 134.554 79.7444 136.332 78.043C138.111 76.3417 140.431 75.491 143.292 75.491C146.154 75.491 148.474 76.3417 150.252 78.043C152.031 79.7444 152.92 82.161 152.92 85.293C152.92 88.425 152.031 90.8417 150.252 92.543C148.474 94.2444 146.154 95.095 143.292 95.095C140.431 95.095 138.111 94.2444 136.332 92.543C134.554 90.8417 133.664 88.425 133.664 85.293ZM143.234 81.291C142.345 81.291 141.649 81.6197 141.146 82.277C140.682 82.9344 140.45 83.9397 140.45 85.293C140.45 87.9224 141.378 89.237 143.234 89.237C144.124 89.237 144.82 88.9084 145.322 88.251C145.825 87.5937 146.076 86.6077 146.076 85.293C146.076 83.9784 145.825 82.9924 145.322 82.335C144.82 81.639 144.124 81.291 143.234 81.291ZM42.1275 136.697C40.6675 136.697 39.3675 136.447 38.2275 135.947C37.0875 135.447 36.1875 134.767 35.5275 133.907C34.8675 133.027 34.4975 132.047 34.4175 130.967H39.4875C39.5475 131.547 39.8175 132.017 40.2975 132.377C40.7775 132.737 41.3675 132.917 42.0675 132.917C42.7075 132.917 43.1975 132.797 43.5375 132.557C43.8975 132.297 44.0775 131.967 44.0775 131.567C44.0775 131.087 43.8275 130.737 43.3275 130.517C42.8275 130.277 42.0175 130.017 40.8975 129.737C39.6975 129.457 38.6975 129.167 37.8975 128.867C37.0975 128.547 36.4075 128.057 35.8275 127.397C35.2475 126.717 34.9575 125.807 34.9575 124.667C34.9575 123.707 35.2175 122.837 35.7375 122.057C36.2775 121.257 37.0575 120.627 38.0775 120.167C39.1175 119.707 40.3475 119.477 41.7675 119.477C43.8675 119.477 45.5175 119.997 46.7175 121.037C47.9375 122.077 48.6375 123.457 48.8175 125.177H44.0775C43.9975 124.597 43.7375 124.137 43.2975 123.797C42.8775 123.457 42.3175 123.287 41.6175 123.287C41.0175 123.287 40.5575 123.407 40.2375 123.647C39.9175 123.867 39.7575 124.177 39.7575 124.577C39.7575 125.057 40.0075 125.417 40.5075 125.657C41.0275 125.897 41.8275 126.137 42.9075 126.377C44.1475 126.697 45.1575 127.017 45.9375 127.337C46.7175 127.637 47.3975 128.137 47.9775 128.837C48.5775 129.517 48.8875 130.437 48.9075 131.597C48.9075 132.577 48.6275 133.457 48.0675 134.237C47.5275 134.997 46.7375 135.597 45.6975 136.037C44.6775 136.477 43.4875 136.697 42.1275 136.697ZM51.026 128.057C51.026 126.337 51.346 124.827 51.986 123.527C52.646 122.227 53.536 121.227 54.656 120.527C55.776 119.827 57.026 119.477 58.406 119.477C59.586 119.477 60.616 119.717 61.496 120.197C62.396 120.677 63.086 121.307 63.566 122.087V119.717H68.696V136.457H63.566V134.087C63.066 134.867 62.366 135.497 61.466 135.977C60.586 136.457 59.556 136.697 58.376 136.697C57.016 136.697 55.776 136.347 54.656 135.647C53.536 134.927 52.646 133.917 51.986 132.617C51.346 131.297 51.026 129.777 51.026 128.057ZM63.566 128.087C63.566 126.807 63.206 125.797 62.486 125.057C61.786 124.317 60.926 123.947 59.906 123.947C58.886 123.947 58.016 124.317 57.296 125.057C56.596 125.777 56.246 126.777 56.246 128.057C56.246 129.337 56.596 130.357 57.296 131.117C58.016 131.857 58.886 132.227 59.906 132.227C60.926 132.227 61.786 131.857 62.486 131.117C63.206 130.377 63.566 129.367 63.566 128.087ZM81.7374 132.107V136.457H79.1274C77.2674 136.457 75.8174 136.007 74.7774 135.107C73.7374 134.187 73.2174 132.697 73.2174 130.637V123.977H71.1774V119.717H73.2174V115.637H78.3474V119.717H81.7074V123.977H78.3474V130.697C78.3474 131.197 78.4674 131.557 78.7074 131.777C78.9474 131.997 79.3474 132.107 79.9074 132.107H81.7374ZM87.1749 117.977C86.2749 117.977 85.5349 117.717 84.9549 117.197C84.3949 116.657 84.1149 115.997 84.1149 115.217C84.1149 114.417 84.3949 113.757 84.9549 113.237C85.5349 112.697 86.2749 112.427 87.1749 112.427C88.0549 112.427 88.7749 112.697 89.3349 113.237C89.9149 113.757 90.2049 114.417 90.2049 115.217C90.2049 115.997 89.9149 116.657 89.3349 117.197C88.7749 117.717 88.0549 117.977 87.1749 117.977ZM89.7249 119.717V136.457H84.5949V119.717H89.7249ZM100.253 136.697C98.7925 136.697 97.4925 136.447 96.3525 135.947C95.2125 135.447 94.3125 134.767 93.6525 133.907C92.9925 133.027 92.6225 132.047 92.5425 130.967H97.6125C97.6725 131.547 97.9425 132.017 98.4225 132.377C98.9025 132.737 99.4925 132.917 100.193 132.917C100.833 132.917 101.323 132.797 101.663 132.557C102.023 132.297 102.203 131.967 102.203 131.567C102.203 131.087 101.953 130.737 101.453 130.517C100.953 130.277 100.143 130.017 99.0225 129.737C97.8225 129.457 96.8225 129.167 96.0225 128.867C95.2225 128.547 94.5325 128.057 93.9525 127.397C93.3725 126.717 93.0825 125.807 93.0825 124.667C93.0825 123.707 93.3425 122.837 93.8625 122.057C94.4025 121.257 95.1825 120.627 96.2025 120.167C97.2425 119.707 98.4725 119.477 99.8925 119.477C101.993 119.477 103.643 119.997 104.843 121.037C106.063 122.077 106.763 123.457 106.943 125.177H102.203C102.123 124.597 101.863 124.137 101.423 123.797C101.003 123.457 100.443 123.287 99.7425 123.287C99.1425 123.287 98.6825 123.407 98.3625 123.647C98.0425 123.867 97.8825 124.177 97.8825 124.577C97.8825 125.057 98.1325 125.417 98.6325 125.657C99.1525 125.897 99.9525 126.137 101.033 126.377C102.273 126.697 103.283 127.017 104.063 127.337C104.843 127.637 105.523 128.137 106.103 128.837C106.703 129.517 107.013 130.437 107.033 131.597C107.033 132.577 106.753 133.457 106.193 134.237C105.653 134.997 104.863 135.597 103.823 136.037C102.803 136.477 101.613 136.697 100.253 136.697ZM118.571 123.977H115.811V136.457H110.681V123.977H108.821V119.717H110.681V119.237C110.681 117.177 111.271 115.617 112.451 114.557C113.631 113.477 115.361 112.937 117.641 112.937C118.021 112.937 118.301 112.947 118.481 112.967V117.317C117.501 117.257 116.811 117.397 116.411 117.737C116.011 118.077 115.811 118.687 115.811 119.567V119.717H118.571V123.977ZM119.962 128.057C119.962 126.337 120.282 124.827 120.922 123.527C121.582 122.227 122.472 121.227 123.592 120.527C124.712 119.827 125.962 119.477 127.342 119.477C128.522 119.477 129.552 119.717 130.432 120.197C131.332 120.677 132.022 121.307 132.502 122.087V119.717H137.632V136.457H132.502V134.087C132.002 134.867 131.302 135.497 130.402 135.977C129.522 136.457 128.492 136.697 127.312 136.697C125.952 136.697 124.712 136.347 123.592 135.647C122.472 134.927 121.582 133.917 120.922 132.617C120.282 131.297 119.962 129.777 119.962 128.057ZM132.502 128.087C132.502 126.807 132.142 125.797 131.422 125.057C130.722 124.317 129.862 123.947 128.842 123.947C127.822 123.947 126.952 124.317 126.232 125.057C125.532 125.777 125.182 126.777 125.182 128.057C125.182 129.337 125.532 130.357 126.232 131.117C126.952 131.857 127.822 132.227 128.842 132.227C129.862 132.227 130.722 131.857 131.422 131.117C132.142 130.377 132.502 129.367 132.502 128.087ZM140.323 128.087C140.323 126.347 140.673 124.827 141.373 123.527C142.093 122.227 143.083 121.227 144.343 120.527C145.623 119.827 147.083 119.477 148.723 119.477C150.823 119.477 152.573 120.027 153.973 121.127C155.393 122.227 156.323 123.777 156.763 125.777H151.303C150.843 124.497 149.953 123.857 148.633 123.857C147.693 123.857 146.943 124.227 146.383 124.967C145.823 125.687 145.543 126.727 145.543 128.087C145.543 129.447 145.823 130.497 146.383 131.237C146.943 131.957 147.693 132.317 148.633 132.317C149.953 132.317 150.843 131.677 151.303 130.397H156.763C156.323 132.357 155.393 133.897 153.973 135.017C152.553 136.137 150.803 136.697 148.723 136.697C147.083 136.697 145.623 136.347 144.343 135.647C143.083 134.947 142.093 133.947 141.373 132.647C140.673 131.347 140.323 129.827 140.323 128.087ZM168.837 132.107V136.457H166.227C164.367 136.457 162.917 136.007 161.877 135.107C160.837 134.187 160.317 132.697 160.317 130.637V123.977H158.277V119.717H160.317V115.637H165.447V119.717H168.807V123.977H165.447V130.697C165.447 131.197 165.567 131.557 165.807 131.777C166.047 131.997 166.447 132.107 167.007 132.107H168.837ZM174.274 117.977C173.374 117.977 172.634 117.717 172.054 117.197C171.494 116.657 171.214 115.997 171.214 115.217C171.214 114.417 171.494 113.757 172.054 113.237C172.634 112.697 173.374 112.427 174.274 112.427C175.154 112.427 175.874 112.697 176.434 113.237C177.014 113.757 177.304 114.417 177.304 115.217C177.304 115.997 177.014 116.657 176.434 117.197C175.874 117.717 175.154 117.977 174.274 117.977ZM176.824 119.717V136.457H171.694V119.717H176.824ZM188.162 136.697C186.522 136.697 185.042 136.347 183.722 135.647C182.422 134.947 181.392 133.947 180.632 132.647C179.892 131.347 179.522 129.827 179.522 128.087C179.522 126.367 179.902 124.857 180.662 123.557C181.422 122.237 182.462 121.227 183.782 120.527C185.102 119.827 186.582 119.477 188.222 119.477C189.862 119.477 191.342 119.827 192.662 120.527C193.982 121.227 195.022 122.237 195.782 123.557C196.542 124.857 196.922 126.367 196.922 128.087C196.922 129.807 196.532 131.327 195.752 132.647C194.992 133.947 193.942 134.947 192.602 135.647C191.282 136.347 189.802 136.697 188.162 136.697ZM188.162 132.257C189.142 132.257 189.972 131.897 190.652 131.177C191.352 130.457 191.702 129.427 191.702 128.087C191.702 126.747 191.362 125.717 190.682 124.997C190.022 124.277 189.202 123.917 188.222 123.917C187.222 123.917 186.392 124.277 185.732 124.997C185.072 125.697 184.742 126.727 184.742 128.087C184.742 129.427 185.062 130.457 185.702 131.177C186.362 131.897 187.182 132.257 188.162 132.257ZM209.844 119.537C211.804 119.537 213.364 120.177 214.524 121.457C215.704 122.717 216.294 124.457 216.294 126.677V136.457H211.194V127.367C211.194 126.247 210.904 125.377 210.324 124.757C209.744 124.137 208.964 123.827 207.984 123.827C207.004 123.827 206.224 124.137 205.644 124.757C205.064 125.377 204.774 126.247 204.774 127.367V136.457H199.644V119.717H204.774V121.937C205.294 121.197 205.994 120.617 206.874 120.197C207.754 119.757 208.744 119.537 209.844 119.537Z" fill="#64E6FB"/>
</g>
<defs>
<filter id="filter0_d_374_3044" x="0.385651" y="0.385651" width="308.229" height="180.144" filterUnits="userSpaceOnUse" color-interpolation-filters="sRGB">
<feFlood flood-opacity="0" result="BackgroundImageFix"/>
<feColorMatrix in="SourceAlpha" type="matrix" values="0 0 0 0 0 0 0 0 0 0 0 0 0 0 0 0 0 0 127 0" result="hardAlpha"/>
<feOffset/>
<feGaussianBlur stdDeviation="3.30717"/>
<feColorMatrix type="matrix" values="0 0 0 0 0 0 0 0 0 0 0 0 0 0 0 0 0 0 0.1 0"/>
<feBlend mode="normal" in2="BackgroundImageFix" result="effect1_dropShadow_374_3044"/>
<feBlend mode="normal" in="SourceGraphic" in2="effect1_dropShadow_374_3044" result="shape"/>
</filter>
</defs>
</svg>
