<svg width="309" height="187" viewBox="0 0 309 187" fill="none" xmlns="http://www.w3.org/2000/svg">
<g filter="url(#filter0_d_160_2038)">
<rect x="7" y="7" width="295" height="172.915" rx="10.583" fill="#9AF1FF"/>
<circle cx="251.731" cy="57.2692" r="23.8117" fill="#5038BC" fill-opacity="0.1"/>
<path d="M261.936 50.1255H255.983V48.3396C255.983 47.8659 255.804 47.4117 255.485 47.0768C255.166 46.7419 254.733 46.5537 254.282 46.5537H249.18C248.729 46.5537 248.296 46.7419 247.977 47.0768C247.658 47.4117 247.479 47.8659 247.479 48.3396V50.1255H241.526C241.075 50.1255 240.642 50.3136 240.323 50.6485C240.004 50.9834 239.825 51.4377 239.825 51.9113V66.1983C239.825 66.672 240.004 67.1262 240.323 67.4611C240.642 67.796 241.075 67.9842 241.526 67.9842H261.936C262.387 67.9842 262.82 67.796 263.139 67.4611C263.458 67.1262 263.637 66.672 263.637 66.1983V51.9113C263.637 51.4377 263.458 50.9834 263.139 50.6485C262.82 50.3136 262.387 50.1255 261.936 50.1255ZM249.18 48.3396H254.282V50.1255H249.18V48.3396ZM261.936 51.9113V59.9478H241.526V51.9113H261.936ZM241.526 66.1983V61.7336H261.936V66.1983H241.526Z" fill="#5038BC"/>
<path d="M250.881 59.0549H252.582C252.808 59.0549 253.024 58.9608 253.183 58.7934C253.343 58.6259 253.432 58.3988 253.432 58.162C253.432 57.9252 253.343 57.698 253.183 57.5306C253.024 57.3631 252.808 57.269 252.582 57.269H250.881C250.656 57.269 250.439 57.3631 250.28 57.5306C250.12 57.698 250.031 57.9252 250.031 58.162C250.031 58.3988 250.12 58.6259 250.28 58.7934C250.439 58.9608 250.656 59.0549 250.881 59.0549Z" fill="#5038BC"/>
<path d="M35.0235 67.3395V58.1175H51.0895V100.458H40.7655V67.3395H35.0235ZM57.8742 78.7075C57.8742 72.0569 59.1502 66.8175 61.7022 62.9895C64.2928 59.1615 68.4495 57.2475 74.1722 57.2475C79.8948 57.2475 84.0322 59.1615 86.5842 62.9895C89.1748 66.8175 90.4702 72.0569 90.4702 78.7075C90.4702 85.4355 89.1748 90.7135 86.5842 94.5415C84.0322 98.3695 79.8948 100.284 74.1722 100.284C68.4495 100.284 64.2928 98.3695 61.7022 94.5415C59.1502 90.7135 57.8742 85.4355 57.8742 78.7075ZM80.7262 78.7075C80.7262 74.8022 80.3008 71.8055 79.4502 69.7175C78.5995 67.5909 76.8402 66.5275 74.1722 66.5275C71.5042 66.5275 69.7448 67.5909 68.8942 69.7175C68.0435 71.8055 67.6182 74.8022 67.6182 78.7075C67.6182 81.3369 67.7728 83.5215 68.0822 85.2615C68.3915 86.9629 69.0102 88.3549 69.9382 89.4375C70.9048 90.4815 72.3162 91.0035 74.1722 91.0035C76.0282 91.0035 77.4202 90.4815 78.3482 89.4375C79.3148 88.3549 79.9528 86.9629 80.2622 85.2615C80.5715 83.5215 80.7262 81.3369 80.7262 78.7075ZM95.7101 78.7075C95.7101 72.0569 96.9861 66.8175 99.5381 62.9895C102.129 59.1615 106.285 57.2475 112.008 57.2475C117.731 57.2475 121.868 59.1615 124.42 62.9895C127.011 66.8175 128.306 72.0569 128.306 78.7075C128.306 85.4355 127.011 90.7135 124.42 94.5415C121.868 98.3695 117.731 100.284 112.008 100.284C106.285 100.284 102.129 98.3695 99.5381 94.5415C96.9861 90.7135 95.7101 85.4355 95.7101 78.7075ZM118.562 78.7075C118.562 74.8022 118.137 71.8055 117.286 69.7175C116.435 67.5909 114.676 66.5275 112.008 66.5275C109.34 66.5275 107.581 67.5909 106.73 69.7175C105.879 71.8055 105.454 74.8022 105.454 78.7075C105.454 81.3369 105.609 83.5215 105.918 85.2615C106.227 86.9629 106.846 88.3549 107.774 89.4375C108.741 90.4815 110.152 91.0035 112.008 91.0035C113.864 91.0035 115.256 90.4815 116.184 89.4375C117.151 88.3549 117.789 86.9629 118.098 85.2615C118.407 83.5215 118.562 81.3369 118.562 78.7075ZM180.642 59.7415V100.458H170.724V76.0395L161.618 100.458H153.614L144.45 75.9815V100.458H134.532V59.7415H146.248L157.674 87.9295L168.984 59.7415H180.642ZM217.18 84.6235H207.088V94.9475H197.692V84.6235H187.6V75.7495H197.692V65.3675H207.088V75.7495H217.18V84.6235ZM40.4475 128.088C40.9475 127.308 41.6375 126.678 42.5175 126.198C43.3975 125.718 44.4275 125.478 45.6075 125.478C46.9875 125.478 48.2375 125.828 49.3575 126.528C50.4775 127.228 51.3575 128.228 51.9975 129.528C52.6575 130.828 52.9875 132.338 52.9875 134.058C52.9875 135.778 52.6575 137.298 51.9975 138.618C51.3575 139.918 50.4775 140.928 49.3575 141.648C48.2375 142.348 46.9875 142.698 45.6075 142.698C44.4475 142.698 43.4175 142.458 42.5175 141.978C41.6375 141.498 40.9475 140.878 40.4475 140.118V150.438H35.3175V125.718H40.4475V128.088ZM47.7675 134.058C47.7675 132.778 47.4075 131.778 46.6875 131.058C45.9875 130.318 45.1175 129.948 44.0775 129.948C43.0575 129.948 42.1875 130.318 41.4675 131.058C40.7675 131.798 40.4175 132.808 40.4175 134.088C40.4175 135.368 40.7675 136.378 41.4675 137.118C42.1875 137.858 43.0575 138.228 44.0775 138.228C45.0975 138.228 45.9675 137.858 46.6875 137.118C47.4075 136.358 47.7675 135.338 47.7675 134.058ZM60.8088 128.508C61.4088 127.588 62.1588 126.868 63.0588 126.348C63.9588 125.808 64.9588 125.538 66.0588 125.538V130.968H64.6488C63.3688 130.968 62.4088 131.248 61.7688 131.808C61.1288 132.348 60.8088 133.308 60.8088 134.688V142.458H55.6788V125.718H60.8088V128.508ZM76.1309 142.698C74.4909 142.698 73.0109 142.348 71.6909 141.648C70.3909 140.948 69.3609 139.948 68.6009 138.648C67.8609 137.348 67.4909 135.828 67.4909 134.088C67.4909 132.368 67.8709 130.858 68.6309 129.558C69.3909 128.238 70.4309 127.228 71.7509 126.528C73.0709 125.828 74.5509 125.478 76.1909 125.478C77.8309 125.478 79.3109 125.828 80.6309 126.528C81.9509 127.228 82.9909 128.238 83.7509 129.558C84.5109 130.858 84.8909 132.368 84.8909 134.088C84.8909 135.808 84.5009 137.328 83.7209 138.648C82.9609 139.948 81.9109 140.948 80.5709 141.648C79.2509 142.348 77.7709 142.698 76.1309 142.698ZM76.1309 138.258C77.1109 138.258 77.9409 137.898 78.6209 137.178C79.3209 136.458 79.6709 135.428 79.6709 134.088C79.6709 132.748 79.3309 131.718 78.6509 130.998C77.9909 130.278 77.1709 129.918 76.1909 129.918C75.1909 129.918 74.3609 130.278 73.7009 130.998C73.0409 131.698 72.7109 132.728 72.7109 134.088C72.7109 135.428 73.0309 136.458 73.6709 137.178C74.3309 137.898 75.1509 138.258 76.1309 138.258ZM90.1624 123.978C89.2624 123.978 88.5224 123.718 87.9424 123.198C87.3824 122.658 87.1024 121.998 87.1024 121.218C87.1024 120.418 87.3824 119.758 87.9424 119.238C88.5224 118.698 89.2624 118.428 90.1624 118.428C91.0424 118.428 91.7624 118.698 92.3224 119.238C92.9024 119.758 93.1924 120.418 93.1924 121.218C93.1924 121.998 92.9024 122.658 92.3224 123.198C91.7624 123.718 91.0424 123.978 90.1624 123.978ZM92.7424 144.618C92.7424 146.678 92.2224 148.158 91.1824 149.058C90.1424 149.978 88.6924 150.438 86.8324 150.438H84.8224V146.088H86.0524C86.6124 146.088 87.0124 145.978 87.2524 145.758C87.4924 145.538 87.6124 145.178 87.6124 144.678V125.718H92.7424V144.618ZM112.211 133.818C112.211 134.298 112.181 134.798 112.121 135.318H100.511C100.591 136.358 100.921 137.158 101.501 137.718C102.101 138.258 102.831 138.528 103.691 138.528C104.971 138.528 105.861 137.988 106.361 136.908H111.821C111.541 138.008 111.031 138.998 110.291 139.878C109.571 140.758 108.661 141.448 107.561 141.948C106.461 142.448 105.231 142.698 103.871 142.698C102.231 142.698 100.771 142.348 99.4908 141.648C98.2108 140.948 97.2108 139.948 96.4908 138.648C95.7708 137.348 95.4108 135.828 95.4108 134.088C95.4108 132.348 95.7608 130.828 96.4608 129.528C97.1808 128.228 98.1808 127.228 99.4608 126.528C100.741 125.828 102.211 125.478 103.871 125.478C105.491 125.478 106.931 125.818 108.191 126.498C109.451 127.178 110.431 128.148 111.131 129.408C111.851 130.668 112.211 132.138 112.211 133.818ZM106.961 132.468C106.961 131.588 106.661 130.888 106.061 130.368C105.461 129.848 104.711 129.588 103.811 129.588C102.951 129.588 102.221 129.838 101.621 130.338C101.041 130.838 100.681 131.548 100.541 132.468H106.961ZM113.897 134.088C113.897 132.348 114.247 130.828 114.947 129.528C115.667 128.228 116.657 127.228 117.917 126.528C119.197 125.828 120.657 125.478 122.297 125.478C124.397 125.478 126.147 126.028 127.547 127.128C128.967 128.228 129.897 129.778 130.337 131.778H124.877C124.417 130.498 123.527 129.858 122.207 129.858C121.267 129.858 120.517 130.228 119.957 130.968C119.397 131.688 119.117 132.728 119.117 134.088C119.117 135.448 119.397 136.498 119.957 137.238C120.517 137.958 121.267 138.318 122.207 138.318C123.527 138.318 124.417 137.678 124.877 136.398H130.337C129.897 138.358 128.967 139.898 127.547 141.018C126.127 142.138 124.377 142.698 122.297 142.698C120.657 142.698 119.197 142.348 117.917 141.648C116.657 140.948 115.667 139.948 114.947 138.648C114.247 137.348 113.897 135.828 113.897 134.088ZM142.411 138.108V142.458H139.801C137.941 142.458 136.491 142.008 135.451 141.108C134.411 140.188 133.891 138.698 133.891 136.638V129.978H131.851V125.718H133.891V121.638H139.021V125.718H142.381V129.978H139.021V136.698C139.021 137.198 139.141 137.558 139.381 137.778C139.621 137.998 140.021 138.108 140.581 138.108H142.411ZM159.156 137.658L162.786 125.718H168.246L162.306 142.458H155.976L150.036 125.718H155.526L159.156 137.658ZM169.385 134.058C169.385 132.338 169.705 130.828 170.345 129.528C171.005 128.228 171.895 127.228 173.015 126.528C174.135 125.828 175.385 125.478 176.765 125.478C177.945 125.478 178.975 125.718 179.855 126.198C180.755 126.678 181.445 127.308 181.925 128.088V125.718H187.055V142.458H181.925V140.088C181.425 140.868 180.725 141.498 179.825 141.978C178.945 142.458 177.915 142.698 176.735 142.698C175.375 142.698 174.135 142.348 173.015 141.648C171.895 140.928 171.005 139.918 170.345 138.618C169.705 137.298 169.385 135.778 169.385 134.058ZM181.925 134.088C181.925 132.808 181.565 131.798 180.845 131.058C180.145 130.318 179.285 129.948 178.265 129.948C177.245 129.948 176.375 130.318 175.655 131.058C174.955 131.778 174.605 132.778 174.605 134.058C174.605 135.338 174.955 136.358 175.655 137.118C176.375 137.858 177.245 138.228 178.265 138.228C179.285 138.228 180.145 137.858 180.845 137.118C181.565 136.378 181.925 135.368 181.925 134.088ZM195.897 120.258V142.458H190.767V120.258H195.897ZM216.144 125.718V142.458H211.014V140.178C210.494 140.918 209.784 141.518 208.884 141.978C208.004 142.418 207.024 142.638 205.944 142.638C204.664 142.638 203.534 142.358 202.554 141.798C201.574 141.218 200.814 140.388 200.274 139.308C199.734 138.228 199.464 136.958 199.464 135.498V125.718H204.564V134.808C204.564 135.928 204.854 136.798 205.434 137.418C206.014 138.038 206.794 138.348 207.774 138.348C208.774 138.348 209.564 138.038 210.144 137.418C210.724 136.798 211.014 135.928 211.014 134.808V125.718H216.144ZM235.609 133.818C235.609 134.298 235.579 134.798 235.519 135.318H223.909C223.989 136.358 224.319 137.158 224.899 137.718C225.499 138.258 226.229 138.528 227.089 138.528C228.369 138.528 229.259 137.988 229.759 136.908H235.219C234.939 138.008 234.429 138.998 233.689 139.878C232.969 140.758 232.059 141.448 230.959 141.948C229.859 142.448 228.629 142.698 227.269 142.698C225.629 142.698 224.169 142.348 222.889 141.648C221.609 140.948 220.609 139.948 219.889 138.648C219.169 137.348 218.809 135.828 218.809 134.088C218.809 132.348 219.159 130.828 219.859 129.528C220.579 128.228 221.579 127.228 222.859 126.528C224.139 125.828 225.609 125.478 227.269 125.478C228.889 125.478 230.329 125.818 231.589 126.498C232.849 127.178 233.829 128.148 234.529 129.408C235.249 130.668 235.609 132.138 235.609 133.818ZM230.359 132.468C230.359 131.588 230.059 130.888 229.459 130.368C228.859 129.848 228.109 129.588 227.209 129.588C226.349 129.588 225.619 129.838 225.019 130.338C224.439 130.838 224.079 131.548 223.939 132.468H230.359Z" fill="#5038BC"/>
</g>
<defs>
<filter id="filter0_d_160_2038" x="0.385651" y="0.385651" width="308.229" height="186.144" filterUnits="userSpaceOnUse" color-interpolation-filters="sRGB">
<feFlood flood-opacity="0" result="BackgroundImageFix"/>
<feColorMatrix in="SourceAlpha" type="matrix" values="0 0 0 0 0 0 0 0 0 0 0 0 0 0 0 0 0 0 127 0" result="hardAlpha"/>
<feOffset/>
<feGaussianBlur stdDeviation="3.30717"/>
<feColorMatrix type="matrix" values="0 0 0 0 0 0 0 0 0 0 0 0 0 0 0 0 0 0 0.1 0"/>
<feBlend mode="normal" in2="BackgroundImageFix" result="effect1_dropShadow_160_2038"/>
<feBlend mode="normal" in="SourceGraphic" in2="effect1_dropShadow_160_2038" result="shape"/>
</filter>
</defs>
</svg>
