<svg width="309" height="187" viewBox="0 0 309 187" fill="none" xmlns="http://www.w3.org/2000/svg">
<g filter="url(#filter0_d_130_2108)">
<rect x="7" y="7" width="295" height="172.915" rx="10.583" fill="#FFD668"/>
<circle cx="251.731" cy="57.2692" r="23.8117" fill="#5038BC" fill-opacity="0.1"/>
<path d="M261.936 50.1255H255.983V48.3396C255.983 47.8659 255.804 47.4117 255.485 47.0768C255.166 46.7419 254.733 46.5537 254.282 46.5537H249.18C248.729 46.5537 248.296 46.7419 247.977 47.0768C247.658 47.4117 247.479 47.8659 247.479 48.3396V50.1255H241.526C241.075 50.1255 240.642 50.3136 240.323 50.6485C240.004 50.9834 239.825 51.4377 239.825 51.9113V66.1983C239.825 66.672 240.004 67.1262 240.323 67.4611C240.642 67.796 241.075 67.9842 241.526 67.9842H261.936C262.387 67.9842 262.82 67.796 263.139 67.4611C263.458 67.1262 263.637 66.672 263.637 66.1983V51.9113C263.637 51.4377 263.458 50.9834 263.139 50.6485C262.82 50.3136 262.387 50.1255 261.936 50.1255ZM249.18 48.3396H254.282V50.1255H249.18V48.3396ZM261.936 51.9113V59.9478H241.526V51.9113H261.936ZM241.526 66.1983V61.7336H261.936V66.1983H241.526Z" fill="#5038BC"/>
<path d="M250.881 59.0549H252.582C252.808 59.0549 253.024 58.9608 253.183 58.7934C253.343 58.6259 253.432 58.3988 253.432 58.162C253.432 57.9252 253.343 57.698 253.183 57.5306C253.024 57.3631 252.808 57.269 252.582 57.269H250.881C250.656 57.269 250.439 57.3631 250.28 57.5306C250.12 57.698 250.031 57.9252 250.031 58.162C250.031 58.3988 250.12 58.6259 250.28 58.7934C250.439 58.9608 250.656 59.0549 250.881 59.0549Z" fill="#5038BC"/>
<path d="M35.9339 91.7583C37.3732 90.6154 38.0294 90.0862 37.9024 90.1709C42.0509 86.742 45.3104 83.9269 47.681 81.7257C50.0939 79.5244 52.1259 77.2173 53.7768 74.8044C55.4277 72.3915 56.2532 70.0421 56.2532 67.7562C56.2532 66.0206 55.8511 64.6659 55.0468 63.6923C54.2425 62.7187 53.036 62.2319 51.4274 62.2319C49.8188 62.2319 48.5488 62.8457 47.6175 64.0733C46.7286 65.2586 46.2841 66.9519 46.2841 69.1531H35.8069C35.8916 65.5549 36.6536 62.5494 38.0929 60.1364C39.5745 57.7235 41.5006 55.9456 43.8712 54.8026C46.2841 53.6597 48.951 53.0882 51.8719 53.0882C56.9094 53.0882 60.6981 54.3793 63.238 56.9616C65.8202 59.5438 67.1113 62.9092 67.1113 67.0577C67.1113 71.5872 65.5662 75.7992 62.476 79.6938C59.3858 83.5459 55.4489 87.3135 50.6654 90.9964H67.8098V99.8225H35.9339V91.7583ZM72.5905 76.6459C72.5905 69.3648 73.9874 63.6288 76.7813 59.438C79.6176 55.2471 84.1683 53.1517 90.4334 53.1517C96.6985 53.1517 101.228 55.2471 104.022 59.438C106.858 63.6288 108.276 69.3648 108.276 76.6459C108.276 84.0116 106.858 89.7899 104.022 93.9807C101.228 98.1716 96.6985 100.267 90.4334 100.267C84.1683 100.267 79.6176 98.1716 76.7813 93.9807C73.9874 89.7899 72.5905 84.0116 72.5905 76.6459ZM97.6086 76.6459C97.6086 72.3703 97.143 69.0896 96.2117 66.8037C95.2804 64.4755 93.3543 63.3113 90.4334 63.3113C87.5125 63.3113 85.5864 64.4755 84.6551 66.8037C83.7238 69.0896 83.2581 72.3703 83.2581 76.6459C83.2581 79.5244 83.4274 81.9162 83.7661 83.8211C84.1048 85.6837 84.7821 87.2077 85.798 88.3929C86.8563 89.5359 88.4014 90.1074 90.4334 90.1074C92.4653 90.1074 93.9892 89.5359 95.0052 88.3929C96.0635 87.2077 96.762 85.6837 97.1006 83.8211C97.4393 81.9162 97.6086 79.5244 97.6086 76.6459ZM147.286 83.1226H136.237V94.4252H125.95V83.1226H114.902V73.4075H125.95V62.0414H136.237V73.4075H147.286V83.1226ZM40.4475 128.088C40.9475 127.308 41.6375 126.678 42.5175 126.198C43.3975 125.718 44.4275 125.478 45.6075 125.478C46.9875 125.478 48.2375 125.828 49.3575 126.528C50.4775 127.228 51.3575 128.228 51.9975 129.528C52.6575 130.828 52.9875 132.338 52.9875 134.058C52.9875 135.778 52.6575 137.298 51.9975 138.618C51.3575 139.918 50.4775 140.928 49.3575 141.648C48.2375 142.348 46.9875 142.698 45.6075 142.698C44.4475 142.698 43.4175 142.458 42.5175 141.978C41.6375 141.498 40.9475 140.878 40.4475 140.118V150.438H35.3175V125.718H40.4475V128.088ZM47.7675 134.058C47.7675 132.778 47.4075 131.778 46.6875 131.058C45.9875 130.318 45.1175 129.948 44.0775 129.948C43.0575 129.948 42.1875 130.318 41.4675 131.058C40.7675 131.798 40.4175 132.808 40.4175 134.088C40.4175 135.368 40.7675 136.378 41.4675 137.118C42.1875 137.858 43.0575 138.228 44.0775 138.228C45.0975 138.228 45.9675 137.858 46.6875 137.118C47.4075 136.358 47.7675 135.338 47.7675 134.058ZM60.8088 128.508C61.4088 127.588 62.1588 126.868 63.0588 126.348C63.9588 125.808 64.9588 125.538 66.0588 125.538V130.968H64.6488C63.3688 130.968 62.4088 131.248 61.7688 131.808C61.1288 132.348 60.8088 133.308 60.8088 134.688V142.458H55.6788V125.718H60.8088V128.508ZM76.1309 142.698C74.4909 142.698 73.0109 142.348 71.6909 141.648C70.3909 140.948 69.3609 139.948 68.6009 138.648C67.8609 137.348 67.4909 135.828 67.4909 134.088C67.4909 132.368 67.8709 130.858 68.6309 129.558C69.3909 128.238 70.4309 127.228 71.7509 126.528C73.0709 125.828 74.5509 125.478 76.1909 125.478C77.8309 125.478 79.3109 125.828 80.6309 126.528C81.9509 127.228 82.9909 128.238 83.7509 129.558C84.5109 130.858 84.8909 132.368 84.8909 134.088C84.8909 135.808 84.5009 137.328 83.7209 138.648C82.9609 139.948 81.9109 140.948 80.5709 141.648C79.2509 142.348 77.7709 142.698 76.1309 142.698ZM76.1309 138.258C77.1109 138.258 77.9409 137.898 78.6209 137.178C79.3209 136.458 79.6709 135.428 79.6709 134.088C79.6709 132.748 79.3309 131.718 78.6509 130.998C77.9909 130.278 77.1709 129.918 76.1909 129.918C75.1909 129.918 74.3609 130.278 73.7009 130.998C73.0409 131.698 72.7109 132.728 72.7109 134.088C72.7109 135.428 73.0309 136.458 73.6709 137.178C74.3309 137.898 75.1509 138.258 76.1309 138.258ZM90.1624 123.978C89.2624 123.978 88.5224 123.718 87.9424 123.198C87.3824 122.658 87.1024 121.998 87.1024 121.218C87.1024 120.418 87.3824 119.758 87.9424 119.238C88.5224 118.698 89.2624 118.428 90.1624 118.428C91.0424 118.428 91.7624 118.698 92.3224 119.238C92.9024 119.758 93.1924 120.418 93.1924 121.218C93.1924 121.998 92.9024 122.658 92.3224 123.198C91.7624 123.718 91.0424 123.978 90.1624 123.978ZM92.7424 144.618C92.7424 146.678 92.2224 148.158 91.1824 149.058C90.1424 149.978 88.6924 150.438 86.8324 150.438H84.8224V146.088H86.0524C86.6124 146.088 87.0124 145.978 87.2524 145.758C87.4924 145.538 87.6124 145.178 87.6124 144.678V125.718H92.7424V144.618ZM112.211 133.818C112.211 134.298 112.181 134.798 112.121 135.318H100.511C100.591 136.358 100.921 137.158 101.501 137.718C102.101 138.258 102.831 138.528 103.691 138.528C104.971 138.528 105.861 137.988 106.361 136.908H111.821C111.541 138.008 111.031 138.998 110.291 139.878C109.571 140.758 108.661 141.448 107.561 141.948C106.461 142.448 105.231 142.698 103.871 142.698C102.231 142.698 100.771 142.348 99.4908 141.648C98.2108 140.948 97.2108 139.948 96.4908 138.648C95.7708 137.348 95.4108 135.828 95.4108 134.088C95.4108 132.348 95.7608 130.828 96.4608 129.528C97.1808 128.228 98.1808 127.228 99.4608 126.528C100.741 125.828 102.211 125.478 103.871 125.478C105.491 125.478 106.931 125.818 108.191 126.498C109.451 127.178 110.431 128.148 111.131 129.408C111.851 130.668 112.211 132.138 112.211 133.818ZM106.961 132.468C106.961 131.588 106.661 130.888 106.061 130.368C105.461 129.848 104.711 129.588 103.811 129.588C102.951 129.588 102.221 129.838 101.621 130.338C101.041 130.838 100.681 131.548 100.541 132.468H106.961ZM113.897 134.088C113.897 132.348 114.247 130.828 114.947 129.528C115.667 128.228 116.657 127.228 117.917 126.528C119.197 125.828 120.657 125.478 122.297 125.478C124.397 125.478 126.147 126.028 127.547 127.128C128.967 128.228 129.897 129.778 130.337 131.778H124.877C124.417 130.498 123.527 129.858 122.207 129.858C121.267 129.858 120.517 130.228 119.957 130.968C119.397 131.688 119.117 132.728 119.117 134.088C119.117 135.448 119.397 136.498 119.957 137.238C120.517 137.958 121.267 138.318 122.207 138.318C123.527 138.318 124.417 137.678 124.877 136.398H130.337C129.897 138.358 128.967 139.898 127.547 141.018C126.127 142.138 124.377 142.698 122.297 142.698C120.657 142.698 119.197 142.348 117.917 141.648C116.657 140.948 115.667 139.948 114.947 138.648C114.247 137.348 113.897 135.828 113.897 134.088ZM142.411 138.108V142.458H139.801C137.941 142.458 136.491 142.008 135.451 141.108C134.411 140.188 133.891 138.698 133.891 136.638V129.978H131.851V125.718H133.891V121.638H139.021V125.718H142.381V129.978H139.021V136.698C139.021 137.198 139.141 137.558 139.381 137.778C139.621 137.998 140.021 138.108 140.581 138.108H142.411ZM152.079 142.698C150.619 142.698 149.319 142.448 148.179 141.948C147.039 141.448 146.139 140.768 145.479 139.908C144.819 139.028 144.449 138.048 144.369 136.968H149.439C149.499 137.548 149.769 138.018 150.249 138.378C150.729 138.738 151.319 138.918 152.019 138.918C152.659 138.918 153.149 138.798 153.489 138.558C153.849 138.298 154.029 137.968 154.029 137.568C154.029 137.088 153.779 136.738 153.279 136.518C152.779 136.278 151.969 136.018 150.849 135.738C149.649 135.458 148.649 135.168 147.849 134.868C147.049 134.548 146.359 134.058 145.779 133.398C145.199 132.718 144.909 131.808 144.909 130.668C144.909 129.708 145.169 128.838 145.689 128.058C146.229 127.258 147.009 126.628 148.029 126.168C149.069 125.708 150.299 125.478 151.719 125.478C153.819 125.478 155.469 125.998 156.669 127.038C157.889 128.078 158.589 129.458 158.769 131.178H154.029C153.949 130.598 153.689 130.138 153.249 129.798C152.829 129.458 152.269 129.288 151.569 129.288C150.969 129.288 150.509 129.408 150.189 129.648C149.869 129.868 149.709 130.178 149.709 130.578C149.709 131.058 149.959 131.418 150.459 131.658C150.979 131.898 151.779 132.138 152.859 132.378C154.099 132.698 155.109 133.018 155.889 133.338C156.669 133.638 157.349 134.138 157.929 134.838C158.529 135.518 158.839 136.438 158.859 137.598C158.859 138.578 158.579 139.458 158.019 140.238C157.479 140.998 156.689 141.598 155.649 142.038C154.629 142.478 153.439 142.698 152.079 142.698Z" fill="#5038BC"/>
</g>
<defs>
<filter id="filter0_d_130_2108" x="0.385651" y="0.385651" width="308.229" height="186.144" filterUnits="userSpaceOnUse" color-interpolation-filters="sRGB">
<feFlood flood-opacity="0" result="BackgroundImageFix"/>
<feColorMatrix in="SourceAlpha" type="matrix" values="0 0 0 0 0 0 0 0 0 0 0 0 0 0 0 0 0 0 127 0" result="hardAlpha"/>
<feOffset/>
<feGaussianBlur stdDeviation="3.30717"/>
<feColorMatrix type="matrix" values="0 0 0 0 0 0 0 0 0 0 0 0 0 0 0 0 0 0 0.1 0"/>
<feBlend mode="normal" in2="BackgroundImageFix" result="effect1_dropShadow_130_2108"/>
<feBlend mode="normal" in="SourceGraphic" in2="effect1_dropShadow_130_2108" result="shape"/>
</filter>
</defs>
</svg>
