<svg width="309" height="201" viewBox="0 0 309 201" fill="none" xmlns="http://www.w3.org/2000/svg">
<g filter="url(#filter0_d_374_3000)">
<rect x="7" y="7" width="295" height="186.915" rx="10.583" fill="#C424A3"/>
<circle cx="252.189" cy="57.7267" r="23.8117" fill="#5038BC" fill-opacity="0.1"/>
<path d="M262.394 50.583H256.441V48.7971C256.441 48.3235 256.261 47.8692 255.942 47.5343C255.623 47.1994 255.191 47.0112 254.74 47.0112H249.637C249.186 47.0112 248.754 47.1994 248.435 47.5343C248.116 47.8692 247.936 48.3235 247.936 48.7971V50.583H241.984C241.532 50.583 241.1 50.7711 240.781 51.1061C240.462 51.441 240.283 51.8952 240.283 52.3689V66.6558C240.283 67.1295 240.462 67.5837 240.781 67.9187C241.1 68.2536 241.532 68.4417 241.984 68.4417H262.394C262.845 68.4417 263.277 68.2536 263.596 67.9187C263.915 67.5837 264.094 67.1295 264.094 66.6558V52.3689C264.094 51.8952 263.915 51.441 263.596 51.1061C263.277 50.7711 262.845 50.583 262.394 50.583ZM249.637 48.7971H254.74V50.583H249.637V48.7971ZM262.394 52.3689V60.4053H241.984V52.3689H262.394ZM241.984 66.6558V62.1912H262.394V66.6558H241.984Z" fill="#64E6FB"/>
<path d="M251.339 59.5124H253.04C253.265 59.5124 253.481 59.4184 253.641 59.2509C253.8 59.0834 253.89 58.8563 253.89 58.6195C253.89 58.3827 253.8 58.1556 253.641 57.9881C253.481 57.8206 253.265 57.7266 253.04 57.7266H251.339C251.113 57.7266 250.897 57.8206 250.737 57.9881C250.578 58.1556 250.488 58.3827 250.488 58.6195C250.488 58.8563 250.578 59.0834 250.737 59.2509C250.897 59.4184 251.113 59.5124 251.339 59.5124Z" fill="#64E6FB"/>
<path d="M53.6175 83.4575L46.6095 70.7375H44.6415V83.4575H36.4335V49.7615H50.2095C52.8655 49.7615 55.1215 50.2255 56.9775 51.1535C58.8655 52.0815 60.2735 53.3615 61.2015 54.9935C62.1295 56.5935 62.5935 58.3855 62.5935 60.3695C62.5935 62.6095 61.9535 64.6095 60.6735 66.3695C59.4255 68.1295 57.5695 69.3775 55.1055 70.1135L62.8815 83.4575H53.6175ZM44.6415 64.9295H49.7295C51.2335 64.9295 52.3535 64.5615 53.0895 63.8255C53.8575 63.0895 54.2415 62.0495 54.2415 60.7055C54.2415 59.4255 53.8575 58.4175 53.0895 57.6815C52.3535 56.9455 51.2335 56.5775 49.7295 56.5775H44.6415V64.9295ZM75.954 60.4655C76.754 59.2175 77.858 58.2095 79.266 57.4415C80.674 56.6735 82.322 56.2895 84.21 56.2895C86.418 56.2895 88.418 56.8495 90.21 57.9695C92.002 59.0895 93.41 60.6895 94.434 62.7695C95.49 64.8495 96.018 67.2655 96.018 70.0175C96.018 72.7695 95.49 75.2015 94.434 77.3135C93.41 79.3935 92.002 81.0095 90.21 82.1615C88.418 83.2815 86.418 83.8415 84.21 83.8415C82.354 83.8415 80.706 83.4575 79.266 82.6895C77.858 81.9215 76.754 80.9295 75.954 79.7135V96.2255H67.746V56.6735H75.954V60.4655ZM87.666 70.0175C87.666 67.9695 87.09 66.3695 85.938 65.2175C84.818 64.0335 83.426 63.4415 81.762 63.4415C80.13 63.4415 78.738 64.0335 77.586 65.2175C76.466 66.4015 75.906 68.0175 75.906 70.0655C75.906 72.1135 76.466 73.7295 77.586 74.9135C78.738 76.0975 80.13 76.6895 81.762 76.6895C83.394 76.6895 84.786 76.0975 85.938 74.9135C87.09 73.6975 87.666 72.0655 87.666 70.0175ZM99.2201 76.8815C100.308 76.0175 100.804 75.6175 100.708 75.6815C103.844 73.0895 106.308 70.9615 108.1 69.2975C109.924 67.6335 111.46 65.8895 112.708 64.0655C113.956 62.2415 114.58 60.4655 114.58 58.7375C114.58 57.4255 114.276 56.4015 113.668 55.6655C113.06 54.9295 112.148 54.5615 110.932 54.5615C109.716 54.5615 108.756 55.0255 108.052 55.9535C107.38 56.8495 107.044 58.1295 107.044 59.7935H99.1241C99.1881 57.0735 99.7641 54.8015 100.852 52.9775C101.972 51.1535 103.428 49.8095 105.22 48.9455C107.044 48.0815 109.06 47.6495 111.268 47.6495C115.076 47.6495 117.94 48.6255 119.86 50.5775C121.812 52.5295 122.788 55.0735 122.788 58.2095C122.788 61.6335 121.62 64.8175 119.284 67.7615C116.948 70.6735 113.972 73.5215 110.356 76.3055H123.316V82.9775H99.2201V76.8815ZM126.93 65.4575C126.93 59.9535 127.986 55.6175 130.098 52.4495C132.242 49.2815 135.682 47.6975 140.418 47.6975C145.154 47.6975 148.578 49.2815 150.69 52.4495C152.834 55.6175 153.906 59.9535 153.906 65.4575C153.906 71.0255 152.834 75.3935 150.69 78.5615C148.578 81.7295 145.154 83.3135 140.418 83.3135C135.682 83.3135 132.242 81.7295 130.098 78.5615C127.986 75.3935 126.93 71.0255 126.93 65.4575ZM145.842 65.4575C145.842 62.2255 145.49 59.7455 144.786 58.0175C144.082 56.2575 142.626 55.3775 140.418 55.3775C138.21 55.3775 136.754 56.2575 136.05 58.0175C135.346 59.7455 134.994 62.2255 134.994 65.4575C134.994 67.6335 135.122 69.4415 135.378 70.8815C135.634 72.2895 136.146 73.4415 136.914 74.3375C137.714 75.2015 138.882 75.6335 140.418 75.6335C141.954 75.6335 143.106 75.2015 143.874 74.3375C144.674 73.4415 145.202 72.2895 145.458 70.8815C145.714 69.4415 145.842 67.6335 145.842 65.4575ZM158.243 65.4575C158.243 59.9535 159.299 55.6175 161.411 52.4495C163.555 49.2815 166.995 47.6975 171.731 47.6975C176.467 47.6975 179.891 49.2815 182.003 52.4495C184.147 55.6175 185.219 59.9535 185.219 65.4575C185.219 71.0255 184.147 75.3935 182.003 78.5615C179.891 81.7295 176.467 83.3135 171.731 83.3135C166.995 83.3135 163.555 81.7295 161.411 78.5615C159.299 75.3935 158.243 71.0255 158.243 65.4575ZM177.155 65.4575C177.155 62.2255 176.803 59.7455 176.099 58.0175C175.395 56.2575 173.939 55.3775 171.731 55.3775C169.523 55.3775 168.067 56.2575 167.363 58.0175C166.659 59.7455 166.307 62.2255 166.307 65.4575C166.307 67.6335 166.435 69.4415 166.691 70.8815C166.947 72.2895 167.459 73.4415 168.227 74.3375C169.027 75.2015 170.195 75.6335 171.731 75.6335C173.267 75.6335 174.419 75.2015 175.187 74.3375C175.987 73.4415 176.515 72.2895 176.771 70.8815C177.027 69.4415 177.155 67.6335 177.155 65.4575ZM70.6095 123.386C73.9375 123.386 76.5775 124.394 78.5295 126.41C80.5135 128.426 81.5055 131.226 81.5055 134.81V150.458H73.3455V135.914C73.3455 134.186 72.8815 132.858 71.9535 131.93C71.0575 130.97 69.8095 130.49 68.2095 130.49C66.6095 130.49 65.3455 130.97 64.4175 131.93C63.5215 132.858 63.0735 134.186 63.0735 135.914V150.458H54.9135V135.914C54.9135 134.186 54.4495 132.858 53.5215 131.93C52.6255 130.97 51.3775 130.49 49.7775 130.49C48.1775 130.49 46.9135 130.97 45.9855 131.93C45.0895 132.858 44.6415 134.186 44.6415 135.914V150.458H36.4335V123.674H44.6415V127.034C45.4735 125.914 46.5615 125.034 47.9055 124.394C49.2495 123.722 50.7695 123.386 52.4655 123.386C54.4815 123.386 56.2735 123.818 57.8415 124.682C59.4415 125.546 60.6895 126.778 61.5855 128.378C62.5135 126.906 63.7775 125.706 65.3775 124.778C66.9775 123.85 68.7215 123.386 70.6095 123.386ZM91.374 120.89C89.934 120.89 88.75 120.474 87.822 119.642C86.926 118.778 86.478 117.722 86.478 116.474C86.478 115.194 86.926 114.138 87.822 113.306C88.75 112.442 89.934 112.01 91.374 112.01C92.782 112.01 93.934 112.442 94.83 113.306C95.758 114.138 96.222 115.194 96.222 116.474C96.222 117.722 95.758 118.778 94.83 119.642C93.934 120.474 92.782 120.89 91.374 120.89ZM95.454 123.674V150.458H87.246V123.674H95.454ZM109.61 114.938V150.458H101.402V114.938H109.61ZM123.767 114.938V150.458H115.559V114.938H123.767ZM133.843 120.89C132.403 120.89 131.219 120.474 130.291 119.642C129.395 118.778 128.947 117.722 128.947 116.474C128.947 115.194 129.395 114.138 130.291 113.306C131.219 112.442 132.403 112.01 133.843 112.01C135.251 112.01 136.403 112.442 137.299 113.306C138.227 114.138 138.691 115.194 138.691 116.474C138.691 117.722 138.227 118.778 137.299 119.642C136.403 120.474 135.251 120.89 133.843 120.89ZM137.923 123.674V150.458H129.715V123.674H137.923ZM156.063 150.842C153.439 150.842 151.071 150.282 148.959 149.162C146.879 148.042 145.231 146.442 144.015 144.362C142.831 142.282 142.239 139.85 142.239 137.066C142.239 134.314 142.847 131.898 144.063 129.818C145.279 127.706 146.943 126.09 149.055 124.97C151.167 123.85 153.535 123.29 156.159 123.29C158.783 123.29 161.151 123.85 163.263 124.97C165.375 126.09 167.039 127.706 168.255 129.818C169.471 131.898 170.079 134.314 170.079 137.066C170.079 139.818 169.455 142.25 168.207 144.362C166.991 146.442 165.311 148.042 163.167 149.162C161.055 150.282 158.687 150.842 156.063 150.842ZM156.063 143.738C157.631 143.738 158.959 143.162 160.047 142.01C161.167 140.858 161.727 139.21 161.727 137.066C161.727 134.922 161.183 133.274 160.095 132.122C159.039 130.97 157.727 130.394 156.159 130.394C154.559 130.394 153.231 130.97 152.175 132.122C151.119 133.242 150.591 134.89 150.591 137.066C150.591 139.21 151.103 140.858 152.127 142.01C153.183 143.162 154.495 143.738 156.063 143.738ZM190.754 123.386C193.89 123.386 196.386 124.41 198.242 126.458C200.13 128.474 201.074 131.258 201.074 134.81V150.458H192.914V135.914C192.914 134.122 192.45 132.73 191.522 131.738C190.594 130.746 189.346 130.25 187.778 130.25C186.21 130.25 184.962 130.746 184.034 131.738C183.106 132.73 182.642 134.122 182.642 135.914V150.458H174.434V123.674H182.642V127.226C183.474 126.042 184.594 125.114 186.002 124.442C187.41 123.738 188.994 123.386 190.754 123.386ZM231.113 137.354H222.761V145.898H214.985V137.354H206.633V130.01H214.985V121.418H222.761V130.01H231.113V137.354Z" fill="#64E6FB"/>
</g>
<defs>
<filter id="filter0_d_374_3000" x="0.385651" y="0.385651" width="308.229" height="200.144" filterUnits="userSpaceOnUse" color-interpolation-filters="sRGB">
<feFlood flood-opacity="0" result="BackgroundImageFix"/>
<feColorMatrix in="SourceAlpha" type="matrix" values="0 0 0 0 0 0 0 0 0 0 0 0 0 0 0 0 0 0 127 0" result="hardAlpha"/>
<feOffset/>
<feGaussianBlur stdDeviation="3.30717"/>
<feColorMatrix type="matrix" values="0 0 0 0 0 0 0 0 0 0 0 0 0 0 0 0 0 0 0.1 0"/>
<feBlend mode="normal" in2="BackgroundImageFix" result="effect1_dropShadow_374_3000"/>
<feBlend mode="normal" in="SourceGraphic" in2="effect1_dropShadow_374_3000" result="shape"/>
</filter>
</defs>
</svg>
