<svg width="180" height="180" viewBox="0 0 180 180" fill="none" xmlns="http://www.w3.org/2000/svg">
<circle cx="90" cy="90" r="90" fill="#5038BC"/>
<path fill-rule="evenodd" clip-rule="evenodd" d="M86.1364 0H0V92H179.979C179.731 80.337 177.313 68.816 172.845 58.0277C168.121 46.6231 161.197 36.2606 152.468 27.5319C143.739 18.8032 133.377 11.8792 121.972 7.15523C110.61 2.44869 98.4343 0.0178426 86.1364 0Z" fill="#5038BC"/>
<path fill-rule="evenodd" clip-rule="evenodd" d="M93.8421 180H179.979V88H-0.000213623C0.247971 99.663 2.66516 111.184 7.13385 121.972C11.8578 133.377 18.7818 143.739 27.5105 152.468C36.2392 161.197 46.6017 168.121 58.0063 172.845C69.3689 177.551 81.5442 179.982 93.8421 180Z" fill="#5038BC"/>
</svg>
