<svg width="180" height="180" viewBox="0 0 180 180" fill="none" xmlns="http://www.w3.org/2000/svg">
<g clip-path="url(#clip0_2406_17345)">
<circle cx="90" cy="90" r="65.8209" transform="matrix(-1 0 0 1 180 0)" stroke="#FFD668" stroke-width="48.3582"/>
<path fill-rule="evenodd" clip-rule="evenodd" d="M133.333 90H90V133.333H90.0001C90.0001 127.643 91.1209 122.008 93.2986 116.75C95.4763 111.493 98.6683 106.716 102.692 102.692C106.716 98.6682 111.493 95.4763 116.75 93.2986C122.008 91.1209 127.643 90.0001 133.333 90.0001V90Z" fill="#5038BC"/>
<path fill-rule="evenodd" clip-rule="evenodd" d="M133.333 90H90V133.333H90.0001C90.0001 127.643 91.1209 122.008 93.2986 116.75C95.4763 111.493 98.6683 106.716 102.692 102.692C106.716 98.6682 111.493 95.4763 116.75 93.2986C122.008 91.1209 127.643 90.0001 133.333 90.0001V90Z" fill="#5038BC"/>
<path fill-rule="evenodd" clip-rule="evenodd" d="M46.9996 90H90.333V133.243C90.3212 127.583 89.2007 121.98 87.0345 116.75C84.8568 111.493 81.6649 106.716 77.6411 102.692C73.6172 98.6682 68.8401 95.4763 63.5827 93.2986C58.3253 91.1209 52.6904 90.0001 46.9997 90.0001V133.333H46.9996V90Z" fill="#5038BC"/>
<path fill-rule="evenodd" clip-rule="evenodd" d="M46.9996 90H90.333V133.243C90.3212 127.583 89.2007 121.98 87.0345 116.75C84.8568 111.493 81.6649 106.716 77.6411 102.692C73.6172 98.6682 68.8401 95.4763 63.5827 93.2986C58.3253 91.1209 52.6904 90.0001 46.9997 90.0001V133.333H46.9996V90Z" fill="#5038BC"/>
<path fill-rule="evenodd" clip-rule="evenodd" d="M47.195 90.3335H90.333V47.0913C90.3212 52.7511 89.2007 58.354 87.0345 63.5835C84.8568 68.841 81.6649 73.618 77.6411 77.6419C73.6172 81.6658 68.8401 84.8577 63.5827 87.0354C58.3854 89.1882 52.8192 90.3082 47.195 90.3335ZM90.333 47.0006H46.9997V90.3335H46.9996V47.0001H90.333V47.0006Z" fill="#5038BC"/>
<path fill-rule="evenodd" clip-rule="evenodd" d="M47.195 90.3335H90.333V47.0913C90.3212 52.7511 89.2007 58.354 87.0345 63.5835C84.8568 68.841 81.6649 73.618 77.6411 77.6419C73.6172 81.6658 68.8401 84.8577 63.5827 87.0354C58.3854 89.1882 52.8192 90.3082 47.195 90.3335ZM90.333 47.0006H46.9997V90.3335H46.9996V47.0001H90.333V47.0006Z" fill="#5038BC"/>
<path fill-rule="evenodd" clip-rule="evenodd" d="M133.485 90.3335C127.861 90.3082 122.295 89.1882 117.097 87.0354C111.84 84.8577 107.063 81.6658 103.039 77.6419C99.0151 73.618 95.8231 68.841 93.6454 63.5835C91.4677 58.3261 90.3469 52.6912 90.3469 47.0006H133.68V47.0001H90.3467V90.3335H133.485Z" fill="#5038BC"/>
<path fill-rule="evenodd" clip-rule="evenodd" d="M133.485 90.3335C127.861 90.3082 122.295 89.1882 117.097 87.0354C111.84 84.8577 107.063 81.6658 103.039 77.6419C99.0151 73.618 95.8231 68.841 93.6454 63.5835C91.4677 58.3261 90.3469 52.6912 90.3469 47.0006H133.68V47.0001H90.3467V90.3335H133.485Z" fill="#5038BC"/>
</g>
<defs>
<clipPath id="clip0_2406_17345">
<rect width="180" height="180" fill="white" transform="matrix(-1 0 0 1 180 0)"/>
</clipPath>
</defs>
</svg>
